<svg  viewBox="0 0 78 20" fill="none" xmlns="http://www.w3.org/2000/svg">
<path d="M7.14246 19.9933L5.72259 19.9934C5.34507 19.9934 4.94453 20.0272 4.57577 19.9421C3.53834 19.7027 3.11637 18.7815 3.15107 17.8052C3.17157 17.229 3.14761 16.6285 3.20183 16.0641C2.36236 16.0482 0.717639 16.2359 0.414046 15.219C0.368822 15.0675 0.390239 14.9172 0.399195 14.7628L0.450449 14.0478C0.501367 13.0797 0.598962 12.1039 0.758709 11.1475L0.907937 10.1984C1.14587 8.89707 1.45507 7.6 1.81954 6.32788L2.91892 3.07213C3.25081 2.25209 3.45725 1.85972 4.40111 1.59112L4.60688 1.5394C4.67616 1.52439 4.66807 1.52806 4.70825 1.46905L4.81223 1.31576C5.12963 0.879778 5.80513 0.370538 6.31253 0.166328C6.62443 0.0407932 6.90035 0.000384075 7.23244 0.000401941L9.47031 0C10.4109 0.0244143 11.2715 0.78008 11.8484 1.46045C11.9071 1.52971 11.9082 1.54293 11.9943 1.5654L12.1913 1.61466C12.8843 1.79277 13.2304 2.11793 13.4909 2.77269L14.1598 4.61515L14.9119 7.07002C14.9161 7.09155 14.9195 7.11004 14.9267 7.13083L14.959 7.24707C14.9688 7.30067 14.9905 7.35097 15.0014 7.40492L15.8261 11.3727C15.8434 11.4452 15.8439 11.5212 15.858 11.5942L16.0894 13.6207C16.0961 13.7096 16.1123 13.7966 16.1172 13.886L16.1265 14.6584C16.1288 14.9548 16.1744 15.1935 16.0106 15.4551C15.65 16.0313 14.8128 16.0308 14.213 16.0422L13.7586 16.0603C13.2261 16.0744 13.2812 15.9306 13.2986 16.3622L13.3178 16.8698C13.3223 16.9264 13.3365 16.9813 13.3412 17.0379L13.3804 17.6408C13.4006 17.901 13.4213 18.3493 13.362 18.5805C13.1151 19.5423 12.4704 19.6499 11.6581 19.7769C11.238 19.8426 10.816 19.9111 10.3919 19.9445L9.62643 19.9917L7.14246 19.9933ZM6.86554 0.664938C6.83085 0.673228 6.7861 0.679064 6.7562 0.698831L6.74644 0.706899C6.75727 0.753957 6.79115 0.795815 6.81846 0.834755L6.99187 1.0741C7.16953 1.09889 7.36928 1.08035 7.54935 1.08057L8.81218 1.08104C9.05458 1.08115 9.30848 1.06657 9.54903 1.09632L9.59483 1.01407L9.80367 0.70999C9.59758 0.631665 9.4486 0.684861 9.23653 0.68701L7.2694 0.682626C7.13628 0.677815 6.99824 0.653611 6.86554 0.664938ZM6.12456 1.03631C5.80676 1.25948 5.45088 1.4825 5.26139 1.83471C4.90518 2.49677 5.35054 2.45965 5.49783 2.92902L5.50312 2.94324C5.57709 3.14775 5.38581 3.34331 5.28116 3.49813L4.99576 3.9335C4.88488 4.09017 4.72839 4.21155 4.79551 4.41949L4.81018 4.46467C4.83986 4.56074 4.92271 4.643 5.01097 4.68822L5.96157 5.11739L6.9335 5.53638C7.01012 5.56764 7.10818 5.6231 7.18965 5.6319C7.09032 5.24004 7.04261 4.83497 6.96521 4.43814L6.48956 1.75654C6.4388 1.41523 6.42317 1.29367 6.14861 1.0307L6.12456 1.03631ZM10.401 1.02476L10.0657 1.47823C10.0231 1.54148 10.0393 1.6937 10.0276 1.77329L9.42001 4.92008L9.23762 5.72848L10.4689 5.16501L11.4304 4.70484C11.8262 4.53109 11.8226 4.31432 11.5898 3.96379L11.2748 3.50985C10.9044 2.99492 10.9701 2.96634 11.3314 2.54058C11.4344 2.41914 11.479 2.23049 11.4289 2.07727L11.4239 2.06159C11.3263 1.76114 10.8958 1.39191 10.6541 1.20381L10.401 1.02476ZM7.15376 1.76936C7.15265 1.81807 7.15832 1.85503 7.16846 1.89856C7.25737 2.2807 7.308 2.67424 7.37372 3.06083L7.75202 5.08414C7.76484 5.14517 7.76696 5.20824 7.7785 5.26934L7.84309 5.62111C7.86216 5.73653 7.87134 5.87061 7.9173 5.97745L7.92331 5.99273C7.94966 6.05441 8.26578 6.3938 8.35375 6.47291C8.48967 6.24361 8.49729 5.94732 8.57208 5.69561L9.31713 1.92839C9.32286 1.88719 9.34665 1.8042 9.33881 1.76791L7.15376 1.76936ZM4.48995 2.27348C3.70798 2.52077 3.66008 2.93248 3.40013 3.63726L2.91885 5.00952C2.49868 6.25684 2.14837 7.5278 1.86249 8.81238L1.70274 9.48509L1.3451 11.569L1.02807 14.9687C1.01578 15.2553 1.5191 15.3646 1.75614 15.3654L2.22924 15.3675C2.3191 15.3696 2.40846 15.3898 2.499 15.3938L3.24983 15.3999L3.36502 13.9447L3.65854 11.9373L3.93292 10.6205L4.44892 8.82971C4.50337 8.64511 4.51891 8.43125 4.71272 8.34138L4.7296 8.33328C5.01555 8.20104 5.20719 8.51051 5.13809 8.79139L4.74208 10.139C4.5276 10.8759 4.28261 11.8915 4.19261 12.6665L3.9268 14.8533L3.87182 15.9748C3.86507 16.0999 3.84093 16.223 3.83727 16.3488L3.80873 17.9367C3.80288 18.7307 4.17206 19.2952 5.04333 19.2957L7.93934 19.299L7.94209 12.3462C7.94332 12.2084 7.96688 12.0732 7.96777 11.9347L7.98093 7.53427C7.98642 7.43253 8.01621 7.2979 7.98825 7.20018L7.9828 7.18075C7.78833 6.50221 7.03116 6.2969 6.45647 6.05649L5.23624 5.52302C5.00787 5.4215 4.73693 5.32797 4.53917 5.17376C4.15268 4.87238 4.00528 4.29811 4.22803 3.85545C4.27292 3.76625 4.34034 3.68398 4.39874 3.60289L4.70479 3.17647C4.73887 3.12789 4.78054 3.08153 4.81047 3.03061C4.57716 2.76565 4.54524 2.59789 4.48995 2.27348ZM12.1101 2.28829C12.0916 2.54829 11.9823 2.78508 11.8203 2.98874C11.7178 3.1176 11.8071 3.1178 11.9282 3.29101C12.0918 3.52504 12.2771 3.75125 12.3795 4.02007C12.5879 4.56707 12.1942 5.08476 11.7108 5.31571L9.85646 6.19216C9.26395 6.4617 8.97465 6.5663 8.73026 7.2316C8.61996 7.53184 8.63296 7.79032 8.6326 8.10914L8.63014 11.9819C8.62894 12.1039 8.5997 12.2267 8.5985 12.3514L8.59691 19.1113C8.59676 19.1739 8.58691 19.2336 8.59537 19.296L10.1481 19.2883C10.2235 19.2836 10.2964 19.268 10.3713 19.2605L11.9989 19.0388C12.916 18.8673 12.7582 18.1805 12.7024 17.4244L12.6894 16.9718L12.5053 14.3874L12.3079 12.7085C12.2012 12.0368 12.0977 11.3637 11.9327 10.7029L11.3732 8.75874C11.2889 8.45414 11.5942 8.19566 11.86 8.38125C12.0139 8.48878 12.1448 9.11412 12.2179 9.30505L12.2423 9.38453C12.2465 9.40248 12.2518 9.41575 12.2584 9.43261L12.513 10.3519C12.5166 10.3684 12.5215 10.3821 12.5268 10.398L12.5699 10.5678C12.793 11.3316 12.9051 12.2824 13.0217 13.0681L13.1111 13.8163C13.1261 13.9225 13.1291 14.0331 13.1379 14.1401L13.2137 15.1917C13.2183 15.2582 13.2101 15.3387 13.2348 15.401C13.5516 15.4001 13.8616 15.3671 14.1777 15.3659C14.5092 15.3646 14.8199 15.3646 15.1432 15.2778C15.5111 15.179 15.4898 15.0503 15.4898 14.7299L15.4814 14.1122C15.4776 13.9939 15.4848 13.875 15.4757 13.7569L15.4226 13.2915C15.3808 12.8231 15.3397 12.3522 15.2612 11.8881L15.0014 10.2949L14.2708 7.16109L12.9761 3.26401C12.7773 2.74028 12.7047 2.45058 12.1101 2.28829Z" fill="black"/>
<path d="M27.6801 19.4597C27.3481 19.14 27.5918 19.0826 27.259 19.4352C26.5595 20.1763 25.408 20.0294 24.4997 19.8729L22.845 19.5721C22.3438 19.4787 21.8002 19.2565 21.7307 18.6642C21.7043 18.4396 21.7605 18.2365 21.797 18.0182L21.949 17.1115L20.8173 16.9506C20.7477 16.9425 20.6768 16.9388 20.6093 16.9188L20.5924 16.9136C20.4132 16.8596 20.2923 16.7206 20.25 16.5365L20.2456 16.5155C20.2124 16.3631 20.2166 16.1903 20.204 16.0337L20.1631 15.369C20.1576 15.2864 20.1388 15.2054 20.135 15.1225L20.134 12.5492C20.1382 12.4431 20.1609 12.339 20.1666 12.233L20.4451 9.60798C20.6348 8.54169 20.9017 7.49486 21.2308 6.46309L21.4283 5.92078C21.7286 5.10888 22.0443 4.30865 22.6912 3.71197C22.782 3.6282 22.8835 3.52574 22.9943 3.4705L22.9816 3.28321C22.8376 1.62129 24.2631 0.530086 25.7345 0.174401C26.1324 0.078231 26.5477 0.03114 26.9554 0L28.3307 0.0447123C29.7067 0.198055 31.1318 0.754429 31.7101 2.1155C31.8831 2.52256 31.9275 2.99669 31.8477 3.42898C31.8366 3.48937 32.0029 3.57106 32.0505 3.60729C32.6017 4.02735 32.9793 4.75957 33.2324 5.40272L33.6019 6.39308L33.9488 7.51882L34.3023 8.98993L34.5315 10.257C34.5494 10.3323 34.553 10.4118 34.5644 10.4884L34.7223 12.119L34.7314 12.7862C34.7337 12.8927 34.7513 12.9976 34.7526 13.1044L34.7511 13.7568C34.7488 13.8251 34.7342 13.8924 34.7325 13.9607L34.7242 15.0079L34.6319 16.4886C34.5864 16.9335 34.219 16.9377 33.8599 16.9879L32.9028 17.1167L33.1031 18.1687C33.2603 18.6949 32.986 19.2709 32.4599 19.462C32.2346 19.5438 31.9731 19.567 31.7376 19.6115L29.8775 19.9502C29.7567 19.9658 29.6383 19.9871 29.5161 19.9925L29.0991 19.9954C28.6009 19.9942 28.1303 19.8848 27.7522 19.5307L27.6801 19.4597ZM27.0476 0.662859C26.8266 0.670702 26.6099 0.693602 26.3912 0.726189L25.9703 0.808707C25.2842 0.967052 24.4478 1.33404 24.0224 1.93177L23.8646 2.17453C23.6165 2.62209 23.518 3.24353 23.8139 3.69343C23.9403 3.88576 24.1194 4.00367 24.2849 4.15607C24.529 4.3808 24.6542 4.65875 24.81 4.94396L26.3299 7.75744L27.1223 9.39639C27.2137 9.2337 27.265 8.69504 27.2668 8.48018L27.2675 7.94912C27.2669 6.88814 27.1505 6.50768 26.6557 5.52307L25.8965 4.05362C25.6844 3.64265 25.3225 3.15523 25.3969 2.66556C25.5599 1.59274 26.4117 1.11291 27.4316 1.11148C28.8523 1.1095 29.9663 2.22043 29.2347 3.56719L27.7932 6.16586C27.6856 6.33336 27.7342 6.34963 27.7901 6.53321L27.8714 6.94879C27.8987 7.06781 27.8993 7.20545 27.9091 7.32786C27.9819 8.23454 27.974 9.16474 27.5952 10.0061L27.5197 10.1642C27.4798 10.2421 27.4775 10.2448 27.5071 10.3303C27.6509 10.7466 27.7377 11.2041 27.7613 11.6451L27.7652 18.2937L28.3858 18.2862C29.4082 18.2846 30.2677 18.1015 31.273 17.9237L32.3409 17.7367L31.9532 15.5441C31.3726 15.4263 30.9795 14.991 30.722 14.4799C30.603 14.2243 30.1304 12.9438 30.2202 12.6651C30.3132 12.3762 30.7064 12.3572 30.8256 12.6467L30.9977 13.2998C31.0012 13.3163 31.0064 13.3311 31.012 13.3469L31.2024 13.9193C31.2693 14.1149 31.5737 14.725 31.8142 14.7682L31.8116 14.7585C31.7849 14.6582 31.7766 14.5553 31.7614 14.453L31.2639 10.9688C31.2389 10.7492 31.2198 10.5372 31.22 10.3162L31.247 9.07561C31.2545 8.8273 31.4453 8.57022 31.6982 8.70326L31.7484 8.73671C31.9275 8.86453 31.8836 9.12346 31.8832 9.31172L31.8781 10.2004C31.8765 10.6108 31.9075 10.872 31.9621 11.2853L32.4348 14.4416C32.4595 14.6203 32.4744 14.8087 32.516 14.9839L32.7654 16.4569C32.9159 16.4357 33.973 16.3035 34.0054 16.2815C34.0139 16.0101 34.037 15.7538 34.047 15.4907L34.0803 14.5801L34.0443 11.8153L33.8251 9.95684L33.7125 9.38793C33.4933 8.24368 32.7341 5.27887 31.9374 4.42275L31.5882 4.08662C31.4737 4.19476 31.3845 4.32894 31.2676 4.4392C30.953 4.73591 31.0168 4.62932 30.8049 5.01416L30.4947 5.55124L29.1686 7.61002C29.0703 7.75236 28.9732 7.90641 28.7787 7.89997C28.6392 7.89538 28.5338 7.79879 28.4915 7.67045L28.4854 7.65264C28.4194 7.44738 28.581 7.26925 28.6907 7.11481L29.4555 5.97106L30.0686 4.96796C30.4007 4.39177 30.3637 4.37956 30.844 3.91343C31.1765 3.59074 31.2997 3.14452 31.2013 2.68978L31.199 2.67848C30.9417 1.47471 29.6414 0.902381 28.5384 0.75263L28.2024 0.709729C28.0205 0.69365 27.8431 0.669169 27.6604 0.664693L27.0476 0.662859ZM27.1347 1.78868C26.7789 1.84121 26.468 1.95959 26.2454 2.25704C25.9776 2.61513 26.0162 2.82748 26.191 3.18402L27.4079 5.52161L27.5381 5.29291L28.4599 3.61292C28.6274 3.31109 28.881 2.99164 28.7837 2.62906C28.5738 1.84705 27.8355 1.75781 27.1347 1.78868ZM23.3051 4.06614C22.4858 4.69298 22.062 6.04033 21.7642 6.99179L21.353 8.47552C21.2192 9.00291 21.1064 9.54602 21.0329 10.0857L20.8061 12.2138C20.766 12.418 20.7916 12.657 20.7883 12.8658L20.7884 15.0093C20.7918 15.0852 20.8116 15.1593 20.8159 15.2351C20.828 15.4456 20.8304 16.1789 20.8896 16.2865L22.0911 16.4626C22.1114 16.2399 22.1516 16.027 22.1877 15.807L22.895 11.299C22.9549 10.8902 22.9871 10.5712 22.9856 10.1608L22.9809 9.13031C22.98 8.98407 22.969 8.86086 23.0919 8.75517C23.2487 8.62041 23.4645 8.6568 23.565 8.84048L23.5859 8.8787C23.6129 8.92994 23.6109 8.99875 23.6116 9.05487L23.6152 9.37902C23.6514 10.1956 23.6307 10.7367 23.5251 11.5378L23.1229 14.1887C23.095 14.3786 23.054 14.5668 23.038 14.7581C23.2372 14.5863 23.4051 14.3558 23.5326 14.1267C23.7241 13.7864 23.8289 13.4133 23.9266 13.0377C23.9879 12.802 24.0788 12.2482 24.482 12.4726C24.7444 12.6187 24.6244 12.9552 24.5684 13.1825C24.372 13.9791 24.0826 14.8202 23.3866 15.3132C23.2478 15.4115 23.1036 15.4967 22.9325 15.5214L22.8964 15.525L22.5193 17.7468L24.2188 18.0332C24.7567 18.124 25.3034 18.2374 25.8484 18.2757C26.2636 18.3048 26.6886 18.2871 27.105 18.2869L27.1032 18.2728C27.0807 18.0821 27.0953 17.8744 27.0952 17.6817L27.096 11.9713C27.0959 11.7581 27.1092 11.5301 27.07 11.3201C26.9628 10.7453 26.8131 10.2874 26.5603 9.75062L25.4625 7.51867L23.9623 4.77415C23.8125 4.51217 23.4693 4.44244 23.3051 4.06614ZM32.4206 18.3984L29.056 18.9433C28.9644 18.9637 28.8659 18.9601 28.7724 18.9612L28.3382 18.9685C28.2794 18.9711 28.2074 18.9678 28.152 18.9863C28.2359 19.071 28.3082 19.1291 28.4139 19.1849C28.9043 19.4643 29.6275 19.3264 30.1473 19.2351L31.7453 18.9311C32.0363 18.8756 32.5374 18.8245 32.4806 18.4088C32.4592 18.4019 32.4433 18.3958 32.4206 18.3984ZM22.3918 18.41C22.3864 18.4557 22.3832 18.4936 22.3916 18.5389L22.3939 18.5519C22.4454 18.818 22.671 18.8532 22.8949 18.8933L25.1871 19.3062C25.6489 19.3518 26.1504 19.3949 26.5669 19.1472C26.6363 19.0976 26.7192 19.049 26.7782 18.9874C26.4848 18.9225 26.0991 18.9805 25.7885 18.9507C25.1411 18.8886 24.501 18.766 23.861 18.6523L22.783 18.4649C22.678 18.4473 22.4956 18.3901 22.3918 18.41Z" fill="black"/>
<path d="M47.6338 19.9939C47.0191 20.0192 46.4082 19.9602 45.7954 19.9206L45.2069 19.8767C44.9429 19.8613 44.6806 19.8405 44.4167 19.8238L44.1339 19.7978C43.3891 19.7541 43.0725 19.4621 42.8261 18.7396L42.5673 18.0406C42.52 17.9102 42.3665 17.8889 42.2346 17.8129C41.9307 17.6378 41.9916 17.4789 41.9026 17.9968C41.7644 18.8015 41.1554 19.2834 40.3444 19.3523L40.326 19.3538C39.9819 19.3831 39.5963 19.3618 39.2809 19.2089C38.8877 19.0182 38.7548 18.7306 38.7542 18.3275L38.7527 10.7761C38.7524 10.2147 38.7705 9.9416 38.9989 9.4018L39.8071 7.55061L40.4732 5.37495C40.5781 4.96807 40.6592 4.56291 40.8807 4.19814C41.3084 3.49394 42.0791 3.17788 42.8295 2.94502L43.7702 2.68638C44.3486 2.55128 44.4532 2.08905 44.6752 1.60774C45.2009 0.46778 46.0374 0.066741 47.289 0.00265647C47.4321 -0.00730258 47.5897 0.0127168 47.7314 0.0299852C48.906 0.173107 49.5724 0.550794 50.0636 1.62885L50.2379 2.06621C50.4368 2.54374 50.7312 2.64186 51.1996 2.75065L52.2372 3.05063C53.0343 3.30751 53.6584 3.61568 53.9962 4.46848L54.0761 4.66913C54.2095 5.00621 54.2535 5.37184 54.378 5.71058L54.7161 6.8108L55.1306 7.91527C55.2159 8.13571 55.323 8.34997 55.4209 8.56505L55.7684 9.35915C55.8451 9.54096 55.9316 9.73381 55.9704 9.92828L56.0725 10.3486C56.1111 10.5003 56.1415 10.6712 56.1474 10.8279L56.1513 17.8068C56.172 18.6117 55.7078 19.2861 54.8696 19.3987C54.0397 19.5102 53.048 19.028 52.8655 18.1538C52.8294 17.9814 52.8234 17.8044 52.7854 17.6325C52.607 17.7438 52.424 17.8969 52.2128 17.938C52.1923 17.942 52.1933 17.9635 52.1868 17.9825L51.9715 18.5541C51.6012 19.5219 51.5072 19.7202 50.3811 19.7912L47.95 19.99C47.8455 19.9971 47.7386 19.9937 47.6338 19.9939ZM47.205 0.655993C46.7385 0.677705 45.9211 0.860969 45.6315 1.27796C45.6683 1.93484 46.164 2.4932 46.7597 2.73845C46.9564 2.81942 47.1609 2.87539 47.351 2.97228L47.4638 2.92097C48.1035 2.69394 48.659 2.43894 48.9718 1.78154C49.0333 1.65224 49.1271 1.4041 49.0808 1.2642C48.9967 1.00982 48.2092 0.761123 47.9742 0.715173C47.7138 0.664237 47.4708 0.652899 47.205 0.655993ZM45.1773 2.03583C45.0453 2.48851 44.7286 2.9469 44.3111 3.17608C44.0349 3.32776 43.7085 3.37653 43.405 3.45201C43.1837 3.50703 42.9645 3.58671 42.7487 3.66071C41.3264 4.14859 41.3644 4.5391 40.9856 5.92009L40.4245 7.71831C40.2586 8.19407 40.0468 8.65049 39.8396 9.10913C39.6341 9.56401 39.397 10.0063 39.385 10.5166L39.3837 14.8516C39.3837 15.1849 39.3617 18.4433 39.397 18.5276L39.4145 18.5615C39.4641 18.6582 39.5642 18.7077 39.6646 18.7379L39.6979 18.7472C40.2387 18.9001 41.0837 18.6577 41.2341 18.0493L41.3534 17.4621L41.9804 14.9826C42.3938 13.3058 42.7953 11.9221 42.7936 10.1849L42.7769 9.58321C42.773 9.49107 42.7765 9.40079 42.766 9.30874L42.627 8.37925L42.5495 8.03272C42.5176 7.90374 42.46 7.76484 42.4623 7.63168C42.467 7.35812 42.8628 7.17735 43.0567 7.54579L43.0663 7.56294C43.2177 7.83943 43.3251 8.69044 43.3702 9.01896C43.3999 9.23473 43.4193 9.45969 43.4206 9.67729L43.4213 10.1767C43.4212 10.5233 43.4239 10.8586 43.3963 11.2034L43.0776 13.22L42.2953 16.3658C42.2444 16.5595 42.2066 16.7644 42.142 16.9534C42.5375 17.3711 43.0944 17.482 43.6362 17.5671L45.0803 17.7338C45.3557 17.7577 45.6244 17.8151 45.9037 17.8226L47.0454 17.8234C47.0685 17.6488 47.0475 17.4548 47.0463 17.2781L47.0457 4.51163C47.0456 4.18404 47.0638 3.84465 47.0424 3.51822C46.9911 3.49423 46.9357 3.48826 46.8821 3.47111L46.5374 3.3441C45.9521 3.09606 45.4274 2.62902 45.1773 2.03583ZM49.5392 2.05111L49.5324 2.07132C49.351 2.58618 48.7529 3.08373 48.2799 3.29849L47.7794 3.48629C47.7475 3.49634 47.7045 3.50059 47.6791 3.5224L47.6783 17.827C47.8798 17.8277 48.0866 17.8314 48.2876 17.8176L50.1781 17.6537C51.0229 17.5727 51.9608 17.5805 52.6077 16.9401L52.3044 15.8975L51.5133 12.6657L51.3246 11.3145C51.3212 11.272 51.3223 11.2261 51.31 11.1852C51.2301 10.9205 51.2873 9.46991 51.3477 9.01843C51.3979 8.64344 51.4588 8.27468 51.5477 7.90659C51.6065 7.66318 51.6847 7.24808 52.0385 7.34665C52.4473 7.46054 52.1305 8.15936 52.0852 8.47572C51.855 9.66698 51.8695 10.9091 52.0571 12.1058L52.5906 14.5188C52.6257 14.6585 52.6524 14.8044 52.6978 14.9412L53.4559 17.6856C53.494 17.8233 53.4729 17.9774 53.5117 18.1211C53.6352 18.5785 54.2551 18.8008 54.6776 18.759L54.857 18.7371C55.1689 18.6861 55.4854 18.3756 55.5174 18.0532C55.5306 17.9196 55.5206 17.7776 55.5208 17.6429L55.5204 11.209C55.5197 10.2447 55.1987 9.63206 54.8154 8.77327L54.1472 7.11164L53.7479 5.83061C53.4462 4.73798 53.4044 4.15708 52.2877 3.75395L51.3301 3.45847C50.5125 3.24651 49.9941 3.17623 49.6299 2.24641C49.618 2.21592 49.5618 2.05415 49.5392 2.05111ZM43.2878 18.1724L43.5123 18.7689C43.5693 18.9208 43.7056 19.0554 43.8529 19.12L43.9373 19.1518C44.0168 19.1784 44.1221 19.1654 44.2055 19.1722L46.2134 19.3284C46.4884 19.3457 46.7624 19.3268 47.0377 19.3527L47.0441 18.7547C47.0438 18.6587 47.0517 18.5527 47.0373 18.4583C46.4745 18.4457 45.9132 18.4657 45.3509 18.4271L43.2878 18.1724ZM51.4073 18.1815L47.6735 18.463L47.6752 18.9882C47.6743 19.1046 47.6581 19.2372 47.6731 19.3517L47.6945 19.3591L50.5026 19.1316C50.8038 19.1025 51.0482 19.1207 51.1993 18.794L51.4073 18.1815Z" fill="black"/>
<path d="M43.7054 15.1111C43.315 15.1827 43.1463 14.6047 43.7136 14.4491C44.2297 14.3075 44.6597 13.8266 44.7503 13.2995C44.7818 13.1161 44.7721 12.9213 44.7723 12.7356L44.7726 11.9371C44.7728 11.697 44.7429 11.4508 45.0351 11.3799C45.3536 11.3592 45.4094 11.5573 45.41 11.8028L45.4105 12.1573C45.4108 12.4959 45.4276 12.8455 45.4074 13.183C45.3525 14.0971 44.6275 14.9725 43.7054 15.1111Z" fill="black"/>
<path d="M51.1046 15.1253C51.0053 15.1292 50.8956 15.0913 50.8028 15.0584C49.8799 14.731 49.3168 13.9764 49.315 13.0027L49.3154 11.981C49.3159 11.7311 49.2884 11.454 49.5993 11.3794C49.7109 11.3727 49.826 11.3974 49.8902 11.4979L49.8977 11.5098C49.994 11.6557 49.9576 11.8185 49.9576 11.9851L49.9554 12.7639C49.9533 13.0643 49.9306 13.365 50.0744 13.6406L50.1048 13.7003C50.2615 14.0191 50.5499 14.2635 50.8735 14.3995C51.0741 14.4837 51.237 14.4703 51.3388 14.6979L51.3545 14.7348C51.4198 14.9316 51.2843 15.0734 51.1046 15.1253Z" fill="black"/>
<path d="M69.9435 16.297L69.0335 11.6593C69.0122 11.8381 68.9729 12.0153 68.9393 12.1922L67.9019 17.3241L67.6029 19.2951C67.5704 19.7464 67.6164 19.9636 67.0429 19.9645L66.4982 19.9635C66.3437 19.9622 66.2016 19.9406 66.05 19.9239L65.695 19.8997C65.5689 19.8887 65.4442 19.8703 65.3173 19.868L63.0056 19.8697C61.2306 19.8714 60.0135 18.5505 60.1645 16.7997C60.1756 16.6706 60.1978 16.5463 60.1998 16.4159L60.2052 15.2457C60.2099 15.1112 60.2352 14.9779 60.2428 14.8434L60.4394 12.4299L60.7519 9.75799L61.1965 6.98106C61.2401 6.74562 61.2081 6.53711 61.2469 6.34592C61.4151 5.51692 61.8675 4.86294 62.3708 4.19457L62.7885 3.64391C63.6656 2.37546 63.6371 1.73504 63.6579 0.307151C63.6606 0.128156 63.7909 0.0353431 63.9599 0C64.0742 0.0045858 64.1564 0.0548955 64.2576 0.0999246C64.7361 0.312807 65.2604 0.334846 65.7747 0.335285L72.4849 0.335358C72.9205 0.335114 73.3147 0.322802 73.7344 0.179304C74.0003 0.088393 74.2449 -0.174714 74.4666 0.211827L74.4757 0.227917C74.5281 0.318951 74.5136 0.464009 74.5151 0.56733L74.5139 1.26285C74.505 3.1657 75.9543 4.04997 76.5871 5.59944L76.6473 5.74489C76.7507 5.97308 76.7931 6.23765 76.8306 6.48425L77.4765 10.5466C77.5359 10.9197 77.5608 11.2992 77.6053 11.6741L77.8409 13.9815C77.8984 14.6448 77.9106 15.3108 77.9511 15.9699L77.9998 17.023C78.0006 18.3879 77.1711 19.4858 75.8004 19.7643C75.5296 19.8193 75.2414 19.8545 74.965 19.8644L72.6627 19.9218C72.1376 19.96 71.5997 20.0172 71.0726 19.9951C70.7083 19.9798 70.6735 19.7834 70.6208 19.5022L69.9435 16.297ZM64.3326 0.865345C64.3235 0.960645 64.3244 1.05173 64.3295 1.14725C64.7482 1.37249 65.1874 1.48312 65.6526 1.56282L66.5915 1.68867C66.6678 1.69876 66.7399 1.72826 66.8157 1.73784C67.1334 1.77799 67.46 1.78124 67.7792 1.80847C67.8824 1.81727 67.9789 1.84475 68.0839 1.84923L70.1568 1.85345C70.2971 1.85223 70.4468 1.85613 70.5856 1.83326L70.7177 1.81866C70.8827 1.79148 71.0566 1.80123 71.2233 1.78248L71.8145 1.70349C72.3628 1.63301 72.9181 1.55741 73.4279 1.32865L73.8125 1.11204C73.8062 1.02871 73.8035 0.942775 73.7846 0.861298L72.9161 1.03108C72.8219 1.05243 72.7186 1.0459 72.6226 1.04607L65.3759 1.0428C65.0265 1.02376 64.6743 0.934583 64.3326 0.865345ZM73.8578 1.8682C73.4857 2.06414 73.0815 2.19393 72.6703 2.27943L72.2216 2.35655C72.1845 2.36259 72.1146 2.36181 72.0855 2.3809L72.0832 3.1079C72.0827 3.30384 72.1221 3.49273 71.9681 3.64257C71.7803 3.82539 71.5192 3.70639 71.4227 3.48868L71.4157 3.47393C71.3524 3.33292 71.3812 2.65824 71.3922 2.47959L70.2323 2.54349L70.2301 6.30979C70.2299 7.00305 70.1894 7.56287 69.5461 7.99549C69.4017 8.09259 69.4287 8.05627 69.4231 8.24879L69.4371 9.76647C69.4439 9.94076 69.4312 10.1177 69.4538 10.2906L71.2649 19.3303L71.659 19.3185C71.9502 19.3264 72.2466 19.2859 72.536 19.2643L73.7276 19.1913C73.8154 19.185 73.9011 19.1658 73.9889 19.1606L74.9777 19.1272C75.3312 19.1179 75.6626 19.1283 75.9971 18.9946C76.7301 18.7018 77.2478 18.0559 77.3094 17.2652C77.3341 16.9481 77.2999 16.6356 77.2836 16.3196L77.2675 15.5446L77.1186 13.1138L76.6757 9.33368L76.3501 7.36652C76.2776 6.95587 76.2525 6.53011 76.1189 6.1336C75.6539 4.75328 74.4571 4.02184 74.008 2.46474C73.9522 2.27117 73.9278 2.05436 73.8578 1.8682ZM64.287 1.90401C64.2249 2.10095 64.191 2.30725 64.1322 2.50646C64.0168 2.89775 63.8155 3.31147 63.6043 3.66197C63.0493 4.58325 62.2132 5.27164 61.9152 6.3547C61.8693 6.5217 61.8689 6.70859 61.8493 6.88054L61.2951 10.6282L61.1249 12.0886L60.9289 14.3844L60.9098 14.9532C60.9036 15.0719 60.8801 15.1892 60.8749 15.3089L60.8682 16.5346C60.8625 16.8319 60.7756 17.1304 60.846 17.4277C61.0685 18.367 61.6617 19.0206 62.6609 19.1455C62.9161 19.1774 63.195 19.1569 63.4527 19.1569L65.2116 19.1593C65.3302 19.1624 65.4419 19.1854 65.5588 19.1933L66.5998 19.2704C66.7008 19.279 66.8251 19.3023 66.9246 19.2816C66.9397 18.8545 67.0063 18.4444 67.0759 18.0235L67.7024 14.7149L68.405 11.3253C68.5371 10.6369 68.5881 9.92704 68.6688 9.23114C68.7129 8.85141 68.735 8.46955 68.741 8.08779C68.2848 7.90819 68.0636 7.56517 67.9348 7.09508C67.895 6.95007 67.9115 6.77897 67.9114 6.62955L67.9087 2.52477L66.7407 2.42059C66.6943 2.81266 66.9062 3.77402 66.3413 3.70561L66.3244 3.70369C66.0347 3.66675 66.0472 3.39814 66.0468 3.19267L66.0458 2.58191C66.0453 2.30279 66.1225 2.32558 65.8599 2.2887L64.9867 2.12735C64.8252 2.09078 64.6565 2.05273 64.5002 1.99814C64.4275 1.97274 64.3595 1.92449 64.287 1.90401ZM68.5755 2.61022L68.5706 6.58377C68.571 6.96207 68.6452 7.30177 69.0329 7.48693L69.368 7.2465C69.5845 6.98423 69.5557 6.72024 69.5536 6.40533L69.5493 2.60929L68.5755 2.61022Z" fill="black"/>
</svg>
