<svg  viewBox="0 0 87 20" fill="none" xmlns="http://www.w3.org/2000/svg">
<path d="M14.5881 16.4446C14.5202 17.0835 13.8634 17.5715 13.3279 17.8171C12.8678 18.028 12.3632 18.0607 11.8721 18.1529C11.0739 18.3029 10.2171 18.5961 9.54944 19.0765C9.42961 19.1626 9.32416 19.2631 9.20841 19.3537C8.68605 19.7622 7.6561 20.1104 6.99032 19.9672C6.49911 19.8616 6.03547 19.7674 5.61727 19.4731C5.43445 19.3444 5.27103 19.1856 5.08778 19.0546C4.36774 18.5395 3.50369 18.2702 2.63944 18.1242C1.77511 17.9782 1.28551 17.932 0.610736 17.3311C-0.0272817 16.763 -0.116021 15.9047 0.331035 15.1902L0.683379 14.6682C0.905524 14.3044 1.01675 13.9109 1.14734 13.5097L1.38462 12.8323C1.53447 12.42 1.69807 12.0002 1.81516 11.5776C2.13898 10.409 2.10516 9.47355 1.69809 8.34882L1.12268 6.92241C0.77539 6.06413 0.606344 5.23408 0.694513 4.31477L0.746689 3.87C0.798536 3.46065 0.779848 3.44407 1.15459 3.26435C1.89936 2.9072 1.96706 2.22717 1.96745 1.51195L1.96989 0.428006C1.97112 0.380902 1.96851 0.325792 1.98585 0.281315L1.99117 0.268607C2.05889 0.0984367 2.16177 0.0354474 2.34652 0.0205675L3.26782 0.018209C3.58986 0.0183935 3.71718 -0.0340573 3.91666 0.262502C3.98068 0.357676 3.95773 0.526493 3.95799 0.636916L3.95878 1.10158C3.9603 1.54062 3.983 2.08896 4.14366 2.49664L4.31275 2.9697C4.96772 4.51812 5.92433 5.11071 7.33994 5.78491L7.36647 5.77591C7.52353 5.7106 7.6794 5.61617 7.83213 5.53914C9.09246 4.90347 10.0464 4.00523 10.482 2.61129C10.565 2.34573 10.6477 2.0589 10.6728 1.78073L10.7105 0.667846C10.7108 0.564831 10.6926 0.407351 10.7318 0.312652L10.7391 0.296057C10.9088 -0.103861 11.3937 0.0172384 11.7585 0.0171989L12.1874 0.0176469C12.3954 0.0181168 12.5681 0.0168037 12.6699 0.234761L12.6753 0.246647C12.7118 0.325329 12.7021 0.423726 12.7027 0.508838L12.7036 1.60339C12.7037 1.88458 12.7131 2.13672 12.7736 2.40968L12.7825 2.44811C13.0307 3.25456 13.7743 3.21714 13.8751 3.55899L13.8807 3.57904C13.9096 3.67043 13.9147 3.76583 13.9255 3.861L13.9749 4.33665C14.0634 5.20485 13.884 6.05421 13.5638 6.85971L13.0014 8.27842C12.8717 8.62918 12.7483 8.95258 12.6954 9.327C12.6271 9.81026 12.632 10.2595 12.6951 10.7379L12.7628 11.1335C12.8122 11.4218 12.8677 11.7012 12.975 11.9749L13.6068 13.7629C13.6969 14.0834 13.8378 14.4223 14.0098 14.7071C14.3419 15.2572 14.7324 15.7628 14.5881 16.4446ZM2.71823 0.765191C2.69316 0.848124 2.7125 0.947448 2.71277 1.0316L2.71208 1.74735C2.71125 2.01577 2.69535 2.27603 2.62613 2.53768C2.46238 3.15662 2.08226 3.68113 1.48649 3.92929C1.3963 4.78405 1.38075 5.09334 1.58735 5.97227L1.69331 6.31851L2.51572 8.44312C2.55839 8.58276 2.6163 8.7237 2.64043 8.86799L2.69311 9.12993C2.70782 9.19111 2.70848 9.25374 2.71522 9.31602L2.75106 9.61926C2.83106 10.5387 2.66024 11.4512 2.35544 12.3137L2.01546 13.2769C1.78093 13.9624 1.58911 14.6645 1.18786 15.2764C0.847682 15.7951 0.486466 16.1981 1.11267 16.7822C1.64513 17.2789 2.35115 17.3046 3.0312 17.4246C3.8877 17.5759 4.7712 17.9197 5.48821 18.421C6.0042 18.7818 6.35483 19.1659 7.0398 19.2108C7.61244 19.2483 8.17683 19.1611 8.65755 18.8288C8.82368 18.7139 8.96771 18.5719 9.13487 18.4572C9.81698 17.9893 10.6119 17.6336 11.4229 17.4673L12.4201 17.291C12.9389 17.1926 13.8093 16.8806 13.8534 16.2714C13.8733 15.9959 13.8103 15.7691 13.662 15.5378C13.5394 15.3482 13.4009 15.1733 13.2984 14.9706C13.0322 14.4443 12.8746 13.8848 12.6764 13.3321C12.1694 11.9188 11.742 10.7149 11.9674 9.19302C12 8.97257 12.048 8.74438 12.1165 8.53225L12.7608 6.89122L12.9715 6.30753C13.2034 5.61415 13.3052 5.00659 13.227 4.28148C13.2146 4.16721 13.1875 4.05675 13.1832 3.94115L13.1715 3.93612C12.4403 3.6145 12.0944 2.93509 11.97 2.18949C11.9447 2.03764 11.9603 1.86328 11.9604 1.70859L11.9599 0.763891L11.4526 0.763546C11.4397 0.832379 11.4519 0.904859 11.4537 0.974722L11.4541 1.35223C11.4322 3.04443 10.4936 4.71482 9.1061 5.66449C8.65985 5.96988 8.19023 6.21838 7.69686 6.43905C7.38316 6.57937 7.3652 6.61308 7.02188 6.46123L6.61024 6.27297C6.29427 6.11431 5.97352 5.94713 5.67902 5.7511C4.02712 4.65146 3.21962 2.98221 3.21887 1.03819C3.21885 0.951071 3.22785 0.853761 3.21496 0.76782L2.71823 0.765191Z" fill="black"/>
<path d="M26.4794 19.9699L25.4452 19.9068C24.6159 19.8311 22.6712 19.5236 22.3186 18.5973L22.3101 18.5741C22.2367 18.3827 22.3058 18.1715 22.3162 17.9749L22.3241 17.3586C22.3267 17.1396 22.3642 16.8723 22.3913 16.6509C22.4837 15.8957 22.6283 15.1506 22.8695 14.4276C23.0203 13.9759 23.1766 13.7216 23.1775 13.2374L23.1743 11.1967L23.0285 9.16663C22.8292 9.41669 22.1569 10.3632 21.8632 10.4007C21.6436 10.4287 21.4651 10.283 21.2846 10.1792L20.122 9.43256C19.6891 9.12509 18.9989 8.54705 18.7661 8.06366C18.4888 7.48766 18.6321 7.11778 18.956 6.64806L20.7383 4.07037C21.3007 3.31447 21.914 2.68835 22.8823 2.52537L24.2122 2.34518C24.4439 2.30389 24.5083 2.29302 24.5971 2.09975L25.2401 0.893944C25.3133 0.762936 25.3759 0.621405 25.4638 0.499444L25.5393 0.400195C25.9052 -0.00855963 26.3494 0.0162996 26.8463 0.038877L27.4707 0.0539106C27.6559 0.0631724 27.8383 0.0894275 28.0243 0.0913873L29.667 0.0887029L31.1557 0.00392363C31.7756 -0.0426808 32.0723 0.332034 32.3287 0.800682L32.9543 1.95602C32.9998 2.04563 33.0482 2.12085 33.0731 2.22059L33.0763 2.23412C33.2613 2.3011 33.4411 2.33291 33.6331 2.3692L34.5278 2.49914C36.0376 2.68684 36.5615 3.60857 37.3859 4.76377L38.7639 6.79662C39.0304 7.22352 39.0981 7.68181 38.8264 8.14179C38.4843 8.72125 37.5874 9.40426 37.0283 9.77334L36.2731 10.2301C35.6127 10.5944 35.525 10.2773 35.0821 9.76344C34.9153 9.56982 34.7306 9.37049 34.5933 9.15506L34.5839 9.14005C34.5624 9.20738 34.5643 9.29353 34.5613 9.3637L34.4934 10.4812C34.4828 10.6115 34.4607 10.7407 34.4557 10.8718L34.4533 13.1551C34.4537 13.3421 34.4596 13.5405 34.522 13.7196L34.6314 14.0781C34.7915 14.4774 34.9236 14.9248 35.0171 15.3426L35.1788 16.1725C35.2338 16.5321 35.2715 16.9124 35.2928 17.2765L35.3148 17.9111C35.328 18.1233 35.4112 18.3827 35.3278 18.5874L35.3221 18.6011C34.9775 19.4389 33.2255 19.7994 32.4377 19.8864L30.5435 19.9998L27.5132 20C27.4037 19.9983 27.2971 19.9817 27.1883 19.9771L26.4794 19.9699ZM26.3134 0.779366C26.6712 1.34914 26.4461 1.27277 27.0243 1.39287C27.5889 1.51014 28.0025 1.55339 28.5731 1.55642L29.4344 1.54826C29.7633 1.53011 30.9181 1.40885 31.0183 1.25722L31.029 1.24001C31.1188 1.09757 31.1785 0.908253 31.2778 0.778534L26.3134 0.779366ZM25.7957 1.40061L25.2494 2.46512C25.3629 2.72816 25.4433 3.00419 25.5407 3.2731L25.8368 4.0315C26.0807 4.64613 26.2536 4.81518 26.9455 4.59532C27.0626 4.55808 27.1854 4.50076 27.2927 4.44109C27.5895 4.28734 27.8355 4.08632 28.1144 3.90669C27.9635 3.79767 27.7931 3.71968 27.6393 3.61166C26.9485 3.12628 26.3583 2.47278 25.9662 1.72243L25.8223 1.42745C25.8142 1.41255 25.812 1.40318 25.7957 1.40061ZM31.7845 1.3882C31.2441 2.48389 30.619 3.36229 29.4793 3.91426C29.7317 4.12712 30.0525 4.31319 30.3501 4.45507C31.2359 4.86018 31.3081 4.7591 31.7401 3.93083L32.387 2.47919L32.018 1.79006C31.9434 1.65196 31.8779 1.51518 31.7845 1.3882ZM27.1681 2.18603C27.7399 2.7854 28.2023 3.00757 28.8121 3.46433C29.1558 3.23023 29.5522 3.02381 29.8557 2.73868L30.4148 2.21165L29.5343 2.33127C29.1805 2.36158 28.1504 2.36837 27.8419 2.31057L27.1681 2.18603ZM33.015 3.0072L32.2948 4.49459C31.7999 5.42598 31.3834 5.64056 30.385 5.27755C29.9319 5.11277 29.5606 4.90998 29.1786 4.61161L29.1721 19.2174L30.6294 19.2109C30.7842 19.2042 30.9371 19.1731 31.0922 19.1663L31.6248 19.1554C32.4924 19.1142 33.9243 18.986 34.5342 18.394L34.6003 18.3195L34.5649 17.7665C34.5534 16.8604 34.4392 15.9572 34.1788 15.0863C33.969 14.385 33.7134 13.9285 33.7118 13.181L33.7144 10.6659C33.735 10.0618 33.8047 9.32354 33.8996 8.73623C33.9285 8.55774 33.9368 8.37392 33.9881 8.1995C34.0681 7.92785 34.4032 7.70487 34.6318 7.9507C34.7187 8.04404 34.7859 8.16495 34.8655 8.26584C35.2066 8.69833 35.5278 9.15699 35.9134 9.55138C36.6222 9.1782 37.2954 8.69387 37.8621 8.12804C38.5349 7.4562 38.1456 7.24508 37.725 6.60518L36.7689 5.21272C36.5081 4.83395 36.2517 4.46256 35.9515 4.1129C34.9206 2.91179 34.2595 3.4145 33.015 3.0072ZM24.6315 3.02478L23.7884 3.18134C22.1906 3.39732 22.0686 3.47547 21.0722 4.90055L19.7425 6.84424C19.5861 7.07053 19.3556 7.3003 19.4022 7.59528L19.4056 7.61794C19.4823 8.06119 20.6587 8.89307 21.0355 9.14767L21.7241 9.55463C22.1122 9.16961 22.4188 8.69266 22.7573 8.26434C22.9429 8.02944 23.1744 7.62294 23.5108 7.97172C23.6152 8.08004 23.6421 8.2543 23.6686 8.39594L23.853 9.84677L23.9123 10.9829L23.9168 13.3757C23.9158 13.6211 23.8721 13.8508 23.7891 14.0839C23.3109 15.4264 23.1144 16.3688 23.0552 17.775L23.0538 18.1033C23.0391 18.379 23.0254 18.3535 23.2485 18.5171C23.8231 18.9383 24.6098 19.0365 25.2995 19.0975L27.0989 19.2102L28.2644 19.2176C28.3296 19.219 28.4018 19.2316 28.4657 19.2234L28.4464 4.5926C28.0574 5.00944 27.2189 5.34496 26.6705 5.43954C25.8463 5.58166 25.4369 5.00845 25.1626 4.36036L24.6745 3.06475C24.6614 3.02969 24.6675 3.03299 24.6315 3.02478Z" fill="black"/>
<path d="M51.4007 17.7122C51.2642 17.8592 51.0851 17.993 50.894 18.0586L50.6524 18.1264C50.1352 18.2232 48.8686 17.9229 48.3776 17.7733C47.8887 17.6243 47.7769 17.5336 47.2554 17.4942L46.7107 17.4431C45.9077 17.3704 44.2791 17.2216 43.6012 16.7396C42.8267 16.1887 42.9665 15.5393 43.1201 14.7699L43.6993 10.9048L43.8916 9.35475C44.0421 7.90454 44.1739 6.43677 44.6791 5.05836L44.9279 4.45424C45.0544 4.15937 45.0609 4.20656 45.0139 3.8997L44.953 3.44873C44.9175 3.23185 44.8793 3.00139 44.9107 2.78103L44.9134 2.76325C44.9907 2.19382 45.4749 1.86373 46.0266 1.86128L47.6206 1.86056C48.008 1.86051 48.3976 1.84851 48.7836 1.88476C49.1803 1.92199 49.5744 2.0061 49.9689 2.06154L51.0279 2.17958C51.4393 2.22062 51.855 2.25929 52.2691 2.26033L53.8888 2.25277L55.5165 2.11181L56.5283 1.96761C57.0279 1.88565 57.3861 1.86046 57.8909 1.86058L58.9296 1.85868C59.0704 1.84868 59.223 1.85977 59.3649 1.85948L59.8676 1.85868C60.3637 1.85873 60.8866 2.01514 61.0157 2.56855C61.1242 3.03369 61.0329 3.34136 60.9561 3.80617C60.8958 4.17091 61.0252 4.38976 61.1717 4.73498L61.4289 5.40896C61.5011 5.61588 61.5549 5.83093 61.6141 6.04177L62.0084 8.25906L62.4158 12.5641L62.776 14.4585C62.8288 14.7142 62.8901 14.9699 62.9578 15.2221C63.151 15.9422 62.6545 16.6819 62.0104 16.9701C61.4698 17.2119 60.6436 17.3153 60.0625 17.3495C59.7537 17.3676 59.4573 17.3587 59.15 17.4111C58.7887 17.4727 58.4476 17.6207 58.0968 17.7214C57.5098 17.8899 56.9038 18.0168 56.2983 18.0942C54.4593 18.3294 54.214 17.4492 53.8797 15.9797L53.5741 14.7145C53.4086 14.1059 53.1844 13.5195 52.9292 12.9435C52.6798 13.5549 52.5051 14.1784 52.3491 14.8188L52.1802 15.5228C52.0147 16.3069 51.9468 17.0832 51.4007 17.7122ZM46.9885 2.62197L46.174 2.62337C46.0523 2.62368 45.8465 2.5775 45.7531 2.67525L45.7395 2.68924C45.5639 2.87334 45.6558 3.10734 45.6947 3.32963C45.7177 3.46143 45.7422 3.80689 45.7963 3.90918C45.8813 3.93073 45.9959 3.91726 46.085 3.91721L49.1474 3.91618L50.5076 3.91426L50.507 2.90944C50.4295 2.887 50.3486 2.88132 50.2688 2.87093L48.858 2.67556C48.5261 2.62931 48.3797 2.6218 48.0301 2.62171L46.9885 2.62197ZM57.8469 2.62197C57.448 2.62423 57.2765 2.64785 56.8881 2.69874C56.4908 2.75082 56.082 2.79264 55.69 2.87663C55.681 2.99898 55.6532 3.82505 55.6937 3.92907L58.1759 3.91618L60.1862 3.91678L60.3118 3.19017C60.3755 2.66887 60.3189 2.62089 59.8763 2.62055L57.8469 2.62197ZM54.7325 2.97284C54.5537 2.98477 54.3731 3.01683 54.1957 3.0247L51.5746 3.01945C51.4718 3.01584 51.3704 2.9967 51.2682 2.99324L51.2671 3.91945L51.4376 3.91089L54.9301 3.91868L54.9312 2.96767C54.8676 2.96909 54.7951 2.96425 54.7325 2.97284ZM47.5053 4.68651L45.6522 4.68647C45.62 4.73255 45.614 4.77223 45.595 4.82313L45.487 5.08325C44.9593 6.33433 44.8232 7.73146 44.6858 9.07L43.9286 14.6252L44.5317 14.5473C44.7079 14.5319 44.8878 14.5365 45.0645 14.5365L45.6533 14.5422C47.2809 14.6137 49.924 15.2191 51.3021 16.0482L51.7793 13.9977C51.8791 13.6349 52.4243 11.8237 52.7338 11.6259C53.1258 11.3754 53.2931 11.8622 53.4039 12.1092L53.8993 13.2739C53.9733 13.4721 54.0297 13.6812 54.1111 13.8755L54.2577 14.3245C54.318 14.4968 54.3431 14.6783 54.4018 14.8479L54.5439 15.4277C54.5931 15.5851 54.6111 15.7527 54.6567 15.9111C55.2016 15.7584 55.7313 15.5298 56.2818 15.4014C56.7266 15.2977 57.1898 15.2592 57.6287 15.1357C58.6494 14.8483 59.3377 14.4234 60.5027 14.454C60.86 14.4578 61.2212 14.4745 61.5727 14.5427L62.0449 14.6576C61.8904 13.8332 61.6933 13.029 61.6095 12.1916L61.2263 8.26669C61.0636 7.02486 60.8856 5.81758 60.3199 4.68141L52.9935 4.68125C52.981 4.72769 52.9881 4.78739 52.9881 4.83542L52.9882 8.90055C52.9883 9.00972 52.9821 9.12197 52.9981 9.23001C53.7811 9.02538 53.6943 8.42649 54.0461 8.32763C54.2606 8.26734 54.4681 8.41328 54.5072 8.62641C54.5462 8.83862 54.3872 9.09104 54.2671 9.25539C53.9336 9.71204 53.4266 9.99948 52.8612 9.99987C52.1914 10.0004 52.2372 9.68972 52.2368 9.11781L52.2384 4.68223L47.7811 4.68582C47.703 4.68589 47.5793 4.66944 47.5053 4.68651ZM60.3301 15.2274C59.7501 15.2458 59.2157 15.3785 58.6692 15.5775C58.4119 15.6712 58.1583 15.7831 57.8947 15.8582C57.3701 16.0078 56.8273 16.0578 56.3004 16.1968L55.6324 16.4017C55.3601 16.4997 55.1 16.6085 54.8201 16.6863C55.1868 17.6779 55.8336 17.3456 56.6368 17.2716C57.114 17.1764 57.5805 17.0762 58.0475 16.9377C58.3477 16.8487 58.6468 16.7216 58.9515 16.6542C59.2525 16.5875 59.776 16.5857 60.1282 16.5585L60.9478 16.4639C61.5174 16.3739 62.1716 16.2042 62.2521 15.5405C61.71 15.3432 60.919 15.1724 60.3301 15.2274ZM44.9138 15.3099C44.5475 15.3183 44.0823 15.3304 43.7409 15.4869C43.7147 16.2605 44.6137 16.3559 45.1917 16.4668L45.5477 16.5414C45.6132 16.5521 45.6801 16.553 45.7459 16.5616L46.8655 16.6909C47.1963 16.7237 47.5295 16.7343 47.8562 16.7971C48.1712 16.8577 48.4676 17.011 48.7761 17.0984C49.182 17.2133 49.5964 17.2627 50.0088 17.3418C50.6406 17.4568 50.8138 17.3043 51.1223 16.7807C50.3537 16.3818 49.5297 16.0576 48.6945 15.8274L47.6618 15.5926C46.7272 15.4047 45.8721 15.3041 44.9138 15.3099Z" fill="black"/>
<path d="M81.6535 18.4967L80.0611 18.6954C80.0402 18.6962 79.9871 18.7937 79.9699 18.8168C79.6617 19.2278 76.3566 19.1479 75.8531 19.1172C75.4885 19.095 74.2645 19.0972 74.0517 18.7837C73.9732 18.6681 73.9985 18.6845 73.8448 18.6626L71.5516 18.361C70.253 18.151 67.3677 17.6678 67.055 16.1125L67.0251 15.9615C66.9252 15.5123 67.1475 15.1421 67.2773 14.7305L69.0225 9.10445L70.3596 5.51646L71.1594 3.71515C71.2417 3.56293 71.3333 3.49217 71.3336 3.31171L71.3342 1.76121C71.3343 1.40154 71.2192 0.933424 71.7043 0.859602L82.0484 0.855957C82.8946 0.856362 82.7421 1.14504 82.7429 1.81452L82.7471 3.34787C82.7547 3.52199 82.9777 3.93525 83.0624 4.10968L84.3579 7.24203L85.6648 11.0521L86.5272 13.9441C86.5777 14.1864 86.7171 14.7033 86.8105 14.9213L86.9558 15.2829C87.0215 15.3977 87.0039 15.9182 86.9676 16.0457C86.8225 16.5549 86.5615 16.887 86.098 17.1517L85.7047 17.3527C85.5992 17.4091 85.5096 17.4864 85.4124 17.5548C85.0968 17.7769 84.7286 17.8695 84.3612 17.9673L82.4859 18.3507C82.2089 18.3992 81.9328 18.4626 81.6535 18.4967ZM72.0032 1.57954C71.9693 1.94675 71.9914 2.32565 71.9919 2.68902L71.9945 3.10762C71.9959 3.16901 71.9899 3.24673 72.008 3.30478L73.185 3.37078C73.0385 2.68076 72.8456 2.38135 73.0119 1.58091L72.0032 1.57954ZM73.7294 1.58157C73.6545 1.81333 73.6134 2.0512 73.6426 2.29274C73.6603 2.4394 73.8278 3.28103 73.9525 3.36766L80.0434 3.36964C80.0791 3.3146 80.1122 3.26131 80.1397 3.20141C80.3389 2.77408 80.496 2.10857 80.3222 1.64121L80.2991 1.58283L73.7294 1.58157ZM81.0064 1.58035L81.0217 1.6562C81.0247 1.67523 81.0284 1.68766 81.0339 1.70549C81.1319 2.02065 81.013 3.0643 80.8431 3.3643L81.7676 3.32179L81.9957 3.31108L81.9922 1.58255L81.0064 1.58035ZM71.7906 3.97626L70.6753 6.64077L70.1823 7.91923L67.8778 15.0647C67.7913 15.3425 67.6277 15.6075 67.7097 15.9065L67.7342 15.9923C67.8413 16.3637 68.272 16.6638 68.6045 16.8105C68.7579 16.4159 68.9718 16.0496 69.1641 15.6734L69.7096 14.5101C70.0498 13.7417 70.3444 12.9472 70.6153 12.1519L71.4877 9.15445L71.6939 8.19358C71.741 7.96493 71.7705 7.42284 72.1962 7.59706C72.282 7.63222 72.3411 7.67873 72.3849 7.76101L72.3922 7.77448C72.4772 7.94754 72.3491 8.4055 72.3134 8.58601C72.09 9.71781 71.7723 10.8365 71.4169 11.9335L71.0482 13.053L70.1298 15.3124L69.6542 16.2715C69.5141 16.5446 69.3607 16.8086 69.2715 17.104C69.917 17.3605 70.6168 17.4894 71.2981 17.6089L73.9669 17.9721L74.3326 15.3811L74.8895 10.6027L74.9072 10.2479C74.9159 10.154 74.9345 10.0609 74.9395 9.96679L74.9977 8.844C75.0065 8.58909 74.9381 7.97143 75.0508 7.77531L75.0597 7.75941C75.1975 7.51782 75.6175 7.54111 75.6802 7.79458C75.7644 8.1353 75.6616 8.72281 75.6472 9.09762L75.6343 9.95472L75.0759 14.9937L74.6653 18.0386C74.6542 18.1249 74.6357 18.2058 74.6354 18.2934C74.8645 18.3366 75.0899 18.35 75.3215 18.3695L77.0956 18.4244C77.4714 18.4239 77.8554 18.4386 78.23 18.4157L79.4143 18.2867C79.4253 18.2559 79.4153 18.2194 79.4106 18.1872L79.0733 15.8743L78.607 12.34L78.3976 9.93406L78.3405 8.13817C78.3374 7.91301 78.3158 7.69073 78.5746 7.60385L78.5887 7.59893C78.6675 7.57329 78.7536 7.59435 78.8246 7.63265L78.8823 7.67043C79.0579 7.79635 79.0305 8.10351 79.031 8.28821L79.038 8.86226C79.0435 8.99035 79.074 9.11339 79.0793 9.24124L79.0834 9.77801C79.089 9.93664 79.1159 10.0895 79.1273 10.2462L79.6042 14.7292L79.9799 17.3115C80.0164 17.5333 80.0134 17.7706 80.0747 17.9885L81.3847 17.8055C82.2042 17.6929 84.0674 17.4506 84.7959 17.0596L83.5972 14.578C82.8395 12.811 82.278 10.9703 81.8234 9.10466C81.7431 8.77479 81.6607 8.44219 81.6176 8.10513C81.5348 7.45742 82.0881 7.46304 82.2345 7.77265L82.2487 7.81164C82.2737 7.88369 82.2813 7.95308 82.3003 8.02571L82.606 9.43258L83.0139 10.9056L83.6775 12.8685L84.5263 14.905L85.4228 16.7023C85.7678 16.5398 86.1219 16.3601 86.2612 15.9813C86.3957 15.6153 86.2047 15.3102 86.0995 14.9677L85.0055 11.2202L83.6112 7.30188L82.4308 4.40185C82.3717 4.2676 82.318 4.12702 82.2517 3.99646L81.8669 4.01342C81.6038 4.03195 81.3429 4.0658 81.08 4.07628L72.7937 4.07995C72.5087 4.07099 72.0236 3.93778 71.7906 3.97626Z" fill="black"/>
</svg>
