<svg  viewBox="0 0 87 20" fill="none" xmlns="http://www.w3.org/2000/svg">
<path d="M7.21876 19.9071L4.2509 18.9293C3.99977 18.8267 3.98942 18.6215 3.98907 18.3867L3.98938 18.0034C3.92104 17.9694 3.82118 17.9698 3.74526 17.9569L1.70915 17.7223L1.28426 17.7189C0.804536 17.7253 0.767822 17.5881 0.78284 17.1716C0.804684 16.5658 0.872357 15.9652 0.941769 15.3634L1.4438 11.5944L2.35002 6.62558L2.75472 4.90888C2.95562 4.09892 3.18239 3.29883 3.47687 2.51716C3.71233 1.89216 3.96055 1.24682 4.72366 1.0939C5.08509 1.02147 5.29295 1.02927 5.67644 0.901375L6.03722 0.764202C6.1685 0.714124 6.23156 0.689884 6.33192 0.594543C6.48028 0.453586 6.70432 0.431702 6.88741 0.357635L7.6194 0.0324742C7.89953 -0.0806946 8.04773 0.158985 8.20903 0.333788L10.4699 2.93946C10.5311 3.02374 10.5832 3.10901 10.6504 3.18946C10.7369 3.03906 10.8279 2.89804 10.9354 2.76147L13.0695 0.286128C13.1791 0.168214 13.24 0.0632227 13.3924 4.74734e-05C13.5368 -0.00116606 13.5926 0.02076 13.7247 0.0803294L14.5248 0.415003C14.8039 0.517037 14.8168 0.52429 15.0633 0.679166C15.58 1.0038 16.0096 0.976555 16.5418 1.09527C17.3888 1.2842 17.6041 2.00203 17.8483 2.69626L18.0871 3.40647C18.1178 3.50385 18.1558 3.60271 18.1792 3.70192L18.7432 5.92336C18.7604 6.02428 18.7898 6.13029 18.8164 6.22939L19.4752 9.59243L19.9052 12.1733L20.4194 16.2606L20.4666 16.9225C20.5137 17.7001 20.548 17.6991 19.7402 17.7182L19.1197 17.756C18.5036 17.802 17.9025 17.9057 17.2931 18.0028C17.2956 18.095 17.3031 18.1903 17.2806 18.2806L17.1943 18.577C17.1223 18.8482 17.1104 18.8321 16.8403 18.951L15.9608 19.3906C15.1414 19.8195 14.3918 19.9967 13.4531 19.9961C13.3328 19.996 13.1979 20.0062 13.0795 19.9835L12.8587 19.9444C12.3702 19.8291 12.1121 19.6366 11.7662 19.2903C11.2412 18.7647 10.8148 18.1882 10.4233 17.5551L9.39606 18.963C9.2549 19.1549 9.12834 19.3731 8.96502 19.5467C8.50486 20.0359 7.82561 20.0817 7.21876 19.9071ZM7.66053 0.78587L7.17204 1.02011L8.35307 2.38517C8.45469 2.51329 8.5902 2.66122 8.65652 2.81023L8.6629 2.82432C8.68886 2.88743 8.69023 3.00272 8.66429 3.06555L8.64095 3.11192C8.57155 3.24471 8.40411 3.29212 8.2805 3.35903L7.79648 3.64166C8.34708 4.10604 8.89404 4.59644 9.38672 5.12247L9.70532 5.48753L10.0869 5.97974C10.1377 6.0525 10.2548 6.21144 10.2852 6.29054L10.2866 4.15417C10.2864 3.92998 10.3161 3.99984 10.2076 3.82015L9.95684 3.42351C9.82861 3.24061 9.6792 3.07087 9.53304 2.90249L7.68865 0.782722L7.66053 0.78587ZM13.5603 0.793648L12.1164 2.47187C11.7582 2.88758 11.4007 3.29358 11.1067 3.75945C11.0291 3.8825 10.9763 3.94081 10.9758 4.09349L10.9753 5.69229C10.9757 5.86342 10.9631 6.04586 10.9792 6.2158L10.9891 6.30405C11.1652 5.96265 11.4029 5.60688 11.6708 5.33064C11.8412 5.16031 12.0223 4.99671 12.2139 4.85044L13.7359 3.71742L13.0481 3.37707C12.3811 3.04844 12.5255 2.90857 12.8871 2.43575L14.0967 1.02383L13.5603 0.793648ZM6.50012 1.31312C6.27036 1.43775 6.04018 1.5337 5.7899 1.61007L5.42898 1.70561L5.98918 3.57981C6.00777 3.67472 6.04471 3.77013 6.06786 3.86476L6.33731 5.26176C6.3847 5.53926 6.40541 5.81659 6.42516 6.0971L6.4493 7.43825C6.4358 7.81453 6.37984 8.30479 6.31065 8.6662L5.38337 12.6011L4.94783 15.0061L4.70933 17.3989C4.70317 17.49 4.68827 17.579 4.68593 17.6706L4.67047 18.3244L6.59866 18.9672C7.04252 19.1149 7.52646 19.3677 8.00703 19.2807L8.0232 19.2779C8.39039 19.2112 8.53423 18.947 8.74179 18.6746L10.0742 16.8553C10.1132 16.8043 10.0323 16.6979 10.0111 16.6465L9.88833 16.3177C9.74448 15.8917 9.61369 15.4535 9.51331 15.0151L9.03942 12.3755C8.79817 10.7309 9.29272 9.47116 10.1485 8.05756C10.2291 7.92447 10.2346 7.89692 10.1964 7.73632C10.0026 6.92175 9.42326 6.21432 8.85756 5.618L7.47054 4.28963C7.22397 4.07779 6.74135 3.70863 6.97807 3.33543C7.08972 3.1594 7.58025 2.93341 7.77101 2.79341L6.50012 1.31312ZM14.7971 1.31444L13.5152 2.79143C13.7561 2.9381 14.4833 3.23355 14.5826 3.48863L14.5899 3.50654C14.7192 3.85163 14.2308 4.23742 14.0072 4.42099L13.1606 5.05658C12.8818 5.2499 12.6065 5.41813 12.3565 5.65187C11.8872 6.09069 11.3384 7.02177 11.0743 7.64349C10.993 7.83498 10.9555 8.04211 10.8669 8.22902C10.7421 8.4922 10.57 8.73035 10.4331 8.98732C10.1504 9.51771 9.89671 10.0815 9.7637 10.6689C9.70315 10.9362 9.67556 11.2186 9.67547 11.4919L9.67782 11.847C9.69926 12.2768 9.79784 12.8152 9.87215 13.2414L9.93468 13.6833C9.9728 13.9263 10.0406 14.1722 10.0939 14.4125L10.1593 14.7475C10.3728 15.7141 10.7093 16.738 11.2576 17.5652L12.1 18.62C12.3412 18.8635 12.5848 19.1659 12.9381 19.2339L13.1338 19.2705C13.2327 19.2896 13.3412 19.2854 13.4418 19.285C14.4995 19.2805 15.045 19.0749 15.9394 18.6028C16.1006 18.5177 16.4535 18.3704 16.5881 18.2794L16.5848 17.5701C16.5806 17.4493 16.5607 17.3316 16.5538 17.2121L16.334 14.9997L16.0967 13.5379L15.2209 9.87183C15.0951 9.3736 14.9566 8.86592 14.8959 8.35485C14.6649 6.41179 14.9394 4.45761 15.5388 2.60195C15.6364 2.29987 15.7244 1.98952 15.8443 1.69558L15.835 1.6945C15.4817 1.64969 15.0937 1.51169 14.7971 1.31444ZM4.71582 1.84961C4.11216 2.10599 3.59864 4.39247 3.45201 4.98809L2.90408 7.37996L2.17014 11.4332L1.64522 15.1572L1.49474 16.8001C1.48914 16.8775 1.47682 16.9489 1.47862 17.0272L2.76351 17.1089L4.03025 17.299L4.22006 15.1638C4.36444 14.0236 4.59959 12.8888 4.85246 11.7679L5.25761 10.09C5.59705 8.78835 5.84606 7.78683 5.76643 6.40462L5.73964 6.14535C5.65741 5.12519 5.44815 4.12835 5.15955 3.14672L4.75381 1.85688L4.71582 1.84961ZM16.5235 1.837C16.4036 2.15436 16.311 2.48236 16.212 2.80652L16.0642 3.25661C15.6109 4.77678 15.4088 6.30313 15.5369 7.88172L15.5874 8.3011C15.6246 8.59058 15.7274 9.16261 15.8165 9.43435L15.933 9.87916C15.9688 10.0622 16.0187 10.2678 16.0772 10.4442L16.3795 11.6576C16.4125 11.7711 16.4321 11.8915 16.4558 12.0071L16.7366 13.2624L17.1327 15.7608L17.2518 17.1056C17.2576 17.1692 17.2518 17.2297 17.2656 17.2931L18.2514 17.1413C18.3544 17.1273 18.4536 17.1086 18.5578 17.104L19.773 17.0127L19.5 14.3105L19.3084 12.833L18.6376 8.88148L18.1808 6.54439L17.4464 3.67972L17.1032 2.64806C16.9863 2.33732 16.8621 1.97122 16.5235 1.837Z" fill="black"/>
<path d="M35.1438 1.84819L33.0566 1.85046C32.8332 1.85365 32.6189 1.88002 32.3985 1.91639C31.7553 2.02257 30.8334 2.24257 31.165 3.14065C31.5062 4.06439 32.0669 4.98804 32.8124 5.64724L33.1055 5.9111C33.9616 6.62501 34.1704 6.8883 34.1708 8.07789L34.1707 17.1153C34.1707 17.256 34.1847 17.4123 34.1639 17.5511L34.1613 17.5663C34.0566 18.2223 33.487 18.7318 32.8485 18.8575C32.7008 18.8866 32.5222 18.8686 32.3714 18.8687L29.7792 18.8689C29.5204 18.8689 29.2504 18.8845 28.9927 18.8677C28.8357 18.8574 28.592 18.6234 28.5724 18.4797L28.5706 18.4615C28.5406 18.1798 28.5611 17.874 28.5603 17.5895C28.5148 17.5384 28.4346 17.5117 28.3776 17.4719C27.6269 16.9464 27.2178 16.2332 27.1622 15.3314L25.378 14.8694C24.8827 14.7534 24.8404 14.7249 24.7219 14.2263C24.5527 13.5146 24.4877 13.0377 24.4871 12.3156L24.4972 11.4118C24.5016 11.3325 24.521 11.2601 24.528 11.1831L24.6026 10.4549C24.6937 9.84801 24.8297 9.24673 24.9837 8.65306L25.611 6.61235C26.0274 5.46003 26.6668 3.65486 27.8589 3.16355C28.1092 3.06037 28.3776 3.0088 28.6408 2.95029L30.0912 2.60275C30.1881 2.58046 30.2864 2.54731 30.3855 2.53773L30.4073 2.53589C30.4379 2.48045 30.4427 2.39672 30.4586 2.33412C30.7156 1.32081 32.2657 1.14574 33.1638 1.11653L33.8238 1.11426L35.9314 1.11681C36.8066 1.1506 38.1581 1.30653 38.4705 2.30212C38.5612 2.5911 38.4959 2.48319 38.8242 2.56869L39.8028 2.80135C41.5529 3.18484 41.9314 3.41032 42.7449 5.18651L43.1986 6.28374L43.7778 7.98927C43.8416 8.19811 43.9176 8.41725 43.9581 8.63153L44.0084 8.82141C44.0477 9.0458 44.1274 9.27213 44.1785 9.49553L44.3151 10.1436C44.4551 10.8259 44.4883 11.6914 44.487 12.3797L44.4742 12.8584C44.4656 12.981 44.446 13.0997 44.4292 13.2217L44.1638 14.4646C44.0903 14.7408 43.8337 14.8025 43.5897 14.8592L41.805 15.3278C41.7659 15.3373 41.7826 15.368 41.7806 15.4066C41.7384 16.2347 41.2041 17.1145 40.4812 17.5142C40.3639 17.579 40.3799 17.547 40.3779 17.6814L40.3747 18.2367C40.3744 18.3161 40.3908 18.4727 40.343 18.5391C40.0119 18.9992 39.9049 18.8686 39.3607 18.8689H36.346C36.2655 18.8687 36.1805 18.874 36.1017 18.8556L35.9719 18.826C35.3742 18.6804 34.8191 18.1305 34.7634 17.4984C34.745 17.2904 34.7593 17.0714 34.7592 16.8619L34.7592 7.86855C34.7607 6.681 35.206 6.49477 36.0493 5.74723C36.5296 5.3215 36.9742 4.75656 37.2877 4.20087L37.4951 3.79151C37.6081 3.56142 37.7092 3.32942 37.7793 3.08232C38.165 1.72173 35.9277 1.8479 35.1438 1.84819ZM38.4765 3.22487C38.2019 4.33905 37.2759 5.61768 36.4467 6.35695L36.0315 6.70317C35.4105 7.20415 35.4589 7.47295 35.4587 8.24428L35.4588 16.9758C35.459 17.4346 35.4499 17.7944 35.9374 18.0451L36.0908 18.1131C36.1826 18.152 36.3289 18.1332 36.4294 18.1333L39.6451 18.1438C39.6623 18.1448 39.6566 18.1444 39.6764 18.1395L39.6758 17.4874C39.6761 17.1761 39.6396 17.1572 39.9361 16.9961C40.5837 16.6442 41.0702 16.0197 41.0714 15.2562C41.0719 14.9369 40.9435 14.6309 40.8245 14.3402L40.1959 12.837C40.0082 12.3632 39.8394 11.8641 39.7508 11.3616C39.6409 10.8317 39.7027 10.1055 39.998 9.65639C40.1832 9.37486 40.7738 8.75579 41.1099 8.68418C41.3774 8.62718 41.6356 8.95385 41.5005 9.19452C41.4425 9.29789 41.3193 9.36917 41.2269 9.43921C40.7612 9.79228 40.4135 10.1295 40.4107 10.7499C40.4101 10.881 40.3952 11.039 40.4282 11.166L40.4399 11.2064C40.4969 11.4053 40.5079 11.6113 40.5827 11.8106L41.6966 14.6252L43.1531 14.221C43.2667 14.1902 43.3786 14.155 43.4961 14.142C44.2357 11.9706 43.4687 9.13055 42.7298 7.07053C42.3649 6.05323 41.7443 4.11709 40.639 3.74261L38.4765 3.22487ZM30.4364 3.26278L29.079 3.58281C28.3195 3.7662 27.7731 3.82722 27.3268 4.54342C26.8335 5.33504 26.4916 6.22362 26.1989 7.10556L26.0518 7.51435C25.5667 9.04143 25.1766 10.6194 25.1768 12.2302L25.1855 12.7939C25.189 12.8711 25.1863 12.9583 25.2022 13.034L25.3729 13.9335C25.3894 14.0041 25.3933 14.0864 25.4404 14.1451L27.2527 14.622C27.6069 13.456 28.2775 12.4437 28.4784 11.1837C28.6154 10.3241 28.4035 9.88086 27.757 9.32816C27.6677 9.25188 27.5596 9.1884 27.4916 9.09066C27.2855 8.794 27.6439 8.4579 27.949 8.58573C28.4213 8.78358 29.0799 9.69258 29.1778 10.1775C29.2018 10.2962 29.2181 10.3967 29.2227 10.5202L29.219 10.9623C29.2144 11.0728 29.2095 11.1963 29.1794 11.3028C29.1139 11.8257 28.9054 12.3611 28.7159 12.8487L28.1922 14.1558C27.9463 14.7684 27.713 15.183 27.9682 15.8648C28.1303 16.2982 28.4839 16.7337 28.9021 16.9491C29.0212 17.0105 29.1522 17.0482 29.2233 17.1705L29.231 17.1831C29.2969 17.298 29.2425 17.9734 29.2594 18.1488L32.4719 18.1344C32.575 18.1343 32.6979 18.1466 32.7975 18.125C33.1119 18.057 33.4277 17.732 33.4687 17.4097C33.4832 17.2952 33.4732 17.1682 33.4733 17.0525L33.4724 7.65255C33.4438 6.9877 32.829 6.65649 32.4005 6.24701C31.6043 5.48621 30.7485 4.36351 30.4664 3.26892L30.4364 3.26278Z" fill="black"/>
<path d="M55.5444 17.7332L55.1803 17.6873C54.8638 17.6475 54.5456 17.5849 54.2346 17.5146C53.4017 17.3263 52.998 17.1361 52.5392 16.3766C52.4935 16.3009 52.4644 16.2284 52.4089 16.1572C52.1248 16.535 51.8846 17.092 51.8646 17.566C51.854 17.8162 51.8232 18.1588 51.4519 18.0783L49.1451 17.4828C49.0267 17.4519 48.8995 17.4326 48.7839 17.3941C48.4975 17.2988 48.6247 16.9544 48.6262 16.7448C48.6286 16.4181 48.5896 16.1206 48.5393 15.7981C48.4284 15.086 48.5037 14.3574 48.6747 13.6607L48.9015 12.8046C49.4385 10.5428 50.1407 8.30867 50.968 6.13625C51.1553 5.64444 51.2859 5.11201 51.6055 4.68423C52.1732 3.92419 52.9545 3.61005 53.8408 3.42604L54.9586 3.23574C55.934 3.09497 55.3048 2.40422 55.5756 2.05492C55.7407 1.84208 55.9209 1.96966 56.1175 2.03642L56.5201 2.15962C56.7997 2.23763 57.1046 2.29548 57.3933 2.32684L58.3996 2.38578C59.1727 2.38537 59.982 2.30449 60.7107 2.0297C60.8203 1.98841 60.9071 1.92646 61.0263 1.90967C61.1634 1.9213 61.271 1.9609 61.3357 2.09573L61.3407 2.10643C61.4309 2.28008 61.3322 2.52014 61.3537 2.70462L61.3569 2.72511C61.3812 2.90387 61.4965 3.10478 61.676 3.16402L61.6945 3.16972C61.799 3.20332 61.9015 3.19659 62.0087 3.20935L62.3214 3.25668C63.4777 3.42629 64.8545 3.77914 65.4286 4.89958C65.5759 5.18705 65.6689 5.51123 65.766 5.81878L66.9415 9.18328L67.9964 12.6953C68.0242 12.849 68.0769 13.0111 68.116 13.1636L68.2756 13.8993C68.3361 14.152 68.4021 14.4144 68.4403 14.6713C68.5513 15.4172 68.4416 15.8682 68.3494 16.5868C68.3276 16.7574 68.3149 16.7398 68.3802 16.9102C68.4946 17.2089 68.2055 17.3083 67.9859 17.3551L65.9432 17.8147C65.7599 17.8562 65.5735 17.9203 65.3897 17.9523C64.9992 18.0204 65.0212 17.6364 64.9807 17.4163C64.8979 16.9669 64.7829 16.5657 64.5278 16.1758C64.4725 16.264 64.4308 16.3583 64.3798 16.4487C63.8965 17.3068 63.2585 17.4209 62.382 17.5717L60.2911 17.8288L59.4256 17.8802L57.3979 17.8809L55.5444 17.7332ZM60.7254 2.68809C59.5421 3.07315 57.3636 3.10937 56.1418 2.69847C56.1208 3.1726 55.9819 3.47006 55.5301 3.70841C55.6989 4.03359 56.0564 4.29534 56.3622 4.4751C56.7007 4.66151 57.012 4.74762 57.3913 4.80856C58.5546 4.99547 60.2608 4.95336 61.1571 4.09399C61.266 3.98961 61.3856 3.86929 61.4351 3.72285C60.9998 3.44215 60.7769 3.29235 60.7519 2.68765L60.7254 2.68809ZM62.0647 3.83783C61.8412 4.42084 61.2318 4.88058 60.6797 5.12923C59.6742 5.58201 57.6525 5.66176 56.5722 5.24967C55.9708 5.02027 55.3362 4.59577 55.0021 4.02818C54.8847 3.82871 54.9853 3.85542 54.7651 3.8869C53.586 4.05544 52.2933 4.30448 51.8155 5.57891L51.0974 7.53137L49.8959 11.3527L49.5057 12.8785C49.2909 13.776 49.1018 14.2178 49.104 15.1544C49.1051 15.6291 49.2365 16.0959 49.2397 16.5681C49.2404 16.6715 49.2258 16.789 49.2412 16.8905L51.268 17.4069C51.3802 16.8891 51.4983 16.4621 51.783 16.0149L52.0628 15.6126C52.2333 15.3727 52.2094 15.2719 52.1496 14.9555C52.0557 14.4588 52.1482 13.61 52.3126 13.11C52.3553 12.9799 52.4134 12.8556 52.4607 12.7272C52.5853 12.3895 52.6401 12.0444 52.6902 11.6896L52.9861 9.23506C53.0103 9.04329 52.9945 8.77566 53.2376 8.72566L53.2518 8.72258C53.5711 8.65839 53.6007 8.96113 53.5867 9.19414L53.3103 11.5839C53.2522 12.0382 53.1916 12.4879 53.0329 12.9199C52.7923 13.5746 52.669 14.02 52.7263 14.7318C52.766 15.2254 52.7466 15.5194 53.011 15.973C53.1723 16.2498 53.3233 16.5087 53.611 16.6773C54.3306 17.0468 55.6298 17.123 56.4306 17.1987C56.7121 17.2252 57.0027 17.2498 57.2853 17.2544L58.5389 17.2795L60.3796 17.1959L62.6412 16.9045C63.6576 16.7167 63.8983 16.2923 64.1335 15.2907C64.2785 14.6735 64.2681 13.8908 64.061 13.2977C63.9539 12.9909 63.824 12.7036 63.7594 12.3824C63.653 11.8532 63.5853 11.3114 63.5348 10.7743L63.4371 9.32646C63.4358 9.20556 63.4165 9.06786 63.4412 8.9497C63.4728 8.79925 63.6534 8.70269 63.7971 8.7453L63.8163 8.75084C63.9871 8.80301 64.011 8.92986 64.0204 9.08634L64.066 9.76396C64.0746 9.93099 64.0674 10.0981 64.0827 10.2651L64.2382 11.4985C64.2936 11.8855 64.3279 12.2933 64.4662 12.6618L64.6802 13.2302C64.8217 13.5749 64.8115 14.0055 64.8123 14.3697L64.8115 15.1529C64.8106 15.2761 64.769 15.4383 64.8373 15.5438L64.936 15.6942C65.1641 16.0425 65.3142 16.3932 65.4555 16.7796L65.5623 17.2671L67.7263 16.7942C67.7369 16.55 67.7849 16.3132 67.8187 16.0719C67.9238 15.3216 67.8535 14.8068 67.6969 14.0646C67.4357 12.8276 67.0816 11.6148 66.6939 10.412L66.1674 8.76378L65.1316 5.84618C65.0646 5.65126 65.024 5.44428 64.9325 5.25888C64.5037 4.38991 63.5317 4.09595 62.6509 3.93945C62.4591 3.9054 62.2499 3.89867 62.0647 3.83783Z" fill="black"/>
<path d="M57.7886 8.58036C57.6693 8.64806 57.5048 8.65308 57.3984 8.55584C57.1403 8.31989 57.4272 8.08217 57.5847 7.93L58.156 7.38609C57.9052 7.12295 57.0822 6.5964 57.3931 6.22807C57.6007 5.98208 57.8128 6.20802 57.971 6.35943L58.5852 6.96312L59.131 6.43635C59.2621 6.30861 59.3497 6.18007 59.5226 6.10736C59.6346 6.10204 59.767 6.14686 59.8272 6.24691L59.8349 6.26053C59.9843 6.51839 59.734 6.70642 59.571 6.86586C59.3934 7.03965 59.2111 7.21746 59.02 7.37624C59.0802 7.44535 59.1545 7.50534 59.2197 7.57042L59.6953 8.04654C59.7631 8.11399 59.8639 8.19232 59.9114 8.27468L59.9326 8.31551C59.9755 8.40981 59.949 8.53335 59.8832 8.60997C59.6425 8.88992 59.4267 8.63057 59.2428 8.45005L58.6004 7.80995C58.5291 7.85454 58.4623 7.93958 58.4008 7.99857L57.7886 8.58036Z" fill="black"/>
<path d="M80.7106 13.5893L79.7469 8.93222C79.6703 9.10169 79.6517 9.29367 79.6115 9.47435L78.7666 13.5028L78.3547 15.7522L77.7792 19.4172C77.6718 20.0313 77.0526 19.997 76.6013 19.9973L73.4491 19.9978C73.3483 19.9977 73.2375 20.0037 73.1388 19.9816L73.1199 19.977C72.4548 19.8258 72.4871 19.3131 72.4874 18.7832L72.4932 14.094L72.5512 11.9675C72.5565 11.7683 72.5905 11.5689 72.5997 11.3691L72.6064 10.3673C72.6116 10.1597 72.649 9.95518 72.6556 9.74891L72.6662 8.69326C72.6709 8.54537 72.6981 8.39995 72.7037 8.25185L72.7677 6.57038L72.8701 5.05429C72.9188 4.47279 73.0162 3.88851 73.1326 3.31699L73.3466 2.24822C73.379 2.0885 73.3686 1.91419 73.3686 1.75146L73.368 1.03012C73.3679 0.873236 73.3453 0.661514 73.4175 0.518999C73.5898 0.179286 73.8163 0.0278774 74.2096 0.00323726L84.9305 1.19529e-06C85.7978 -0.000533906 86.0942 0.178343 86.0962 1.04462L86.0975 1.68419C86.0983 1.89831 86.1235 2.10583 86.157 2.3176L86.2526 2.85581C86.2582 2.88929 86.273 2.92056 86.2805 2.95366L86.3884 3.46053C86.4665 3.86137 86.5174 4.2683 86.5517 4.67531L86.6293 5.78455C86.6381 5.92128 86.6275 6.08642 86.6577 6.21842L86.6739 6.29167C86.7332 6.56294 86.7055 6.87338 86.7184 7.15166C86.7234 7.25993 86.7478 7.36751 86.7514 7.47458L86.7624 8.2891C86.7689 8.41124 86.7937 8.53263 86.7977 8.65509L86.8068 9.51421C86.8128 9.66987 86.8483 9.82324 86.8553 9.98005L86.8708 11.0344C86.8741 11.1226 86.8919 11.2096 86.8945 11.2977L86.923 12.5418C86.9266 12.6396 86.9506 12.7347 86.9534 12.8325L86.957 13.7047C86.9602 13.8091 86.984 13.9113 86.9866 14.0152L86.9904 18.526C86.9905 19.1325 87.1254 19.7433 86.3764 19.9705L86.3396 19.9815C86.2622 19.9995 86.1785 19.9954 86.0996 19.996L83.124 19.9975C82.0243 19.997 81.7942 20.1117 81.6174 18.8474L80.7106 13.5893ZM74.0975 0.73941C74.0809 0.886053 74.0841 1.02617 74.0893 1.16961L85.3317 1.16502L85.3693 1.17228C85.3738 1.04656 85.3715 0.884779 85.3452 0.762368C85.1506 0.733269 84.9578 0.736989 84.7616 0.736759L74.0975 0.73941ZM74.0938 1.89632L74.0031 2.76472L85.3925 2.7624C85.4286 2.76721 85.4642 2.76882 85.4997 2.76133L85.3993 2.08106C85.394 2.03792 85.3922 1.9323 85.3676 1.89999L74.0938 1.89632ZM74.6538 3.49019L73.8361 3.49564C73.8102 3.56429 73.8114 3.64142 73.8022 3.71378L73.7532 3.99838C73.6228 4.7729 73.5501 5.21378 73.5508 5.99681C74.2046 5.99785 74.6081 6.00514 75.2132 5.67936C76 5.24002 76.5271 4.40106 76.5785 3.50094C76.3513 3.47617 76.1146 3.48958 75.886 3.48937L74.6538 3.49019ZM77.305 3.48919C77.2084 5.05072 76.181 6.37166 74.609 6.68405C74.4992 6.70587 74.3827 6.73423 74.2713 6.73955L73.7405 6.74343C73.6603 6.74368 73.5706 6.7354 73.4917 6.7486C73.4882 6.88423 73.4624 7.01141 73.4573 7.14585L73.4487 7.87468L73.3451 10.1044L73.3395 10.7317C73.3342 10.8497 73.3126 10.9632 73.3112 11.0826L73.2571 12.8933L73.2526 14.3002C73.2508 14.4225 73.2186 14.5449 73.2159 14.67L73.2113 18.9501C73.2115 19.0478 73.2047 19.1501 73.2234 19.2463L77.0664 19.2451C77.091 19.1575 77.0871 19.067 77.0999 18.9776L77.6155 15.786L78.2293 12.439L79.321 7.57372C79.4159 7.18646 79.3743 6.39385 79.7363 6.18557C79.8022 6.14768 79.8753 6.12388 79.9392 6.08207C80.249 5.87939 80.276 5.38045 80.3121 5.04947L80.39 4.31452C80.4124 4.09019 80.3818 3.85875 80.6049 3.72678C80.7634 3.63301 81.0013 3.72352 81.0842 3.88066C81.1936 4.08787 81.0507 5.29152 80.9624 5.63233C80.88 6.04988 80.6928 6.47338 80.3256 6.71537C80.253 6.76322 80.1636 6.79329 80.1437 6.88421C80.0422 7.34809 80.0688 7.41793 80.2093 7.84668L80.7713 10.2236L81.3345 13.0102L82.201 17.8894C82.2193 17.9631 82.2218 18.0413 82.2357 18.1159L82.3617 18.9658C82.3758 19.0608 82.377 19.1618 82.4045 19.2535L85.9029 19.2488C86.3805 19.2486 86.2648 19.275 86.2653 18.7323L86.2607 14.3661L86.2095 12.3702L86.169 11.808L86.1271 10.2922C86.1228 10.2143 86.1061 10.1384 86.1029 10.0601L86.0964 9.35126L85.9752 6.90322C85.9716 6.85975 85.9776 6.78417 85.9561 6.74735C85.595 6.73621 85.2625 6.75076 84.9045 6.68316C83.4621 6.41082 82.4143 5.26502 82.1914 3.83275C82.1742 3.72204 82.1792 3.60806 82.1633 3.49709L77.305 3.48919ZM82.9029 3.49141C82.8805 3.56714 82.909 3.62967 82.9198 3.70051C83.1033 4.90061 83.9719 5.79826 85.1604 5.98134C85.4082 6.01948 85.6766 5.99464 85.9278 6.0059L85.9242 5.98954C85.8979 5.81994 85.9017 5.64586 85.8922 5.4747L85.8418 4.85482C85.8176 4.56722 85.7883 4.2746 85.7402 3.98995L85.6423 3.50186C85.5768 3.46771 84.9831 3.48907 84.8699 3.48907L82.9029 3.49141Z" fill="black"/>
</svg>
