<svg 

viewBox="0 0 81 20" fill="none" xmlns="http://www.w3.org/2000/svg">
<path d="M13.5394 19.2446L7.99064 19.2447C7.76165 19.2448 7.51876 19.2608 7.29126 19.2366C6.4997 19.1523 5.92051 18.5069 5.84282 17.7368C5.83258 17.6352 5.86076 17.1332 5.8364 17.0837C5.64536 16.6949 5.58974 16.4284 5.61267 16.006L5.69283 15.1414L5.76022 13.9332C5.76366 13.8695 5.7776 13.8089 5.78297 13.746L5.80498 13.2755L4.64919 14.7646C4.26709 15.2897 3.87447 15.7452 3.12936 15.6461C2.76773 15.5981 2.42144 15.3944 2.09759 15.2355L1.3979 14.9036C1.08971 14.7295 0.894731 14.4035 0.806263 14.0696C0.615412 13.3493 1.67704 10.4447 1.94046 9.73106L2.86081 7.43289L4.08685 4.72406C4.33561 4.21551 4.47864 3.90322 4.91187 3.50581C5.63522 2.84226 6.02986 2.79043 6.92222 2.78729C7.71308 2.78453 8.04181 2.30448 8.50222 1.7444C8.82521 1.35147 9.0953 0.841213 9.62136 0.75444L13.1699 0.750007C13.8844 0.749176 13.9237 0.819331 14.3847 1.40457L14.8269 1.9543C14.9817 2.15711 15.1243 2.42347 15.3416 2.5644L15.3582 2.57504C15.6262 2.75103 15.8701 2.78709 16.1782 2.78801L16.6659 2.78921C16.9541 2.79043 17.227 2.84456 17.4959 2.95596C18.2329 3.26134 18.7929 3.95875 19.0824 4.68733L20.213 7.15263L21.3421 9.97838L21.7504 11.181L22.0984 12.3768C22.1183 12.4744 22.1545 12.5705 22.1781 12.6676L22.3305 13.3627C22.5336 14.4552 21.9982 14.8152 21.1558 15.2106C20.4396 15.5467 19.7584 15.9402 19.0285 15.3563C18.8394 15.205 18.7077 15.0016 18.5595 14.8144L17.5281 13.4813C17.4753 13.4187 17.4101 13.3631 17.3627 13.2976L17.3549 13.2867C17.3571 13.4503 17.3789 13.603 17.3896 13.7644L17.4105 14.1668C17.4171 14.2383 17.4326 14.3091 17.4374 14.3807L17.5004 15.4574C17.5576 16.2271 17.6721 16.4357 17.2952 17.135C17.3812 18.0002 17.0631 18.9116 16.144 19.1762C15.9107 19.2434 15.702 19.2444 15.4621 19.2445L13.5394 19.2446ZM9.67707 1.46396C9.64709 1.46758 9.62113 1.46539 9.59429 1.47998C9.6749 1.68143 9.77458 1.88271 9.86998 2.07801L11.3756 5.28782C11.4464 5.44102 11.5002 5.60097 11.5915 5.74375C11.6209 5.71885 11.6596 5.57169 11.6786 5.52766L12.1947 4.42937L13.4505 1.80987C13.5041 1.70357 13.5756 1.59567 13.6022 1.47921C13.4329 1.45188 13.2526 1.46331 13.0815 1.46328L9.67707 1.46396ZM9.11507 2.13377L8.61154 2.72611C8.24279 3.13241 7.70483 3.47585 7.13937 3.49673C6.16796 3.5326 5.93911 3.44743 5.16226 4.26944C4.95079 4.49317 4.84454 4.78228 4.712 5.05603L3.4062 7.95556L2.28293 10.8946C2.01679 11.6773 1.76367 12.4602 1.57599 13.2658C1.49894 13.5965 1.35862 13.9465 1.67628 14.2099C1.82451 14.3329 1.98637 14.3698 2.15039 14.4591C2.27041 14.2523 2.38922 14.0388 2.52283 13.8407C2.83688 13.3752 2.94957 13.2423 3.1559 12.722L3.99147 10.7475L5.05228 8.42468L5.31516 7.89286C5.39032 7.73235 5.43962 7.51235 5.62833 7.44782C5.80997 7.38574 6.04183 7.45514 6.20492 7.54363C6.75296 7.84106 6.94138 8.35476 6.9595 8.9379L10.9212 8.93702C11.0082 8.937 11.1342 8.95338 11.217 8.9316L11.2178 6.8096C11.2176 6.69097 11.2321 6.62333 11.171 6.51945C11.1077 6.41166 11.0912 6.2692 11.0256 6.16792L7.48973 6.17262C6.89857 6.17255 6.27035 6.11139 5.81677 5.67378C5.67986 5.54169 5.52639 5.40333 5.46519 5.21831L5.45896 5.20046C5.43521 5.12952 5.43515 5.05121 5.46176 4.98109L5.46653 4.96799C5.53206 4.79498 5.73164 4.71938 5.90117 4.78485C6.03944 4.83824 6.10071 4.9446 6.19103 5.05135C6.47655 5.38874 6.97547 5.46508 7.39225 5.46835L10.6638 5.45875C10.6291 5.42493 10.6197 5.35756 10.5975 5.31394L9.11507 2.13377ZM14.0825 2.16479L12.4893 5.47018L15.6306 5.46878C16.1113 5.46844 16.6189 5.4067 16.9716 5.0312C17.0241 4.97533 17.0639 4.90934 17.1192 4.85602C17.304 4.6779 17.5924 4.73027 17.6859 4.96979L17.6925 4.98629C17.8643 5.43661 16.9439 5.94523 16.6247 6.06101L16.3273 6.1434C16.2096 6.1774 16.0746 6.17054 15.9525 6.1718L12.347 6.17223C12.1032 6.17219 12.1814 6.18592 12.0732 6.39246C12.021 6.49207 11.9256 6.61226 11.9269 6.72632L11.9276 8.93716L16.1835 8.9358C16.19 8.48556 16.3078 8.09088 16.6401 7.76944L16.7212 7.69559C16.917 7.51915 17.221 7.39137 17.4846 7.43422L17.503 7.43686C17.7283 7.47209 17.7927 7.72078 17.8602 7.90224L18.0991 8.41008L18.5477 9.38089L19.8492 12.3744C19.863 12.4204 19.8862 12.4637 19.9014 12.5099L20.0303 12.8488C20.1031 13.0944 20.2627 13.2843 20.4105 13.487L20.7494 13.9897C20.8098 14.0875 20.8817 14.1948 20.9245 14.3012L20.9949 14.4476C21.0017 14.463 20.9994 14.4578 21.0124 14.4737C21.6721 14.1345 21.7737 14.0444 21.5962 13.2966L21.4878 12.8453C21.266 11.9625 20.9853 11.1023 20.6743 10.2471L19.8172 8.03668L18.6882 5.52675C18.323 4.73113 18.0066 3.85551 17.0721 3.57019C16.6809 3.45077 16.2911 3.53414 15.8974 3.4934C14.8548 3.38555 14.6552 2.82942 14.0825 2.16479ZM5.94062 8.20213C5.8648 8.33736 5.81083 8.4937 5.74509 8.63535L4.41554 11.5527L3.94601 12.6631C3.82716 12.9294 3.75346 13.2209 3.62037 13.4798C3.49255 13.7284 3.30802 13.9546 3.15125 14.186L2.78221 14.7729C2.90561 14.8421 3.01965 14.8892 3.15852 14.9118C3.70139 14.9863 3.91231 14.5833 4.19127 14.2003L4.8293 13.342C5.13917 12.9393 5.47841 12.4999 5.93771 12.2565L6.20992 9.3219C6.23822 8.93544 6.33826 8.61097 6.04429 8.29414L5.94062 8.20213ZM17.2071 8.21175L17.1912 8.22763C16.7986 8.61669 16.8929 8.73636 16.9345 9.23458L17.2063 11.8611C17.2539 12.4698 17.244 12.1712 17.6741 12.5709C17.9624 12.8389 18.2084 13.1829 18.4473 13.4959L18.9317 14.1198C19.1787 14.4424 19.4542 14.9906 19.9408 14.9227L20.0585 14.9021C20.1491 14.8832 20.3072 14.8192 20.3712 14.7525C20.2107 14.4563 20.0185 14.1741 19.8238 13.8996C19.5318 13.4881 19.5256 13.5069 19.3495 13.0483L18.9794 12.1167L17.3385 8.44797C17.3043 8.37317 17.2733 8.27476 17.2187 8.21385L17.2071 8.21175ZM6.89918 9.64456L6.62066 12.5502L10.9498 12.5514L11.2174 12.5519L11.2181 9.86178C11.218 9.79714 11.2298 9.7068 11.2123 9.64499L6.89918 9.64456ZM11.9401 9.64262L11.9282 12.5525L16.5526 12.55C16.5782 12.4955 16.3602 10.6638 16.3347 10.431C16.3063 10.1703 16.2997 9.90229 16.2588 9.64327L11.9401 9.64262ZM6.53018 13.2577L6.51046 13.6526L6.35426 15.6954C6.33609 15.8854 6.32353 16.0674 6.32401 16.2585C6.32477 16.5547 6.46012 16.9661 6.80124 16.9841L11.0035 16.985L11.2168 16.9902L11.2181 13.5485C11.2181 13.4599 11.2315 13.3459 11.214 13.2599L6.53018 13.2577ZM11.9836 13.2584L11.9389 13.263C11.9196 13.3339 11.9269 13.4205 11.9267 13.494L11.9258 16.402C11.9258 16.5932 11.9127 16.7954 11.9294 16.9854C12.1029 17.0054 12.2955 16.986 12.4717 16.9855L15.4278 16.9855C15.8528 16.9853 16.2857 17.0908 16.6214 16.8239C16.9845 16.4568 16.8267 15.9029 16.7895 15.4431L16.6515 13.5843C16.6464 13.479 16.655 13.3632 16.6364 13.2602L11.9836 13.2584ZM6.55178 17.6439C6.64018 18.5077 7.25803 18.5262 7.94629 18.5235L15.4096 18.5222C15.8098 18.5218 16.0456 18.5318 16.349 18.2133C16.4764 18.0456 16.5834 17.853 16.5984 17.6379C16.3339 17.7007 16.0989 17.7019 15.8281 17.7023L6.8535 17.699C6.74844 17.6944 6.65392 17.6486 6.55178 17.6439Z" fill="black"/>
<path d="M33.9196 19.4597C33.5876 19.14 33.8313 19.0826 33.4985 19.4352C32.799 20.1763 31.6475 20.0294 30.7392 19.8729L29.0845 19.5721C28.5833 19.4787 28.0397 19.2565 27.9702 18.6642C27.9438 18.4396 28 18.2365 28.0365 18.0182L28.1885 17.1115L27.0568 16.9506C26.9872 16.9425 26.9163 16.9388 26.8488 16.9188L26.8319 16.9136C26.6527 16.8596 26.5318 16.7206 26.4895 16.5365L26.4851 16.5155C26.4519 16.3631 26.4561 16.1903 26.4435 16.0337L26.4026 15.369C26.3971 15.2864 26.3783 15.2054 26.3745 15.1225L26.3735 12.5492C26.3777 12.4431 26.4004 12.339 26.4061 12.233L26.6846 9.60798C26.8743 8.54169 27.1412 7.49486 27.4703 6.46309L27.6678 5.92078C27.9681 5.10888 28.2838 4.30865 28.9307 3.71197C29.0215 3.6282 29.123 3.52574 29.2338 3.4705L29.2211 3.28321C29.0771 1.62129 30.5026 0.530086 31.974 0.174401C32.3719 0.078231 32.7872 0.03114 33.1949 0L34.5702 0.0447123C35.9462 0.198055 37.3713 0.754429 37.9496 2.1155C38.1226 2.52256 38.167 2.99669 38.0872 3.42898C38.0761 3.48937 38.2424 3.57106 38.29 3.60729C38.8412 4.02735 39.2188 4.75957 39.4719 5.40272L39.8414 6.39308L40.1883 7.51882L40.5418 8.98993L40.771 10.257C40.7889 10.3323 40.7925 10.4118 40.8039 10.4884L40.9618 12.119L40.9709 12.7862C40.9732 12.8927 40.9908 12.9976 40.9921 13.1044L40.9906 13.7568C40.9883 13.8251 40.9737 13.8924 40.972 13.9607L40.9637 15.0079L40.8714 16.4886C40.8259 16.9335 40.4585 16.9377 40.0994 16.9879L39.1423 17.1167L39.3426 18.1687C39.4998 18.6949 39.2255 19.2709 38.6994 19.462C38.4741 19.5438 38.2126 19.567 37.9771 19.6115L36.117 19.9502C35.9962 19.9658 35.8778 19.9871 35.7556 19.9925L35.3386 19.9954C34.8404 19.9942 34.3698 19.8848 33.9917 19.5307L33.9196 19.4597ZM33.2871 0.662859C33.0661 0.670702 32.8494 0.693602 32.6307 0.726189L32.2098 0.808707C31.5237 0.967052 30.6873 1.33404 30.2619 1.93177L30.1041 2.17453C29.856 2.62209 29.7575 3.24353 30.0534 3.69343C30.1798 3.88576 30.3589 4.00367 30.5244 4.15607C30.7685 4.3808 30.8937 4.65875 31.0495 4.94396L32.5694 7.75744L33.3618 9.39639C33.4532 9.2337 33.5045 8.69504 33.5063 8.48018L33.507 7.94912C33.5064 6.88814 33.39 6.50768 32.8952 5.52307L32.136 4.05362C31.9239 3.64265 31.562 3.15523 31.6364 2.66556C31.7994 1.59274 32.6512 1.11291 33.6712 1.11148C35.0918 1.1095 36.2058 2.22043 35.4742 3.56719L34.0327 6.16586C33.9251 6.33336 33.9737 6.34963 34.0296 6.53321L34.1109 6.94879C34.1382 7.06781 34.1388 7.20545 34.1486 7.32786C34.2214 8.23454 34.2135 9.16474 33.8347 10.0061L33.7592 10.1642C33.7193 10.2421 33.717 10.2448 33.7466 10.3303C33.8904 10.7466 33.9772 11.2041 34.0008 11.6451L34.0047 18.2937L34.6253 18.2862C35.6477 18.2846 36.5072 18.1015 37.5125 17.9237L38.5804 17.7367L38.1927 15.5441C37.6121 15.4263 37.219 14.991 36.9615 14.4799C36.8425 14.2243 36.3699 12.9438 36.4597 12.6651C36.5527 12.3762 36.9459 12.3572 37.0651 12.6467L37.2372 13.2998C37.2407 13.3163 37.2459 13.3311 37.2515 13.3469L37.4419 13.9193C37.5088 14.1149 37.8132 14.725 38.0537 14.7682L38.0511 14.7585C38.0244 14.6582 38.0161 14.5553 38.0009 14.453L37.5034 10.9688C37.4784 10.7492 37.4593 10.5372 37.4595 10.3162L37.4865 9.07561C37.494 8.8273 37.6848 8.57022 37.9377 8.70326L37.9879 8.73671C38.167 8.86453 38.1231 9.12346 38.1227 9.31172L38.1176 10.2004C38.116 10.6108 38.147 10.872 38.2016 11.2853L38.6743 14.4416C38.699 14.6203 38.7139 14.8087 38.7555 14.9839L39.0049 16.4569C39.1554 16.4357 40.2125 16.3035 40.2449 16.2815C40.2534 16.0101 40.2765 15.7538 40.2865 15.4907L40.3198 14.5801L40.2838 11.8153L40.0646 9.95684L39.952 9.38793C39.7328 8.24368 38.9736 5.27887 38.1769 4.42275L37.8277 4.08662C37.7132 4.19476 37.624 4.32894 37.5071 4.4392C37.1925 4.73591 37.2563 4.62932 37.0444 5.01416L36.7342 5.55124L35.4081 7.61002C35.3098 7.75236 35.2127 7.90641 35.0182 7.89997C34.8787 7.89538 34.7733 7.79879 34.731 7.67045L34.7249 7.65264C34.6589 7.44738 34.8205 7.26925 34.9302 7.11481L35.695 5.97106L36.3081 4.96796C36.6402 4.39177 36.6032 4.37956 37.0835 3.91343C37.416 3.59074 37.5392 3.14452 37.4408 2.68978L37.4385 2.67848C37.1812 1.47471 35.8809 0.902381 34.7779 0.75263L34.4419 0.709729C34.26 0.69365 34.0826 0.669169 33.8999 0.664693L33.2871 0.662859ZM33.3742 1.78868C33.0184 1.84121 32.7075 1.95959 32.4849 2.25704C32.2171 2.61513 32.2557 2.82748 32.4305 3.18402L33.6474 5.52161L33.7776 5.29291L34.6994 3.61292C34.8669 3.31109 35.1205 2.99164 35.0232 2.62906C34.8133 1.84705 34.075 1.75781 33.3742 1.78868ZM29.5446 4.06614C28.7253 4.69298 28.3015 6.04033 28.0037 6.99179L27.5925 8.47552C27.4587 9.00291 27.3459 9.54602 27.2724 10.0857L27.0456 12.2138C27.0055 12.418 27.0311 12.657 27.0278 12.8658L27.0279 15.0093C27.0313 15.0852 27.0511 15.1593 27.0554 15.2351C27.0675 15.4456 27.0699 16.1789 27.1291 16.2865L28.3306 16.4626C28.3509 16.2399 28.3911 16.027 28.4272 15.807L29.1345 11.299C29.1944 10.8902 29.2266 10.5712 29.2251 10.1608L29.2204 9.13031C29.2195 8.98407 29.2085 8.86086 29.3314 8.75517C29.4882 8.62041 29.704 8.6568 29.8045 8.84048L29.8254 8.8787C29.8524 8.92994 29.8504 8.99875 29.8511 9.05487L29.8547 9.37902C29.8909 10.1956 29.8702 10.7367 29.7646 11.5378L29.3624 14.1887C29.3345 14.3786 29.2935 14.5668 29.2775 14.7581C29.4767 14.5863 29.6446 14.3558 29.7721 14.1267C29.9636 13.7864 30.0684 13.4133 30.1661 13.0377C30.2274 12.802 30.3183 12.2482 30.7215 12.4726C30.9839 12.6187 30.8639 12.9552 30.8079 13.1825C30.6115 13.9791 30.3221 14.8202 29.6261 15.3132C29.4873 15.4115 29.3431 15.4967 29.172 15.5214L29.1359 15.525L28.7588 17.7468L30.4583 18.0332C30.9962 18.124 31.5429 18.2374 32.0879 18.2757C32.5031 18.3048 32.9281 18.2871 33.3445 18.2869L33.3427 18.2728C33.3202 18.0821 33.3348 17.8744 33.3347 17.6817L33.3355 11.9713C33.3354 11.7581 33.3487 11.5301 33.3095 11.3201C33.2023 10.7453 33.0526 10.2874 32.7998 9.75062L31.702 7.51867L30.2019 4.77415C30.052 4.51217 29.7088 4.44244 29.5446 4.06614ZM38.6601 18.3984L35.2955 18.9433C35.2039 18.9637 35.1054 18.9601 35.0119 18.9612L34.5777 18.9685C34.5189 18.9711 34.4469 18.9678 34.3915 18.9863C34.4754 19.071 34.5477 19.1291 34.6534 19.1849C35.1438 19.4643 35.867 19.3264 36.3868 19.2351L37.9848 18.9311C38.2758 18.8756 38.7769 18.8245 38.7201 18.4088C38.6987 18.4019 38.6828 18.3958 38.6601 18.3984ZM28.6313 18.41C28.6259 18.4557 28.6227 18.4936 28.6311 18.5389L28.6334 18.5519C28.6849 18.818 28.9105 18.8532 29.1344 18.8933L31.4266 19.3062C31.8884 19.3518 32.3899 19.3949 32.8064 19.1472C32.8758 19.0976 32.9587 19.049 33.0177 18.9874C32.7243 18.9225 32.3386 18.9805 32.028 18.9507C31.3806 18.8886 30.7405 18.766 30.1005 18.6523L29.0225 18.4649C28.9175 18.4473 28.7351 18.3901 28.6313 18.41Z" fill="black"/>
<path d="M46.9557 19.4183C46.9019 19.5178 46.8474 19.6284 46.7587 19.7014C46.5313 19.8884 46.2475 19.6582 46.2985 19.3961C46.3214 19.2787 46.4133 19.1621 46.464 19.0529C46.547 18.8747 46.6114 18.6832 46.6552 18.4916L45.9632 18.3505C45.8888 18.6181 45.7116 18.9038 45.5338 19.1149C45.3432 19.341 44.9936 19.2397 44.9922 18.9411C44.9915 18.8068 45.1147 18.6721 45.185 18.5631C45.546 18.0036 45.4449 17.3274 45.4622 16.6964C45.4846 15.8795 45.5642 14.8514 45.7915 14.0824C46.3202 12.2936 47.7628 11.1296 49.0244 9.85881L51.5223 7.29899L52.3553 6.53315C52.5445 6.36884 52.7509 6.21002 52.9272 6.0326C52.693 5.94899 52.4247 5.93675 52.1808 5.88063C51.5149 5.72743 50.843 5.47164 50.2861 5.07042C48.9321 4.09496 48.8542 2.46375 50.0355 1.26439C50.2254 1.07162 50.4387 0.915734 50.6473 0.745336C50.7906 0.628301 50.9184 0.488343 51.0746 0.387753C51.4666 0.135204 51.9511 0.0751845 52.4057 0.0378533L53.1225 0L53.7521 0.00170942C54.0363 0.0044691 54.261 0.0312252 54.5395 0.0520952L54.8832 0.094603C56.1487 0.258903 57.8812 0.868138 58.348 2.19405L58.4755 2.58918L58.5294 2.88643C58.683 3.74326 58.2464 4.47608 57.7458 5.12074C57.2647 5.74027 56.7132 6.30655 56.1498 6.85095L53.5875 9.25259L51.8516 10.7973L50.4839 12.1909C49.4027 13.3737 48.927 14.0404 48.8418 15.6598L48.8072 16.6392C48.7683 17.7197 48.6807 18.6428 48.2204 19.6396C48.1693 19.7502 48.1304 19.8806 48.0249 19.9515C47.7899 20.1098 47.5048 19.8457 47.5597 19.6599L47.5641 19.6461C47.6597 19.3286 47.8492 19.024 47.9531 18.6631L47.2744 18.5704C47.1926 18.8718 47.0905 19.1369 46.9557 19.4183ZM52.9525 0.608007L52.1981 0.672353C51.9245 0.705074 51.6363 0.753014 51.3987 0.902925C50.929 1.19929 50.7141 1.94935 51.1245 2.37774C51.9319 2.07579 52.5504 1.91154 53.4358 1.86721L53.9017 1.8637C54.7816 1.86344 55.7343 1.95199 56.4526 2.51401C56.5133 2.56148 56.5655 2.61002 56.5968 2.68227L56.6034 2.6962C56.6404 2.77552 56.6422 2.87833 56.6123 2.96108L56.5982 2.99603C56.5255 3.17504 56.4021 3.33606 56.2924 3.49427C55.6312 4.44808 54.7168 5.17295 53.8807 5.96314C53.5315 6.29319 53.5164 6.12618 53.4248 6.61139C53.3752 6.87415 53.3686 7.06864 53.3322 7.31697C53.3168 7.72195 53.3285 8.15723 53.4063 8.55693C53.5906 8.40729 53.7597 8.2347 53.9353 8.07474L54.9513 7.14385C55.5645 6.56782 56.1854 6.00273 56.7447 5.37258C57.3735 4.66407 58.0525 3.85135 57.9175 2.83922C57.7227 1.37972 55.9083 0.812191 54.6659 0.673683L54.0708 0.613835L52.9525 0.608007ZM50.302 1.85211C49.8866 2.40336 49.6241 3.16339 49.9462 3.81996C50.5077 4.96453 52.3697 5.43946 53.5236 5.44622C53.5564 5.42348 53.5888 5.40201 53.617 5.3734L53.9317 5.08335L54.6346 4.44362C54.6815 4.39847 54.7696 4.33146 54.7975 4.27419L53.9209 4.2198C52.9486 4.1203 51.9929 3.9267 51.1986 3.31185C50.7355 2.95338 50.3213 2.46768 50.302 1.85211ZM53.8012 2.46416C53.0508 2.49405 52.2986 2.58404 51.5874 2.83404C52.0458 3.24644 52.6766 3.41645 53.2682 3.5245L53.8854 3.61304L55.3559 3.69514L55.9588 2.88621C55.2099 2.5105 54.6461 2.46018 53.8012 2.46416ZM52.727 7.02451C52.6159 7.1046 52.5217 7.20396 52.4227 7.29802L51.7724 7.93668C51.7464 7.96373 51.7154 7.98947 51.6993 8.02344L51.7024 8.04152C51.7685 8.44553 51.7475 8.97638 51.7064 9.38241L51.5867 10.198L51.7014 10.1063L52.9151 9.03C52.7337 8.51377 52.6941 7.90837 52.7066 7.3641L52.727 7.02451ZM51.0626 8.627C50.9053 8.77659 50.766 8.94864 50.6232 9.10999L49.5425 10.2433C49.3004 10.4824 49.3152 10.4514 49.2064 10.7765C49.0169 11.3428 48.7178 12.6971 48.8417 13.2992C48.9839 13.0453 49.1631 12.8128 49.3419 12.5852L50.5034 11.2698C50.6297 11.1416 50.7203 11.0717 50.7622 10.8942L50.81 10.6999C50.9838 9.98928 51.0586 9.35778 51.0626 8.627ZM48.3943 11.3227C48.2349 11.464 48.101 11.6311 47.9545 11.7849C47.1235 12.6572 46.3371 13.7648 46.2136 15.0006L46.5947 15.0466L48.2845 15.2583C48.304 15.2281 48.3947 14.4612 48.3698 14.3479C48.2052 13.5989 48.1555 12.9057 48.2518 12.1428L48.3943 11.3227ZM46.1418 15.6094C46.0998 15.7038 46.0702 16.383 46.0656 16.58L46.0464 17.7763L48.0838 18.0872C48.0916 18.073 48.0939 18.0697 48.0937 18.0529C48.1524 17.78 48.1564 17.5009 48.1736 17.2239L48.241 15.8503L46.1418 15.6094Z" fill="black"/>
<path d="M70.4405 19.9947L64.6807 19.9999C64.1302 20.0049 63.6102 19.7022 63.4802 19.1373C63.4561 19.0326 63.4661 18.9029 63.4656 18.7954L63.4644 18.1852C63.4143 18.1596 63.3585 18.153 63.3049 18.1388C62.991 18.0558 62.7162 17.7148 62.6263 17.4186L62.6208 17.4001C62.5201 17.0667 62.5764 16.6811 62.5768 16.3369L62.5779 15.8602C62.5799 15.2614 62.96 14.7314 63.5619 14.605C63.7304 14.5696 63.9413 14.5908 64.1147 14.5933C64.1295 14.5378 64.1251 14.4774 64.1306 14.4205L64.1674 13.7465C64.432 11.1143 65.3704 8.54223 67.4615 6.79822C67.9419 6.39757 68.4601 6.07993 69.0023 5.77197C68.8349 5.40955 68.8481 5.06395 69.1249 4.74416L69.1387 4.7283C68.8752 4.56166 68.5583 4.39162 68.3814 4.12359C67.8865 3.37359 68.2367 2.40702 69.1226 2.21217C69.2521 2.1837 69.3861 2.17966 69.5179 2.17003C69.3708 1.47994 69.5839 0.814358 70.309 0.59015L70.3936 0.566601C70.8175 0.481075 71.1679 0.615645 71.5185 0.847514L71.6846 0.614142C71.9432 0.297708 72.3102 0.0516258 72.723 0.0102426C73.2744 -0.0695679 73.7293 0.328795 73.9655 0.795686L74.0559 1.00891C74.1861 1.34431 74.1666 1.76965 74.0773 2.1114C74.1024 2.1298 74.1466 2.13426 74.1769 2.14197L74.393 2.20244C75.0245 2.40776 75.6047 3.05925 75.4171 3.76131L75.405 3.80673C75.2838 4.2667 74.9504 4.57011 74.4923 4.70598L74.4788 4.70987C74.6285 4.95219 74.8081 5.26507 74.745 5.55983C74.7399 5.5839 74.7151 5.64119 74.7169 5.66203C74.7207 5.70679 75.347 6.13792 75.4366 6.20388C76.7471 7.16902 77.8511 8.55615 78.4895 10.0615L78.974 11.3933C79.027 11.6219 79.0981 11.8626 79.1551 12.0937L79.3269 13.0482C79.4205 13.5567 79.4805 14.0839 79.5146 14.6001C79.6863 14.6098 79.8637 14.5739 80.035 14.6056C80.4136 14.6758 80.9272 15.1724 80.9836 15.5626C81.0026 15.694 80.9989 15.8341 80.9993 15.9667L80.9996 16.9778C80.9994 17.0883 81.0047 17.2016 80.9828 17.3104L80.9686 17.385C80.8892 17.7922 80.497 18.0862 80.1131 18.1734C80.0795 18.5767 80.2001 19.059 79.9817 19.4204C79.7016 19.884 79.3298 19.9944 78.8313 19.9953L70.4405 19.9947ZM72.7355 0.709151C72.6747 0.72829 72.6181 0.747824 72.5609 0.776423L72.5429 0.785267C72.1374 0.989966 71.8235 1.88761 71.3787 1.6001C71.1991 1.48403 71.0158 1.33714 70.81 1.27379L70.7887 1.26701C70.5314 1.18718 70.2434 1.35121 70.1653 1.60626C69.9894 2.18092 70.8323 2.44771 70.8909 2.83174L70.8938 2.84913C70.9054 2.92155 70.8945 2.98203 70.8592 3.04585L70.8517 3.05987C70.5929 3.51552 69.7856 2.75883 69.2639 2.90808L69.244 2.91357C69.0353 2.97328 68.7898 3.22853 68.8409 3.46604L68.8444 3.48335C68.9644 4.03493 69.7125 4.11006 69.9884 4.35693C70.4125 4.7364 69.5252 5.03729 69.5995 5.39972C69.6123 5.46192 69.6713 5.51909 69.7246 5.54926L69.7882 5.57902C69.9362 5.60047 70.0732 5.56589 70.2188 5.55153L70.8808 5.49231C71.3622 5.46002 71.8548 5.45817 72.3372 5.47384L73.657 5.60727C73.7202 5.61415 73.7832 5.62804 73.8461 5.61294L73.8597 5.60986C74.4195 5.47423 73.6329 4.91962 73.5468 4.71029L73.5403 4.69485C73.3276 4.15081 74.6521 4.18803 74.7455 3.57073L74.7483 3.55422C74.7706 3.41391 74.6925 3.2658 74.6106 3.15613C74.259 2.68527 73.5603 2.9068 73.3388 2.62078C73.1464 2.37241 73.4637 1.8765 73.4624 1.55199C73.4608 1.15708 73.17 0.677276 72.7355 0.709151ZM71.3122 6.16757L70.3007 6.25561C70.0879 6.2932 69.796 6.29446 69.5821 6.26041L68.9638 6.60244C67.1165 7.65931 65.7926 9.62142 65.2424 11.6616L65.0285 12.553L76.9511 12.5534L78.5349 12.5289C78.5071 12.4302 78.4939 12.325 78.4708 12.2246L78.2714 11.4831C77.7583 9.87401 76.8481 8.29541 75.5542 7.18309C75.1538 6.83887 74.7062 6.5619 74.2894 6.23898L74.28 6.24558C74.1341 6.34601 73.8967 6.31392 73.7265 6.31458L73.7412 6.33089C73.8517 6.46191 74.2754 7.37298 74.3464 7.55391L74.7211 8.46651L74.9614 9.23106C75.0839 9.63083 74.5203 9.88196 74.3238 9.45153C74.2558 9.30267 74.2092 9.13601 74.1582 8.98047L73.934 8.36042C73.6826 7.72841 73.3678 7.12811 73.0493 6.52847C72.8335 6.1222 72.95 6.17006 72.479 6.16821L71.3122 6.16757ZM65.9208 13.2482L64.9267 13.2535C64.8957 13.4051 64.8928 13.571 64.879 13.7256L64.8435 14.0027C64.826 14.1948 64.8188 14.3988 64.8203 14.5919L77.7226 14.5901L78.8175 14.5875L78.7005 13.5123C78.69 13.4355 78.6933 13.3104 78.6521 13.2479L65.9208 13.2482ZM63.8838 15.2934L63.7533 15.3044C63.7124 15.3086 63.6751 15.3187 63.6357 15.3297L63.6179 15.3345C63.2915 15.426 63.255 15.6952 63.2547 15.9747L63.256 16.9537C63.2568 17.173 63.3061 17.4826 63.5926 17.5112L66.5941 17.5151L67.1702 17.5138L67.1689 15.3025L63.8838 15.2934ZM68.8373 15.2931L67.864 15.3003L67.8645 17.3353C67.8698 17.5952 67.8633 17.5168 68.1527 17.5162L68.9286 17.5151L69.5254 17.5141C69.6411 17.5139 69.76 17.5195 69.875 17.5073L69.8736 16.0105C69.8736 15.7798 69.8946 15.5253 69.8688 15.297L68.8373 15.2931ZM71.3028 15.2933L70.5584 15.3002L70.5576 17.5153L72.1987 17.5151L72.8665 17.5164C72.8904 17.4856 72.8784 15.5082 72.8792 15.3016C72.6925 15.2824 72.4985 15.2928 72.3108 15.2928L71.3028 15.2933ZM74.0399 15.2932L73.6899 15.296C73.6599 15.2962 73.581 15.2885 73.5621 15.3059L73.5569 17.5138L75.1242 17.5151L75.5504 17.5087L75.5455 15.302C75.3695 15.2811 75.1816 15.2934 75.0042 15.2932L74.0399 15.2932ZM76.3684 15.2939L76.2363 15.3016C76.2268 15.4752 76.2173 17.4713 76.2422 17.5166L79.936 17.5143C79.9835 17.5122 80.0189 17.5045 80.0596 17.4807L80.1153 17.4481C80.2162 17.3565 80.3032 17.2751 80.3099 17.1307L80.3138 16.249C80.3143 15.8788 80.3795 15.4516 79.9241 15.315L79.9098 15.3104C79.7919 15.2751 79.6358 15.2926 79.5123 15.2925L76.3684 15.2939ZM65.8319 18.1743L64.1586 18.1777C64.1387 18.4296 64.1029 18.9886 64.2678 19.1651L64.3599 19.2394C64.4115 19.2781 64.4451 19.2877 64.509 19.2907L77.7811 19.2909L78.8985 19.2907C78.9995 19.2904 79.092 19.2995 79.1852 19.2534L79.2054 19.2437C79.2867 19.2033 79.3448 19.1445 79.3881 19.0648L79.3958 19.0512C79.4531 18.9447 79.4225 18.3401 79.4222 18.1794L65.8319 18.1743Z" fill="black"/>
</svg>
