<svg viewBox="0 0 82 22" fill="none" xmlns="http://www.w3.org/2000/svg">
<path d="M8.44389 20.6671C8.1065 20.4558 7.84149 20.1773 7.64423 19.8301C7.57374 19.9189 7.51963 20.0195 7.45379 20.1118C7.00475 20.7416 6.18133 21.0675 5.42413 20.9883C4.36781 20.8778 2.5609 20.1696 2.42061 18.9404C2.38889 18.6624 2.45424 18.3997 2.49208 18.1279L2.88372 15.1975L3.09826 13.7635L1.72478 13.4415C1.52179 13.3922 1.31001 13.358 1.1164 13.2782C0.597623 13.0644 0.304654 12.5246 0.427137 11.9806L2.49561 4.06111C2.62694 3.43401 2.73079 3.06895 3.38945 2.82223C3.51593 2.77487 3.64716 2.73925 3.76946 2.68105C4.66084 2.25684 4.65542 1.19615 5.76597 1.01066L8.94586 1.00469C9.061 1.00453 9.20544 0.988335 9.31538 1.01708L9.38715 1.03605C9.86604 1.17356 10.0793 1.51501 10.3522 1.89797L10.5619 2.17358C10.8371 2.53684 11.062 2.64108 11.4873 2.80112C11.7783 2.9106 12.0513 3.09101 12.2039 3.36876L12.2126 3.38482C12.2636 3.47656 12.4019 4.05333 12.4329 4.20968L12.5249 4.57065C12.5546 4.75402 12.628 4.93447 12.6604 5.11795L12.9352 6.1922C13.0063 6.60532 13.1743 6.9945 13.2535 7.40293L13.6645 8.94909C13.7256 9.298 13.8726 9.63514 13.9397 9.98309L13.9857 10.1601C14.0456 10.4871 14.1961 10.9541 14.286 11.2858C14.3435 11.4984 14.3818 11.7255 14.4525 11.9335L14.4697 11.9878C14.6013 12.4779 14.3426 13.0288 13.892 13.2535C13.7612 13.3188 13.618 13.3509 13.4766 13.3838L11.8067 13.7798C11.8077 13.9659 11.8417 14.1537 11.8679 14.3374L12.0971 15.8705C12.1901 16.4964 12.2798 17.1392 12.4407 17.7516L12.6517 18.6118C12.9472 19.6186 11.3049 20.5232 10.5599 20.7495C9.85382 20.964 9.10889 21.0215 8.44389 20.6671ZM5.66932 1.65168C5.36251 1.76707 5.25403 1.97548 5.0845 2.2389C4.92594 2.48523 4.74216 2.69086 4.53843 2.89993C4.30053 3.14407 4.44504 3.14934 4.37976 3.4847C4.36694 3.55049 4.27864 4.0625 4.3614 4.01194C4.60899 3.84396 4.99329 3.70232 5.29902 3.70488C5.37143 3.15912 5.50146 2.61886 5.61113 2.07927L5.66996 1.79836C5.68068 1.75175 5.70004 1.69775 5.69847 1.64988L5.66932 1.65168ZM6.38907 1.66808L6.34164 1.67079C6.3114 1.72956 6.31314 1.82133 6.299 1.88732L5.99586 3.33351C5.96382 3.4808 5.90856 3.65172 5.8988 3.80113C6.22137 4.04754 6.55229 4.25985 6.69992 4.65628L7.35698 6.35509C7.40725 6.47272 7.45263 6.58466 7.51151 6.69878L7.79307 5.97467L8.39575 4.40659C8.53796 4.0715 8.60206 3.91085 8.9639 3.74278L8.9815 3.73461C8.98032 3.67744 8.96178 3.61799 8.95163 3.56155L8.74082 2.41162C8.69631 2.16674 8.63084 1.91236 8.6185 1.66384L6.38907 1.66808ZM9.25034 1.67449C9.26706 1.97815 9.35518 2.28245 9.41082 2.58071L9.61558 3.69509C9.97372 3.76855 10.2295 3.84006 10.5361 4.03249C10.5433 3.85117 10.5515 3.05482 10.4435 2.94834L10.4158 2.9228C10.0797 2.61348 9.59369 1.69155 9.26001 1.6733L9.25034 1.67449ZM3.76221 3.37342C3.61793 3.43271 3.27887 3.52411 3.21885 3.67608L3.19899 3.73728C3.1604 3.85726 3.14795 4.00113 3.12415 4.12592L1.11346 11.8238C1.0245 12.208 0.926918 12.5461 1.42631 12.7055C1.58875 12.7573 1.76268 12.7902 1.9291 12.8278L2.75955 13.0327C2.88228 13.0642 3.01541 13.0852 3.13452 13.1278L3.43926 11.3474C3.49574 11.06 3.54153 11.0232 3.47091 10.7438C3.44051 10.6235 3.41784 10.5014 3.41944 10.3772C3.41869 10.0375 3.49786 9.4613 3.74404 9.19588L3.77211 9.17057C3.97274 8.9916 3.67629 8.51015 3.967 8.24216C4.11493 8.10579 4.33809 8.14022 4.43643 8.31057L4.44311 8.32172C4.47376 8.37798 4.45576 8.50126 4.45512 8.5671L4.4494 9.14407C4.74937 9.13944 7.30857 9.15561 7.33833 9.14236C7.34091 8.95343 7.36501 7.70762 7.33138 7.63052C7.32203 7.60906 7.29363 7.58117 7.27908 7.56051L7.19012 7.42058C7.05348 7.18171 6.92366 6.94183 6.81422 6.68904L6.34413 5.47505C6.15059 4.96024 6.06541 4.52609 5.47184 4.34313C5.26876 4.28051 4.76406 4.50223 4.59314 4.59486C4.37036 4.71559 4.10934 4.97533 3.85026 4.7978L3.83879 4.79007C3.58436 4.60987 3.71567 3.63799 3.78112 3.38352L3.76221 3.37342ZM11.1403 3.3585L11.1638 4.29501C11.1636 4.44655 11.191 4.57822 11.099 4.70747L11.0883 4.72277C10.8821 5.01011 10.6266 4.8227 10.4079 4.68836C10.12 4.51161 9.84661 4.41357 9.51763 4.35478C9.44185 4.34123 9.29235 4.28359 9.28409 4.29421C9.26177 4.32292 9.22441 4.34053 9.19411 4.35984C9.0223 4.46921 8.99112 4.57509 8.92257 4.75922L7.94402 7.38747C7.97095 7.54172 7.95779 7.71403 7.95781 7.87097L7.95701 8.66511C7.95672 8.82522 7.94988 8.98683 7.96126 9.14653L10.5467 9.14614L10.5461 8.79726C10.5463 8.62249 10.5308 8.46961 10.6683 8.33531C10.8922 8.11641 11.1366 8.3282 11.1717 8.61508C11.1909 8.77186 11.1874 8.92921 11.1884 9.0869C11.1896 9.25743 11.209 9.21907 11.2846 9.3548C11.5368 9.80795 11.6106 10.2613 11.464 10.7703C11.3806 10.9954 11.4017 11.0285 11.4408 11.2616L11.5974 12.1645C11.625 12.307 11.6462 12.4508 11.6712 12.5937L11.7497 13.1385L13.0737 12.8205C13.7753 12.6387 14.0042 12.6235 13.7845 11.8281L11.8628 4.49587L11.722 3.84576C11.6919 3.71605 11.6911 3.61989 11.5672 3.55138L11.1403 3.3585ZM4.16893 9.76946C3.95074 10.2492 4.01936 10.9409 4.56192 11.1555L4.61818 11.1742C4.78602 11.2247 4.92052 11.2192 5.09689 11.2199L5.60237 11.2207L5.70357 11.2207L5.7017 9.7869L4.71895 9.78585C4.5488 9.78553 4.33451 9.80697 4.16893 9.76946ZM10.4216 9.78499L6.32889 9.78661C6.30363 9.89833 6.31724 10.0328 6.31704 10.1475L6.31564 11.0464C6.31434 11.105 6.30725 11.1639 6.31831 11.2217L6.80361 11.2207L9.86107 11.2205C9.96465 11.2205 10.0874 11.2321 10.1889 11.2114C10.7142 11.1044 10.9908 10.555 10.889 10.0575C10.8796 10.0111 10.8316 9.80902 10.7999 9.78312L10.4216 9.78499ZM4.04734 11.5944L4.00825 11.8186C4.08001 11.8883 4.1684 11.9357 4.24982 11.9929L4.81847 12.3763C4.96248 12.4726 5.137 12.5581 5.22096 12.7156L5.22137 13.3437C5.22099 14.4323 4.57891 14.8235 3.56409 14.7547L3.1228 18.0796C3.08098 18.3889 2.98246 18.7001 3.0792 19.0052C3.29016 19.6707 4.48244 20.211 5.14617 20.3033L5.28776 20.3313C5.58298 20.4042 6.00984 20.3547 6.2987 20.2362C6.80724 20.0277 7.11763 19.5613 7.29749 19.0622C7.35407 18.9052 7.34234 18.7781 7.34248 18.6117L7.34077 11.8623C7.13491 11.8387 6.90833 11.8601 6.69978 11.8603L5.40126 11.8604C5.01447 11.8603 4.6418 11.9091 4.28535 11.7307C4.22795 11.702 4.09988 11.598 4.04734 11.5944ZM10.8254 11.6172L10.8116 11.6286C10.5669 11.8241 10.2548 11.8573 9.95495 11.8589L7.96053 11.8611L7.95891 17.9384C7.95923 18.4237 7.914 18.9117 8.12631 19.3652L8.21167 19.5374C8.34884 19.824 8.62033 20.0708 8.91637 20.1824L8.96887 20.1984C9.32202 20.2987 9.90047 20.3062 10.2546 20.1715C10.6978 20.0618 11.1216 19.8247 11.488 19.5562C11.811 19.3196 12.1134 19.0663 12.0056 18.6313L11.3069 14.7585C11.1736 14.759 11.0363 14.7652 10.9035 14.7563C10.1287 14.7044 9.70445 14.1761 9.70265 13.4375L9.70905 12.7361C9.71567 12.674 9.78333 12.6058 9.83092 12.57L10.8909 11.8644C10.8874 11.7831 10.8565 11.7015 10.8482 11.6194L10.8254 11.6172ZM3.93229 12.5636L3.66842 14.1328C3.88255 14.1303 4.0846 14.1354 4.28254 14.0404C4.66196 13.8397 4.6436 13.3709 4.59571 12.9869L4.16195 12.7068C4.11087 12.6724 3.99019 12.5602 3.93229 12.5636ZM10.9786 12.5636L10.4703 12.9074C10.4172 12.9441 10.3724 12.9512 10.3295 13.0045L10.3301 13.4518C10.3303 13.7251 10.3849 13.8898 10.6509 14.0337C10.866 14.1224 10.9778 14.1306 11.2182 14.1206L11.0841 13.0938C11.0729 13.0105 11.0457 12.56 10.9786 12.5636Z" fill="black"/>
<path d="M28.2578 20.5176L27.5394 20.3834C27.353 20.361 26.5673 20.2685 26.4203 20.3885C25.5939 21.0635 24.0866 21.1596 23.1474 20.716C22.0233 20.185 22.0573 19.4973 22.1458 18.4687L22.2808 17.1571C22.3119 16.9126 22.3137 16.6557 22.361 16.4141L22.5846 14.9901L23.0166 12.8973L23.4233 11.3183C23.4815 11.1218 23.5101 10.8306 23.6554 10.6792L23.6697 10.6647C23.6995 10.6339 23.7321 10.6281 23.7724 10.6203L23.7949 10.6161C23.9253 10.5907 24.0778 10.6572 24.1337 10.7801L24.1386 10.7915C24.1819 10.8833 24.1711 10.978 24.1501 11.0742L23.5153 13.5886L23.1388 15.5436L22.857 17.7391L22.832 18.0825C22.7568 18.8396 22.5084 19.5939 23.2779 20.0381C24.7439 20.8844 26.8083 19.8697 27.0929 18.2162C27.1203 18.0568 27.1141 17.8841 27.1147 17.7227L27.1173 5.23127C27.0845 5.21026 27.0128 5.21372 26.9722 5.20941L26.6512 5.16077C25.6978 4.96977 24.8236 4.29381 24.4707 3.37945C23.512 3.70683 22.6703 4.3041 22.2936 5.28723C22.2019 5.52666 22.1445 5.7781 22.0655 6.02182L20.5032 11.1625L19.1874 15.812C19.1555 15.94 19.1304 16.0956 19.2044 16.213L19.2133 16.2267C19.3693 16.4703 19.9684 16.5407 20.242 16.6215L20.7543 16.7783C21.2857 16.9355 21.2969 16.7779 21.399 16.2726L21.6426 14.7899L22.0545 12.6668L23.224 8.09429C23.279 7.88129 23.3788 7.45267 23.7149 7.61082C23.9327 7.71328 23.9373 7.91759 23.8907 8.11813L22.6764 12.8498L22.1027 16.0383C22.0339 16.4015 22.0149 16.7719 21.8087 17.0927L21.7381 17.1923C21.299 17.7582 20.6099 17.4065 20.0633 17.2574C19.4348 17.0859 18.727 17.0364 18.5345 16.2738C18.4486 15.9338 18.5611 15.6448 18.6559 15.3203L20.0141 10.5332L21.6608 5.12565C22.0455 4.01287 23.1905 2.99441 24.3426 2.71706C24.382 2.70759 24.4101 2.41104 24.4252 2.35015C24.7065 1.21313 25.8376 1.06812 26.8291 1.00385C27.0648 0.991503 27.295 1.0122 27.5295 1.01908C28.5703 1.04961 29.8999 1.1319 30.2211 2.33435C30.3526 2.8263 30.1235 2.67723 30.616 2.82022C32.0424 3.23436 32.8819 4.15818 33.2393 5.62081C33.2882 5.82088 33.3508 6.01598 33.397 6.21612L34.2936 9.37113C34.3185 9.49339 34.36 9.62391 34.3964 9.74338L34.6588 10.6384C34.7165 10.8333 34.7621 11.0329 34.8207 11.2273L35.0121 11.9263C35.0705 12.1273 35.1494 12.3315 35.1904 12.537C35.2298 12.7342 35.3281 13.081 35.392 13.2603C35.5079 13.586 35.5921 13.9327 35.6849 14.2658C35.7617 14.5414 35.8913 14.9317 35.9439 15.2038L36.1008 15.7491C36.2579 16.2581 36.0468 16.8495 35.5467 17.0702C35.3996 17.1351 35.2368 17.1688 35.0815 17.2086L34.4441 17.375C34.0806 17.4688 33.7226 17.6212 33.3506 17.4727L33.2118 17.4096C32.6815 17.1136 32.6741 16.3952 32.5907 15.8727L32.3205 14.3316L31.9588 12.7936L31.5509 11.453C31.4381 11.044 31.362 10.6266 31.2825 10.2103L30.8537 8.13499C30.8036 7.89658 30.6952 7.47962 31.0429 7.40933C31.3102 7.35528 31.4018 7.57883 31.452 7.78837L31.9193 10.0438C31.9315 10.0947 31.9347 10.1483 31.9437 10.1999L32.0612 10.8438C32.0848 10.9659 32.1018 11.0961 32.1428 11.2141L32.5512 12.5367C32.5556 12.5561 32.5601 12.5738 32.5665 12.5927L32.8357 13.652C32.8538 13.7686 32.8932 13.8867 32.9161 14.0034L33.1011 14.9901C33.1127 15.0544 33.1133 15.1204 33.1245 15.1844L33.2858 16.17C33.3079 16.313 33.3206 16.4711 33.372 16.6072L33.4094 16.7272C33.5289 16.9878 33.8627 16.8374 34.0672 16.7838L35.0102 16.5504C35.6489 16.3965 35.5203 16.0839 35.3865 15.5989L32.7409 6.24976C32.6612 5.95375 32.5931 5.64573 32.4954 5.35561C32.1484 4.32487 31.2101 3.58287 30.1451 3.39653C29.8756 4.34033 28.7343 5.12172 27.7987 5.20743L27.7839 5.2087C27.7769 5.31328 27.7863 5.42097 27.7867 5.52605L27.7881 17.4951C27.7879 17.6522 27.7915 17.8091 27.771 17.9653L27.7126 18.4533C27.6432 18.896 27.379 19.3192 27.1465 19.6919C27.6836 19.7446 28.226 19.7986 28.7431 19.9634C29.2551 20.1267 29.5171 20.3422 30.0792 20.3409C30.8958 20.3392 31.865 20.0691 31.9323 19.0927C31.9686 18.5668 31.8758 18.0255 31.8171 17.5045C31.6822 16.3079 31.5082 15.1086 31.2206 13.9379L30.765 12.2002C30.6605 11.8334 30.5332 11.4611 30.4567 11.0879C30.3417 10.5276 30.9789 10.4253 31.0921 11.0164C31.1059 11.0888 31.1343 11.1876 31.1609 11.2568L31.3813 12.0046C31.4125 12.0995 31.4471 12.2063 31.4669 12.3037L31.5167 12.4946C31.5248 12.5441 31.5462 12.5896 31.5588 12.6383L31.6639 13.0528C31.6807 13.1073 31.6967 13.1585 31.705 13.2154L32.0347 14.6476C32.0493 14.7374 32.0742 14.826 32.0901 14.9165L32.1591 15.261C32.1717 15.3251 32.1703 15.3917 32.1822 15.4553L32.3456 16.4969C32.3591 16.618 32.3553 16.7425 32.3713 16.8627L32.4854 17.6164C32.5564 18.1358 32.626 19.0486 32.5156 19.5125C32.2008 20.8354 30.4983 21.2217 29.354 20.8849C28.9824 20.7756 28.6363 20.6128 28.2578 20.5176ZM26.5516 1.70761C26.191 1.72813 25.7998 1.7681 25.4717 1.92997C25.9697 2.41766 26.7309 2.53665 27.3988 2.52931L28.0156 2.48017C28.4261 2.39735 28.8435 2.28679 29.1423 1.9705C28.9395 1.85568 28.7007 1.82477 28.4724 1.79898L26.9144 1.7054C26.7944 1.7054 26.6713 1.70033 26.5516 1.70761ZM25.0839 2.47687C25.0171 2.64072 24.9666 2.87819 25.0362 3.04901L25.1178 3.25753C25.4238 3.99749 26.3551 4.47781 27.1111 4.57528C27.1132 4.19707 27.095 3.80793 27.1182 3.43115C27.14 3.07588 27.2684 3.21297 26.8026 3.17215C26.2455 3.12332 25.6039 2.9069 25.1708 2.53913C25.1502 2.52156 25.1105 2.47567 25.0839 2.47687ZM29.5595 2.47683C29.0237 2.93701 28.4804 3.12101 27.7718 3.18696L27.7796 4.5261C27.8036 4.53361 27.7919 4.53378 27.8145 4.52702C28.6954 4.40797 29.9021 3.42701 29.5595 2.47683Z" fill="black"/>
<path d="M50.3951 20.6657L50.1962 20.4512C49.4378 21.2309 48.9819 21.242 47.9244 21.2425L45.9974 21.2426C44.856 21.2419 43.7879 20.63 43.4847 19.4722C43.4421 19.3096 43.4311 19.143 43.3952 18.9795L43.1573 19.1028C42.1941 19.5539 40.9593 19.2129 40.5223 18.2032C40.4256 17.98 40.209 17.1334 40.208 16.9035L40.1519 16.0033L40.1522 13.3774C40.1567 13.2622 40.1837 13.15 40.191 13.0346C40.3115 11.114 40.6396 9.11677 41.3482 7.31838C42.008 5.64366 42.9391 4.41517 44.6843 3.73536L45.6834 3.39123C45.9062 3.32554 46.131 3.27338 46.3448 3.18028L46.3191 3.06542C46.0238 2.14884 46.9795 1.09042 47.8695 0.910832C48.0627 0.871833 48.2552 0.86143 48.4499 0.836478L48.9436 0.790644C49.0297 0.782854 49.1143 0.764662 49.2009 0.760691L49.748 0.757324L51.3912 0.79768C52.3511 0.862309 53.5808 1.11452 53.9268 2.16907L53.9693 2.30177C54.0482 2.55496 54.0326 2.94347 53.9327 3.19583L55.201 3.59972C56.525 4.03112 57.7158 4.89414 58.3915 6.12753L59.0511 7.60903C59.1681 7.85258 59.2134 8.13288 59.3045 8.38529L59.8041 10.5466C59.8288 10.6279 59.8336 10.7084 59.8468 10.7917L60.0706 12.4686L60.1069 13.0763C60.1493 13.5029 60.1516 13.8146 60.1519 14.2442L60.1383 16.1305C60.1332 16.233 60.106 16.3313 60.1002 16.4337C60.0888 16.6335 60.108 16.85 60.0768 17.0464C60.0388 17.2854 59.8815 17.9231 59.8013 18.1369C59.5745 18.7422 59.0057 19.2027 58.363 19.2853C57.9051 19.3441 57.2875 19.2572 56.917 18.9688L56.9049 18.9592C56.8875 19.0669 56.88 19.1778 56.8561 19.2842C56.5949 20.4462 55.6604 21.1934 54.4657 21.2398L52.18 21.2426C51.5009 21.2421 50.9945 21.2258 50.4505 20.7187L50.3951 20.6657ZM49.0992 1.49511L48.6453 1.5177C49.4509 2.43762 49.8713 3.65545 49.2702 4.81579C49.4953 5.04295 49.7608 5.25925 49.9471 5.52096C49.9797 5.5668 50.0146 5.63102 50.0598 5.66447C50.6081 4.9064 51.2252 4.42874 52.0453 3.97712C52.2765 3.84979 52.5224 3.75629 52.7439 3.61102C53.9033 2.76865 52.9787 1.53718 52.2544 1.89794L52.2371 1.90631C51.686 2.17948 51.7119 2.81343 51.4444 3.19611C51.2131 3.52707 50.7359 3.31406 50.811 2.91741L50.8144 2.89811C50.8745 2.58356 51.1276 2.06964 51.2995 1.81567C51.3593 1.72737 51.4791 1.62623 51.5189 1.53223C51.1771 1.48074 50.8269 1.49511 50.4822 1.49496L49.0992 1.49511ZM47.7525 1.71126C47.4666 1.87452 47.1312 2.11804 47.034 2.45254L47.0042 2.58065C46.9869 2.65844 46.986 2.73845 46.9993 2.8169L47.0015 2.83092C47.0136 2.90387 47.0325 2.98091 47.0602 3.04934L47.0647 3.06195C47.251 3.58009 47.8603 3.8616 48.295 4.12932C48.695 4.37972 48.7284 4.49315 48.8187 3.9448C48.9637 3.06358 48.4572 2.23222 47.788 1.70395L47.7525 1.71126ZM46.6842 3.84715L45.3378 4.26423C42.4988 5.25785 41.8638 7.4658 41.2609 10.1598L41.1554 10.7008C41.1079 11.015 41.0639 11.3271 41.0251 11.6427L40.9041 12.7362C40.8675 13.1792 40.8472 13.6216 40.8464 14.0658L40.8495 15.5146C40.8536 15.6502 40.8811 15.7838 40.8872 15.9186C40.9046 16.3004 40.868 16.7073 40.9536 17.0834L41.0442 17.4438C41.0779 17.5875 41.1066 17.7506 41.1659 17.8868C41.5588 18.7895 42.9485 18.774 43.3392 18.0568L43.3328 16.1868C43.3362 16.0794 43.3564 15.9743 43.3609 15.8674L43.4309 14.5167L43.6098 12.9261C43.7688 11.76 43.9971 10.6107 44.3343 9.48178L44.4762 9.00138C44.5214 8.84674 44.5632 8.63899 44.6771 8.51757C44.9803 8.19432 45.363 8.56825 45.2375 8.93128L44.8799 10.1513L44.4738 11.9486L44.1172 14.686C44.0875 15.0299 44.0677 15.376 44.0553 15.7205L44.0507 18.366C44.0708 19.3858 44.4632 20.3789 45.628 20.4994C45.7719 20.5143 45.9269 20.5043 46.0719 20.5042L48.7132 20.4999C48.8192 20.4939 48.9648 20.4493 49.0623 20.412C49.9378 20.0776 50.1322 19.3034 50.1326 18.478L50.1334 11.3693C50.1335 10.2901 50.1571 9.21294 50.0644 8.13705C49.9694 7.03468 49.8056 6.27408 48.9329 5.4845C48.3694 4.9746 47.1116 4.40103 46.7353 3.85972L46.6842 3.84715ZM53.5069 3.83673C53.1651 4.23933 52.749 4.40696 52.2976 4.64404C51.5538 5.03473 50.8647 5.60316 50.4362 6.33542C50.4553 6.41794 50.4879 6.50151 50.5206 6.57956L50.6714 7.15175C50.6923 7.23121 50.6917 7.31559 50.7033 7.3965L50.8087 8.59468C50.817 8.70027 50.8346 8.80435 50.8388 8.91039L50.841 18.5541C50.8408 18.9929 50.8408 19.2222 50.6948 19.651C50.6614 19.7493 50.6078 19.7684 50.665 19.8617C51.0324 20.4614 51.4213 20.5057 52.0274 20.5055L54.0111 20.5042C54.8185 20.5039 55.5272 20.4559 55.9824 19.6272C56.272 19.1001 56.2186 18.1416 56.2459 17.5395L56.2023 15.095C56.119 13.8212 55.9451 12.5504 55.6853 11.3001L55.3736 10L55.1627 9.27201C55.0971 9.06438 54.9404 8.79707 55.0668 8.58242C55.175 8.39876 55.4018 8.34335 55.5749 8.471C55.6645 8.53709 55.7087 8.68218 55.7416 8.78483L56.1352 10.1256C56.1624 10.2719 56.2021 10.4259 56.2372 10.571L56.5126 11.8503C56.6962 12.8577 56.8537 13.9972 56.9177 15.02L56.9372 15.8059C56.9411 15.9063 56.9642 16.0038 56.9671 16.1053L56.9605 17.8255C56.9414 18.1861 57.106 18.2825 57.4371 18.4536C58.0093 18.7493 58.8 18.5766 59.093 17.9743C59.2212 17.711 59.3444 17.1453 59.3717 16.8285L59.4134 16.1012C59.4263 15.9699 59.4459 15.8377 59.452 15.7058L59.456 13.8125L59.2979 11.8356L59.0078 10.095C58.5833 7.97088 57.8807 5.63721 55.795 4.61396C55.2934 4.36786 54.7292 4.19161 54.1939 4.03561L53.5069 3.83673Z" fill="black"/>
<path d="M73.9435 17.297L73.0335 12.6593C73.0122 12.8381 72.9729 13.0153 72.9393 13.1922L71.9019 18.3241L71.6029 20.2951C71.5704 20.7464 71.6164 20.9636 71.0429 20.9645L70.4982 20.9635C70.3437 20.9622 70.2016 20.9406 70.05 20.9239L69.695 20.8997C69.5689 20.8887 69.4442 20.8703 69.3173 20.868L67.0056 20.8697C65.2306 20.8714 64.0135 19.5505 64.1645 17.7997C64.1756 17.6706 64.1978 17.5463 64.1998 17.4159L64.2052 16.2457C64.2099 16.1112 64.2352 15.9779 64.2428 15.8434L64.4394 13.4299L64.7519 10.758L65.1965 7.98106C65.2401 7.74562 65.2081 7.53711 65.2469 7.34592C65.4151 6.51692 65.8675 5.86294 66.3708 5.19457L66.7885 4.64391C67.6656 3.37546 67.6371 2.73504 67.6579 1.30715C67.6606 1.12816 67.7909 1.03534 67.9599 1C68.0742 1.00459 68.1564 1.0549 68.2576 1.09992C68.7361 1.31281 69.2604 1.33485 69.7747 1.33528L76.4849 1.33536C76.9205 1.33511 77.3147 1.3228 77.7344 1.1793C78.0003 1.08839 78.2449 0.825286 78.4666 1.21183L78.4757 1.22792C78.5281 1.31895 78.5136 1.46401 78.5151 1.56733L78.5139 2.26285C78.505 4.1657 79.9543 5.04997 80.5871 6.59944L80.6473 6.74489C80.7507 6.97308 80.7931 7.23765 80.8306 7.48425L81.4765 11.5466C81.5359 11.9197 81.5608 12.2992 81.6053 12.6741L81.8409 14.9815C81.8984 15.6448 81.9106 16.3108 81.9511 16.9699L81.9998 18.023C82.0006 19.3879 81.1711 20.4858 79.8004 20.7643C79.5296 20.8193 79.2414 20.8545 78.965 20.8644L76.6627 20.9218C76.1376 20.96 75.5997 21.0172 75.0726 20.9951C74.7083 20.9798 74.6735 20.7834 74.6208 20.5022L73.9435 17.297ZM68.3326 1.86535C68.3235 1.96065 68.3244 2.05173 68.3295 2.14725C68.7482 2.37249 69.1874 2.48312 69.6526 2.56282L70.5915 2.68867C70.6678 2.69876 70.7399 2.72826 70.8157 2.73784C71.1334 2.77799 71.46 2.78124 71.7792 2.80847C71.8824 2.81727 71.9789 2.84475 72.0839 2.84923L74.1568 2.85345C74.2971 2.85223 74.4468 2.85613 74.5856 2.83326L74.7177 2.81866C74.8827 2.79148 75.0566 2.80123 75.2233 2.78248L75.8145 2.70349C76.3628 2.63301 76.9181 2.55741 77.4279 2.32865L77.8125 2.11204C77.8062 2.02871 77.8035 1.94277 77.7846 1.8613L76.9161 2.03108C76.8219 2.05243 76.7186 2.0459 76.6226 2.04607L69.3759 2.0428C69.0265 2.02376 68.6743 1.93458 68.3326 1.86535ZM77.8578 2.8682C77.4857 3.06414 77.0815 3.19393 76.6703 3.27943L76.2216 3.35655C76.1845 3.36259 76.1146 3.36181 76.0855 3.3809L76.0832 4.1079C76.0827 4.30384 76.1221 4.49273 75.9681 4.64257C75.7803 4.82539 75.5192 4.70639 75.4227 4.48868L75.4157 4.47393C75.3524 4.33292 75.3812 3.65824 75.3922 3.47959L74.2323 3.54349L74.2301 7.30979C74.2299 8.00305 74.1894 8.56287 73.5461 8.99549C73.4017 9.09259 73.4287 9.05627 73.4231 9.24879L73.4371 10.7665C73.4439 10.9408 73.4312 11.1177 73.4538 11.2906L75.2649 20.3303L75.659 20.3185C75.9502 20.3264 76.2466 20.2859 76.536 20.2643L77.7276 20.1913C77.8154 20.185 77.9011 20.1658 77.9889 20.1606L78.9777 20.1272C79.3312 20.1179 79.6626 20.1283 79.9971 19.9946C80.7301 19.7018 81.2478 19.0559 81.3094 18.2652C81.3341 17.9481 81.2999 17.6356 81.2836 17.3196L81.2675 16.5446L81.1186 14.1138L80.6757 10.3337L80.3501 8.36652C80.2776 7.95587 80.2525 7.53011 80.1189 7.1336C79.6539 5.75328 78.4571 5.02184 78.008 3.46474C77.9522 3.27117 77.9278 3.05436 77.8578 2.8682ZM68.287 2.90401C68.2249 3.10095 68.191 3.30725 68.1322 3.50646C68.0168 3.89775 67.8155 4.31147 67.6043 4.66197C67.0493 5.58325 66.2132 6.27164 65.9152 7.3547C65.8693 7.5217 65.8689 7.70859 65.8493 7.88054L65.2951 11.6282L65.1249 13.0886L64.9289 15.3844L64.9098 15.9532C64.9036 16.0719 64.8801 16.1892 64.8749 16.3089L64.8682 17.5346C64.8625 17.8319 64.7756 18.1304 64.846 18.4277C65.0685 19.367 65.6617 20.0206 66.6609 20.1455C66.9161 20.1774 67.195 20.1569 67.4527 20.1569L69.2116 20.1593C69.3302 20.1624 69.4419 20.1854 69.5588 20.1933L70.5998 20.2704C70.7008 20.279 70.8251 20.3023 70.9246 20.2816C70.9397 19.8545 71.0063 19.4444 71.0759 19.0235L71.7024 15.7149L72.405 12.3253C72.5371 11.6369 72.5881 10.927 72.6688 10.2311C72.7129 9.85141 72.735 9.46955 72.741 9.08779C72.2848 8.90819 72.0636 8.56517 71.9348 8.09508C71.895 7.95007 71.9115 7.77897 71.9114 7.62955L71.9087 3.52477L70.7407 3.42059C70.6943 3.81266 70.9062 4.77402 70.3413 4.70561L70.3244 4.70369C70.0347 4.66675 70.0472 4.39814 70.0468 4.19267L70.0458 3.58191C70.0453 3.30279 70.1225 3.32558 69.8599 3.2887L68.9867 3.12735C68.8252 3.09078 68.6565 3.05273 68.5002 2.99814C68.4275 2.97274 68.3595 2.92449 68.287 2.90401ZM72.5755 3.61022L72.5706 7.58377C72.571 7.96207 72.6452 8.30177 73.0329 8.48693L73.368 8.2465C73.5845 7.98423 73.5557 7.72024 73.5536 7.40533L73.5493 3.60929L72.5755 3.61022Z" fill="black"/>
</svg>
