<svg  viewBox="0 0 83 20" fill="none" xmlns="http://www.w3.org/2000/svg">
<path d="M11.4844 1.84819L9.3972 1.85046C9.17374 1.85365 8.95944 1.88002 8.73911 1.91639C8.09591 2.02257 7.17396 2.24257 7.50562 3.14065C7.84675 4.06439 8.40745 4.98804 9.15301 5.64724L9.4461 5.9111C10.3022 6.62501 10.511 6.8883 10.5114 8.07789L10.5113 17.1153C10.5113 17.256 10.5253 17.4123 10.5044 17.5511L10.5019 17.5663C10.3972 18.2223 9.82757 18.7318 9.1891 18.8575C9.04135 18.8866 8.86278 18.8686 8.71198 18.8687L6.11976 18.8689C5.86099 18.8689 5.59096 18.8845 5.33325 18.8677C5.17628 18.8574 4.93259 18.6234 4.91302 18.4797L4.9112 18.4615C4.88118 18.1798 4.9017 17.874 4.90092 17.5895C4.85543 17.5384 4.77519 17.5117 4.71819 17.4719C3.96748 16.9464 3.55834 16.2332 3.50275 15.3314L1.71855 14.8694C1.22324 14.7534 1.18098 14.7249 1.06248 14.2263C0.893318 13.5146 0.828284 13.0377 0.827637 12.3156L0.837777 11.4118C0.842171 11.3325 0.86162 11.2601 0.868582 11.1831L0.943173 10.4549C1.03429 9.84801 1.17025 9.24673 1.32427 8.65306L1.95161 6.61235C2.36797 5.46003 3.00734 3.65486 4.19948 3.16355C4.44982 3.06037 4.71817 3.0088 4.98141 2.95029L6.4318 2.60275C6.52867 2.58046 6.62696 2.54731 6.72612 2.53773L6.74791 2.53589C6.77849 2.48045 6.78331 2.39672 6.79919 2.33412C7.05617 1.32081 8.60627 1.14574 9.50438 1.11653L10.1644 1.11426L12.272 1.11681C13.1472 1.1506 14.4987 1.30653 14.8111 2.30212C14.9017 2.5911 14.8364 2.48319 15.1648 2.56869L16.1434 2.80135C17.8935 3.18484 18.272 3.41032 19.0855 5.18651L19.5391 6.28374L20.1184 7.98927C20.1822 8.19811 20.2582 8.41725 20.2987 8.63153L20.349 8.82141C20.3883 9.0458 20.468 9.27213 20.519 9.49553L20.6556 10.1436C20.7956 10.8259 20.8289 11.6914 20.8276 12.3797L20.8147 12.8584C20.8062 12.981 20.7866 13.0997 20.7697 13.2217L20.5044 14.4646C20.4309 14.7408 20.1743 14.8025 19.9303 14.8592L18.1456 15.3278C18.1065 15.3373 18.1232 15.368 18.1212 15.4066C18.0789 16.2347 17.5447 17.1145 16.8217 17.5142C16.7045 17.579 16.7205 17.547 16.7184 17.6814L16.7153 18.2367C16.715 18.3161 16.7313 18.4727 16.6836 18.5391C16.3525 18.9992 16.2454 18.8686 15.7012 18.8689H12.6865C12.6061 18.8687 12.5211 18.874 12.4423 18.8556L12.3125 18.826C11.7148 18.6804 11.1597 18.1305 11.104 17.4984C11.0856 17.2904 11.0998 17.0714 11.0998 16.8619L11.0997 7.86855C11.1012 6.681 11.5466 6.49477 12.3899 5.74723C12.8701 5.3215 13.3147 4.75656 13.6283 4.20087L13.8356 3.79151C13.9487 3.56142 14.0498 3.32942 14.1199 3.08232C14.5056 1.72173 12.2683 1.8479 11.4844 1.84819ZM14.8171 3.22487C14.5425 4.33905 13.6165 5.61768 12.7873 6.35695L12.3721 6.70317C11.7511 7.20415 11.7995 7.47295 11.7992 8.24428L11.7993 16.9758C11.7996 17.4346 11.7904 17.7944 12.278 18.0451L12.4314 18.1131C12.5231 18.152 12.6695 18.1332 12.77 18.1333L15.9857 18.1438C16.0028 18.1448 15.9972 18.1444 16.017 18.1395L16.0163 17.4874C16.0167 17.1761 15.9802 17.1572 16.2767 16.9961C16.9243 16.6442 17.4108 16.0197 17.4119 15.2562C17.4124 14.9369 17.2841 14.6309 17.1651 14.3402L16.5365 12.837C16.3488 12.3632 16.1799 11.8641 16.0914 11.3616C15.9815 10.8317 16.0433 10.1055 16.3386 9.65639C16.5238 9.37486 17.1144 8.75579 17.4505 8.68418C17.718 8.62718 17.9761 8.95385 17.8411 9.19452C17.7831 9.29789 17.6598 9.36917 17.5675 9.43921C17.1018 9.79228 16.754 10.1295 16.7512 10.7499C16.7507 10.881 16.7358 11.039 16.7687 11.166L16.7805 11.2064C16.8375 11.4053 16.8485 11.6113 16.9233 11.8106L18.0372 14.6252L19.4937 14.221C19.6073 14.1902 19.7192 14.155 19.8367 14.142C20.5763 11.9706 19.8092 9.13055 19.0704 7.07053C18.7055 6.05323 18.0848 4.11709 16.9796 3.74261L14.8171 3.22487ZM6.777 3.26278L5.41956 3.58281C4.66003 3.7662 4.11363 3.82722 3.66735 4.54342C3.17407 5.33504 2.83213 6.22362 2.53945 7.10556L2.39238 7.51435C1.9073 9.04143 1.51718 10.6194 1.51734 12.2302L1.52606 12.7939C1.52958 12.8711 1.52689 12.9583 1.54282 13.034L1.71344 13.9335C1.72996 14.0041 1.73384 14.0864 1.78096 14.1451L3.59329 14.622C3.94744 13.456 4.61806 12.4437 4.81894 11.1837C4.95601 10.3241 4.74407 9.88086 4.09758 9.32816C4.00832 9.25188 3.90013 9.1884 3.83221 9.09066C3.62607 8.794 3.98448 8.4579 4.28959 8.58573C4.76191 8.78358 5.42052 9.69258 5.51841 10.1775C5.54237 10.2962 5.55868 10.3967 5.56324 10.5202L5.55958 10.9623C5.55502 11.0728 5.55012 11.1963 5.52002 11.3028C5.45446 11.8257 5.24598 12.3611 5.05644 12.8487L4.5328 14.1558C4.28692 14.7684 4.05362 15.183 4.30874 15.8648C4.4709 16.2982 4.82447 16.7337 5.24264 16.9491C5.3618 17.0105 5.49282 17.0482 5.5639 17.1705L5.57156 17.1831C5.63752 17.298 5.58305 17.9734 5.59997 18.1488L8.81251 18.1344C8.91553 18.1343 9.03849 18.1466 9.1381 18.125C9.4525 18.057 9.7683 17.732 9.80926 17.4097C9.82379 17.2952 9.81375 17.1682 9.81392 17.0525L9.81297 7.65255C9.7844 6.9877 9.1696 6.65649 8.74107 6.24701C7.94492 5.48621 7.08909 4.36351 6.80702 3.26892L6.777 3.26278Z" fill="black"/>
<path d="M32.807 19.2404L29.3291 19.2405C28.4746 19.24 28.3457 18.9819 28.0974 18.1538C28.0202 17.8965 27.9944 17.9075 27.7653 17.76C27.749 17.9054 27.7594 18.0585 27.7594 18.2051L27.763 19.0728C27.7661 19.4169 27.7811 19.8827 27.3002 19.956L27.2827 19.9585C27.0799 19.9889 26.2325 20.0331 26.0348 19.961L26.0142 19.9531C25.6478 19.8158 25.5651 19.5495 25.5638 19.2082L25.5642 18.7787C25.5671 18.5504 25.5813 18.6607 25.4474 18.4804C25.0133 17.8958 24.8446 17.133 24.8281 16.4169C24.8222 16.157 24.8701 15.8974 24.8959 15.6394L25.4981 9.44868C25.6136 8.14994 25.9506 6.80518 27.1632 6.07959C27.4366 5.916 27.7346 5.79946 28.0212 5.66152L28.6074 5.3483L28.5302 5.23458C28.2304 4.86208 28.1547 4.32754 28.2022 3.86702C28.3203 2.72189 29.1103 1.77624 30.0466 1.16589C30.417 0.924428 30.8086 0.732707 31.1965 0.523495C31.6714 0.267423 31.9298 0.0491222 32.4934 0.000720789C33.1593 -0.0104705 33.3769 0.107274 33.9645 0.450983L34.5583 0.766777C35.8394 1.44609 36.9602 2.38295 37.1231 3.89712C37.1782 4.40947 37.049 4.94308 36.7189 5.34296C37.1477 5.64767 37.6636 5.79875 38.117 6.05754C38.5763 6.31969 38.961 6.7506 39.2252 7.20464L39.4484 7.63627C39.7067 8.12372 39.7719 8.81304 39.8226 9.34986L40.3306 14.6632C40.3901 15.3641 40.5702 16.2633 40.4422 16.9592L40.3738 17.3484C40.2832 17.754 40.1042 18.2398 39.8157 18.5537C39.7362 18.6402 39.7574 18.6832 39.7577 18.7968L39.7586 19.1879C39.7587 19.2787 39.7628 19.3732 39.7442 19.4626L39.7408 19.478C39.6939 19.6998 39.52 19.9166 39.2904 19.9614L39.2765 19.964C39.1164 19.9952 38.2533 20.0204 38.0834 19.9698L38.0683 19.9652C37.5649 19.8212 37.5595 19.5028 37.5609 19.0906L37.5631 18.2677C37.5634 18.1029 37.5742 17.9326 37.5514 17.7692C37.3953 17.9005 37.2943 17.868 37.2439 18.0947C37.0398 19.0134 36.8469 19.2413 35.8777 19.2406L32.807 19.2404ZM32.5825 0.678668C32.3043 0.698988 32.0882 0.800098 31.8477 0.937523L31.4625 1.15321C30.9892 1.41499 30.5005 1.66007 30.0719 1.99354C29.1722 2.69362 28.2686 4.20283 29.337 5.13041L29.4605 5.15473C29.5759 5.17425 29.6786 5.21962 29.7884 5.2574L32.4293 6.17857C32.544 6.22592 32.6009 6.28625 32.7221 6.2375L34.9587 5.46058C35.2778 5.35407 35.5942 5.18447 35.9304 5.13953C36.0454 5.12416 36.1722 4.94196 36.2367 4.85383C36.4463 4.5678 36.5019 4.21111 36.4428 3.86602C36.1849 2.36073 34.8983 1.71965 33.6889 1.07436C33.3341 0.885097 33.0029 0.654933 32.5825 0.678668ZM29.1215 5.8744L28.1544 6.36005C27.7643 6.54911 27.3989 6.69383 27.0932 7.00908C26.5931 7.5249 26.2961 8.26024 26.2074 8.96932L25.7919 13.2707L25.5714 15.5947C25.5052 16.1539 25.434 16.7246 25.6185 17.2734L25.6585 17.4021C25.7656 17.6806 25.8761 17.9448 26.0656 18.1815C26.1232 18.2534 26.2485 18.3494 26.2561 18.4422C26.2779 18.7069 26.229 18.9885 26.2671 19.2504L27.0727 19.2557C27.0935 18.8272 27.0495 18.3928 27.0746 17.9638L27.201 16.4111L27.7485 10.946C27.7641 10.765 27.7542 10.4919 27.8994 10.359C28.0232 10.2457 28.2477 10.2435 28.3596 10.3759C28.4658 10.5017 28.4473 10.6708 28.4291 10.8234L27.8215 16.9962C28.3232 17.3472 28.6239 17.3906 29.1999 17.391L36.1882 17.3914C36.6559 17.3909 37.1353 17.3353 37.5012 16.9971L36.8822 10.7231C36.8778 10.6485 36.8725 10.5633 36.9015 10.4933L36.9088 10.4751C36.9887 10.2838 37.1924 10.224 37.371 10.319C37.5232 10.3999 37.5473 10.5992 37.5566 10.7547L37.7209 12.4798L38.2298 17.6036C38.2417 17.679 38.2385 17.7607 38.2413 17.837L38.2505 19.2498L39.0663 19.2589L39.0674 18.6915C39.0681 18.5116 39.0479 18.4347 39.1623 18.2928L39.3532 18.0531C39.8254 17.4141 39.8568 16.5784 39.7813 15.8207L39.1285 9.13265C39.0277 8.23087 38.7389 7.3325 37.9647 6.77253C37.7732 6.63403 37.5554 6.5408 37.3434 6.43953L36.5509 6.04898C36.4338 5.98977 36.3116 5.9363 36.1982 5.87087L33.7772 6.72366L33.7705 12.3833C33.7705 12.4301 33.7768 12.487 33.7691 12.5329C33.7208 12.823 33.2188 12.8014 33.1833 12.5353C33.1635 12.3868 33.1774 12.2206 33.1773 12.0703L33.1762 7.32158C33.1761 7.21161 33.1936 7.03901 33.1539 6.93783C32.5033 7.19715 32.6585 7.04504 32.1484 6.92354C32.1272 7.07425 32.1323 7.22716 32.1322 7.37903L32.1322 11.4508C32.1323 11.555 32.1727 11.7251 32.1072 11.8128L32.0963 11.828C31.9471 12.0299 31.5729 11.9905 31.5499 11.7209C31.5387 11.5898 31.5478 11.4492 31.5477 11.3173V7.10053C31.5476 6.97702 31.5576 6.84615 31.5437 6.7238L29.1215 5.8744ZM28.802 18.1196L28.8314 18.208C28.8638 18.3122 28.9018 18.4059 28.9268 18.5135L36.3967 18.5132C36.4091 18.4825 36.419 18.4546 36.4264 18.4224L36.4855 18.2214C36.4969 18.1909 36.5177 18.1522 36.5205 18.1204L28.802 18.1196Z" fill="black"/>
<path d="M34.0905 14.4547C34.0638 14.3768 34.0663 14.2918 34.0286 14.2185L31.3206 14.2196C31.1299 14.2197 31.0265 14.1528 30.9921 14.334C30.8625 15.0173 30.1511 16.1614 29.4655 16.4056C29.2973 16.4656 29.0797 16.3435 29.029 16.1766C28.9376 15.876 29.2776 15.7403 29.4628 15.5911C29.9189 15.2233 30.1971 14.6997 30.3435 14.1384C30.416 13.8601 30.4207 13.5863 30.741 13.495L34.2691 13.4922C34.6444 13.5123 34.6834 14.0668 34.7664 14.3585L34.8329 14.548C35.0074 14.9654 35.2704 15.3593 35.6381 15.6316C35.7916 15.7453 36.0566 15.8529 36.0584 16.0803C36.0595 16.2119 35.9426 16.3675 35.819 16.4019C35.5539 16.4756 35.2755 16.2073 35.0916 16.0495C34.6089 15.6355 34.2536 15.0716 34.0905 14.4547Z" fill="black"/>
<path d="M59.3126 17.9776L59.3113 18.0635C59.295 18.2331 59.1634 18.4038 58.9826 18.4132L50.2135 18.4146C49.9906 18.4146 49.8458 18.4377 49.7114 18.2206L49.6989 18.2003C49.6757 18.1629 49.6676 18.1285 49.6654 18.0846L49.6397 15.7681C49.6364 15.5156 49.6612 15.2295 49.6157 14.9819L49.1802 10.9201L48.2095 15.0537C48.0677 15.6444 47.9317 16.2046 47.6658 16.7552C47.5826 16.9277 47.4769 17.1015 47.412 17.2812C47.3648 17.4117 47.4572 17.5368 47.3637 17.6751C47.179 17.9483 46.7781 17.7388 46.5337 17.6712L44.8546 17.1829C44.5355 17.0834 44.43 16.9746 44.5156 16.6184L44.9974 14.3019L45.3193 12.2761L45.6309 9.12898L45.7072 7.67652C45.712 7.60077 45.7296 7.52412 45.7347 7.44607L45.8362 5.89464C45.914 4.91745 46.0607 4.0151 46.7138 3.22658C47.5044 2.27211 48.678 2.10108 49.8151 1.83435L50.4519 1.68779C50.5949 1.65167 50.7284 1.60009 50.8763 1.58632C51.1696 1.60037 51.2361 1.82593 51.4074 2.01112C52.0601 2.71699 52.9113 3.01602 53.8456 3.11429C55.1255 3.24898 56.8244 3.00946 57.6442 1.93079C57.939 1.5429 57.8948 1.52232 58.4487 1.66719L58.9207 1.77719C60.6735 2.17496 62.1697 2.38457 62.8687 4.28897C62.9978 4.64079 63.0546 5.01298 63.0947 5.38336L63.2778 7.74922C63.2908 7.97606 63.2726 8.22876 63.3123 8.45005L63.5667 11.3202C63.5922 11.4552 63.593 11.5955 63.6056 11.7321L64.246 15.5913L64.4438 16.4977C64.6371 17.2214 64.1525 17.1857 63.5798 17.3522L62.4193 17.6892C62.2075 17.7493 61.9229 17.9149 61.7198 17.7539C61.5389 17.6105 61.6384 17.4325 61.5674 17.2534C61.5164 17.1246 61.4407 16.9977 61.3779 16.8737C61.0306 16.189 60.918 15.6663 60.7434 14.9237L60.0183 11.846C59.9376 11.5323 59.8388 11.2004 59.8056 10.8785C59.7198 11.3055 59.6951 11.7451 59.6395 12.1765L59.458 13.7633L59.3803 14.8367C59.3747 14.9082 59.3565 14.9794 59.3523 15.0537L59.3361 16.0383C59.334 16.1334 59.3153 16.2265 59.3123 16.3209L59.3126 17.9776ZM50.784 2.25378L49.4949 2.5638C47.1463 3.08882 46.6121 3.80104 46.4364 6.11183L46.3578 6.96945L46.2278 9.3956L45.9729 12.0695L45.5162 14.9257L45.1492 16.6053L46.8297 17.0984C46.9111 16.8411 47.0401 16.62 47.1549 16.3783C47.5052 15.6405 47.6349 14.8037 47.8167 14.0141L48.7552 10.0933C48.8379 9.7562 48.9519 9.452 48.9236 9.10174L48.8825 8.71503C48.8018 8.08038 48.7433 7.30799 48.3128 6.79438C48.2526 6.72254 48.1717 6.66231 48.1172 6.58694C47.9536 6.36048 48.1622 5.90885 48.4755 6.03585C48.5899 6.08224 48.6595 6.20304 48.7292 6.29912C49.1755 6.91454 49.3692 7.50536 49.4513 8.24834L49.5089 8.84884C49.533 9.13827 49.5814 9.4253 49.6358 9.7101L49.7871 10.7295C49.9639 11.7791 50.0566 12.8447 50.1463 13.9047L50.1978 14.6268C50.2071 14.734 50.2262 14.8375 50.2317 14.9457L50.2787 16.0421C50.2819 16.2079 50.2615 16.3822 50.2746 16.5457L58.7033 16.5549L58.8004 14.3084L58.8923 13.2683L59.38 9.45469C59.5697 8.31378 59.5161 7.29764 60.2514 6.29856C60.3117 6.21656 60.3617 6.13226 60.4503 6.07801L60.4689 6.06649C60.7838 5.88189 61.0008 6.31573 60.8749 6.57079C60.8358 6.64999 60.7562 6.72006 60.6979 6.78585C60.17 7.38199 59.9497 8.89579 60.1303 9.69279L61.3842 14.9676C61.5464 15.7044 61.6743 16.0539 61.9932 16.7113L62.1834 17.1117L63.8397 16.5962L63.3155 14.0484L62.9561 11.4901L62.7994 9.86974L62.4967 5.58017C62.2854 3.63548 61.5278 3.04279 59.6272 2.582L58.1801 2.2513C57.9442 2.67684 57.7184 3.11184 57.434 3.50817C56.3854 4.96936 54.5011 5.61072 52.875 4.69652C52.0209 4.21632 51.3815 3.39799 50.9471 2.53159C50.9175 2.47258 50.8471 2.2555 50.784 2.25378ZM52.2428 3.34047C53.3648 4.70681 55.0288 4.89592 56.3522 3.75263L56.6993 3.37293C56.5218 3.45605 56.3194 3.50331 56.1303 3.5552C54.9757 3.87203 53.6216 3.86788 52.4887 3.44389L52.2428 3.34047ZM54.2711 17.1696L50.2672 17.1707L50.2798 17.5642C50.2803 17.6298 50.2697 17.7064 50.2821 17.7705L54.7415 17.7716L58.6975 17.7771L58.7018 17.3288C58.7017 17.2828 58.7108 17.2141 58.6961 17.1711L54.2711 17.1696Z" fill="black"/>
<path d="M76.7106 13.5893L75.7469 8.93222C75.6703 9.10169 75.6517 9.29367 75.6115 9.47435L74.7666 13.5028L74.3547 15.7522L73.7792 19.4172C73.6718 20.0313 73.0526 19.997 72.6013 19.9973L69.4491 19.9978C69.3483 19.9977 69.2375 20.0037 69.1388 19.9816L69.1199 19.977C68.4548 19.8258 68.4871 19.3131 68.4874 18.7832L68.4932 14.094L68.5512 11.9675C68.5565 11.7683 68.5905 11.5689 68.5997 11.3691L68.6064 10.3673C68.6116 10.1597 68.649 9.95518 68.6556 9.74891L68.6662 8.69326C68.6709 8.54537 68.6981 8.39995 68.7037 8.25185L68.7677 6.57038L68.8701 5.05429C68.9188 4.47279 69.0162 3.88851 69.1326 3.31699L69.3466 2.24822C69.379 2.0885 69.3686 1.91419 69.3686 1.75146L69.368 1.03012C69.3679 0.873236 69.3453 0.661514 69.4175 0.518999C69.5898 0.179286 69.8163 0.0278774 70.2096 0.00323726L80.9305 1.19529e-06C81.7978 -0.000533906 82.0942 0.178343 82.0962 1.04462L82.0975 1.68419C82.0983 1.89831 82.1235 2.10583 82.157 2.3176L82.2526 2.85581C82.2582 2.88929 82.273 2.92056 82.2805 2.95366L82.3884 3.46053C82.4665 3.86137 82.5174 4.2683 82.5517 4.67531L82.6293 5.78455C82.6381 5.92128 82.6275 6.08642 82.6577 6.21842L82.6739 6.29167C82.7332 6.56294 82.7055 6.87338 82.7184 7.15166C82.7234 7.25993 82.7478 7.36751 82.7514 7.47458L82.7624 8.2891C82.7689 8.41124 82.7937 8.53263 82.7977 8.65509L82.8068 9.51421C82.8128 9.66987 82.8483 9.82324 82.8553 9.98005L82.8708 11.0344C82.8741 11.1226 82.8919 11.2096 82.8945 11.2977L82.923 12.5418C82.9266 12.6396 82.9506 12.7347 82.9534 12.8325L82.957 13.7047C82.9602 13.8091 82.984 13.9113 82.9866 14.0152L82.9904 18.526C82.9905 19.1325 83.1254 19.7433 82.3764 19.9705L82.3396 19.9815C82.2622 19.9995 82.1785 19.9954 82.0996 19.996L79.124 19.9975C78.0243 19.997 77.7942 20.1117 77.6174 18.8474L76.7106 13.5893ZM70.0975 0.73941C70.0809 0.886053 70.0841 1.02617 70.0893 1.16961L81.3317 1.16502L81.3693 1.17228C81.3738 1.04656 81.3715 0.884779 81.3452 0.762368C81.1506 0.733269 80.9578 0.736989 80.7616 0.736759L70.0975 0.73941ZM70.0938 1.89632L70.0031 2.76472L81.3925 2.7624C81.4286 2.76721 81.4642 2.76882 81.4997 2.76133L81.3993 2.08106C81.394 2.03792 81.3922 1.9323 81.3676 1.89999L70.0938 1.89632ZM70.6538 3.49019L69.8361 3.49564C69.8102 3.56429 69.8114 3.64142 69.8022 3.71378L69.7532 3.99838C69.6228 4.7729 69.5501 5.21378 69.5508 5.99681C70.2046 5.99785 70.6081 6.00514 71.2132 5.67936C72 5.24002 72.5271 4.40106 72.5785 3.50094C72.3513 3.47617 72.1146 3.48958 71.886 3.48937L70.6538 3.49019ZM73.305 3.48919C73.2084 5.05072 72.181 6.37166 70.609 6.68405C70.4992 6.70587 70.3827 6.73423 70.2713 6.73955L69.7405 6.74343C69.6603 6.74368 69.5706 6.7354 69.4917 6.7486C69.4882 6.88423 69.4624 7.01141 69.4573 7.14585L69.4487 7.87468L69.3451 10.1044L69.3395 10.7317C69.3342 10.8497 69.3126 10.9632 69.3112 11.0826L69.2571 12.8933L69.2526 14.3002C69.2508 14.4225 69.2186 14.5449 69.2159 14.67L69.2113 18.9501C69.2115 19.0478 69.2047 19.1501 69.2234 19.2463L73.0664 19.2451C73.091 19.1575 73.0871 19.067 73.0999 18.9776L73.6155 15.786L74.2293 12.439L75.321 7.57372C75.4159 7.18646 75.3743 6.39385 75.7363 6.18557C75.8022 6.14768 75.8753 6.12388 75.9392 6.08207C76.249 5.87939 76.276 5.38045 76.3121 5.04947L76.39 4.31452C76.4124 4.09019 76.3818 3.85875 76.6049 3.72678C76.7634 3.63301 77.0013 3.72352 77.0842 3.88066C77.1936 4.08787 77.0507 5.29152 76.9624 5.63233C76.88 6.04988 76.6928 6.47338 76.3256 6.71537C76.253 6.76322 76.1636 6.79329 76.1437 6.88421C76.0422 7.34809 76.0688 7.41793 76.2093 7.84668L76.7713 10.2236L77.3345 13.0102L78.201 17.8894C78.2193 17.9631 78.2218 18.0413 78.2357 18.1159L78.3617 18.9658C78.3758 19.0608 78.377 19.1618 78.4045 19.2535L81.9029 19.2488C82.3805 19.2486 82.2648 19.275 82.2653 18.7323L82.2607 14.3661L82.2095 12.3702L82.169 11.808L82.1271 10.2922C82.1228 10.2143 82.1061 10.1384 82.1029 10.0601L82.0964 9.35126L81.9752 6.90322C81.9716 6.85975 81.9776 6.78417 81.9561 6.74735C81.595 6.73621 81.2625 6.75076 80.9045 6.68316C79.4621 6.41082 78.4143 5.26502 78.1914 3.83275C78.1742 3.72204 78.1792 3.60806 78.1633 3.49709L73.305 3.48919ZM78.9029 3.49141C78.8805 3.56714 78.909 3.62967 78.9198 3.70051C79.1033 4.90061 79.9719 5.79826 81.1604 5.98134C81.4082 6.01948 81.6766 5.99464 81.9278 6.0059L81.9242 5.98954C81.8979 5.81994 81.9017 5.64586 81.8922 5.4747L81.8418 4.85482C81.8176 4.56722 81.7883 4.2746 81.7402 3.98995L81.6423 3.50186C81.5768 3.46771 80.9831 3.48907 80.8699 3.48907L78.9029 3.49141Z" fill="black"/>
</svg>
