<svg viewBox="0 0 87 20" fill="none" xmlns="http://www.w3.org/2000/svg">
<path d="M7.9667 19.9699L6.93252 19.9068C6.10325 19.8311 4.15853 19.5236 3.80589 18.5973L3.79738 18.5741C3.72403 18.3827 3.79313 18.1715 3.80347 17.9749L3.81136 17.3586C3.81397 17.1396 3.8515 16.8723 3.87859 16.6509C3.97096 15.8957 4.11558 15.1506 4.35684 14.4276C4.50756 13.9759 4.66393 13.7216 4.66485 13.2374L4.66157 11.1967L4.51577 9.16663C4.31652 9.41669 3.64425 10.3632 3.35053 10.4007C3.1309 10.4287 2.95238 10.283 2.77189 10.1792L1.60933 9.43256C1.17636 9.12509 0.486156 8.54705 0.253429 8.06366C-0.0238613 7.48766 0.119388 7.11778 0.443337 6.64806L2.22563 4.07037C2.78803 3.31447 3.40132 2.68835 4.36965 2.52537L5.69954 2.34518C5.93125 2.30389 5.99565 2.29302 6.08437 2.09975L6.72736 0.893944C6.80062 0.762936 6.86323 0.621405 6.95115 0.499444L7.02664 0.400195C7.39246 -0.00855963 7.83671 0.0162996 8.33357 0.038877L8.95798 0.0539106C9.14319 0.0631724 9.32558 0.0894275 9.51165 0.0913873L11.1543 0.0887029L12.643 0.00392363C13.2629 -0.0426808 13.5597 0.332034 13.816 0.800682L14.4416 1.95602C14.4871 2.04563 14.5355 2.12085 14.5604 2.22059L14.5636 2.23412C14.7486 2.3011 14.9284 2.33291 15.1204 2.3692L16.0151 2.49914C17.5249 2.68684 18.0488 3.60857 18.8732 4.76377L20.2512 6.79662C20.5177 7.22352 20.5854 7.68181 20.3137 8.14179C19.9716 8.72125 19.0747 9.40426 18.5156 9.77334L17.7604 10.2301C17.1 10.5944 17.0124 10.2773 16.5694 9.76344C16.4026 9.56982 16.2179 9.37049 16.0806 9.15506L16.0712 9.14005C16.0497 9.20738 16.0516 9.29353 16.0486 9.3637L15.9807 10.4812C15.9701 10.6115 15.948 10.7407 15.943 10.8718L15.9406 13.1551C15.941 13.3421 15.9469 13.5405 16.0093 13.7196L16.1187 14.0781C16.2788 14.4774 16.4109 14.9248 16.5044 15.3426L16.6661 16.1725C16.7211 16.5321 16.7588 16.9124 16.7801 17.2765L16.8021 17.9111C16.8153 18.1233 16.8985 18.3827 16.8151 18.5874L16.8094 18.6011C16.4648 19.4389 14.7128 19.7994 13.925 19.8864L12.0308 19.9998L9.00048 20C8.89103 19.9983 8.7844 19.9817 8.67556 19.9771L7.9667 19.9699ZM7.80066 0.779366C8.15848 1.34914 7.93344 1.27277 8.51164 1.39287C9.07621 1.51014 9.48982 1.55339 10.0604 1.55642L10.9217 1.54826C11.2506 1.53011 12.4054 1.40885 12.5056 1.25722L12.5163 1.24001C12.6061 1.09757 12.6658 0.908253 12.7651 0.778534L7.80066 0.779366ZM7.28299 1.40061L6.7367 2.46512C6.85023 2.72816 6.93056 3.00419 7.02803 3.2731L7.32412 4.0315C7.56798 4.64613 7.74095 4.81518 8.43277 4.59532C8.54992 4.55808 8.67269 4.50076 8.78002 4.44109C9.07683 4.28734 9.32281 4.08632 9.60174 3.90669C9.45079 3.79767 9.28043 3.71968 9.12665 3.61166C8.43583 3.12628 7.84565 2.47278 7.45349 1.72243L7.30957 1.42745C7.30148 1.41255 7.29934 1.40318 7.28299 1.40061ZM13.2718 1.3882C12.7314 2.48389 12.1063 3.36229 10.9666 3.91426C11.219 4.12712 11.5398 4.31319 11.8374 4.45507C12.7232 4.86018 12.7954 4.7591 13.2274 3.93083L13.8743 2.47919L13.5053 1.79006C13.4307 1.65196 13.3652 1.51518 13.2718 1.3882ZM8.65545 2.18603C9.22722 2.7854 9.68964 3.00757 10.2994 3.46433C10.6431 3.23023 11.0395 3.02381 11.343 2.73868L11.9021 2.21165L11.0216 2.33127C10.6678 2.36158 9.63774 2.36837 9.32921 2.31057L8.65545 2.18603ZM14.5023 3.0072L13.7821 4.49459C13.2872 5.42598 12.8707 5.64056 11.8723 5.27755C11.4192 5.11277 11.0479 4.90998 10.6659 4.61161L10.6594 19.2174L12.1167 19.2109C12.2715 19.2042 12.4244 19.1731 12.5795 19.1663L13.1121 19.1554C13.9797 19.1142 15.4116 18.986 16.0215 18.394L16.0876 18.3195L16.0522 17.7665C16.0407 16.8604 15.9265 15.9572 15.6661 15.0863C15.4563 14.385 15.2007 13.9285 15.1991 13.181L15.2017 10.6659C15.2224 10.0618 15.292 9.32354 15.3869 8.73623C15.4158 8.55774 15.4241 8.37392 15.4755 8.1995C15.5554 7.92785 15.8905 7.70487 16.1191 7.9507C16.206 8.04404 16.2732 8.16495 16.3528 8.26584C16.6939 8.69833 17.0151 9.15699 17.4007 9.55138C18.1095 9.1782 18.7827 8.69387 19.3494 8.12804C20.0222 7.4562 19.6329 7.24508 19.2123 6.60518L18.2562 5.21272C17.9954 4.83395 17.739 4.46256 17.4388 4.1129C16.4079 2.91179 15.7468 3.4145 14.5023 3.0072ZM6.11876 3.02478L5.27567 3.18134C3.67791 3.39732 3.55595 3.47547 2.55949 4.90055L1.22979 6.84424C1.07341 7.07053 0.84291 7.3003 0.889488 7.59528L0.892924 7.61794C0.969569 8.06119 2.14598 8.89307 2.52279 9.14767L3.21144 9.55463C3.59952 9.16961 3.9061 8.69266 4.24463 8.26434C4.43024 8.02944 4.66173 7.62294 4.99808 7.97172C5.10254 8.08004 5.12939 8.2543 5.15591 8.39594L5.34029 9.84677L5.39959 10.9829L5.40415 13.3757C5.40308 13.6211 5.3594 13.8508 5.27637 14.0839C4.79822 15.4264 4.60168 16.3688 4.54254 17.775L4.54114 18.1033C4.52643 18.379 4.51266 18.3535 4.73583 18.5171C5.31041 18.9383 6.09707 19.0365 6.7868 19.0975L8.58625 19.2102L9.7517 19.2176C9.81689 19.219 9.88913 19.2316 9.95297 19.2234L9.93375 4.5926C9.54475 5.00944 8.70625 5.34496 8.15779 5.43954C7.33365 5.58166 6.92417 5.00845 6.64988 4.36036L6.16185 3.06475C6.14872 3.02969 6.15476 3.03299 6.11876 3.02478Z" fill="black"/>
<path d="M36.7713 19.7705L31.629 19.7814C30.5519 19.7818 29.4928 19.631 28.5242 19.1217C28.4178 19.5947 28.1411 19.6007 27.6984 19.6C26.8957 19.5989 26.0857 19.4401 25.3311 19.1719C24.1998 18.7697 24.4669 18.5184 24.6636 17.5459L25.7023 11.8456L26.469 6.20021C26.5057 5.88354 26.5226 5.56193 26.5811 5.24849C26.8025 4.06194 27.619 3.01031 28.7173 2.50493C28.9772 2.38532 29.2545 2.29784 29.5275 2.21303L30.5145 1.87586C30.9437 1.72865 30.7586 1.83351 31.0384 1.55235C31.4107 1.17814 31.8447 0.880776 32.101 0.404716C32.1603 0.294676 32.2302 0.254966 32.3453 0.221028C32.5482 0.21074 32.7455 0.253013 32.946 0.258142L35.0644 0.293324C35.1775 0.291509 35.2878 0.274514 35.4001 0.270216L36.102 0.251024C36.2545 0.242852 36.4027 0.221154 36.5568 0.21845C36.9064 0.212316 36.8608 0.35645 37.0502 0.613829C37.1902 0.80411 37.351 0.976587 37.5243 1.13669C37.7044 1.30307 37.9523 1.46298 38.0764 1.67528C38.1608 1.81967 38.5251 1.88722 38.681 1.93941L39.5594 2.2387C39.9227 2.35966 40.2867 2.45818 40.6185 2.65743C41.4339 3.14693 42.1309 3.9827 42.3569 4.92201L42.4133 5.14688C42.4716 5.33448 42.4772 5.54994 42.5001 5.74452L43.019 9.73475C43.0344 9.82824 43.0381 9.92344 43.0556 10.0169L43.3074 11.8155C43.3127 11.8691 43.328 11.9186 43.3372 11.9712L44.0351 15.8583L44.4801 18.2095C44.5694 18.8291 43.806 19.0969 43.3295 19.2624C42.6693 19.4916 41.9465 19.6058 41.2484 19.5987C40.9456 19.5957 40.5231 19.6154 40.454 19.2255C40.4464 19.1825 40.446 19.1188 40.4252 19.0818C39.5487 19.6098 38.6836 19.7677 37.6901 19.7693L36.7713 19.7705ZM32.6138 0.813614C32.6722 0.979048 32.7702 1.13748 32.8544 1.29131C33.1922 1.90857 34.0212 3.24654 34.566 3.72311C34.8683 3.38944 35.123 3.03977 35.3695 2.66328L36.3792 0.825376L32.6138 0.813614ZM36.8366 1.24241C36.744 1.39694 36.6713 1.56676 36.5925 1.72887L36.247 2.37982C36.0632 2.69429 35.8671 3.01471 35.656 3.31221L35.1385 4.01632C35.2681 4.12814 35.4218 4.19853 35.5748 4.27192L36.0626 4.49359L36.3283 4.60281C36.9164 4.04255 37.4209 2.79918 37.6325 2.01511L36.8366 1.24241ZM32.1617 1.26375C31.9204 1.53515 31.6639 1.79631 31.3773 2.02055C31.3851 2.05739 31.3935 2.08922 31.4072 2.12433L31.5775 2.67032C31.6288 2.85862 31.7366 3.03846 31.8138 3.21642C32.0167 3.68389 32.3428 4.24289 32.7157 4.60304L33.0604 4.44796L33.9581 3.97932C33.9246 3.91333 33.8688 3.85432 33.8218 3.79727L32.9667 2.62399L32.4816 1.80676C32.379 1.62121 32.291 1.433 32.1617 1.26375ZM30.8609 2.36826L30.8469 2.37627C30.6029 2.51342 30.2952 2.57072 30.0302 2.66296L29.5584 2.82656C28.4511 3.18263 27.5831 3.83005 27.2402 5.00811C27.1102 5.45499 27.0914 5.90815 27.0331 6.36704L26.4913 10.4594L26.225 12.2317L25.1665 17.9444C25.1381 18.0909 25.1177 18.2446 25.0753 18.3876C25.3159 18.6353 26.448 18.8857 26.7751 18.9416C26.967 18.9745 27.7887 19.0691 27.9683 19.0082C28.0497 18.8899 28.0466 18.6861 28.0658 18.5473L28.2732 16.9638L28.41 15.2746L28.4277 14.4575C28.4305 14.3612 28.4533 14.2684 28.4554 14.1713L28.4557 10.1073C28.4532 9.99979 28.429 9.89262 28.427 9.7834L28.4176 8.6842C28.4076 8.44734 28.3762 8.24562 28.3744 7.9903L28.372 7.33242C28.3719 7.24124 28.3558 7.10951 28.3829 7.02375C28.4786 6.72137 28.9142 6.76548 28.9346 7.17094C28.9386 7.24934 28.9447 7.32813 28.9428 7.40665L28.9522 7.95779C28.9563 8.18779 28.9931 8.40453 28.9959 8.6342L29.001 9.49417C29.004 9.60382 29.0274 9.7113 29.0301 9.82138L29.0304 14.432C29.028 14.5457 29.0071 14.6561 29.0035 14.7691L28.9394 16.1774L28.6725 18.462C28.6449 18.7329 30.179 19.067 30.4255 19.1172C30.6384 19.1604 30.9136 19.1791 31.1308 19.1808L34.2014 19.1878L34.2019 4.91065C34.2019 4.79545 34.2153 4.66114 34.1949 4.54879L33.0745 5.08536C32.7222 5.23908 32.6243 5.30046 32.3251 5.03312C31.8942 4.64825 31.5277 4.03707 31.2917 3.52083L30.8609 2.36826ZM38.1439 2.36948C37.946 3.02496 37.1873 4.93128 36.4722 5.19957L36.4576 5.20531C36.2866 5.26838 36.1651 5.15903 36.0196 5.0932L34.8919 4.58789C34.8654 4.57461 34.8263 4.54572 34.7981 4.5424L34.8022 19.1818L36.8719 19.1813C37.254 19.1811 37.6455 19.2001 38.0264 19.1769C38.6719 19.1377 39.2429 18.9993 39.8351 18.7348C40.0081 18.6575 40.215 18.5731 40.3525 18.44L39.9957 14.432C39.9662 14.2393 39.9823 14.0227 39.9822 13.8274L39.9851 10.3048C39.9878 10.2269 40.0091 10.1493 40.0126 10.0704L40.0193 8.83751L40.0616 7.48126C40.0635 7.26144 40.017 6.88825 40.3158 6.83463C40.6446 6.77562 40.643 7.05181 40.6411 7.27269L40.6344 8.95847C40.6308 9.04593 40.6113 9.13151 40.6068 9.21865L40.5622 10.4734L40.562 13.6446C40.5637 13.732 40.5796 13.8177 40.5814 13.905L40.6079 15.2182L40.8749 18.0143L40.9427 18.4433C40.9681 18.6349 40.972 18.8322 41.0019 19.0226C41.844 19.0758 43.2785 18.8283 43.9087 18.3071L42.7393 11.9277L41.9694 6.13395C41.8433 4.93113 41.5932 4.0866 40.5605 3.31356C40.1933 3.03864 39.7886 2.91407 39.3581 2.77604L38.3076 2.42431C38.2539 2.40711 38.1992 2.37939 38.1439 2.36948Z" fill="black"/>
<path d="M56.888 17.7122C56.7515 17.8592 56.5724 17.993 56.3813 18.0586L56.1397 18.1264C55.6225 18.2232 54.3559 17.9229 53.8649 17.7733C53.376 17.6243 53.2642 17.5336 52.7427 17.4942L52.1981 17.4431C51.395 17.3704 49.7664 17.2216 49.0886 16.7396C48.314 16.1887 48.4538 15.5393 48.6074 14.7699L49.1866 10.9048L49.3789 9.35475C49.5294 7.90454 49.6613 6.43677 50.1664 5.05836L50.4152 4.45424C50.5417 4.15937 50.5482 4.20656 50.5012 3.8997L50.4403 3.44873C50.4048 3.23185 50.3666 3.00139 50.398 2.78103L50.4007 2.76325C50.478 2.19382 50.9622 1.86373 51.5139 1.86128L53.1079 1.86056C53.4953 1.86051 53.8849 1.84851 54.2709 1.88476C54.6676 1.92199 55.0617 2.0061 55.4562 2.06154L56.5152 2.17958C56.9266 2.22062 57.3423 2.25929 57.7564 2.26033L59.3762 2.25277L61.0038 2.11181L62.0156 1.96761C62.5152 1.88565 62.8734 1.86046 63.3782 1.86058L64.4169 1.85868C64.5577 1.84868 64.7103 1.85977 64.8522 1.85948L65.3549 1.85868C65.851 1.85873 66.3739 2.01514 66.503 2.56855C66.6115 3.03369 66.5202 3.34136 66.4434 3.80617C66.3831 4.17091 66.5125 4.38976 66.659 4.73498L66.9162 5.40896C66.9884 5.61588 67.0422 5.83093 67.1014 6.04177L67.4957 8.25906L67.9032 12.5641L68.2633 14.4585C68.3161 14.7142 68.3774 14.9699 68.4451 15.2221C68.6383 15.9422 68.1418 16.6819 67.4977 16.9701C66.9571 17.2119 66.1309 17.3153 65.5498 17.3495C65.241 17.3676 64.9446 17.3587 64.6373 17.4111C64.276 17.4727 63.9349 17.6207 63.5841 17.7214C62.9971 17.8899 62.3911 18.0168 61.7856 18.0942C59.9466 18.3294 59.7013 17.4492 59.367 15.9797L59.0614 14.7145C58.8959 14.1059 58.6717 13.5195 58.4165 12.9435C58.1671 13.5549 57.9924 14.1784 57.8364 14.8188L57.6675 15.5228C57.502 16.3069 57.4341 17.0832 56.888 17.7122ZM52.4758 2.62197L51.6613 2.62337C51.5396 2.62368 51.3338 2.5775 51.2404 2.67525L51.2268 2.68924C51.0512 2.87334 51.1431 3.10734 51.182 3.32963C51.205 3.46143 51.2295 3.80689 51.2836 3.90918C51.3686 3.93073 51.4832 3.91726 51.5723 3.91721L54.6347 3.91618L55.9949 3.91426L55.9943 2.90944C55.9168 2.887 55.8359 2.88132 55.7561 2.87093L54.3453 2.67556C54.0134 2.62931 53.867 2.6218 53.5174 2.62171L52.4758 2.62197ZM63.3342 2.62197C62.9353 2.62423 62.7638 2.64785 62.3754 2.69874C61.9781 2.75082 61.5693 2.79264 61.1773 2.87663C61.1683 2.99898 61.1406 3.82505 61.181 3.92907L63.6632 3.91618L65.6735 3.91678L65.7991 3.19017C65.8628 2.66887 65.8062 2.62089 65.3636 2.62055L63.3342 2.62197ZM60.2198 2.97284C60.041 2.98477 59.8604 3.01683 59.6831 3.0247L57.0619 3.01945C56.9591 3.01584 56.8577 2.9967 56.7555 2.99324L56.7544 3.91945L56.9249 3.91089L60.4174 3.91868L60.4185 2.96767C60.3549 2.96909 60.2824 2.96425 60.2198 2.97284ZM52.9926 4.68651L51.1396 4.68647C51.1073 4.73255 51.1013 4.77223 51.0823 4.82313L50.9743 5.08325C50.4466 6.33433 50.3105 7.73146 50.1731 9.07L49.4159 14.6252L50.019 14.5473C50.1952 14.5319 50.3751 14.5365 50.5518 14.5365L51.1406 14.5422C52.7682 14.6137 55.4113 15.2191 56.7894 16.0482L57.2666 13.9977C57.3664 13.6349 57.9116 11.8237 58.2211 11.6259C58.6131 11.3754 58.7804 11.8622 58.8912 12.1092L59.3866 13.2739C59.4606 13.4721 59.517 13.6812 59.5984 13.8755L59.745 14.3245C59.8053 14.4968 59.8304 14.6783 59.8892 14.8479L60.0312 15.4277C60.0804 15.5851 60.0984 15.7527 60.144 15.9111C60.6889 15.7584 61.2186 15.5298 61.7691 15.4014C62.2139 15.2977 62.6772 15.2592 63.116 15.1357C64.1367 14.8483 64.825 14.4234 65.99 14.454C66.3473 14.4578 66.7085 14.4745 67.06 14.5427L67.5322 14.6576C67.3777 13.8332 67.1806 13.029 67.0968 12.1916L66.7136 8.26669C66.5509 7.02486 66.3729 5.81758 65.8072 4.68141L58.4808 4.68125C58.4683 4.72769 58.4754 4.78739 58.4754 4.83542L58.4755 8.90055C58.4756 9.00972 58.4694 9.12197 58.4854 9.23001C59.2684 9.02538 59.1816 8.42649 59.5334 8.32763C59.7479 8.26734 59.9554 8.41328 59.9945 8.62641C60.0335 8.83862 59.8745 9.09104 59.7544 9.25539C59.4209 9.71204 58.9139 9.99948 58.3485 9.99987C57.6787 10.0004 57.7245 9.68972 57.7241 9.11781L57.7257 4.68223L53.2684 4.68582C53.1903 4.68589 53.0666 4.66944 52.9926 4.68651ZM65.8174 15.2274C65.2374 15.2458 64.703 15.3785 64.1565 15.5775C63.8992 15.6712 63.6456 15.7831 63.382 15.8582C62.8574 16.0078 62.3146 16.0578 61.7877 16.1968L61.1197 16.4017C60.8474 16.4997 60.5873 16.6085 60.3074 16.6863C60.6741 17.6779 61.3209 17.3456 62.1241 17.2716C62.6013 17.1764 63.0678 17.0762 63.5348 16.9377C63.835 16.8487 64.1341 16.7216 64.4388 16.6542C64.7398 16.5875 65.2633 16.5857 65.6155 16.5585L66.4351 16.4639C67.0047 16.3739 67.6589 16.2042 67.7394 15.5405C67.1973 15.3432 66.4063 15.1724 65.8174 15.2274ZM50.4011 15.3099C50.0348 15.3183 49.5696 15.3304 49.2282 15.4869C49.202 16.2605 50.101 16.3559 50.679 16.4668L51.035 16.5414C51.1005 16.5521 51.1674 16.553 51.2332 16.5616L52.3528 16.6909C52.6836 16.7237 53.0168 16.7343 53.3435 16.7971C53.6585 16.8577 53.9549 17.011 54.2634 17.0984C54.6693 17.2133 55.0837 17.2627 55.4961 17.3418C56.1279 17.4568 56.3011 17.3043 56.6096 16.7807C55.841 16.3818 55.017 16.0576 54.1818 15.8274L53.1491 15.5926C52.2145 15.4047 51.3594 15.3041 50.4011 15.3099Z" fill="black"/>
<path d="M80.7109 13.5893L79.7472 8.93222C79.6705 9.10169 79.6519 9.29367 79.6117 9.47435L78.7668 13.5028L78.3549 15.7522L77.7794 19.4172C77.672 20.0313 77.0528 19.997 76.6015 19.9973L73.4493 19.9978C73.3485 19.9977 73.2377 20.0037 73.1391 19.9816L73.1201 19.977C72.455 19.8258 72.4873 19.3131 72.4876 18.7832L72.4934 14.094L72.5514 11.9675C72.5568 11.7683 72.5908 11.5689 72.6 11.3691L72.6066 10.3673C72.6118 10.1597 72.6492 9.95518 72.6559 9.74891L72.6665 8.69326C72.6711 8.54537 72.6984 8.39995 72.7039 8.25185L72.7679 6.57038L72.8703 5.05429C72.919 4.47279 73.0164 3.88851 73.1328 3.31699L73.3469 2.24822C73.3792 2.0885 73.3689 1.91419 73.3688 1.75146L73.3682 1.03012C73.3682 0.873236 73.3455 0.661514 73.4178 0.518999C73.59 0.179286 73.8165 0.0278774 74.2098 0.00323726L84.9308 1.19529e-06C85.798 -0.000533906 86.0944 0.178343 86.0965 1.04462L86.0978 1.68419C86.0985 1.89831 86.1238 2.10583 86.1572 2.3176L86.2528 2.85581C86.2584 2.88929 86.2732 2.92056 86.2807 2.95366L86.3886 3.46053C86.4667 3.86137 86.5177 4.2683 86.552 4.67531L86.6296 5.78455C86.6384 5.92128 86.6277 6.08642 86.6579 6.21842L86.6742 6.29167C86.7335 6.56294 86.7058 6.87338 86.7187 7.15166C86.7237 7.25993 86.7481 7.36751 86.7516 7.47458L86.7626 8.2891C86.7691 8.41124 86.794 8.53263 86.7979 8.65509L86.807 9.51421C86.813 9.66987 86.8486 9.82324 86.8555 9.98005L86.8711 11.0344C86.8743 11.1226 86.8921 11.2096 86.8947 11.2977L86.9233 12.5418C86.9269 12.6396 86.9509 12.7347 86.9536 12.8325L86.9572 13.7047C86.9604 13.8091 86.9842 13.9113 86.9868 14.0152L86.9906 18.526C86.9908 19.1325 87.1256 19.7433 86.3767 19.9705L86.3398 19.9815C86.2624 19.9995 86.1788 19.9954 86.0999 19.996L83.1243 19.9975C82.0246 19.997 81.7944 20.1117 81.6177 18.8474L80.7109 13.5893ZM74.0977 0.73941C74.0811 0.886053 74.0843 1.02617 74.0895 1.16961L85.3319 1.16502L85.3696 1.17228C85.374 1.04656 85.3718 0.884779 85.3455 0.762368C85.1508 0.733269 84.958 0.736989 84.7619 0.736759L74.0977 0.73941ZM74.094 1.89632L74.0034 2.76472L85.3927 2.7624C85.4288 2.76721 85.4645 2.76882 85.4999 2.76133L85.3995 2.08106C85.3943 2.03792 85.3924 1.9323 85.3678 1.89999L74.094 1.89632ZM74.6541 3.49019L73.8364 3.49564C73.8105 3.56429 73.8117 3.64142 73.8025 3.71378L73.7534 3.99838C73.6231 4.7729 73.5503 5.21378 73.5511 5.99681C74.2049 5.99785 74.6083 6.00514 75.2135 5.67936C76.0002 5.24002 76.5273 4.40106 76.5788 3.50094C76.3516 3.47617 76.1149 3.48958 75.8862 3.48937L74.6541 3.49019ZM77.3053 3.48919C77.2086 5.05072 76.1813 6.37166 74.6092 6.68405C74.4994 6.70587 74.383 6.73423 74.2716 6.73955L73.7408 6.74343C73.6606 6.74368 73.5708 6.7354 73.4919 6.7486C73.4884 6.88423 73.4627 7.01141 73.4575 7.14585L73.4489 7.87468L73.3454 10.1044L73.3397 10.7317C73.3344 10.8497 73.3128 10.9632 73.3115 11.0826L73.2574 12.8933L73.2529 14.3002C73.251 14.4225 73.2188 14.5449 73.2161 14.67L73.2116 18.9501C73.2118 19.0478 73.205 19.1501 73.2237 19.2463L77.0666 19.2451C77.0912 19.1575 77.0873 19.067 77.1001 18.9776L77.6158 15.786L78.2296 12.439L79.3213 7.57372C79.4162 7.18646 79.3745 6.39385 79.7366 6.18557C79.8024 6.14768 79.8755 6.12388 79.9394 6.08207C80.2493 5.87939 80.2763 5.38045 80.3123 5.04947L80.3902 4.31452C80.4127 4.09019 80.3821 3.85875 80.6051 3.72678C80.7637 3.63301 81.0015 3.72352 81.0845 3.88066C81.1939 4.08787 81.0509 5.29152 80.9626 5.63233C80.8802 6.04988 80.6931 6.47338 80.3258 6.71537C80.2532 6.76322 80.1639 6.79329 80.144 6.88421C80.0424 7.34809 80.0691 7.41793 80.2096 7.84668L80.7715 10.2236L81.3348 13.0102L82.2013 17.8894C82.2196 17.9631 82.222 18.0413 82.236 18.1159L82.362 18.9658C82.3761 19.0608 82.3773 19.1618 82.4048 19.2535L85.9031 19.2488C86.3807 19.2486 86.265 19.275 86.2655 18.7323L86.261 14.3661L86.2097 12.3702L86.1692 11.808L86.1274 10.2922C86.1231 10.2143 86.1064 10.1384 86.1032 10.0601L86.0967 9.35126L85.9755 6.90322C85.9718 6.85975 85.9778 6.78417 85.9564 6.74735C85.5952 6.73621 85.2627 6.75076 84.9047 6.68316C83.4624 6.41082 82.4146 5.26502 82.1916 3.83275C82.1744 3.72204 82.1795 3.60806 82.1635 3.49709L77.3053 3.48919ZM82.9031 3.49141C82.8807 3.56714 82.9092 3.62967 82.9201 3.70051C83.1036 4.90061 83.9721 5.79826 85.1607 5.98134C85.4084 6.01948 85.6769 5.99464 85.928 6.0059L85.9244 5.98954C85.8981 5.81994 85.9019 5.64586 85.8924 5.4747L85.8421 4.85482C85.8178 4.56722 85.7886 4.2746 85.7405 3.98995L85.6426 3.50186C85.577 3.46771 84.9834 3.48907 84.8702 3.48907L82.9031 3.49141Z" fill="black"/>
</svg>
