<svg  viewBox="0 0 82 20" fill="none" xmlns="http://www.w3.org/2000/svg">
<path d="M7.21095 19.9907C6.53325 19.9931 5.86745 19.9153 5.25753 19.591L4.74629 19.2987C4.39938 19.113 4.00162 18.9557 3.61066 18.8995C3.38084 18.8664 3.1759 18.9159 3.05843 18.6601C3.05132 18.6446 3.04563 18.6294 3.0355 18.6156L3.0237 18.5993C3.00041 18.5561 2.99758 18.4804 2.99568 18.4325L3.00529 17.073C3.04637 16.4839 3.1345 15.8953 3.25597 15.3175L3.4369 14.5671L0.913406 14.2521C0.603135 14.1997 0.585091 13.8772 0.679881 13.6348C1.0616 12.6588 0.957659 11.7486 0.682233 10.759L0.410059 9.69898C0.399016 9.62584 0.397276 9.55071 0.382165 9.47814L0.366403 9.38698C0.27109 8.53342 0.455449 7.54206 0.871262 6.79758L1.28971 6.10789C1.48318 5.76525 1.64209 5.35843 1.73229 4.9737L1.84522 4.40017C1.88753 4.19279 1.93411 3.97883 2.00197 3.7784C2.37085 2.68917 3.28459 1.74586 4.30679 1.25395L6.76859 0.158107C7.04788 0.0245046 7.03483 -0.0156824 7.35047 0.0583387L8.20567 0.226904L9.24022 0.329394L10.5881 0.328966C11.038 0.306778 11.4925 0.249603 11.9376 0.181548L12.4091 0.0864622C12.5346 0.0554629 12.6586 0.0167015 12.7873 0.00164167C12.9611 -0.0174537 13.1349 0.134865 13.2805 0.207551L15.0701 1.00858C15.3717 1.13793 15.6795 1.26595 15.9668 1.42514C16.8129 1.89407 17.6684 2.87671 17.9358 3.82806L18.0871 4.46664C18.1651 4.86245 18.2123 5.09266 18.3417 5.47909L18.4591 5.75153C18.5509 5.97991 18.7042 6.21134 18.8368 6.41673C19.6547 7.68356 19.7492 8.86237 19.3709 10.2994L19.1314 11.1242C18.9931 11.6658 18.9226 12.2511 19.0076 12.8065C19.0651 13.1819 19.173 13.404 19.2942 13.7525C19.3243 13.8391 19.3312 13.9091 19.2993 13.9978L19.2833 14.0405C19.1713 14.3045 18.8667 14.2506 18.6398 14.2712L17.8978 14.3457L16.671 14.5455C16.4111 14.6042 16.5112 14.5893 16.5726 14.8644L16.7369 15.624C16.8911 16.3508 17.0224 17.66 16.9223 18.424C16.8614 18.8884 16.6854 18.8543 16.349 18.8898C15.726 18.9555 15.22 19.311 14.6767 19.589C13.9488 19.9616 13.1252 20.0423 12.3187 19.9818C11.7281 19.9375 11.1629 19.7686 10.5786 19.6981C10.2775 19.6617 9.50094 19.6489 9.2059 19.7101L8.00684 19.933C7.74276 19.9721 7.47742 19.9856 7.21095 19.9907ZM7.51434 0.779906C7.78261 2.09437 8.57096 3.31084 9.4828 4.2672C9.63299 4.42471 9.79934 4.60349 9.97475 4.73307C10.4138 4.34746 10.908 3.819 11.231 3.34597C11.8086 2.55281 12.1542 1.71704 12.4038 0.780278L10.9631 0.978302C10.6902 1.0027 10.4301 1.00854 10.155 1.00894L8.67571 0.958769C8.38048 0.936223 8.07818 0.883899 7.786 0.835889L7.60149 0.79814C7.57531 0.7921 7.54068 0.779222 7.51434 0.779906ZM13.0737 0.841266L12.9405 1.3526C12.5848 2.6155 11.8362 3.78047 10.9462 4.73108C10.8566 4.82678 10.753 4.92195 10.6812 5.03138C10.8762 5.03308 11.0622 4.97611 11.2498 4.93028C12.8496 4.42273 13.5792 2.98403 13.7055 1.41013C13.7126 1.32242 13.73 1.23816 13.7329 1.14999L13.2117 0.907965C13.1759 0.888374 13.113 0.838679 13.0737 0.841266ZM6.84958 0.851493L6.20329 1.16129L6.2324 1.58123C6.23798 1.67583 6.23483 1.77433 6.25705 1.86666L6.49224 2.76999C6.82164 3.77304 7.72607 4.63618 8.73179 4.93752C8.91546 4.99379 9.10028 5.02594 9.29134 5.04267L8.50586 4.18029C7.87227 3.42057 7.36077 2.53279 7.05604 1.58999L6.88409 0.945795C6.87807 0.920235 6.87963 0.861163 6.84958 0.851493ZM14.355 1.43442C14.3409 1.54734 14.3453 1.65979 14.3371 1.77274C14.1907 3.78437 12.5778 5.7205 10.469 5.72676C10.4581 5.8459 10.4631 5.96686 10.4633 6.08643L10.4641 6.67091C10.4643 6.81969 10.4903 7.02101 10.4275 7.15627L10.4212 7.16991C10.3105 7.40398 9.98332 7.4905 9.76 7.37191C9.57858 7.27555 9.47362 7.0835 9.47237 6.88467L9.47235 5.74815L9.17297 5.71518C7.02029 5.42533 5.64849 3.56511 5.5585 1.45179C5.19745 1.60162 4.82964 1.73946 4.48189 1.91972C3.41755 2.47136 2.71322 3.39193 2.48426 4.55696C2.33082 5.33773 2.23166 5.78286 1.8354 6.49286L1.44891 7.12559C1.155 7.64226 1.00585 8.20921 1.00508 8.80007C1.00487 8.95932 0.99107 9.13555 1.01924 9.29198L1.05471 9.56362C1.08602 9.74641 1.12402 9.95587 1.18895 10.1309L1.47323 11.1762C1.50653 11.2795 1.51722 11.404 1.53341 11.5118C1.64125 12.2306 1.59689 12.9117 1.40279 13.6074L3.60049 13.9254C3.64962 13.6804 3.73579 13.4427 3.81243 13.2053L4.3027 11.7685C4.60848 10.8319 4.67685 10.3414 4.5426 9.37035L4.18955 7.04304C4.12692 6.6471 4.02762 6.22973 4.07542 5.82718C4.13831 5.29758 4.41427 4.80823 4.86251 4.51231C5.07508 4.37198 5.45946 4.1805 5.64001 4.46574C5.81818 4.74722 5.61992 4.91388 5.37922 4.99984C4.84815 5.18949 4.67158 5.76697 4.7495 6.28029L5.25648 9.71068C5.36732 10.7976 5.07377 11.5557 4.73155 12.5725L4.44254 13.4457C4.39024 13.6159 4.32792 13.7867 4.28447 13.9593L4.01361 14.9899C3.9391 15.2761 3.8607 15.581 3.8254 15.8749L3.64048 17.4091C3.61403 17.5956 3.64211 17.7979 3.65199 17.9852C3.66201 18.1748 3.59871 18.2184 3.77813 18.2446L3.98643 18.2849C4.57283 18.4262 5.03685 18.7248 5.56605 18.9981C6.12504 19.2868 6.99302 19.3936 7.62683 19.2994L9.17647 19.0286C9.24442 19.0118 9.32353 19.0163 9.39336 19.016L10.3299 19.0156C10.498 19.0158 10.6414 19.0198 10.8055 19.0499L11.3936 19.1722C12.1846 19.3353 13.2213 19.4327 14.0064 19.155C14.7084 18.9067 15.2493 18.3842 16.0197 18.2595C16.0958 18.2472 16.2013 18.2554 16.271 18.2322C16.286 17.7623 16.2856 17.3097 16.2375 16.8431L16.1817 16.3245C16.1122 15.8062 15.9991 15.2907 15.8711 14.7839L15.3227 12.9368C15.0929 12.2696 14.8267 11.6225 14.6795 10.9299C14.5512 10.3266 14.5729 9.88977 14.671 9.29877L15.0964 6.76843C15.1309 6.5317 15.2015 6.27951 15.201 6.04023C15.1986 4.96133 14.3425 5.0902 14.2526 4.72742L14.2487 4.7122C14.2071 4.53753 14.313 4.36752 14.4873 4.32727C14.9983 4.20925 15.6052 4.93731 15.7428 5.35125L15.7913 5.49304C15.8835 5.75905 15.8662 6.09502 15.8304 6.36767L15.3909 9.04948C15.3421 9.3318 15.2182 9.91994 15.2626 10.2018L15.4116 11.1185L16.165 13.3485C16.2362 13.5378 16.2716 13.7383 16.3475 13.9235L18.5245 13.6003C18.2768 12.766 18.2516 11.9678 18.4537 11.1127L18.8011 9.88687C18.9003 9.48849 18.9279 9.16893 18.9264 8.76491C18.9243 8.18264 18.7331 7.5481 18.4417 7.04615L18.1513 6.58464C17.8114 6.02198 17.5895 5.4408 17.4687 4.79457C17.4442 4.66346 17.4347 4.52751 17.4053 4.3972C17.2304 3.62056 16.7665 2.83826 16.1383 2.33774C15.8567 2.11341 15.5343 1.95142 15.2095 1.80115L14.355 1.43442Z" fill="black"/>
<path d="M38.4096 17.9776L38.4083 18.0635C38.3919 18.2331 38.2603 18.4038 38.0795 18.4132L29.3104 18.4146C29.0875 18.4146 28.9428 18.4377 28.8083 18.2206L28.7959 18.2003C28.7726 18.1629 28.7645 18.1285 28.7623 18.0846L28.7366 15.7681C28.7333 15.5156 28.7582 15.2295 28.7126 14.9819L28.2771 10.9201L27.3064 15.0537C27.1646 15.6444 27.0286 16.2046 26.7628 16.7552C26.6795 16.9277 26.5738 17.1015 26.5089 17.2812C26.4617 17.4117 26.5541 17.5368 26.4606 17.6751C26.276 17.9483 25.875 17.7388 25.6306 17.6712L23.9516 17.1829C23.6325 17.0834 23.5269 16.9746 23.6125 16.6184L24.0943 14.3019L24.4162 12.2761L24.7278 9.12898L24.8041 7.67652C24.8089 7.60077 24.8265 7.52412 24.8316 7.44607L24.9331 5.89464C25.0109 4.91745 25.1576 4.0151 25.8107 3.22658C26.6013 2.27211 27.7749 2.10108 28.9121 1.83435L29.5488 1.68779C29.6918 1.65167 29.8253 1.60009 29.9732 1.58632C30.2665 1.60037 30.333 1.82593 30.5043 2.01112C31.1571 2.71699 32.0082 3.01602 32.9426 3.11429C34.2225 3.24898 35.9214 3.00946 36.7411 1.93079C37.0359 1.5429 36.9917 1.52232 37.5456 1.66719L38.0176 1.77719C39.7704 2.17496 41.2666 2.38457 41.9656 4.28897C42.0947 4.64079 42.1515 5.01298 42.1916 5.38336L42.3747 7.74922C42.3877 7.97606 42.3695 8.22876 42.4092 8.45005L42.6636 11.3202C42.6892 11.4552 42.6899 11.5955 42.7025 11.7321L43.3429 15.5913L43.5408 16.4977C43.734 17.2214 43.2494 17.1857 42.6768 17.3522L41.5162 17.6892C41.3044 17.7493 41.0198 17.9149 40.8167 17.7539C40.6358 17.6105 40.7353 17.4325 40.6644 17.2534C40.6133 17.1246 40.5377 16.9977 40.4748 16.8737C40.1275 16.189 40.0149 15.6663 39.8403 14.9237L39.1152 11.846C39.0345 11.5323 38.9358 11.2004 38.9025 10.8785C38.8167 11.3055 38.792 11.7451 38.7364 12.1765L38.5549 13.7633L38.4773 14.8367C38.4716 14.9082 38.4534 14.9794 38.4493 15.0537L38.4331 16.0383C38.4309 16.1334 38.4122 16.2265 38.4092 16.3209L38.4096 17.9776ZM29.8809 2.25378L28.5918 2.5638C26.2432 3.08882 25.709 3.80104 25.5333 6.11183L25.4547 6.96945L25.3247 9.3956L25.0698 12.0695L24.6131 14.9257L24.2462 16.6053L25.9267 17.0984C26.008 16.8411 26.137 16.62 26.2518 16.3783C26.6021 15.6405 26.7319 14.8037 26.9137 14.0141L27.8521 10.0933C27.9348 9.7562 28.0488 9.452 28.0206 9.10174L27.9795 8.71503C27.8988 8.08038 27.8402 7.30799 27.4097 6.79438C27.3495 6.72254 27.2686 6.66231 27.2141 6.58694C27.0505 6.36048 27.2591 5.90885 27.5724 6.03585C27.6868 6.08224 27.7564 6.20304 27.8261 6.29912C28.2724 6.91454 28.4662 7.50536 28.5483 8.24834L28.6059 8.84884C28.6299 9.13827 28.6784 9.4253 28.7327 9.7101L28.884 10.7295C29.0608 11.7791 29.1535 12.8447 29.2433 13.9047L29.2947 14.6268C29.304 14.734 29.3231 14.8375 29.3287 14.9457L29.3756 16.0421C29.3788 16.2079 29.3584 16.3822 29.3715 16.5457L37.8002 16.5549L37.8973 14.3084L37.9893 13.2683L38.477 9.45469C38.6666 8.31378 38.613 7.29764 39.3483 6.29856C39.4086 6.21656 39.4586 6.13226 39.5472 6.07801L39.5658 6.06649C39.8807 5.88189 40.0977 6.31573 39.9718 6.57079C39.9327 6.64999 39.8531 6.72006 39.7948 6.78585C39.2669 7.38199 39.0466 8.89579 39.2272 9.69279L40.4811 14.9676C40.6433 15.7044 40.7712 16.0539 41.0901 16.7113L41.2803 17.1117L42.9366 16.5962L42.4125 14.0484L42.053 11.4901L41.8963 9.86974L41.5936 5.58017C41.3823 3.63548 40.6247 3.04279 38.7241 2.582L37.277 2.2513C37.0412 2.67684 36.8154 3.11184 36.5309 3.50817C35.4823 4.96936 33.598 5.61072 31.972 4.69652C31.1178 4.21632 30.4784 3.39799 30.044 2.53159C30.0145 2.47258 29.944 2.2555 29.8809 2.25378ZM31.3397 3.34047C32.4618 4.70681 34.1257 4.89592 35.4492 3.75263L35.7963 3.37293C35.6188 3.45605 35.4164 3.50331 35.2272 3.5552C34.0726 3.87203 32.7186 3.86788 31.5856 3.44389L31.3397 3.34047ZM33.368 17.1696L29.3642 17.1707L29.3767 17.5642C29.3772 17.6298 29.3666 17.7064 29.379 17.7705L33.8384 17.7716L37.7944 17.7771L37.7988 17.3288C37.7987 17.2828 37.8077 17.2141 37.793 17.1711L33.368 17.1696Z" fill="black"/>
<path d="M55.8075 13.5893L54.8439 8.93222C54.7672 9.10169 54.7486 9.29367 54.7084 9.47435L53.8635 13.5028L53.4516 15.7522L52.8761 19.4172C52.7687 20.0313 52.1495 19.997 51.6982 19.9973L48.546 19.9978C48.4452 19.9977 48.3344 20.0037 48.2357 19.9816L48.2168 19.977C47.5517 19.8258 47.584 19.3131 47.5843 18.7832L47.5901 14.094L47.6481 11.9675C47.6535 11.7683 47.6874 11.5689 47.6967 11.3691L47.7033 10.3673C47.7085 10.1597 47.7459 9.95518 47.7526 9.74891L47.7632 8.69326C47.7678 8.54537 47.7951 8.39995 47.8006 8.25185L47.8646 6.57038L47.967 5.05429C48.0157 4.47279 48.1131 3.88851 48.2295 3.31699L48.4436 2.24822C48.4759 2.0885 48.4655 1.91419 48.4655 1.75146L48.4649 1.03012C48.4648 0.873236 48.4422 0.661514 48.5144 0.518999C48.6867 0.179286 48.9132 0.0278774 49.3065 0.00323726L60.0275 1.19529e-06C60.8947 -0.000533906 61.1911 0.178343 61.1931 1.04462L61.1945 1.68419C61.1952 1.89831 61.2205 2.10583 61.2539 2.3176L61.3495 2.85581C61.3551 2.88929 61.3699 2.92056 61.3774 2.95366L61.4853 3.46053C61.5634 3.86137 61.6144 4.2683 61.6486 4.67531L61.7263 5.78455C61.735 5.92128 61.7244 6.08642 61.7546 6.21842L61.7708 6.29167C61.8301 6.56294 61.8025 6.87338 61.8153 7.15166C61.8203 7.25993 61.8448 7.36751 61.8483 7.47458L61.8593 8.2891C61.8658 8.41124 61.8907 8.53263 61.8946 8.65509L61.9037 9.51421C61.9097 9.66987 61.9452 9.82324 61.9522 9.98005L61.9677 11.0344C61.971 11.1226 61.9888 11.2096 61.9914 11.2977L62.0199 12.5418C62.0235 12.6396 62.0476 12.7347 62.0503 12.8325L62.0539 13.7047C62.0571 13.8091 62.0809 13.9113 62.0835 14.0152L62.0873 18.526C62.0875 19.1325 62.2223 19.7433 61.4733 19.9705L61.4365 19.9815C61.3591 19.9995 61.2754 19.9954 61.1965 19.996L58.221 19.9975C57.1212 19.997 56.8911 20.1117 56.7144 18.8474L55.8075 13.5893ZM49.1944 0.73941C49.1778 0.886053 49.181 1.02617 49.1862 1.16961L60.4286 1.16502L60.4662 1.17228C60.4707 1.04656 60.4684 0.884779 60.4421 0.762368C60.2475 0.733269 60.0547 0.736989 59.8585 0.736759L49.1944 0.73941ZM49.1907 1.89632L49.1001 2.76472L60.4894 2.7624C60.5255 2.76721 60.5612 2.76882 60.5966 2.76133L60.4962 2.08106C60.491 2.03792 60.4891 1.9323 60.4645 1.89999L49.1907 1.89632ZM49.7507 3.49019L48.933 3.49564C48.9072 3.56429 48.9084 3.64142 48.8991 3.71378L48.8501 3.99838C48.7198 4.7729 48.647 5.21378 48.6477 5.99681C49.3015 5.99785 49.705 6.00514 50.3102 5.67936C51.0969 5.24002 51.624 4.40106 51.6755 3.50094C51.4483 3.47617 51.2116 3.48958 50.9829 3.48937L49.7507 3.49019ZM52.402 3.48919C52.3053 5.05072 51.278 6.37166 49.7059 6.68405C49.5961 6.70587 49.4797 6.73423 49.3682 6.73955L48.8375 6.74343C48.7573 6.74368 48.6675 6.7354 48.5886 6.7486C48.5851 6.88423 48.5593 7.01141 48.5542 7.14585L48.5456 7.87468L48.4421 10.1044L48.4364 10.7317C48.4311 10.8497 48.4095 10.9632 48.4081 11.0826L48.354 12.8933L48.3495 14.3002C48.3477 14.4225 48.3155 14.5449 48.3128 14.67L48.3083 18.9501C48.3084 19.0478 48.3017 19.1501 48.3204 19.2463L52.1633 19.2451C52.1879 19.1575 52.184 19.067 52.1968 18.9776L52.7124 15.786L53.3262 12.439L54.4179 7.57372C54.5128 7.18646 54.4712 6.39385 54.8333 6.18557C54.8991 6.14768 54.9722 6.12388 55.0361 6.08207C55.346 5.87939 55.3729 5.38045 55.409 5.04947L55.4869 4.31452C55.5093 4.09019 55.4787 3.85875 55.7018 3.72678C55.8603 3.63301 56.0982 3.72352 56.1812 3.88066C56.2905 4.08787 56.1476 5.29152 56.0593 5.63233C55.9769 6.04988 55.7897 6.47338 55.4225 6.71537C55.3499 6.76322 55.2605 6.79329 55.2406 6.88421C55.1391 7.34809 55.1657 7.41793 55.3063 7.84668L55.8682 10.2236L56.4315 13.0102L57.2979 17.8894C57.3163 17.9631 57.3187 18.0413 57.3327 18.1159L57.4586 18.9658C57.4728 19.0608 57.4739 19.1618 57.5015 19.2535L60.9998 19.2488C61.4774 19.2486 61.3617 19.275 61.3622 18.7323L61.3576 14.3661L61.3064 12.3702L61.2659 11.808L61.224 10.2922C61.2198 10.2143 61.2031 10.1384 61.1998 10.0601L61.1933 9.35126L61.0721 6.90322C61.0685 6.85975 61.0745 6.78417 61.0531 6.74735C60.6919 6.73621 60.3594 6.75076 60.0014 6.68316C58.559 6.41082 57.5113 5.26502 57.2883 3.83275C57.2711 3.72204 57.2761 3.60806 57.2602 3.49709L52.402 3.48919ZM57.9998 3.49141C57.9774 3.56714 58.0059 3.62967 58.0168 3.70051C58.2002 4.90061 59.0688 5.79826 60.2573 5.98134C60.5051 6.01948 60.7735 5.99464 61.0247 6.0059L61.0211 5.98954C60.9948 5.81994 60.9986 5.64586 60.9891 5.4747L60.9388 4.85482C60.9145 4.56722 60.8853 4.2746 60.8372 3.98995L60.7393 3.50186C60.6737 3.46771 60.0801 3.48907 59.9668 3.48907L57.9998 3.49141Z" fill="black"/>
<path d="M74.0831 10.5036C74.0788 10.4845 74.0727 10.2288 74.0593 10.3077L72.5203 18.7006C72.3585 19.5238 71.6369 20.0093 70.8249 19.9753C70.3921 19.9572 69.9346 19.739 69.506 19.6483C69.2829 19.601 69.0548 19.5805 68.8297 19.5459L67.532 19.3099C67.1927 19.2391 66.8552 19.1448 66.5267 19.0348C66.0489 18.8748 66.0893 18.8099 66.1052 18.3718L66.4243 15.1918C66.7066 12.9745 67.0622 10.764 67.5563 8.58266L69.0298 2.80895C69.0798 2.56786 69.1201 2.30111 69.1278 2.05499L69.1303 0.630399C69.133 0.290509 69.3603 0.26556 69.6263 0.265195L72.5776 0.265029C72.6906 0.264947 72.881 0.296834 72.9828 0.24066C73.245 0.0959932 73.5486 0.0392716 73.8433 0.0107325C74.0646 -0.0341074 74.4879 0.0708907 74.69 0.153261C74.7751 0.187939 74.8703 0.265446 74.9613 0.269195L78.4505 0.265506C79.0649 0.265836 78.9785 0.483973 78.9788 0.960089L78.9783 1.90913C78.9782 2.01984 78.9614 2.16238 78.9879 2.26906L79.3604 4.05347C79.3643 4.07527 79.367 4.09289 79.3746 4.11384L79.6194 5.00423C79.6233 5.02581 79.6261 5.04343 79.6336 5.06419L80.008 6.36528C80.0516 6.58628 80.1489 6.80215 80.183 7.02548C80.207 7.18268 80.2611 7.44997 80.3253 7.59955C80.3678 7.69849 80.3761 7.82349 80.4043 7.92796L80.4883 8.30055C80.5221 8.45587 80.5587 8.61117 80.5992 8.76493L80.7717 9.5857C80.7959 9.68884 80.8135 9.79552 80.8331 9.8998L80.901 10.2445C80.9397 10.4504 80.9603 10.6609 81.0093 10.8655L81.3768 13.0365C81.396 13.1758 81.4165 13.3149 81.4383 13.4539L81.5248 14.0443C81.5306 14.0901 81.5455 14.1341 81.5512 14.18L81.8917 17.0934C81.9246 17.419 81.9439 17.7423 81.9648 18.0688L81.9992 18.5921C82.0148 18.9283 81.7821 18.9733 81.5168 19.0642C80.7499 19.3269 79.9533 19.4027 79.1647 19.5738L78.0067 19.8342C77.7612 19.893 77.5109 19.9908 77.2574 19.9991C76.4811 20.0243 75.8171 19.5456 75.5818 18.8141C75.5059 18.5783 75.4765 18.3271 75.4297 18.0848L74.0831 10.5036ZM73.8984 0.636648C73.1721 0.694892 72.6226 1.17127 72.6176 1.91323L72.616 2.30694L73.4977 2.36923C73.6257 2.37988 73.7567 2.37027 73.8822 2.39939L73.994 2.4217L74.2254 2.445C74.3286 2.46427 74.4363 2.46351 74.5411 2.46513L75.0165 2.46736C75.0508 2.43721 75.0662 2.39323 75.0847 2.35234C75.477 1.48632 74.8155 0.673649 73.931 0.637153L73.8984 0.636648ZM69.7968 0.900424L69.7465 0.899773C69.7238 1.02225 69.735 1.15853 69.7349 1.2835L69.7352 1.92502C69.8491 1.96621 69.9924 1.97608 70.1125 1.99898C70.7319 2.11713 71.3578 2.22607 71.9882 2.26692L71.9878 2.05965C71.9967 1.5984 72.0725 1.30655 72.277 0.907139L69.7968 0.900424ZM75.5425 0.898992C75.5497 0.97236 75.6277 1.08269 75.6606 1.15365C75.8163 1.48965 75.8761 1.99615 75.7329 2.33902L77.959 1.98617C78.0801 1.96602 78.2575 1.94878 78.3663 1.89377L78.3617 0.910832C78.2454 0.895879 78.1269 0.900454 78.0098 0.900223L75.5425 0.898992ZM78.3693 2.54641L76.3465 2.89535C76.1465 2.92189 75.9453 2.96647 75.7437 2.97747L75.6565 3.38133C75.5725 3.81038 75.5039 4.22141 75.3297 4.62711C74.8589 5.72381 73.8865 6.29649 72.7484 6.44265C72.0289 6.53505 72.0355 6.38317 72.0351 5.79847L72.0347 2.90511C71.5719 2.87975 71.1005 2.82837 70.6434 2.75001L69.685 2.55572C69.6311 2.97982 69.5434 3.39936 69.437 3.81331L68.2273 8.40271L67.4449 12.3774L67.011 15.4254L66.7036 18.3332C66.7012 18.3705 66.6907 18.4201 66.7033 18.4553C66.8602 18.5183 67.0233 18.5507 67.1873 18.5889L68.0597 18.76C68.1401 18.7735 68.2328 18.8068 68.3138 18.8016L68.4985 17.4363L69.232 12.6353L69.8179 9.35029C69.8594 9.14022 69.8853 8.92166 69.9483 8.71659C70.047 8.395 70.6815 8.36308 70.4792 9.11417C70.4629 9.17473 70.4611 9.23692 70.4509 9.2985L70.1032 11.3262L69.3495 15.9013L68.9017 18.9374C69.0085 18.954 69.1174 18.9564 69.225 18.9673C69.7448 19.0203 70.2457 19.2118 70.7498 19.3384C71.2114 19.4543 71.7813 19.1023 71.8892 18.642L72.7784 14.3724L72.9914 13.2249L73.4456 10.0622L73.7016 7.90358C73.7276 7.67532 73.8066 7.36217 74.1183 7.44332C74.1859 7.4609 74.2594 7.50872 74.2954 7.57019L74.3189 7.62009C74.3524 7.6843 74.3537 7.76238 74.3618 7.83269L74.7646 10.8601C74.7801 10.9528 74.7802 11.0486 74.7942 11.1419L75.6334 15.8496C75.6722 16.0601 75.7021 16.2735 75.7441 16.4831L76.1061 18.4306C76.2307 18.9641 76.6357 19.4119 77.2291 19.3677C77.4707 19.3498 77.6968 19.2483 77.9319 19.1945L78.7626 19.0137C78.9065 18.9834 79.0522 18.9603 79.1929 18.917L78.3694 13.2603L77.6321 9.20728C77.6028 9.06605 77.5528 8.90904 77.5619 8.76493C77.5843 8.41058 78.1009 8.42796 78.1653 8.79044L79.0409 13.6285L79.7909 18.8018C80.0752 18.7703 81.1561 18.615 81.3838 18.434C81.3781 18.1439 81.3459 17.8555 81.3223 17.5666L81.1846 16.1722L80.565 11.8068L79.7595 7.82846L78.7989 4.32353L78.4383 2.70106C78.4284 2.65056 78.4256 2.59341 78.4061 2.546L78.3693 2.54641ZM72.6388 2.94926C72.6394 3.02118 72.6486 3.09531 72.6488 3.16767L72.6495 5.69497C72.6496 5.72664 72.642 5.79375 72.6562 5.81938C73.3081 5.72759 73.9165 5.5379 74.3564 5.0046C74.8616 4.43617 74.951 3.75998 75.1084 3.04728L75.0957 3.05034C74.7806 3.12378 73.6905 3.04695 73.3332 2.98872C73.1072 2.95191 72.8681 2.97803 72.6388 2.94926Z" fill="black"/>
</svg>
