<svg width="32" height="32" viewBox="0 0 32 32" fill="none" xmlns="http://www.w3.org/2000/svg">
<path fill-rule="evenodd" clip-rule="evenodd" d="M30 17.5C30 20.7381 27.8796 23.4627 25 24.2623V22.1467C26.7314 21.4218 28 19.6518 28 17.5C28 14.6696 25.8053 12.5 23.2493 12.5C22.5272 12.5 21.8339 12.6732 21.2108 12.9855C21.1791 12.4037 21.0937 11.8367 20.9599 11.2899L20.9569 11.2911C20.0091 7.35004 16.5839 4.5 12.6083 4.5C7.92179 4.5 4 8.46046 4 13.5C4 16.7291 5.61019 19.5152 8 21.1003V23.4107C4.44938 21.6323 2 17.8628 2 13.5C2 7.42487 6.74949 2.5 12.6083 2.5C17.469 2.5 21.5661 5.88976 22.821 10.5139C22.9626 10.5047 23.1054 10.5 23.2493 10.5C26.9776 10.5 30 13.634 30 17.5ZM10.001 22.9091C10.0009 22.4308 10.1533 21.9108 10.3609 21.4244C10.8044 20.3856 11.5 19.5 11.5 19.5C11.5 19.5 12.1643 20.4175 12.609 21.4252C12.8327 21.9321 13.0009 22.4619 13.001 22.9091C13.0013 23.7877 12.33 24.5 11.5015 24.5C10.6731 24.5 10.0013 23.7877 10.001 22.9091ZM15.3609 21.4244C15.1533 21.9108 15.0009 22.4308 15.001 22.9091C15.0013 23.7877 15.6731 24.5 16.5015 24.5C17.33 24.5 18.0013 23.7877 18.001 22.9091C18.0009 22.4619 17.8327 21.9321 17.609 21.4252C17.1643 20.4175 16.5 19.5 16.5 19.5C16.5 19.5 15.8044 20.3856 15.3609 21.4244ZM12.8756 27.9091C12.8754 27.4308 13.0278 26.9108 13.2354 26.4244C13.6789 25.3856 14.3745 24.5 14.3745 24.5C14.3745 24.5 15.0388 25.4175 15.4835 26.4252C15.7072 26.9321 15.8754 27.4619 15.8756 27.9091C15.8758 28.7877 15.2045 29.5 14.376 29.5C13.5476 29.5 12.8758 28.7877 12.8756 27.9091ZM20.3609 21.4244C20.1533 21.9108 20.0009 22.4308 20.001 22.9091C20.0013 23.7877 20.6731 24.5 21.5015 24.5C22.33 24.5 23.0013 23.7877 23.001 22.9091C23.0009 22.4619 22.8327 21.9321 22.609 21.4252C22.1643 20.4175 21.5 19.5 21.5 19.5C21.5 19.5 20.8044 20.3856 20.3609 21.4244ZM17.8905 27.9091C17.8903 27.4308 18.0427 26.9108 18.2503 26.4244C18.6938 25.3856 19.3894 24.5 19.3894 24.5C19.3894 24.5 20.0537 25.4175 20.4984 26.4252C20.7221 26.9321 20.8903 27.4619 20.8904 27.9091C20.8907 28.7877 20.2194 29.5 19.3909 29.5C18.5625 29.5 17.8907 28.7877 17.8905 27.9091Z" fill="black"/>
</svg>
