<svg width="32" height="32" viewBox="0 0 32 32" fill="none" xmlns="http://www.w3.org/2000/svg">
<path fill-rule="evenodd" clip-rule="evenodd" d="M18 15L17.2565 15.5204L17.4142 16.4142L16.5204 16.2565L16 17L15.4796 16.2565L14.5858 16.4142L14.7435 15.5204L14 15L14.7435 14.4796L14.5858 13.5858L15.4796 13.7435L16 13L16.5204 13.7435L17.4142 13.5858L17.2565 14.4796L18 15ZM13.2565 18.5204L14 18L13.2565 17.4796L13.4142 16.5858L12.5204 16.7435L12 16L11.4796 16.7435L10.5858 16.5858L10.7435 17.4796L10 18L10.7435 18.5204L10.5858 19.4142L11.4796 19.2565L12 20L12.5204 19.2565L13.4142 19.4142L13.2565 18.5204ZM17.2565 21.5204L18 21L17.2565 20.4796L17.4142 19.5858L16.5204 19.7435L16 19L15.4796 19.7435L14.5858 19.5858L14.7435 20.4796L14 21L14.7435 21.5204L14.5858 22.4142L15.4796 22.2565L16 23L16.5204 22.2565L17.4142 22.4142L17.2565 21.5204ZM21.2565 18.5204L22 18L21.2565 17.4796L21.4142 16.5858L20.5204 16.7435L20 16L19.4796 16.7435L18.5858 16.5858L18.7435 17.4796L18 18L18.7435 18.5204L18.5858 19.4142L19.4796 19.2565L20 20L20.5204 19.2565L21.4142 19.4142L21.2565 18.5204Z" fill="#376DD2"/>
<path fill-rule="evenodd" clip-rule="evenodd" d="M9 23.3473C4.91752 21.8163 2 17.7615 2 13C2 6.92487 6.74949 2 12.6083 2C17.469 2 21.5661 5.38977 22.821 10.0139C22.9626 10.0047 23.1054 10 23.2493 10C26.9776 10 30 13.134 30 17C30 20.6028 27.375 23.57 24 23.9572V21.937C26.2205 21.5615 28 19.5486 28 17C28 14.1696 25.8053 12 23.2493 12C22.5272 12 21.8339 12.1732 21.2108 12.4855C21.1791 11.9037 21.0937 11.3367 20.9599 10.7899L20.9569 10.7911C20.0091 6.85004 16.5839 4 12.6083 4C7.92179 4 4 7.96046 4 13C4 16.6616 6.0703 19.7535 9 21.1706V23.3473Z" fill="#8AAAE5"/>
<path d="M14.0021 27.456C14.0024 28.3271 13.3139 29.0021 12.5024 29.0021C11.6909 29.0021 11.0019 28.3271 11.0017 27.456C11.0014 26.5408 11.5017 25.3753 12.113 24.3343C12.2361 24.1247 12.3595 23.9271 12.4775 23.7458C12.6078 23.9533 12.7452 24.1807 12.8823 24.4211C13.1799 24.943 13.4668 25.5103 13.6772 26.059C13.8922 26.6196 14.002 27.0967 14.0021 27.456Z" stroke="#376DD2" stroke-width="2"/>
<path d="M21.0021 27.456C21.0024 28.3271 20.3139 29.0021 19.5024 29.0021C18.6909 29.0021 18.0019 28.3271 18.0017 27.456C18.0014 26.5408 18.5017 25.3753 19.113 24.3343C19.2361 24.1247 19.3595 23.9271 19.4775 23.7458C19.6078 23.9533 19.7452 24.1807 19.8823 24.4211C20.1799 24.943 20.4668 25.5103 20.6772 26.059C20.8922 26.6196 21.002 27.0967 21.0021 27.456Z" stroke="#376DD2" stroke-width="2"/>
</svg>
