<svg width="32" height="32" viewBox="0 0 32 32" fill="none" xmlns="http://www.w3.org/2000/svg">
<path fill-rule="evenodd" clip-rule="evenodd" d="M12.5 24.875L12.5411 24.8749V24.875L12.6971 24.875L22.9973 24.875H23C23.0014 24.875 23.0028 24.875 23.0043 24.875C25.6983 24.8726 28 22.5897 28 19.625C28 16.6588 25.6958 14.375 23 14.375C22.2698 14.375 21.5684 14.5425 20.9337 14.8458C20.8474 14.1589 20.685 13.4968 20.4555 12.8689L20.4577 12.868C19.2369 9.48446 16.0973 7.125 12.5 7.125C7.87115 7.125 4 11.0317 4 16C4 20.9683 7.87115 24.875 12.5 24.875ZM23.2414 26.8708C26.9956 26.739 30 23.5454 30 19.625C30 15.6209 26.866 12.375 23 12.375C22.8017 12.375 22.6053 12.3835 22.4111 12.4003C20.9766 8.16326 17.0809 5.125 12.5 5.125C6.70101 5.125 2 9.9939 2 16C2 22.0061 6.70101 26.875 12.5 26.875C12.5658 26.875 12.6315 26.8744 12.6971 26.8731V26.875H22.9949C22.9966 26.875 22.9983 26.875 23 26.875C23.0017 26.875 23.0034 26.875 23.0051 26.875H23.2414V26.8708Z" fill="#343348"/>
</svg>
