<svg width="32" height="32" viewBox="0 0 32 32" fill="none" xmlns="http://www.w3.org/2000/svg">
<path fill-rule="evenodd" clip-rule="evenodd" d="M28.4509 15.297C29.1994 14.4393 29.689 13.3377 29.7841 12.1099C30.0166 9.10696 27.8003 6.48642 24.8339 6.25679C24.6997 6.2464 24.5662 6.24108 24.4337 6.24068C23.434 3.52181 20.948 1.49738 17.9007 1.26149C14.9605 1.03388 12.2802 2.53199 10.8324 4.91259C5.81905 5.78874 2 10.3115 2 15.7591C2 20.901 5.40237 25.2189 10 26.4242V24.3363C6.55261 23.1883 4 19.8249 4 15.7591C4 10.7196 7.92179 6.75914 12.6083 6.75914C16.5839 6.75914 20.0091 9.60918 20.9569 13.5503L20.9599 13.5491C21.0937 14.0959 21.1791 14.6628 21.2108 15.2446C21.8339 14.9323 22.5272 14.7591 23.2493 14.7591C25.8053 14.7591 28 16.9287 28 19.7591C28 22.3078 26.2205 24.3206 24 24.6961V26.7163C27.375 26.3291 30 23.362 30 19.7591C30 18.0633 29.4185 16.5084 28.4509 15.297ZM13.4702 4.79492C17.948 5.16826 21.641 8.42495 22.821 12.773C22.9626 12.7638 23.1054 12.7591 23.2493 12.7591C24.6323 12.7591 25.9182 13.1904 26.9887 13.9303C27.4369 13.3962 27.7311 12.717 27.7901 11.9556C27.9391 10.0307 26.5217 8.39342 24.6796 8.25082C24.0483 8.20195 23.4394 8.3342 22.9055 8.60662L22.9065 8.59391L22.9074 8.58186L22.8985 8.588C22.7428 5.77256 20.5527 3.47276 17.7464 3.25552C16.1164 3.12934 14.5838 3.72934 13.4702 4.79492Z" fill="#8AAAE5"/>
<path fill-rule="evenodd" clip-rule="evenodd" d="M20.0021 25.2152C20.0022 25.5512 19.7442 25.7613 19.5021 25.7613C19.2599 25.7613 19.0018 25.5512 19.0017 25.2152C19.0015 24.7868 19.1753 24.2028 19.4744 23.5529C19.5746 23.7637 19.6656 23.9728 19.7435 24.1759C19.9389 24.6854 20.0021 25.0312 20.0021 25.2152ZM19.5002 19.7591C19.5002 19.7591 18.9029 20.4894 18.2923 21.5164C17.654 22.5901 17.0013 23.9881 17.0017 25.2152C17.0021 26.6213 18.1218 27.7613 19.5027 27.7613C20.8835 27.7613 22.0026 26.6213 22.0021 25.2152C22.0018 24.097 21.318 22.6568 20.6655 21.5369C20.0699 20.5146 19.5002 19.7591 19.5002 19.7591ZM14.0021 28.2152C14.0022 28.5512 13.7442 28.7613 13.5021 28.7613C13.2599 28.7613 13.0018 28.5512 13.0017 28.2152C13.0015 27.7868 13.1753 27.2028 13.4744 26.5529C13.5746 26.7637 13.6656 26.9728 13.7435 27.1759C13.9389 27.6854 14.0021 28.0312 14.0021 28.2152ZM13.5002 22.7591C13.5002 22.7591 12.9029 23.4894 12.2923 24.5164C11.654 25.5901 11.0013 26.9881 11.0017 28.2152C11.0021 29.6214 12.1218 30.7613 13.5027 30.7613C14.8835 30.7613 16.0026 29.6214 16.0021 28.2152C16.0018 27.097 15.318 25.6568 14.6655 24.5369C14.0699 23.5146 13.5002 22.7591 13.5002 22.7591Z" fill="#376DD2"/>
</svg>
