<svg width="32" height="32" viewBox="0 0 32 32" fill="none" xmlns="http://www.w3.org/2000/svg">
<path fill-rule="evenodd" clip-rule="evenodd" d="M14.8284 21.625L14.0849 22.1454L14.2426 23.0392L13.3489 22.8815L12.8284 23.625L12.308 22.8815L11.4142 23.0392L11.572 22.1454L10.8284 21.625L11.572 21.1046L11.4142 20.2108L12.308 20.3685L12.8284 19.625L13.3489 20.3685L14.2426 20.2108L14.0849 21.1046L14.8284 21.625ZM18 25.625L17.2565 26.1454L17.4142 27.0392L16.5204 26.8815L16 27.625L15.4796 26.8815L14.5858 27.0392L14.7435 26.1454L14 25.625L14.7435 25.1046L14.5858 24.2108L15.4796 24.3685L16 23.625L16.5204 24.3685L17.4142 24.2108L17.2565 25.1046L18 25.625ZM14.0849 30.1454L14.8284 29.625L14.0849 29.1046L14.2426 28.2108L13.3489 28.3685L12.8284 27.625L12.308 28.3685L11.4142 28.2108L11.572 29.1046L10.8284 29.625L11.572 30.1454L11.4142 31.0392L12.308 30.8815L12.8284 31.625L13.3489 30.8815L14.2426 31.0392L14.0849 30.1454ZM24 25.625L23.2565 26.1454L23.4142 27.0392L22.5204 26.8815L22 27.625L21.4796 26.8815L20.5858 27.0392L20.7435 26.1454L20 25.625L20.7435 25.1046L20.5858 24.2108L21.4796 24.3685L22 23.625L22.5204 24.3685L23.4142 24.2108L23.2565 25.1046L24 25.625ZM20.0849 22.1454L20.8284 21.625L20.0849 21.1046L20.2426 20.2108L19.3489 20.3685L18.8284 19.625L18.308 20.3685L17.4142 20.2108L17.572 21.1046L16.8284 21.625L17.572 22.1454L17.4142 23.0392L18.308 22.8815L18.8284 23.625L19.3489 22.8815L20.2426 23.0392L20.0849 22.1454ZM20.8284 29.625L20.0849 30.1454L20.2426 31.0392L19.3489 30.8815L18.8284 31.625L18.308 30.8815L17.4142 31.0392L17.572 30.1454L16.8284 29.625L17.572 29.1046L17.4142 28.2108L18.308 28.3685L18.8284 27.625L19.3489 28.3685L20.2426 28.2108L20.0849 29.1046L20.8284 29.625ZM11.0849 26.1454L11.8284 25.625L11.0849 25.1046L11.2426 24.2108L10.3489 24.3685L9.82843 23.625L9.30798 24.3685L8.41422 24.2108L8.57195 25.1046L7.82843 25.625L8.57195 26.1454L8.41422 27.0392L9.30798 26.8815L9.82843 27.625L10.3489 26.8815L11.2426 27.0392L11.0849 26.1454Z" fill="#376DD2"/>
<path fill-rule="evenodd" clip-rule="evenodd" d="M28.5605 14.3037C29.247 13.4659 29.6937 12.413 29.7841 11.2462C30.0165 8.24323 27.8003 5.62269 24.8339 5.39306C24.6997 5.38267 24.5662 5.37736 24.4337 5.37695C23.434 2.65809 20.9479 0.633654 17.9007 0.397763C15.087 0.179947 12.5113 1.54253 11.0261 3.74652C5.91772 4.53865 2 9.10741 2 14.625C2 18.565 3.99765 22.0211 7 23.9638V21.4515C5.1719 19.8122 4 17.3798 4 14.625C4 9.58546 7.92179 5.625 12.6083 5.625C16.5839 5.625 20.0091 8.47504 20.9569 12.4161L20.9599 12.4149C21.0937 12.9617 21.1791 13.5287 21.2108 14.1105C21.8339 13.7982 22.5272 13.625 23.2493 13.625C25.8053 13.625 28 15.7946 28 18.625C28 20.7768 26.7314 22.5468 25 23.2717V25.3873C27.8796 24.5877 30 21.8631 30 18.625C30 16.9942 29.4622 15.4937 28.5605 14.3037ZM13.7422 3.68711C18.0971 4.16696 21.665 7.37919 22.821 11.6389C22.9626 11.6297 23.1054 11.625 23.2493 11.625C24.6916 11.625 26.0283 12.094 27.1252 12.893C27.4963 12.3884 27.7373 11.773 27.79 11.0918C27.939 9.16701 26.5216 7.5297 24.6796 7.3871C24.0483 7.33823 23.4393 7.47047 22.9055 7.7429L22.9065 7.73018L22.9074 7.71814L22.8984 7.72427C22.7427 4.90884 20.5526 2.60904 17.7464 2.3918C16.2454 2.2756 14.8269 2.77521 13.7422 3.68711Z" fill="#8AAAE5"/>
</svg>
