<svg width="32" height="32" viewBox="0 0 32 32" fill="none" xmlns="http://www.w3.org/2000/svg">
<path fill-rule="evenodd" clip-rule="evenodd" d="M28.2599 14.3579C28.9373 13.5233 29.3778 12.4778 29.4674 11.3201C29.6999 8.31717 27.4836 5.69663 24.5173 5.467C24.383 5.45661 24.2495 5.45129 24.117 5.45089C23.1174 2.73202 20.6313 0.707591 17.5841 0.471699C14.5784 0.239025 11.8444 1.80973 10.4209 4.28303C5.61157 5.32839 2 9.75133 2 15.0489C2 20.1908 5.40237 24.5087 10 25.714V23.6261C6.55261 22.4781 4 19.1147 4 15.0489C4 10.0094 7.92179 6.04894 12.6083 6.04894C16.5839 6.04894 20.0091 8.89898 20.9569 12.8401L20.9599 12.8389C21.0937 13.3857 21.1791 13.9526 21.2108 14.5344C21.8339 14.2221 22.5272 14.0489 23.2493 14.0489C25.8053 14.0489 28 16.2185 28 19.0489C28 21.5976 26.2205 23.6104 24 23.9859V26.0061C27.375 25.6189 30 22.6518 30 19.0489C30 17.2443 29.3414 15.5992 28.2599 14.3579ZM13.0966 4.06038C17.7416 4.2786 21.6083 7.59439 22.821 12.0628C22.9626 12.0536 23.1054 12.0489 23.2493 12.0489C24.527 12.0489 25.7218 12.417 26.7404 13.0565C27.15 12.5359 27.4175 11.8878 27.4734 11.1658C27.6224 9.24095 26.205 7.60363 24.3629 7.46103C23.7317 7.41217 23.1227 7.54441 22.5888 7.81683L22.5898 7.80412L22.5907 7.79208L22.5818 7.79821C22.4261 4.98277 20.236 2.68297 17.4297 2.46573C15.7718 2.33739 14.2145 2.96035 13.0966 4.06038ZM15 19.5489L14.2565 20.0694L14.4142 20.9632L13.5204 20.8054L13 21.5489L12.4796 20.8054L11.5858 20.9632L11.7435 20.0694L11 19.5489L11.7435 19.0285L11.5858 18.1347L12.4796 18.2925L13 17.5489L13.5204 18.2925L14.4142 18.1347L14.2565 19.0285L15 19.5489ZM18.2565 23.0694L19 22.5489L18.2565 22.0285L18.4142 21.1347L17.5204 21.2925L17 20.5489L16.4796 21.2925L15.5858 21.1347L15.7435 22.0285L15 22.5489L15.7435 23.0694L15.5858 23.9632L16.4796 23.8054L17 24.5489L17.5204 23.8054L18.4142 23.9632L18.2565 23.0694ZM19 16.5489L18.2565 17.0694L18.4142 17.9632L17.5204 17.8054L17 18.5489L16.4796 17.8054L15.5858 17.9632L15.7435 17.0694L15 16.5489L15.7435 16.0285L15.5858 15.1347L16.4796 15.2925L17 14.5489L17.5204 15.2925L18.4142 15.1347L18.2565 16.0285L19 16.5489ZM22.2565 20.0694L23 19.5489L22.2565 19.0285L22.4142 18.1347L21.5204 18.2925L21 17.5489L20.4796 18.2925L19.5858 18.1347L19.7435 19.0285L19 19.5489L19.7435 20.0694L19.5858 20.9632L20.4796 20.8054L21 21.5489L21.5204 20.8054L22.4142 20.9632L22.2565 20.0694ZM13.5021 29.5511C13.7442 29.5511 14.0022 29.341 14.0021 29.005C14.0021 28.821 13.9389 28.4752 13.7435 27.9657C13.6656 27.7626 13.5746 27.5535 13.4744 27.3427C13.1753 27.9926 13.0015 28.5766 13.0017 29.005C13.0018 29.341 13.2599 29.5511 13.5021 29.5511ZM12.2923 25.3062C12.9029 24.2792 13.5002 23.5489 13.5002 23.5489C13.5002 23.5489 14.0699 24.3044 14.6655 25.3267C15.318 26.4466 16.0018 27.8868 16.0021 29.005C16.0025 30.4111 14.8835 31.5511 13.5027 31.5511C12.1218 31.5511 11.0021 30.4111 11.0017 29.005C11.0013 27.7779 11.654 26.3799 12.2923 25.3062ZM21.0021 29.005C21.0022 29.341 20.7442 29.5511 20.5021 29.5511C20.2599 29.5511 20.0018 29.341 20.0017 29.005C20.0015 28.5766 20.1753 27.9926 20.4744 27.3427C20.5746 27.5535 20.6656 27.7626 20.7435 27.9657C20.9389 28.4752 21.0021 28.821 21.0021 29.005ZM20.5002 23.5489C20.5002 23.5489 19.9029 24.2792 19.2923 25.3062C18.654 26.3799 18.0013 27.7779 18.0017 29.005C18.0021 30.4111 19.1218 31.5511 20.5027 31.5511C21.8835 31.5511 23.0025 30.4111 23.0021 29.005C23.0018 27.8868 22.318 26.4466 21.6655 25.3267C21.0699 24.3044 20.5002 23.5489 20.5002 23.5489Z" fill="#343348"/>
</svg>
