<svg width="32" height="32" viewBox="0 0 32 32" fill="none" xmlns="http://www.w3.org/2000/svg">
<path fill-rule="evenodd" clip-rule="evenodd" d="M28.4594 14.7985C29.2031 13.9423 29.6894 12.8443 29.7841 11.6212C30.0166 8.61823 27.8003 5.99769 24.8339 5.76806C24.6997 5.75767 24.5662 5.75236 24.4337 5.75195C23.434 3.03309 20.948 1.00865 17.9008 0.772763C14.9699 0.545882 12.2974 2.03369 10.8464 4.40103C5.82614 5.27122 2 9.79729 2 15.25C2 19.6128 4.44938 23.3823 8 25.1607V22.8503C5.61019 21.2652 4 18.4791 4 15.25C4 10.2105 7.92179 6.25 12.6083 6.25C16.5839 6.25 20.0091 9.10004 20.9569 13.0411L20.9599 13.0399C21.0937 13.5867 21.1791 14.1537 21.2108 14.7355C21.8339 14.4232 22.5272 14.25 23.2493 14.25C25.8053 14.25 28 16.4196 28 19.25C28 21.4018 26.7314 23.1718 25 23.8967V26.0123C27.8796 25.2127 30 22.4881 30 19.25C30 17.5592 29.4219 16.0084 28.4594 14.7985ZM13.4899 4.28745C17.9588 4.66867 21.6427 7.92219 22.821 12.2639C22.9626 12.2547 23.1054 12.25 23.2493 12.25C24.637 12.25 25.9269 12.6842 26.9995 13.4287C27.4416 12.8966 27.7316 12.2221 27.7901 11.4668C27.9391 9.54201 26.5217 7.9047 24.6796 7.7621C24.0483 7.71323 23.4394 7.84547 22.9055 8.1179L22.9065 8.10518L22.9074 8.09314L22.8985 8.09927C22.7428 5.28384 20.5527 2.98404 17.7464 2.7668C16.126 2.64136 14.6018 3.23359 13.4899 4.28745Z" fill="#8AAAE5"/>
<path fill-rule="evenodd" clip-rule="evenodd" d="M10.3609 23.1744C10.1533 23.6608 10.0009 24.1808 10.001 24.6591C10.0013 25.5377 10.6731 26.25 11.5015 26.25C12.33 26.25 13.0013 25.5377 13.001 24.6591C13.0009 24.2119 12.8327 23.6821 12.609 23.1752C12.1643 22.1675 11.5 21.25 11.5 21.25C11.5 21.25 10.8044 22.1356 10.3609 23.1744ZM15.3609 23.1744C15.1533 23.6608 15.0009 24.1808 15.001 24.6591C15.0013 25.5377 15.6731 26.25 16.5015 26.25C17.33 26.25 18.0013 25.5377 18.001 24.6591C18.0009 24.2119 17.8327 23.6821 17.609 23.1752C17.1643 22.1675 16.5 21.25 16.5 21.25C16.5 21.25 15.8044 22.1356 15.3609 23.1744ZM12.8755 29.6591C12.8754 29.1808 13.0278 28.6608 13.2354 28.1744C13.6789 27.1356 14.3745 26.25 14.3745 26.25C14.3745 26.25 15.0388 27.1675 15.4835 28.1752C15.7072 28.6821 15.8754 29.2119 15.8755 29.6591C15.8758 30.5377 15.2045 31.25 14.376 31.25C13.5476 31.25 12.8758 30.5377 12.8755 29.6591ZM20.3609 23.1744C20.1533 23.6608 20.0009 24.1808 20.001 24.6591C20.0013 25.5377 20.6731 26.25 21.5015 26.25C22.33 26.25 23.0013 25.5377 23.001 24.6591C23.0009 24.2119 22.8327 23.6821 22.609 23.1752C22.1643 22.1675 21.5 21.25 21.5 21.25C21.5 21.25 20.8044 22.1356 20.3609 23.1744ZM17.8904 29.6591C17.8903 29.1808 18.0427 28.6608 18.2503 28.1744C18.6938 27.1356 19.3894 26.25 19.3894 26.25C19.3894 26.25 20.0537 27.1675 20.4984 28.1752C20.7221 28.6821 20.8903 29.2119 20.8904 29.6591C20.8907 30.5377 20.2194 31.25 19.3909 31.25C18.5625 31.25 17.8907 30.5377 17.8904 29.6591Z" fill="#376DD2"/>
</svg>
