<svg width="24" height="24" viewBox="0 0 24 24" fill="none" xmlns="http://www.w3.org/2000/svg">
<path d="M9.77777 7.59366L12 6.48254" stroke="black" stroke-width="2" stroke-linecap="round" stroke-linejoin="round"/>
<path d="M14.2222 7.59366L12 6.48254" stroke="black" stroke-width="2" stroke-linecap="round" stroke-linejoin="round"/>
<path d="M11.9479 6.2578L13.2492 4.46804C13.7502 3.77906 13.5978 2.81442 12.9088 2.31345L12.8003 2.23453C12.1712 1.77715 11.2905 1.91631 10.8331 2.54535V2.54535" stroke="black" stroke-width="2" stroke-linecap="round" stroke-linejoin="round"/>
<path d="M12 10.2722C13.5325 10.2722 14.7749 9.07296 14.7749 7.59363H15.7481C16.2458 7.59363 16.7291 7.75509 17.1204 8.05208L21.5761 11.4344C22.0564 11.799 22.1411 12.4697 21.7657 12.935L20.3709 14.6636C19.99 15.1356 19.2825 15.2151 18.7995 14.8401L17.1939 13.5936V19.3793C17.1939 21.1545 15.7031 22.5936 13.864 22.5936H10.2484C8.40936 22.5936 6.91851 21.1545 6.91851 19.3793V13.5936L5.19526 14.8707C4.7116 15.2292 4.01896 15.1439 3.64401 14.6797L2.2347 12.9351C1.85884 12.4698 1.94342 11.7988 2.42389 11.434L6.87915 8.05208C7.2704 7.75509 7.75369 7.59363 8.25141 7.59363H9.22504C9.22504 9.07296 10.4674 10.2722 12 10.2722Z" stroke="black" stroke-width="2" stroke-linecap="round" stroke-linejoin="round"/>
</svg>
