<svg id="레이어_1" data-name="레이어 1" xmlns="http://www.w3.org/2000/svg" viewBox="0 0 205.83 190.28"><defs><style>.cls-1{fill:#fc7167;}</style></defs><title>대지 1</title><path class="cls-1" d="M154.22,128.32c.64,11.56,1.26,22.49,1.91,34.08-2.47,1.26-4.79,3-7.38,3.68-10.12,2.65-20.27,5.2-30.5,7.31a57.78,57.78,0,0,1-13.41.81c-13.62-.42-27.29-.51-41-4.38a139.22,139.22,0,0,1-2.77-41.89C92.09,123.22,123.08,120.34,154.22,128.32Z"/><path class="cls-1" d="M94.4,21.83a10.79,10.79,0,0,1-2.94.61c-4.29-.29-8.59-.69-12.87-1.13-4-.42-5.76-3.68-7.46-6.64-.48-.83.23-3.05,1.11-3.84,3.89-3.5,8.34-5.9,14.92-5.43C84.62,13.25,87.38,18.35,94.4,21.83Z"/><path class="cls-1" d="M136.27,9.29c.4,2.42-1.19,6-3.13,7.83-6.07,5.6-13.69,6.34-21.95,5.31,7.08-4.3,11.31-9.6,7-19.24,5.23.43,8.82.16,12,1.17C132.63,5.13,135.93,7.31,136.27,9.29Z"/><path class="cls-1" d="M196.81,77.67c1.53,2.88,2.73,5.94,4.4,9.64L170.57,99.59c-2.23-9-4.34-17.5-6.45-26l-1.6-.07c-.5,1-1.52,2-1.41,3,.58,5.09,1,10.27,2.27,15.18a230.64,230.64,0,0,1,7.6,75.64c-.3,4.38-3,5.87-6.57,7-16.19,5.29-32.58,9.84-49.63,11-24.1,1.65-47.33-3.08-70.9-10.26-.65-6.51-1.47-12.43-1.81-18.38C41,138.26,40,119.82,39.21,101.37c-.28-6.64.23-13.3.18-20a10.34,10.34,0,0,0-1.8-5.19C33.67,79.62,35.42,84,35,87.8c-.44,4.08-.1,8.25-.1,12.93L6,89.51c.57-1.68,1-3.57,1.83-5.32C13.11,72.37,18,60.46,25.06,49.37,35.34,33.19,49.58,23.53,67.65,18.88,78.46,26,80.14,25.71,97.08,26c-4,9.78-5.75,19.8-6.88,29.89l3,.45c2.82-10,2.35-21.06,8.91-30.62,4.62,6.55,6,13.58,7.46,20.48,1,4.71,1.21,9.58,1.91,14.35a6.26,6.26,0,0,0,2.31,3.92c1.69-6.6.42-13-.86-19.32s-3.36-12.41-5.22-19c12.07,1.85,22.47-1.7,31.94-10.29,4.1,2.1,8.5,3.74,12.19,6.38,5.8,4.15,11.16,8.94,16.66,13.53,7.67,6.4,13.13,14.53,18,23.14C190,65.1,193.45,71.35,196.81,77.67Zm-36.9,87.47c-.74-12.88-1.5-26-2.28-39.64-33.31-9-66.2-5.61-99.73-.53-.26,2.09-.46,3.36-.58,4.64-1.16,13,.34,25.87,2.34,38.72.5,3.2,1.66,4.83,4.76,5.26,7.89,1.09,15.74,2.74,23.66,3.2a218.63,218.63,0,0,0,30.39.13A111,111,0,0,0,159.91,165.14Z"/><path d="M139.66,15.81C130.19,24.4,119.79,28,107.72,26.1c1.86,6.62,3.94,12.74,5.22,19s2.55,12.72.86,19.32a6.26,6.26,0,0,1-2.31-3.92c-.7-4.77-.92-9.64-1.91-14.35-1.47-6.9-2.84-13.93-7.46-20.48C95.56,35.26,96,46.31,93.21,56.32l-3-.45C91.33,45.78,93.05,35.76,97.08,26c-16.94-.27-18.62,0-29.43-7.1C49.58,23.53,35.34,33.19,25.06,49.37c-7,11.09-11.95,23-17.25,34.82C7,85.94,6.55,87.83,6,89.51l28.93,11.22c0-4.68-.34-8.85.1-12.93.41-3.82-1.34-8.18,2.58-11.57a10.34,10.34,0,0,1,1.8,5.19c0,6.65-.46,13.31-.18,20,.78,18.45,1.79,36.89,2.86,55.32.34,5.95,1.16,11.87,1.81,18.38,23.57,7.18,46.8,11.91,70.9,10.26,17.05-1.18,33.44-5.73,49.63-11,3.54-1.15,6.27-2.64,6.57-7a230.64,230.64,0,0,0-7.6-75.64c-1.31-4.91-1.69-10.09-2.27-15.18-.11-.93.91-2,1.41-3l1.6.07c2.11,8.52,4.22,17,6.45,26l30.64-12.28c-1.67-3.7-2.87-6.76-4.4-9.64-3.36-6.32-6.85-12.57-10.34-18.81-4.83-8.61-10.29-16.74-18-23.14-5.5-4.59-10.86-9.38-16.66-13.53C148.16,19.55,143.76,17.91,139.66,15.81ZM115.53,8.22a52.39,52.39,0,0,1-.06-7.08C129.71-1.31,140.5,1,141,11.39c23.88,10.6,40.94,27.94,52.17,51.33,3.3,6.88,7.36,13.39,10.92,20.15,2.6,4.94,2.1,6.25-3,8.33-10,4.1-20,8.1-30.59,12.37,4.52,24.11,7.3,48.25,3.53,72.72-11.51,3.1-22.45,6-33.33,9-21.81,6.1-43.79,6-65.8,1.59-9.62-1.91-19.1-4.53-28.65-6.8-4.45-1.06-6.48-3.62-6.8-8.4-1.48-21.89-3.28-43.76-5.08-67.06L.25,91c7.35-16.92,13.07-33.93,24.25-48,4.91-6.2,10.22-12.54,16.61-17s14.6-7,22-10.28c.91-.41,1.87-.69,2.75-1C69.48,5.11,80.52.74,89.48,1.64c.36,2.07,1.21,4.33,1,6.51-.34,4.32,1.73,6.66,5.21,8.69,6.76,3.95,10.22,3.84,16.42-.89C114.79,13.94,116,11.6,115.53,8.22Zm2.7-5c4.27,9.64,0,14.94-7,19.24,8.26,1,15.88.29,21.95-5.31,1.94-1.79,3.53-5.41,3.13-7.83-.34-2-3.64-4.16-6-4.93C127.05,3.35,123.46,3.62,118.23,3.19ZM91.46,22.44a10.79,10.79,0,0,0,2.94-.61c-7-3.48-9.78-8.58-7.24-16.43-6.58-.47-11,1.93-14.92,5.43-.88.79-1.59,3-1.11,3.84,1.7,3,3.43,6.22,7.46,6.64C82.87,21.75,87.17,22.15,91.46,22.44Z"/><path d="M63.82,169.82c13.73,3.87,27.4,4,41,4.38a57.78,57.78,0,0,0,13.41-.81c10.23-2.11,20.38-4.66,30.5-7.31,2.59-.69,4.91-2.42,7.38-3.68-.65-11.59-1.27-22.52-1.91-34.08-31.14-8-62.13-5.1-93.17-.39A139.22,139.22,0,0,0,63.82,169.82Zm24.26,7c-7.92-.46-15.77-2.11-23.66-3.2-3.1-.43-4.26-2.06-4.76-5.26-2-12.85-3.5-25.7-2.34-38.72.12-1.28.32-2.55.58-4.64,33.53-5.08,66.42-8.51,99.73.53.78,13.59,1.54,26.76,2.28,39.64a111,111,0,0,1-41.44,11.78A218.63,218.63,0,0,1,88.08,176.79Z"/></svg>