<svg id="레이어_1" data-name="레이어 1" xmlns="http://www.w3.org/2000/svg" viewBox="0 0 249.3 190.81"><defs><style>.cls-1{fill:#ffd0aa;}</style></defs><title>cardigan</title><path class="cls-1" d="M244.51,166.75a85.26,85.26,0,0,1,1.38,9.47c-4.4,3.64-9.41,3.85-14.39,3.69-2.85-3.84-1.55-9.35-6.47-13.16-.81,5.31,2.2,9.05,2,13.55l-11.5,1.42c-1.16-4.2-2.3-8.34-3.45-12.48l-1.38.24c-2.53,4.3,1.23,8.48.95,13.45l-8.57,1.68L200.2,178c-2.75-6.4-5.53-12.8-8.25-19.22a13.44,13.44,0,0,1-1.38-4.15c-.73-12.62-1.09-25.26-2.06-37.86-.59-7.6-2.12-15.13-3.08-22.72-.64-5.11-.85-10.29-1.55-15.39-.61-4.43-1.54-8.82-2.53-13.18-.23-1-1.26-1.88-1.92-2.81l-1,.4a7,7,0,0,0-.24,2.6c2.77,8.83,2.87,18,3.69,27.1.17,1.82.45,3.64.76,5.44,2,11.67,2.67,23.46,3.21,35.25.45,9.81.84,19.62,1,29.43.11,6.81,0,7.16-6.74,9-8.78,2.43-17.71,4.37-26.63,6.27-6.15,1.31-12.39,2.18-19.36,3.38-.6-3-1.14-5.09-1.39-7.18-.82-6.75-1.53-13.51-2.29-20.27-.53-4.63-1.45-9.24-1.55-13.86q-.69-31-1-62a147.39,147.39,0,0,1,1-17.44c.37-3.25,1.68-6.39,2.58-9.58,3.15-11.22,7.94-21.81,12.72-32.4,2.24-5,4.44-9.95,6.71-15.06,5.69.64,10,3.55,14.49,5.88A77.29,77.29,0,0,1,185.14,24a67,67,0,0,1,9.41,11.54C202,47.72,209.33,60,216,72.59c3.55,6.69,5.95,14,8.32,21.28,3.24,9.93,6.09,20,8.86,30.07Q239.07,145.3,244.51,166.75Zm-66.66-7.43c.44-.11.7-1,1.77-2.59-2.42.23-3.7.23-4.93.48-2.59.54-5.16,1.2-7.73,1.8-7.42,1.73-14.86,3.36-22.24,5.25-1.32.33-3.52.08-3.78,2.72.57.25,1.19.81,1.67.7Q160.25,163.6,177.85,159.32Z"/><path class="cls-1" d="M116.25,140.84c-.29,11.41,1.85,23-1.92,34.81-17.88-1.46-36-2.8-54-11.11-.79-4.95-2.07-10.64-2.54-16.39-1.68-20.23-3.78-40.44-3.18-60.79.18-6.16,0-12.32,0-18.48,0-1.23.47-2.81-2.37-3.07-.38,2.24-1.13,4.55-1.1,6.86.14,14.48-.11,29,.88,43.44,1.06,15.23,1.32,30.59,4.51,45.62.48,2.22-.32,3.8-1.58,5.48-4.45,6-8.81,12-13.76,18.82L29.53,182.7c2.23-3.9,4.17-7.32,6.14-10.78-2-1.85-3.05-1.42-4.1.5-1.66,3-3.5,6-5.39,9.19l-8.82-3.29c-.48-5,4.45-8.11,4.08-13.72-5.28,3.2-5.74,8.45-8.51,12.56l-8.8-3.6c-.86-4.31-.21-8.32.38-12.46,1.33-9.2,1.81-18.53,3.23-27.71,3-19.2,6.06-38.43,13-56.68,3.13-8.21,7.11-16.09,10.85-24.06,1.83-3.89,4.06-7.61,6-11.45,4-8,10.83-13.43,17.43-19C60.14,17.93,65.53,14,71,10.25c2.35-1.62,5.28-2.41,8.13-3.66,2.29,10,9,16.54,14.11,24A110.65,110.65,0,0,0,103.5,42.82c6.91,7.42,10.14,16.08,10.26,26.2.12,11.15.69,22.29,1.12,33.44C115.37,115.25,116.59,128.07,116.25,140.84Zm-2.61,15.89c.1-2.67-2.9-5.65-5.76-5.72s-5.54,3.14-5.51,6.46c0,2.77,2.1,4.6,5.27,4.64C110.61,162.15,113.54,159.52,113.64,156.73ZM112.71,129c.14-2.91-1.57-4.55-6.07-5.85-3.32,2.28-4.7,5-3.69,7.72a4.23,4.23,0,0,0,4.74,2.76C110.41,133.41,112.61,131.3,112.71,129ZM111,100.25c.48-2.93-1.09-4.63-5.66-6.18-3.78,2-5.06,4.07-4.21,6.74a4.7,4.7,0,0,0,5.38,3.31C108.87,103.83,110.62,102.78,111,100.25Zm-6.78-22.59a5.86,5.86,0,0,0,4.44-5.85c-.17-2.59-1.78-4-5.06-4.41s-4.91,1.19-6.57,5.93C99,77.14,101.2,78.5,104.25,77.66Zm-6.93,83.05c0-.4,0-.79,0-1.19-3.29-1.86-7-2.17-10.71-2.71s-7.47-1.43-11.23-1.92c-3.45-.46-6.79-3.39-11.56-.38,10.7,4.21,21.36,4.35,31.39,7C95.81,161.69,96.62,161,97.32,160.71Z"/><path d="M188.79,172c-10.88,5.58-47.8,13.46-56.53,12.11-2.37-2.28-3.11-5.3-3.46-8.5q-1.77-16.12-3.56-32.23c-.12-1.16-.28-2.32-.3-3.48-.29-21.15-.63-42.31-.81-63.46a81.88,81.88,0,0,1,.85-15,104.72,104.72,0,0,1,4.68-17.27c2.6-7.18,5.82-14.14,8.86-21.16,2.71-6.26,5.51-12.49,8.3-18.71C148.59.42,150.08-.57,154.21.9a110.13,110.13,0,0,1,13.6,6.2,93.27,93.27,0,0,1,20.82,15.38,25.94,25.94,0,0,1,4.4,4.75c5.63,9,11.11,18.13,16.57,27.25,2.31,3.86,4.18,8,6.71,11.69,5.17,7.55,7.92,16.14,10.6,24.67,5,15.87,9.59,31.87,14,47.92,2.85,10.42,5.16,21,7.49,31.55.64,2.86.46,5.9.66,8.92-5.94,4.25-12.15,4.89-18.28,5.08a130,130,0,0,0-29.86,4.8c-3.15-7.93-6.24-15.73-9.33-23.52l-.94,0C190,167.77,189.37,170,188.79,172Zm-6.9-79.25c-.82-9.08-.92-18.27-3.69-27.1a7,7,0,0,1,.24-2.6l1-.4c.66.93,1.69,1.78,1.92,2.81,1,4.36,1.92,8.75,2.53,13.18.7,5.1.91,10.28,1.55,15.39,1,7.59,2.49,15.12,3.08,22.72,1,12.6,1.33,25.24,2.06,37.86a13.44,13.44,0,0,0,1.38,4.15c2.72,6.42,5.5,12.82,8.25,19.22l2.86,6.62,8.57-1.68c.28-5-3.48-9.15-.95-13.45l1.38-.24c1.15,4.14,2.29,8.28,3.45,12.48L227,180.3c.22-4.5-2.79-8.24-2-13.55,4.92,3.81,3.62,9.32,6.47,13.16,5,.16,10,0,14.39-3.69a85.26,85.26,0,0,0-1.38-9.47Q239,145.3,233.2,123.94c-2.77-10.07-5.62-20.14-8.86-30.07C222,86.63,219.57,79.28,216,72.59,209.33,60,202,47.72,194.55,35.53A67,67,0,0,0,185.14,24,77.29,77.29,0,0,0,165.42,9.7c-4.5-2.33-8.8-5.24-14.49-5.88-2.27,5.11-4.47,10.09-6.71,15.06-4.78,10.59-9.57,21.18-12.72,32.4-.9,3.19-2.21,6.33-2.58,9.58a147.39,147.39,0,0,0-1,17.44q.26,31,1,62c.1,4.62,1,9.23,1.55,13.86.76,6.76,1.47,13.52,2.29,20.27.25,2.09.79,4.15,1.39,7.18,7-1.2,13.21-2.07,19.36-3.38,8.92-1.9,17.85-3.84,26.63-6.27,6.75-1.88,6.85-2.23,6.74-9-.16-9.81-.55-19.62-1-29.43-.54-11.79-1.21-23.58-3.21-35.25C182.34,96.4,182.06,94.58,181.89,92.76Z"/><path d="M174.69,157.21c1.23-.25,2.51-.25,4.93-.48-1.07,1.62-1.33,2.48-1.77,2.59q-17.59,4.27-35.24,8.36c-.48.11-1.1-.45-1.67-.7.26-2.64,2.46-2.39,3.78-2.72,7.38-1.89,14.82-3.52,22.24-5.25C169.53,158.41,172.1,157.75,174.69,157.21Z"/><path d="M119.2,114.66c.48,16.8.53,33.61.5,50.42,0,4.44-1,8.88-1.64,14a32.52,32.52,0,0,1-4.71.47c-4.82-.23-9.67-.32-14.42-1-7.73-1.12-15.44-2.51-23.08-4.14-3-.64-5.85-2.31-8.81-3.37-2.76-1-5.58-1.79-8.43-2.69-6.19,6.87-11.32,13.71-14.64,22.18-14.64-3.82-28.53-9.15-43.15-14.37-.18-2.78-.79-5.75-.49-8.63,1.31-12.41,2.56-24.83,4.44-37.16,2.2-14.46,4.34-29,8.91-42.95,2.12-6.47,4.22-13,6.9-19.23C24,60.28,28,52.6,31.66,44.78c4.72-10.05,12.05-17.9,20.62-24.7,5.33-4.23,10.66-8.5,16.31-12.27a28.15,28.15,0,0,1,9.58-3.88c3.82-.84,5.46.56,5.51,4.35,0,3.13,1.49,5.44,3.2,7.65C93.36,24.37,100,32.72,106.54,41.1c.71.91,1.45,1.81,2.2,2.71,5.77,6.95,8.08,14.92,8.28,24C117.39,83.42,118.74,99,119.2,114.66Zm-4.87,61c3.77-11.81,1.63-23.4,1.92-34.81.34-12.77-.88-25.59-1.37-38.38-.43-11.15-1-22.29-1.12-33.44-.12-10.12-3.35-18.78-10.26-26.2A110.65,110.65,0,0,1,93.24,30.58c-5.15-7.45-11.82-14-14.11-24-2.85,1.25-5.78,2-8.13,3.66-5.47,3.75-10.86,7.68-15.93,12-6.6,5.57-13.39,11-17.43,19-2,3.84-4.18,7.56-6,11.45-3.74,8-7.72,15.85-10.85,24.06-7,18.25-10.07,37.48-13,56.68-1.42,9.18-1.9,18.51-3.23,27.71-.59,4.14-1.24,8.15-.38,12.46l8.8,3.6c2.77-4.11,3.23-9.36,8.51-12.56.37,5.61-4.56,8.73-4.08,13.72l8.82,3.29c1.89-3.2,3.73-6.15,5.39-9.19,1-1.92,2.14-2.35,4.1-.5-2,3.46-3.91,6.88-6.14,10.78L41.21,186c4.95-6.79,9.31-12.84,13.76-18.82,1.26-1.68,2.06-3.26,1.58-5.48-3.19-15-3.45-30.39-4.51-45.62-1-14.44-.74-29-.88-43.44,0-2.31.72-4.62,1.1-6.86,2.84.26,2.36,1.84,2.37,3.07,0,6.16.18,12.32,0,18.48-.6,20.35,1.5,40.56,3.18,60.79.47,5.75,1.75,11.44,2.54,16.39C78.37,172.85,96.45,174.19,114.33,175.65Z"/><path d="M107.88,151c2.86.07,5.86,3.05,5.76,5.72s-3,5.42-6,5.38c-3.17,0-5.24-1.87-5.27-4.64C102.34,154.15,105.08,150.93,107.88,151Z"/><path d="M106.64,123.17c4.5,1.3,6.21,2.94,6.07,5.85-.1,2.28-2.3,4.39-5,4.63a4.23,4.23,0,0,1-4.74-2.76C101.94,128.18,103.32,125.45,106.64,123.17Z"/><path d="M105.37,94.07c4.57,1.55,6.14,3.25,5.66,6.18-.41,2.53-2.16,3.58-4.49,3.87a4.7,4.7,0,0,1-5.38-3.31C100.31,98.14,101.59,96.08,105.37,94.07Z"/><path d="M108.69,71.81a5.86,5.86,0,0,1-4.44,5.85c-3,.84-5.3-.52-7.19-4.33,1.66-4.74,3.42-6.33,6.57-5.93S108.52,69.22,108.69,71.81Z"/><path d="M86.62,156.81c3.69.54,7.42.85,10.71,2.71,0,.4,0,.79,0,1.19-.7.29-1.51,1-2.1.82-10-2.67-20.69-2.81-31.39-7,4.77-3,8.11-.08,11.56.38C79.15,155.38,82.86,156.26,86.62,156.81Z"/></svg>