<svg id="레이어_1" data-name="레이어 1" xmlns="http://www.w3.org/2000/svg" viewBox="0 0 246.79 191.86"><defs><style>.cls-1{fill:#565164;}.cls-2{fill:#506584;}</style></defs><title>jacket</title><path class="cls-1" d="M91.57,6a305,305,0,0,1,12.68,44.84C96,39.19,87.68,27.69,75.48,19.18,80.64,14.1,85,9.19,91.57,6Z"/><path class="cls-1" d="M145.06,5.94c7,1.28,9.82,7.67,15.45,11.62-11,10-19.61,21.47-28.07,33.17C136.62,35.88,140.8,21,145.06,5.94Z"/><path d="M246.54,179.42c-1.72,1-3,2-4.48,2.45-13.12,3.89-26.35,7.18-40.19,7.1-2.91,0-4-1.47-4.87-4-2.31-6.57-4.37-13.27-8.35-19.27-2.54.12-3.72,2-5.24,3.47-4.76,4.63-9.32,9.54-14.51,13.66-5.61,4.46-12.1,6.94-19.59,5.1a63.32,63.32,0,0,0-7.41-1.1,24.8,24.8,0,0,1-16.24-8.27l2.2-1.58a16.14,16.14,0,0,0,7,4.6c3.72,1.31,7.77,1.69,11.62,2.66,9.24,2.31,17.05-.13,23.72-6.77,1.42-1.4,3-2.61,4.55-3.91,6.68-5.7,10.5-12.72,10.16-21.74-.36-10-.13-20-1-29.88-1-11-2.65-22-4.54-33C178,81.2,175.82,73.55,174,65.72l2.7-1.4A14.37,14.37,0,0,1,178,67.09c.73,3.24,1,6.6,2,9.73,3.84,11.93,4.93,24.36,6.93,36.62a107.51,107.51,0,0,1,1.27,13.88c.24,7.29.34,14.59.13,21.88-.12,4.46-1.31,9,2.81,12.44a7.06,7.06,0,0,1,1.44,2.6c2.21,5,4.45,10,6.58,15.08,1.94,4.62,2.88,5.22,7.78,5.42,7.95.33,15.42-2.15,23-3.78,3.53-.75,7-1.79,11.22-2.89-.53-4.48-.45-8.22-1.48-11.63-5.23-17.31-7.48-35.33-13.35-52.52-3.53-10.33-6.21-21-10-31.26C214,76.24,211.69,69.89,208,64c-2.82-4.5-5.17-9.3-7.64-14-4.58-8.78-10.16-16.84-17.61-23.42-5.85-5.17-12-10.07-18.08-14.94a16.79,16.79,0,0,0-9.39-3.93c2.26,4.47,6.4,6.35,9.3,10-1.14,1.15-2.11,2.21-3.18,3.18A140.58,140.58,0,0,0,141,44.67c-4.76,6.81-10,13.27-15.06,19.89-1.21,1.58-2.84,3-3.58,4.77-2.16,5.17-4.49,10.28-6.59,15.48l-2.25-.92A13.7,13.7,0,0,0,111.9,70C100.49,53.32,91,35.16,74.82,22.09c-1.3-1.05-2.06-2.76-3-4.1,2.94-2.78,6.19-4.38,7.77-8a8,8,0,0,0-2.21-.11c-11,3.17-21.23,8-29.1,16.62A113.68,113.68,0,0,0,26.89,59.94c-.94,2.3-1.76,4.67-2.85,6.91a139.14,139.14,0,0,0-11.1,31.43C10.6,109.1,8.72,120,7.09,131c-.89,6-.85,12.22-1.23,18.34-.37,5.8-.55,11.63-1.17,17.4-.76,7.17-.07,8.63,6.65,11,5.17,1.82,10.41,3.47,15.56,5.34,3.08,1.12,6.06,2.52,8.88,3.7a12,12,0,0,0,2-1.64c3.77-5.27,7.55-10.54,11.22-15.88a16.62,16.62,0,0,0,2.7-11.38c-.53-5.28-1.34-10.55-1.55-15.85-.54-13.63-.86-27.27-1.18-40.92-.13-5.45,0-10.91-.08-16.37,0-1.16-.14-2.33-.12-3.49.06-4.29.13-8.57.3-12.85,0-.51.68-1,1-1.42,2.33.58,1.93,2.28,2,3.69.3,14,.5,28,.86,41.92.3,11.64.73,23.28,1.21,34.91a99.71,99.71,0,0,0,1.06,10.91c.47,3.1,1.25,6.05,3.85,8.38a72.36,72.36,0,0,1,7.82,8.4c5,6.2,11.79,9.59,19.15,11.93,4.68,1.48,9.31,1.92,13.81-1.23,4.75-3.34,9.93-6.07,14.74-9.35a20.35,20.35,0,0,0,1.73-1.33l2.37,1.48c-6.33,5.77-13.62,10.07-21.16,14a7.84,7.84,0,0,1-4.23.89c-10.36-1.11-19.8-4.34-27-12.34a66.26,66.26,0,0,0-4.71-5.17c-2-1.83-4.37-3.36-6.79-5.18-5.1,6.13-10.1,11.45-13.12,18.25-2.21,5-3,5.19-7.93,3.27-7.28-2.87-14.63-5.55-21.94-8.33A50.09,50.09,0,0,1,6.65,180C.8,177-.12,174.92.35,168.46c.68-9.13.4-18.37,1.76-27.38,1.13-7.55.63-15.2,2.64-22.69,2.5-9.31,3.66-19,6.3-28.24,2.37-8.29,5.93-16.25,9-24.34.94-2.48,2.07-4.9,3.07-7.37C28.22,46,35.61,34.93,44.32,24.77c6.78-7.91,15.58-13,25.23-16.57C76.1,5.77,82.79,3.71,89.44,1.53c1.08-.36,2.22-.5,3.92-.87,1.5,4.33,3.1,8.47,4.36,12.71,4.43,14.82,8.6,29.72,13.17,44.5,1.45,4.69,3.83,9.09,6.27,14.74,5.5-12.83,12.84-23.3,15.9-35.72,3-12,7.67-23.67,8.48-36.64,3.31.57,6.52,1,9.66,1.7,6.72,1.53,13.05,3.85,18.33,8.6,4.33,3.89,8.9,7.52,13.48,11.11,9.4,7.38,15.77,17.06,21.31,27.41,2.2,4.11,4.55,8.14,6.65,12.3,2.68,5.34,5.52,10.64,7.69,16.2,4.31,11,7.57,22.36,11.18,33.61,3.12,9.72,5.3,19.57,7.61,29.44C240.44,153.4,243.44,166.19,246.54,179.42Zm-86-161.86c-5.63-3.95-8.45-10.34-15.45-11.62-4.26,15.1-8.44,29.94-12.62,44.79C140.9,39,149.49,27.53,160.51,17.56ZM104.25,50.79A305,305,0,0,0,91.57,6C85,9.19,80.64,14.1,75.48,19.18,87.68,27.69,96,39.19,104.25,50.79Z"/><path class="cls-2" d="M239.7,166.44c1,3.41,1,7.15,1.48,11.63-4.23,1.1-7.69,2.14-11.22,2.89-7.6,1.63-15.07,4.11-23,3.78-4.9-.2-5.84-.8-7.78-5.42-2.13-5-4.37-10.06-6.58-15.08a7.06,7.06,0,0,0-1.44-2.6c-4.12-3.48-2.93-8-2.81-12.44.21-7.29.11-14.59-.13-21.88a107.51,107.51,0,0,0-1.27-13.88c-2-12.26-3.09-24.69-6.93-36.62-1-3.13-1.28-6.49-2-9.73a14.37,14.37,0,0,0-1.31-2.77l-2.7,1.4c1.84,7.83,4,15.48,5.38,23.27,1.89,10.94,3.56,22,4.54,33,.88,9.91.65,19.92,1,29.88.34,9-3.48,16-10.16,21.74-1.52,1.3-3.13,2.51-4.55,3.91-6.67,6.64-14.48,9.08-23.72,6.77-3.85-1-7.9-1.35-11.62-2.66a16.14,16.14,0,0,1-7-4.6,16.64,16.64,0,0,1-3.25-6c-4.58-14.74-9.48-29.37-14.5-43.95-2.86-8.3-1.5-16.45.1-24.62a95.66,95.66,0,0,1,5.52-17.6c2.1-5.2,4.43-10.31,6.59-15.48.74-1.78,2.37-3.19,3.58-4.77,5-6.62,10.3-13.08,15.06-19.89a140.58,140.58,0,0,1,20.47-23.81c1.07-1,2-2,3.18-3.18-2.9-3.6-7-5.48-9.3-9.95a16.79,16.79,0,0,1,9.39,3.93c6.12,4.87,12.23,9.77,18.08,14.94,7.45,6.58,13,14.64,17.61,23.42,2.47,4.72,4.82,9.52,7.64,14,3.66,5.85,6,12.2,8.33,18.62,3.78,10.29,6.46,20.93,10,31.26C232.22,131.11,234.47,149.13,239.7,166.44Zm-68-26.43c-.05-.44-.1-.88-.14-1.31-.7-.32-1.51-1-2.08-.88-10.14,2.73-20.24,5.57-30.49,8.42,1.12,2.82,2.67,2.21,4.32,1.78,7.54-2,15.11-3.79,22.64-5.79A53.66,53.66,0,0,0,171.72,140Zm-50.29-22.23c.73-2.52.12-3.58-3.49-5.83-4.42,2.56-5.4,3.84-4.83,6.34a3.92,3.92,0,0,0,3.8,3.31C119,121.76,120.7,120.3,121.43,117.78Z"/><path d="M171.58,138.7c0,.43.09.87.14,1.31a53.66,53.66,0,0,1-5.75,2.22c-7.53,2-15.1,3.83-22.64,5.79-1.65.43-3.2,1-4.32-1.78,10.25-2.85,20.35-5.69,30.49-8.42C170.07,137.66,170.88,138.38,171.58,138.7Z"/><path d="M127.86,177l-2.2,1.58a27.52,27.52,0,0,1-1.73-2.2,5.87,5.87,0,0,0-1-1.1,6.59,6.59,0,0,0-1.19-.6,19.93,19.93,0,0,0-3.1,2l-2.37-1.48c1.66-1.4,3.12-3,4.46-4.18-4.48-14.57-8.78-28.35-12.92-42.18-1.09-3.64-2.49-7.46-2.34-11.14.46-11,2-21.9,7.12-31.86.34-.66.64-1.31.9-2l2.25.92a95.66,95.66,0,0,0-5.52,17.6c-1.6,8.17-3,16.32-.1,24.62,5,14.58,9.92,29.21,14.5,43.95A16.64,16.64,0,0,0,127.86,177Z"/><path d="M117.94,112c3.61,2.25,4.22,3.31,3.49,5.83s-2.4,4-4.52,3.82a3.92,3.92,0,0,1-3.8-3.31C112.54,115.79,113.52,114.51,117.94,112Z"/><path class="cls-2" d="M120.72,171c-1.34,1.22-2.8,2.78-4.46,4.18a20.35,20.35,0,0,1-1.73,1.33c-4.81,3.28-10,6-14.74,9.35-4.5,3.15-9.13,2.71-13.81,1.23-7.36-2.34-14.11-5.73-19.15-11.93a72.36,72.36,0,0,0-7.82-8.4c-2.6-2.33-3.38-5.28-3.85-8.38A99.71,99.71,0,0,1,54.1,147.5c-.48-11.63-.91-23.27-1.21-34.91-.36-14-.56-27.95-.86-41.92,0-1.41.37-3.11-2-3.69-.31.43-1,.91-1,1.42-.17,4.28-.24,8.56-.3,12.85,0,1.16.12,2.33.12,3.49,0,5.46,0,10.92.08,16.37.32,13.65.64,27.29,1.18,40.92.21,5.3,1,10.57,1.55,15.85A16.62,16.62,0,0,1,49,169.26c-3.67,5.34-7.45,10.61-11.22,15.88a12,12,0,0,1-2,1.64c-2.82-1.18-5.8-2.58-8.88-3.7-5.15-1.87-10.39-3.52-15.56-5.34-6.72-2.37-7.41-3.83-6.65-11,.62-5.77.8-11.6,1.17-17.4.38-6.12.34-12.3,1.23-18.34,1.63-11,3.51-21.9,5.85-32.72A139.14,139.14,0,0,1,24,66.85c1.09-2.24,1.91-4.61,2.85-6.91A113.68,113.68,0,0,1,48.25,26.45c7.87-8.62,18-13.45,29.1-16.62a8,8,0,0,1,2.21.11c-1.58,3.67-4.83,5.27-7.77,8,1,1.34,1.73,3.05,3,4.1C91,35.16,100.49,53.32,111.9,70a13.7,13.7,0,0,1,1.58,13.85c-.26.65-.56,1.3-.9,2-5.13,10-6.66,20.87-7.12,31.86-.15,3.68,1.25,7.5,2.34,11.14C111.94,142.68,116.24,156.46,120.72,171ZM95.53,146.16c1.48.19,2.65-.22,2.72-2-3.13-2-30.47-5.68-34.73-4.42,1.09.86,1.78,1.8,2.66,2a61.1,61.1,0,0,0,7.25,1.42C80.79,144.22,88.16,145.2,95.53,146.16Z"/><path d="M98.25,144.14c-.07,1.8-1.24,2.21-2.72,2-7.37-1-14.74-1.94-22.1-3a61.1,61.1,0,0,1-7.25-1.42c-.88-.23-1.57-1.17-2.66-2C67.78,138.46,95.12,142.18,98.25,144.14Z"/></svg>