<svg id="레이어_1" data-name="레이어 1" xmlns="http://www.w3.org/2000/svg" viewBox="0 0 163.69 298"><defs><style>.cls-1{fill:#a39bcb;}.cls-2{fill:#00384a;}.cls-3{fill:#6290b4;}.cls-4{fill:#000087;}.cls-5{stroke:#6290b4;stroke-miterlimit:10;}</style></defs><title>long_jean</title><path class="cls-1" d="M83.85,16.93V29.19H67.47c-.17-3.79-.35-7.67-.56-12.26Z"/><path class="cls-2" d="M134.48,4.63l1.92,10-15.5,6.45c-.35-3.73-.66-7-1-10.85Z"/><path class="cls-2" d="M111.22,14c.15,3.22.29,6.45.47,10.25L88,29.24V17.46Z"/><path class="cls-2" d="M63.21,18.07c.16,3.13.33,6.7.58,11.54L37.6,26.09V17Z"/><path class="cls-2" d="M28.65,13.86c-.28,3.19-.55,6.25-.85,9.76L11.43,19.38C12.85,16,14,13.24,15.37,10L22,11.93Z"/><path d="M163.37,285.12c.18,1.28.07,3.28-.71,3.85a4.19,4.19,0,0,1-4-.12c-6-4.89-13-5.31-20.32-5.15-15.61.36-30.88,2.45-45.26,8.88a83.85,83.85,0,0,0-9,5.17c-5.6-1.31-9.61-2.81-13.71-3.11-13.61-1-27.25-1.52-40.87-2.31-6.41-.37-12.74-2.17-19.24.18-2.63.95-3.68-1.42-3.61-4,.11-3.82-.13-7.68.27-11.47,1.14-10.85-.32-21.58-.89-32.36-.53-10.12-.16-20.28-.45-30.42C5.2,201,4.61,187.67,4,174.37c-.93-21.28-1.94-42.55-2.87-63.82C.77,101.74.05,92.9.31,84.11c.43-14.63,1-29.3,2.56-43.83.95-8.86,3.85-17.51,6-26.23a15.12,15.12,0,0,1,1.94-4C13,6.31,15.93,5.58,20.08,6.73c10.56,2.91,21,6.56,32.1,6.85,2,.05,4-.08,6-.15,10.3-.37,20.61-1.19,30.9-1,12,.2,22.87-3.78,33.77-8a118.93,118.93,0,0,1,12.82-4c2.62-.68,3.76.63,4,3.49a133.35,133.35,0,0,0,2.53,15.64c2.87,12.65,6.63,25.13,8.88,37.88a320.78,320.78,0,0,1,4.64,57.17c0,10.15,1,20.3.85,30.44q-.34,22.69-1.78,45.37c-1,15.91,1.14,31.58,2.58,47.31,1.25,13.75,2.84,27.47,4.39,41.2C162,281,163.08,283,163.37,285.12Zm-5.59-3.4-4-34.1c-24.39.2-47.16,5.36-69,12.77v31C108.46,281,132.08,276.63,157.78,281.72Zm-4.16-38.06c-.47-4.6-.93-8.38-1.23-12.18-1.12-14.09-3.12-28.12-1.75-42.34,1-9.93,2-19.94,1.84-29.89-.53-26.11-1.54-52.23-2.75-78.32-.4-8.74-2-17.43-2.95-25.59-5.41-2-10-3.35-14.39-5.25-4.56-2-8.87-4.53-13.39-6.59-3.17-1.43-5.1-3.56-5.64-7-.43-2.74-1-5.45-1.58-8.41L82.45,33.88c0,4.56,0,9,0,13.52,0,2.93-.46,5.85-3.25,7.4C75.31,57,75,60.16,75.29,64.14c1.08,14.77,1.88,29.57,2.76,44.35q2.42,40.89,4.8,81.76c1.24,21.1,3.53,42.17,1.44,63.34a13.11,13.11,0,0,0,.6,3.19A243.86,243.86,0,0,1,153.62,243.66ZM133.2,46.56c3.65,2,7.33,3.71,12.52,3.44l-8.15-31.84-22.25,9.08c.38,2.35.89,4.45,1,6.57.27,4,2.44,6.08,6.17,7.43A76.45,76.45,0,0,1,133.2,46.56Zm3.2-31.95-1.92-10-14.6,5.58c.36,3.84.67,7.12,1,10.85ZM116.35,22V12.87l-1.44,0q.23,4.61.47,9.21Zm-4.66,2.19c-.18-3.8-.32-7-.47-10.25L88,17.46V29.24Zm-27.84,5V16.93H66.91c.21,4.59.39,8.47.56,12.26ZM79.85,257c.36-4.93,1.1-9.07.92-13.18-1.37-30.58-2.91-61.16-4.43-91.73Q73.73,99.21,71.11,46.37c-.2-4.1,0-8.22,0-12.38L39,30.1C37.9,34,36.89,37.69,35.8,41.32c-2.81,9.36-9,14.4-18.89,14.91-3.75.19-7.46,1-11.42,1.5-.24,2.62-.62,4.75-.6,6.88.12,15,0,30,.55,44.91.76,21.94,2,43.87,2.94,65.81.59,13.62,1,27.26,1.5,40.89.4,12.12.7,24.25,1.11,36.37a29.44,29.44,0,0,0,.86,4.36Zm-.13,33.77v-30H11.85v25.88ZM79,46.63c.2-4.25.07-8.52.07-13.19l-4.75.72c.33,6.16.64,12,1,17.83l2.46.31A30.86,30.86,0,0,0,79,46.63Zm-15.17-17c-.25-4.84-.42-8.41-.58-11.54L37.6,17v9.14Zm-30.33-5,.45-9.24-1.59,0v9.24Zm-5.66-1c.3-3.51.57-6.57.85-9.76L22,11.93,15.37,10c-1.36,3.26-2.52,6-3.94,9.4Zm6.86,6L11.3,22.91C7.38,33.19,6.1,43.09,6.18,53.64,25,54.9,34.39,46.84,34.66,29.6Z"/><path class="cls-3" d="M153.78,247.62l4,34.1c-25.7-5.09-49.32-.75-73,9.67v-31C106.62,253,129.39,247.82,153.78,247.62Z"/><path class="cls-4" d="M152.39,231.48c.3,3.8.76,7.58,1.23,12.18a243.86,243.86,0,0,0-68.73,13.12,13.11,13.11,0,0,1-.6-3.19c2.09-21.17-.2-42.24-1.44-63.34q-2.4-40.87-4.8-81.76c-.88-14.78-1.68-29.58-2.76-44.35-.29-4,0-7.17,3.9-9.34,2.79-1.55,3.24-4.47,3.25-7.4,0-4.48,0-9,0-13.52l29.33-5.81c.56,3,1.15,5.67,1.58,8.41.54,3.46,2.47,5.59,5.64,7,4.52,2.06,8.83,4.63,13.39,6.59,4.39,1.9,9,3.3,14.39,5.25,1,8.16,2.55,16.85,2.95,25.59,1.21,26.09,2.22,52.21,2.75,78.32.19,9.95-.89,20-1.84,29.89C149.27,203.36,151.27,217.39,152.39,231.48Z"/><path class="cls-4" d="M145.72,50c-5.19.27-8.87-1.43-12.52-3.44a76.45,76.45,0,0,0-10.68-5.32c-3.73-1.35-5.9-3.38-6.17-7.43-.14-2.12-.65-4.22-1-6.57l22.25-9.08Z"/><path class="cls-4" d="M116.35,12.87V22l-1,.09q-.24-4.61-.47-9.21Z"/><path class="cls-4" d="M80.77,243.77c.18,4.11-.56,8.25-.92,13.18h-68a29.44,29.44,0,0,1-.86-4.36c-.41-12.12-.71-24.25-1.11-36.37C9.42,202.59,9,189,8.38,175.33c-.94-21.94-2.18-43.87-2.94-65.81-.51-15-.43-29.94-.55-44.91,0-2.13.36-4.26.6-6.88,4-.54,7.67-1.31,11.42-1.5C26.82,55.72,33,50.68,35.8,41.32,36.89,37.69,37.9,34,39,30.1L71.08,34c0,4.16-.17,8.28,0,12.38Q73.66,99.22,76.34,152C77.86,182.61,79.4,213.19,80.77,243.77Z"/><path class="cls-3" d="M79.72,260.77v30l-67.87-4.07V260.77Z"/><path class="cls-4" d="M79,33.44c0,4.67.13,8.94-.07,13.19a30.86,30.86,0,0,1-1.27,5.67L75.23,52c-.31-5.83-.62-11.67-1-17.83Z"/><path class="cls-4" d="M33.91,15.37l-.45,9.24-1.14,0V15.35Z"/><path class="cls-4" d="M11.3,22.91,34.66,29.6c-.27,17.24-9.66,25.3-28.48,24C6.1,43.09,7.38,33.19,11.3,22.91Z"/><line class="cls-5" x1="117.28" y1="84.25" x2="141.57" y2="80.17"/><line class="cls-5" x1="109.64" y1="90.81" x2="140.61" y2="85.42"/><line class="cls-5" x1="107.82" y1="96.82" x2="138.8" y2="91.44"/><line class="cls-5" x1="23.15" y1="208" x2="19.57" y2="244.51"/><line class="cls-5" x1="29.49" y1="221.21" x2="25.92" y2="249.49"/><line class="cls-5" x1="15.32" y1="227.91" x2="32.59" y2="248.68"/><line class="cls-5" x1="128.98" y1="239.27" x2="143.15" y2="224.85"/><line class="cls-5" x1="136.06" y1="240.04" x2="149.15" y2="230.21"/><line class="cls-5" x1="32.31" y1="51.74" x2="39.36" y2="39.23"/></svg>