<svg id="레이어_1" data-name="레이어 1" xmlns="http://www.w3.org/2000/svg" viewBox="0 0 245.03 188.25"><defs><style>.cls-1{fill:#ffdab4;}.cls-2{fill:#fff;}.cls-3{fill:#ffdfee;}</style></defs><title>long_blouse</title><path class="cls-1" d="M156,3.88c6.9,1.23,12.81,5,19.2,12.34-7,12.6-14.1,25.48-21,38-24.22,0-47.81-.52-71.95,1.7C75.15,42.79,72.17,27.21,61.85,14.4L81.46,6.55c4.71,4.88,7.23,10.44,9.29,16.23,1.46,4.07,2.62,8.25,4.09,12.31,1.77,4.88,2.77,5.24,7.78,4.9,6-.4,12-.4,17.94-.65,6.48-.28,12.95-.65,19.43-1,3.26-.16,5.06-1.87,6-5,2.7-8.39,5.59-16.72,8.41-25.08C155,6.8,155.52,5.3,156,3.88Z"/><path class="cls-2" d="M124,60.82c7.12-.13,11.61,3.22,11.29,8.86C128.75,69.86,127.45,64.25,124,60.82Z"/><path class="cls-2" d="M99.57,69c1.85-7.67,8.66-7.41,14.08-10.59C110.6,65.55,105.1,69.74,99.57,69Z"/><path class="cls-2" d="M234.27,141.68c1.44,4.9,2.28,10,3.49,15.4l-40.85,12c-2.91-4-5.84-8-8.65-12.09a5.09,5.09,0,0,1-.43-2.42c-1-16.46-1.48-33-3-49.37-1.29-13.9-3.69-27.7-5.69-41.53-.15-1-1-2-1.55-3l-1.47.32c0,1.84-.43,3.77-.06,5.53,5.09,24.25,5.27,49,6.87,73.54.44,6.78.67,13.57,1,21-6.42,2.19-12.24,4.63-18.29,6.17-14.36,3.64-28.68,7.69-43.59,8.31a76.13,76.13,0,0,1-14.84-1c-11.83-1.87-23.61-4.09-35.4-6.22a37.27,37.27,0,0,1-5.76-1.6c-4.57-1.62-7.2-4.2-7.53-9.74-.68-11.46-2.63-22.83-3.51-34.28-.79-10.11-1-20.28-1.14-30.43-.12-8.15.22-16.31.36-24.46,0-1.68.27-3.48-2.85-3.49a11.68,11.68,0,0,0-.53,2.1c-.24,11.32-.63,22.64-.62,34,0,19,2.49,37.86,4.33,56.74a7.7,7.7,0,0,1-1,4.67c-2.39,3.58-5.17,6.9-8.06,10.67L7.85,152.77c.14-2.15.21-4.77.5-7.37,1.16-10.59,2.21-21.2,3.66-31.74.66-4.74,2.16-9.36,3.32-14s2.28-9.33,3.6-14c5.12-18,13.48-34.37,24.14-49.61A115,115,0,0,1,53.39,23.9c1.89-2,4.32-3.55,7.09-5.78,2.49,4.36,5,8.05,6.81,12.09C70,36.46,72.1,43,74.69,49.29c1.43,3.49,3.35,6.78,5.15,10.37l22.66-1.85c.1.35.21.7.32,1a17.84,17.84,0,0,0-2.42,1.86,18.28,18.28,0,0,0-3.46,4.14c-1.16,2.35-1.19,4.94.82,7a5.53,5.53,0,0,0,6.93,1,64,64,0,0,0,7.6-5.59c1-.8,1.9-1.8,3.2-3.06,1.87,7.72,1.66,15.57,3.22,23.06h2c.39-1.22,1.18-2.46,1.1-3.65-.36-5.31-1-10.6-1.51-15.9-.13-1.29-.36-2.58-.72-5.08,2.39,2.53,3.94,4.32,5.66,5.92a25.64,25.64,0,0,0,5,4c3.25,1.77,6.62,1.16,8.17-1.06,1.76-2.53,1.31-6.83-1.13-9.21a22.35,22.35,0,0,1-4.12-4.35c2.21,0,4.43-.07,6.63,0,3.5.14,7,.35,10.48.61,3.92.3,6.42-1.29,8.38-4.82,6-10.75,12.27-21.32,18.79-32.57,2.8,2.59,6,4.66,8,7.52,7.3,10.31,14.82,20.54,21.1,31.47a135.13,135.13,0,0,1,10.87,25.67C223.43,104.29,228.8,123,234.27,141.68Z"/><path class="cls-2" d="M238.77,160.63c.9,5,1.68,9.31,2.55,14.19l-37.15,6.1c-1.51-2.49-3.19-5.28-5.22-8.65Z"/><path class="cls-2" d="M42.76,175.52l-5,8.71L4.61,169.62c.7-3.56,1.51-7.68,2.39-12.21C20,161.59,30.76,169.31,42.76,175.52Z"/><path d="M146,33.4c-1,3.1-2.79,4.81-6,5-6.48.32-13,.69-19.43,1-6,.25-12,.25-17.94.65-5,.34-6,0-7.78-4.9-1.47-4.06-2.63-8.24-4.09-12.31C88.69,17,86.17,11.43,81.46,6.55L61.85,14.4c10.32,12.81,13.3,28.39,20.41,41.47,24.14-2.22,47.73-1.73,72-1.7,6.91-12.47,14-25.35,21-37.95C168.83,8.89,162.92,5.11,156,3.88c-.5,1.42-1.06,2.92-1.57,4.44C151.63,16.68,148.74,25,146,33.4Zm-4.31,1.52c4-11.81,7.74-23,11.65-34.59C165-.73,171.43,8.46,179.83,13.87c-.08,1.77-.14,3.21-.22,4.93,7.5,4.43,12,11.86,16.79,18.75,9.9,14.22,18.94,29.05,24.06,45.81,6,19.73,12.13,39.45,17.56,59.35,2.88,10.56,4.41,21.49,6.53,32.26a30.83,30.83,0,0,1,.23,3.27l-42.47,7.31-13.53-22c-21.94,8-44,13.63-66.77,15.72a55,55,0,0,1-13.88-.91c-12.8-2.14-25.59-4.39-38.29-7.08-4.94-1-9.61-3.37-15-5.31L39,188a12.49,12.49,0,0,1-2.95-.56c-5.2-2.22-10.33-4.61-15.52-6.85-4.57-2-9.21-3.73-13.77-5.7-2.24-1-4.37-2.17-6.55-3.26,4.93-16.95,5-34,7.47-50.75,1-7.07,1.68-14.27,3.48-21.15,6.16-23.6,14.9-46.12,29.32-66.08,4.9-6.78,10.37-13,17.46-18-.06-1.2-.13-2.48-.21-3.89l25-9.25c9.45,9.76,12.11,22,16.25,33.68Zm99.59,139.9c-.87-4.88-1.65-9.2-2.55-14.19L199,172.27c2,3.37,3.71,6.16,5.22,8.65Zm-3.56-17.74c-1.21-5.43-2-10.5-3.49-15.4-5.47-18.68-10.84-37.39-16.85-55.9a135.13,135.13,0,0,0-10.87-25.67c-6.28-10.93-13.8-21.16-21.1-31.47-2-2.86-5.19-4.93-8-7.52-6.52,11.25-12.82,21.82-18.79,32.57-2,3.53-4.46,5.12-8.38,4.82-3.49-.26-7-.47-10.48-.61-2.2-.09-4.42,0-6.63,0a22.35,22.35,0,0,0,4.12,4.35c2.44,2.38,2.89,6.68,1.13,9.21-1.55,2.22-4.92,2.83-8.17,1.06a25.64,25.64,0,0,1-5-4c-1.72-1.6-3.27-3.39-5.66-5.92.36,2.5.59,3.79.72,5.08.55,5.3,1.15,10.59,1.51,15.9.08,1.19-.71,2.43-1.1,3.65h-2c-1.56-7.49-1.35-15.34-3.22-23.06-1.3,1.26-2.17,2.26-3.2,3.06a64,64,0,0,1-7.6,5.59,5.53,5.53,0,0,1-6.93-1c-2-2-2-4.63-.82-7a18.28,18.28,0,0,1,3.46-4.14,17.84,17.84,0,0,1,2.42-1.86c-.11-.34-.22-.69-.32-1L79.84,59.66c-1.8-3.59-3.72-6.88-5.15-10.37C72.1,43,70,36.46,67.29,30.21c-1.77-4-4.32-7.73-6.81-12.09-2.77,2.23-5.2,3.75-7.09,5.78A115,115,0,0,0,43.07,36.08c-10.66,15.24-19,31.66-24.14,49.61-1.32,4.62-2.44,9.29-3.6,14s-2.66,9.28-3.32,14c-1.45,10.54-2.5,21.15-3.66,31.74-.29,2.6-.36,5.22-.5,7.37l37.71,19.72c2.89-3.77,5.67-7.09,8.06-10.67a7.7,7.7,0,0,0,1-4.67c-1.84-18.88-4.3-37.73-4.33-56.74,0-11.32.38-22.64.62-34a11.68,11.68,0,0,1,.53-2.1c3.12,0,2.88,1.81,2.85,3.49-.14,8.15-.48,16.31-.36,24.46.15,10.15.35,20.32,1.14,30.43.88,11.45,2.83,22.82,3.51,34.28.33,5.54,3,8.12,7.53,9.74a37.27,37.27,0,0,0,5.76,1.6c11.79,2.13,23.57,4.35,35.4,6.22a76.13,76.13,0,0,0,14.84,1c14.91-.62,29.23-4.67,43.59-8.31,6-1.54,11.87-4,18.29-6.17-.36-7.39-.59-14.18-1-21-1.6-24.58-1.78-49.29-6.87-73.54-.37-1.76,0-3.69.06-5.53l1.47-.32c.53,1,1.4,1.91,1.55,3,2,13.83,4.4,27.63,5.69,41.53,1.51,16.41,2,32.91,3,49.37a5.09,5.09,0,0,0,.43,2.42c2.81,4.06,5.74,8.05,8.65,12.09ZM135.29,69.68c.32-5.64-4.17-9-11.29-8.86C127.45,64.25,128.75,69.86,135.29,69.68ZM113.65,58.37c-5.42,3.18-12.23,2.92-14.08,10.59C105.1,69.74,110.6,65.55,113.65,58.37ZM37.76,184.23l5-8.71C30.76,169.31,20,161.59,7,157.41c-.88,4.53-1.69,8.65-2.39,12.21Z"/><circle class="cls-3" cx="74.89" cy="150.38" r="7.04"/><circle class="cls-3" cx="105.53" cy="155.23" r="7.04"/><circle class="cls-3" cx="137.95" cy="153.59" r="7.04"/><circle class="cls-3" cx="170.12" cy="146.56" r="7.04"/><circle class="cls-3" cx="201.27" cy="152.17" r="7.04"/><circle class="cls-3" cx="223.23" cy="146.56" r="7.04"/><circle class="cls-3" cx="21.27" cy="143.34" r="7.04"/><circle class="cls-3" cx="40.57" cy="153.05" r="7.04"/></svg>