<svg id="레이어_1" data-name="레이어 1" xmlns="http://www.w3.org/2000/svg" viewBox="0 0 192.72 293.48"><defs><style>.cls-1{fill:#8aaae5;}</style></defs><title>long_skirt</title><path class="cls-1" d="M150.81,271.24c-4.25-1.94-3.07-2.48-13.05-.08,1.72-2.86,4.25-3.69,7.22-3.45a15.17,15.17,0,0,1,3.9.78c7.46,2.65,14.62,2.66,21.37-2a5.17,5.17,0,0,1,1.37-.55c.12,0,.29.09.43.14C167,270.74,158.25,274.65,150.81,271.24Z"/><path class="cls-1" d="M185.86,240.91c-2,6.3-6.46,9.4-12.57,10.12Z"/><path class="cls-1" d="M182.84,254.92a35.14,35.14,0,0,0-4.4.76,22.34,22.34,0,0,0-3.75,2.21l-1-1.13c1.4-1.15,2.62-2.77,4.23-3.34,3.9-1.39,7.81-2.53,9.65-7.93C188,250.72,185.92,254.26,182.84,254.92Z"/><path class="cls-1" d="M24.48,256.63c3.26,3.38,6.09,7.17,9,10.84.12.14-.16.6-.38,1.37-3.6.14-5.68-1.73-6.43-4.59-1.28-4.86-4.46-6.13-9-5.89-3.12.17-6.32.31-8.73-2,3.53-.22,7.14-.54,10.75-.6C21.36,255.71,23.56,255.68,24.48,256.63Z"/><path class="cls-1" d="M31,258.85c-2.58-5.08-6.65-7-12.26-6.32a30.25,30.25,0,0,1-6.92.19c-1.63-.17-3.19-1.1-5.49-1.95,5.54-.41,10.08-.73,14.61-1.09,6.32-.51,12.95,5.55,12.38,11.9A16.81,16.81,0,0,1,31,258.85Z"/><path class="cls-1" d="M57.67,280.2c4.9,3,9.57,4.26,15,2.54l.66,1.91-.59.19c-5.11,1.71-9.57,1.46-14.21-1.36-1.68-1-4.1-1.08-6.19-1.11-3.81-.07-7.63.39-11.44.28-2.68-.07-2.68-.33-3.9-2.72,4.35-.4,8.51-1,12.69-1.07C52.36,278.83,55.51,278.89,57.67,280.2Z"/><path class="cls-1" d="M98.63,289.93c-6.18-.73-11.91-1.92-17.38-5.27-1.92-1.17-5.34-.77-7.94,0l-.66-1.91c.5-.16,1-.35,1.51-.56a10.74,10.74,0,0,1,10.46,1.08c8.88,5.95,17.86,5.19,26.68-.26,5.13-3.16,10.38-5.06,16.54-3.3,4.11,1.18,7.5-.87,10.41-3.49,3.34-3,7.08-3.88,11.05-2,8.24,3.82,15.4,1.52,22.29-3.26.23-.16.63-.08.95-.11-3.29,7.42-10.72,9.65-19.56,7C147,276,141.91,276.4,137,280.16a11,11,0,0,1-8.81,2.45c-7.66-1.17-14.43,1.53-20.72,5.48A12.57,12.57,0,0,1,98.63,289.93Z"/><path class="cls-1" d="M60.4,277.73c-4-2.87-8.25-3.11-12.82-1.73-3.78,1.15-7.51,1.56-10.95-2.25,2.74.29,5,.87,7.3.66s4.48-1.73,6.71-1.71c2.87,0,6.25.22,8.49,1.72,4.88,3.28,9.85,3.75,15.21,2.36,4.61-1.2,8.76-.3,13,1.66,4.44,2,8.89,4.93,14.16,3.11,3.57-1.24,7.57-2.14,10.37-4.42,4.35-3.55,9-3.76,14.06-3.61,3.37.1,6.73,0,10,0-2.06,2.2-4.71,3.76-8.14,2.74-6.32-1.87-11.79.3-17.12,3.29-8.5,4.77-17,6.5-25.62.28-3.92-2.82-8.46-2.11-12.46-.59A12.12,12.12,0,0,1,60.4,277.73Z"/><path class="cls-1" d="M147.63,6.27c.29,1.08.84,3.12,1.37,5.07-24,13.1-88.19,17.93-118.22,3.68.12-1.92.25-4,.4-6.41,8.32,1.79,16,4.21,23.77,4.92,10.88,1,21.87.7,32.81.94a27.13,27.13,0,0,1,3-.16c12.25,1.63,24.14-.8,36-3.27C133.63,9.6,140.48,7.91,147.63,6.27Z"/><path class="cls-1" d="M184.5,233.68a5.78,5.78,0,0,1-1.34,4.44c-3.66,3.46-7.66,6.56-11.74,10l-4.53-12.69c-5.88-16.51-11.64-32.65-17.42-48.78-.07-.21-.57-.26-1.7-.73-.25,1.37-1,2.73-.62,3.74,3,9.29,5.94,18.66,9.54,27.75,2.5,6.33,5.1,12.62,7.39,19a141.66,141.66,0,0,1,4.6,15.2c.75,3.2,1.87,6.32,2.89,9.73-5.81,4-11.6,7.16-19,4.54a36.4,36.4,0,0,0-6.82-1.42c-3.87-.56-7.4.36-10,3.36-2.26,2.64-4.93,2.94-8.1,2.57a71.27,71.27,0,0,0-7.46-.16c-3.49-.05-6.26,1.52-9.19,3.32a48.64,48.64,0,0,1-10.89,4.66c-4,1.22-7.49-1.1-10.88-2.69-5.15-2.42-10.17-3.56-15.89-2.08-4.18,1.09-8.42,1-12.31-2-4.68-3.61-10-3.08-15.21-1.05-3.23,1.25-6.15,1.2-9-1.72,1.15-17.65,2.3-35.53,3.5-53.4.7-10.46,1.41-20.91,2.27-31.35a39.84,39.84,0,0,1,.59-4.17c.27-1.38.61-2.76,1-4.11,3.55-13.11,4.2-26.56,4.76-40a5.16,5.16,0,0,0-.67-1.8l-1.45-.36a24.21,24.21,0,0,0-1.39,4.57c-.88,8.77-1.41,17.59-2.49,26.33-.62,5-1.78,9.91-2.68,14.87-.26,1.39-.49,2.79-.69,4.19-.87,6.24-1.36,12.55-1.8,18.84-.81,11.61-1.42,23.24-2.19,34.86-.32,4.78-.83,9.55-1.29,14.75A24.75,24.75,0,0,1,31.25,250c-4-3.34-8.47-4.17-13.57-3.12-3.68.76-7.57,1.44-10.89-1.78,2.63-9,5.91-17.73,7.65-26.78,2.61-13.5,4.23-27.19,6.09-40.82,1.17-8.55,2-17.15,3-25.73a32.38,32.38,0,0,0,.43-6c-1.38-18.53,1.61-36.86,2.32-55.28.36-9.3.1-18.63.59-27.91.67-12.44,1.77-24.86,2.77-37.28a47.33,47.33,0,0,1,1.15-5.76C71,32.1,110.28,28.91,150,16.28c.36,2.24.72,4.61,1.14,7,1.86,10.61,4,21.19,5.53,31.85,1.61,10.83,2.88,21.72,4,32.62.92,9.25,1.06,18.59,2.1,27.83s2.89,18.65,4.26,28c.95,6.55,1.71,13.13,2.56,19.69a345.45,345.45,0,0,0,12.37,58.84A76.73,76.73,0,0,1,184.5,233.68Zm-85,35.52c3.5-1.74,3.48-1.74,3.13-6.13-1-12.57-2.28-25.13-3-37.72-.87-16.59-1.25-33.2-1.9-49.79a25.73,25.73,0,0,0-.88-4.2l-1.32,0c-.42.94-1.19,1.88-1.2,2.83C94,205.85,96.28,237.37,99.49,269.2Z"/><path d="M149.47,186.62c5.78,16.13,11.54,32.27,17.42,48.78l-2.81,1c-2.29-6.4-4.89-12.69-7.39-19-3.6-9.09-6.49-18.46-9.54-27.75-.34-1,.37-2.37.62-3.74C148.9,186.36,149.4,186.41,149.47,186.62Z"/><path d="M102.62,263.07c.35,4.39.37,4.39-3.13,6.13-3.21-31.83-5.52-63.35-5.12-95,0-.95.78-1.89,1.2-2.83l1.32,0a25.73,25.73,0,0,1,.88,4.2c.65,16.59,1,33.2,1.9,49.79C100.34,237.94,101.6,250.5,102.62,263.07Z"/><path d="M45.46,138.06a24.21,24.21,0,0,1,1.39-4.57l1.45.36a5.16,5.16,0,0,1,.67,1.8c-.56,13.46-1.21,26.91-4.76,40-.36,1.35-.7,2.73-1,4.11l-3-.52c.9-5,2.06-9.88,2.68-14.87C44.05,155.65,44.58,146.83,45.46,138.06Z"/><path d="M137.76,271.16c10-2.4,8.8-1.86,13.05.08,7.44,3.41,16.16-.5,21.24-5.2-.14-.05-.31-.18-.43-.14a5.17,5.17,0,0,0-1.37.55c-6.75,4.7-13.91,4.69-21.37,2a15.17,15.17,0,0,0-3.9-.78C142,267.47,139.48,268.3,137.76,271.16ZM20.92,249.68c-4.53.36-9.07.68-14.61,1.09,2.3.85,3.86,1.78,5.49,1.95a30.25,30.25,0,0,0,6.92-.19c5.61-.72,9.68,1.24,12.26,6.32a16.81,16.81,0,0,0,2.32,2.73C33.87,255.23,27.24,249.17,20.92,249.68ZM6.79,245.13c3.32,3.22,7.21,2.54,10.89,1.78,5.1-1,9.56-.22,13.57,3.12a24.75,24.75,0,0,0,3.07,1.87c.46-5.2,1-10,1.29-14.75.77-11.62,1.38-23.25,2.19-34.86.44-6.29.93-12.6,1.8-18.84.2-1.4.43-2.8.69-4.19l3,.52a39.84,39.84,0,0,0-.59,4.17c-.86,10.44-1.57,20.89-2.27,31.35-1.2,17.87-2.35,35.75-3.5,53.4,2.84,2.92,5.76,3,9,1.72,5.22-2,10.53-2.56,15.21,1.05,3.89,3,8.13,3,12.31,2,5.72-1.48,10.74-.34,15.89,2.08,3.39,1.59,6.91,3.91,10.88,2.69a48.64,48.64,0,0,0,10.89-4.66c2.93-1.8,5.7-3.37,9.19-3.32a71.27,71.27,0,0,1,7.46.16c3.17.37,5.84.07,8.1-2.57,2.59-3,6.12-3.92,10-3.36a36.4,36.4,0,0,1,6.82,1.42c7.36,2.62,13.15-.5,19-4.54-1-3.41-2.14-6.53-2.89-9.73a141.66,141.66,0,0,0-4.6-15.2l2.81-1,4.53,12.69c4.08-3.41,8.08-6.51,11.74-10a5.78,5.78,0,0,0,1.34-4.44,76.73,76.73,0,0,0-2.61-11.61,345.45,345.45,0,0,1-12.37-58.84c-.85-6.56-1.61-13.14-2.56-19.69-1.37-9.34-3.19-18.62-4.26-28S161.52,97,160.6,87.72c-1.08-10.9-2.35-21.79-4-32.62-1.57-10.66-3.67-21.24-5.53-31.85-.42-2.36-.78-4.73-1.14-7C110.28,28.91,71,32.1,30.77,19.61a47.33,47.33,0,0,0-1.15,5.76c-1,12.42-2.1,24.84-2.77,37.28-.49,9.28-.23,18.61-.59,27.91-.71,18.42-3.7,36.75-2.32,55.28a32.38,32.38,0,0,1-.43,6c-1,8.58-1.81,17.18-3,25.73-1.86,13.63-3.48,27.32-6.09,40.82C12.7,227.4,9.42,236.15,6.79,245.13Zm63-233.67c5.48.06,11-.44,16.45-.57,4.16-.1,8.33.12,12.49,0,4.78-.18,9.64-.17,14.32-1,9.45-1.79,18.81-4,28.17-6.28,2.52-.61,4.88-1.9,8.29-3.27,1.35,4.53,3,8.69,3.77,13C156,29,158.75,44.7,160.81,60.51c2,15.49,3.11,31.09,4.76,46.63,1,8.91,2.13,17.79,3.34,26.67,1.13,8.38,2.64,16.72,3.62,25.11a355.24,355.24,0,0,0,12.54,61.49C188,230.09,190,240,192.47,250c-2.87,4.17-5.27,8.69-11.65,8.64-3.15,0-4.9,3.25-4.21,6.63.42,2.1,1.1,4.14.55,5.32-2.19,2.72-4,5.94-6.64,8.06a17.89,17.89,0,0,1-17.5,2.84c-5.82-2-10.68-1.41-15.41,2.35-2.39,1.91-5.13,3.32-8.32,2.45-7.24-2-13.55.7-19.45,4.19a18.44,18.44,0,0,1-13.18,2.43c-5.87-.87-11.28-2-16.39-5.18-1.58-1-4.64-.52-6.67.23a17.67,17.67,0,0,1-16.25-1.43c-1.55-.93-3.79-.93-5.72-1-3.82-.07-7.69.58-11.45.15-6.79-.78-9.66-5.65-7.42-12.3a19.91,19.91,0,0,0-2.41-1.17,10.81,10.81,0,0,1-7.14-7.14c-.8-2.39-2.33-3.79-4.79-3.42C11.3,262.8,6,259.1.25,255c.72-2.63,1.47-5.47,2.29-8.29,3.28-11.33,7.16-22.53,9.71-34,2.22-10,3-20.36,4.3-30.58,1.28-10.39,2.36-20.82,3.51-31.23a29.23,29.23,0,0,0,.49-5.94c-1.47-15.35.78-30.54,1.8-45.79.37-5.47.11-11,.38-16.46.88-17.93,1.76-35.86,2.87-53.78C26,22.09,27,15.33,27.83,8.57c.5-4.05,1.63-4.64,5.68-3.51C45.39,8.36,57.35,11.32,69.76,11.46ZM49.67,278.86c-4.18.05-8.34.67-12.69,1.07,1.22,2.39,1.22,2.65,3.9,2.72,3.81.11,7.63-.35,11.44-.28,2.09,0,4.51.09,6.19,1.11,4.64,2.82,9.1,3.07,14.21,1.36l.59-.19c2.6-.76,6-1.16,7.94,0,5.47,3.35,11.2,4.54,17.38,5.27a12.57,12.57,0,0,0,8.88-1.84c6.29-3.95,13.06-6.65,20.72-5.48a11,11,0,0,0,8.81-2.45c4.87-3.76,10-4.13,15.94-2.35,8.84,2.64,16.27.41,19.56-7-.32,0-.72-.05-.95.11-6.89,4.78-14.05,7.08-22.29,3.26-4-1.84-7.71-1-11.05,2-2.91,2.62-6.3,4.67-10.41,3.49-6.16-1.76-11.41.14-16.54,3.3-8.82,5.45-17.8,6.21-26.68.26a10.74,10.74,0,0,0-10.46-1.08c-.51.21-1,.4-1.51.56-5.41,1.72-10.08.45-15-2.54C55.51,278.89,52.36,278.83,49.67,278.86ZM47.58,276c4.57-1.38,8.81-1.14,12.82,1.73a12.12,12.12,0,0,0,12.23,1.53c4-1.52,8.54-2.23,12.46.59,8.66,6.22,17.12,4.49,25.62-.28,5.33-3,10.8-5.16,17.12-3.29,3.43,1,6.08-.54,8.14-2.74-3.3,0-6.66.08-10,0-5-.15-9.71.06-14.06,3.61-2.8,2.28-6.8,3.18-10.37,4.42-5.27,1.82-9.72-1.07-14.16-3.11-4.25-2-8.4-2.86-13-1.66-5.36,1.39-10.33.92-15.21-2.36-2.24-1.5-5.62-1.7-8.49-1.72-2.23,0-4.44,1.5-6.71,1.71s-4.56-.37-7.3-.66C40.07,277.56,43.8,277.15,47.58,276ZM87.76,14.47c-10.94-.24-21.93,0-32.81-.94-7.8-.71-15.45-3.13-23.77-4.92-.15,2.44-.28,4.49-.4,6.41,30,14.25,94.27,9.42,118.22-3.68-.53-1.95-1.08-4-1.37-5.07-7.15,1.64-14,3.33-20.9,4.77-11.86,2.47-23.75,4.9-36,3.27A27.13,27.13,0,0,0,87.76,14.47Zm95.08,240.45c3.08-.66,5.12-4.2,4.69-9.43-1.84,5.4-5.75,6.54-9.65,7.93-1.61.57-2.83,2.19-4.23,3.34l1,1.13a22.34,22.34,0,0,1,3.75-2.21A35.14,35.14,0,0,1,182.84,254.92ZM173.29,251c6.11-.72,10.55-3.82,12.57-10.12ZM33.14,268.84c.22-.77.5-1.23.38-1.37-3-3.67-5.78-7.46-9-10.84-.92-.95-3.12-.92-4.72-.9-3.61.06-7.22.38-10.75.6,2.41,2.34,5.61,2.2,8.73,2,4.51-.24,7.69,1,9,5.89C27.46,267.11,29.54,269,33.14,268.84Z"/></svg>