<svg id="레이어_1" data-name="레이어 1" xmlns="http://www.w3.org/2000/svg" viewBox="0 0 249.36 371.94"><defs><style>.cls-1{fill:#2f2f2f;}</style></defs><title>long_padding</title><path class="cls-1" d="M142.89,4.15c.77,4.35,1.5,8.46,2.32,13l-7.75,2.65c-2.82-4.26,1.29-11.58-7.56-12.53Z"/><path class="cls-1" d="M132.18,11.83c.45,4.2.89,8.26,1.36,12.68-12.91,1.91-25.2-1-38-.79-.24-4.84-.47-9.36-.71-14.21Z"/><path class="cls-1" d="M208.85,342.51c.38,2.94.62,5.9,1,9.62-22.88,7.51-46.25,10.74-69.44,14.66-2.28-8.74-6.7-92.76-5.47-103.14,20.24-.8,40.65-1.31,60.61-7.12,1,2.52,1.88,4.47,2.46,6.52,2.42,8.63,5,17.23,7,26a106,106,0,0,1,2.26,33.25C206.69,329.23,208,335.79,208.85,342.51Z"/><path class="cls-1" d="M118.92,263.23c-.82,35.35-1.62,69.7-2.41,103.94-24.33,4.06-65.3-4.73-73.79-15.25,2.67-31.23,5.33-62.34,8-93.75C72.11,266.48,94.82,266.36,118.92,263.23Z"/><path class="cls-1" d="M116.74,194.89c2.79,21.44,1.47,42.67,1.76,64.53-23.23,3.45-45.74,3.55-67.45-5.1-1.23-6.24,5.06-58.56,8.37-70.21C77,194.31,96.22,195.38,116.74,194.89Z"/><path class="cls-1" d="M182.83,184.88c8.9,22,12.17,44.6,12,67.94-20.14,6.2-40.12,6.33-60.49,7.27-1.61-20.84-3.2-41.6-4.83-62.71C147.48,195.2,165.71,193.43,182.83,184.88Z"/><path class="cls-1" d="M183.1,126.24c5,11.14,5.52,22.84,3.89,34.68-.68,4.91-2.4,9.68-3.15,14.58s-3.66,7.12-7.84,8.65a131.87,131.87,0,0,1-26.92,7.1c-4.6.65-9.18,1.46-13.8,2a68,68,0,0,1-7.24,0c-.77-18.49-1.52-36.82-2.3-55.7,19-2.06,37.26-7.46,55.45-14.58A32.11,32.11,0,0,1,183.1,126.24Z"/><path class="cls-1" d="M117.33,138.51a309,309,0,0,1-2.16,52.36,10,10,0,0,1-2.52.59c-14.35-.08-28.56-.85-42.28-5.86-5.42-2-9.12-4.8-10.38-10.74-2.93-13.8-4.21-27.59-1.09-41.52a7.41,7.41,0,0,1,.86-1.71C78.66,136.62,97.86,137.61,117.33,138.51Z"/><path class="cls-1" d="M116.32,84.91c.53,16.25,1.05,32.38,1.58,48.84a23.13,23.13,0,0,1-4.34.83A265.2,265.2,0,0,1,66,129.5c-2.51-.52-4.83-2.07-7.18-3.27a3.47,3.47,0,0,1-1.69-1.71c-4.85-15.07-8.45-30.23-2.31-46.37C75.14,82.69,95.36,85.27,116.32,84.91Z"/><path class="cls-1" d="M180.85,83.75a90.82,90.82,0,0,1,1,29.75c-.55,4.32-2.44,6.65-6.29,7.88-8.38,2.69-16.71,5.58-25.18,8-5.91,1.66-12,2.71-18,3.88a72.13,72.13,0,0,1-7.24.67c-3.9-16.67-6.7-32.77-4.4-49.58,5.64-.59,11.06-1.35,16.49-1.68a98.38,98.38,0,0,0,31.89-7.51c1.07-.44,2.16-.86,3.26-1.24,2.37-.83,4.39-.26,5.48,2A34.76,34.76,0,0,1,180.85,83.75Z"/><path class="cls-1" d="M244.25,179a33.13,33.13,0,0,1,.5,3.49c-13.33,4.68-27.18,7.07-41.44,10.29l-13-26.66c1.36-.54,2.69-1.1,4-1.6,7-2.63,14.12-5,20.94-8,3.74-1.65,7-4.35,10.43-6.72,1.47-1,2.47-2.43-.19-4.18-9.87,8.23-21.73,12.6-34.77,16.28.15-2.36.2-4.12.39-5.87,1.11-9.95.31-19.75-4.11-28.78A20.58,20.58,0,0,1,186,111.16c9.54-5.83,19-11.61,28.47-17.47.56-.35.69-1.39.49-3.07a17.9,17.9,0,0,0-3.47,1.16c-8.13,4.77-16.21,9.61-24.81,14.73-.92-12.8-.15-25.34-8.42-36.1,5.46-9,12.15-16.11,24.16-16.87,8.78,14.78,16.64,29.62,21,46C230.55,126,237.34,152.49,244.25,179Z"/><path class="cls-1" d="M54.59,169.12c2.35,4.46,1.68,8.45-2,12-3.9,3.86-7.76,7.76-11.53,11.75a5.08,5.08,0,0,1-5.49,1.31c-9.94-2.72-20-5.21-29-10.48a5.47,5.47,0,0,1-3-5.21C3,154.23,6.76,130.6,13.1,107.12A300.5,300.5,0,0,1,27,67.18c.65-1.51,1.33-3,2.09-4.72C37,64,43.87,66.94,49.72,72.17c1.51,1.34,2.2,2.85,1.52,4.87-4.34,12.89-3.58,25.87-.74,38.9a14.29,14.29,0,0,1,0,2.44c-6.83-1-12.64-3.69-18.39-6.51-2.24-1.09-4.25-2.64-6.48-3.74a39.19,39.19,0,0,0-5.27-1.69c1.78,5.63,14.94,12,31.68,16.11,3.74,5.29,3.89,11,2.49,17.06a55.12,55.12,0,0,0-.25,21.83,25.8,25.8,0,0,1,0,3.61c-5.74-1.55-11.07-2.69-16.18-4.44-4.55-1.55-8.85-3.78-13.27-5.71-3-1.29-5.88-2.93-9.49-2.34C17.13,156.65,25.57,160.15,54.59,169.12Z"/><path class="cls-1" d="M129.18,29.16,116.83,39.93V81.4c-5.44,0-10.28.47-15-.08-14-1.66-28-3.68-42-5.66A5.61,5.61,0,0,1,56.37,74c-5.92-7.54-13.79-11.86-22.88-14.28a13.29,13.29,0,0,1-2.07-1C44,31.09,68.47,16.79,91.88,15.07c-.33,3.64-.65,7.16-1,11.5,5.8,1.64,12.32.56,18.61,1.33S122,28.73,129.18,29.16Z"/><path class="cls-1" d="M199.43,49.37c-.58.44-.93.91-1.35,1-9,1.56-15.33,7.09-20.2,14.3a18.09,18.09,0,0,1-8.31,6.57C155,77.77,139.37,79,123.8,80.41a29.15,29.15,0,0,1-3.47-.14V41.82l12.94-11c2.14-1.82,4.61-3.44,3.73-7l7.73-2.61c4.44-1.49,4.42-1.48,3.82-6.35-.09-.78,0-1.58,0-3.21,4.46,1.66,8.68,2.7,12.35,4.72,4.91,2.71,9.4,6.17,14,9.33,1.5,1,2.85,2.29,4.4,3.23A58.24,58.24,0,0,1,199.43,49.37Z"/><path d="M243.65,161.73c2,7.53,3.57,15.16,5.46,23.28-15.85,5.83-32.54,7.79-48.22,12.38l-11.56-26c-2.92,6.52-3.9,11.51-1.44,17.77,7.45,18.92,10.21,38.86,10.57,59.12a48.55,48.55,0,0,0,2,12.12c5.2,19.18,12.53,38.09,10.65,58.51-.82,8.92.33,17.53,1.81,26.23.7,4.07,1.06,8.25-.49,11.22-3.56.81-6.3,1.42-9,2-5,1.15-9.94,2.5-15,3.42-15.21,2.79-30.46,5.43-45.71,8.05a37.51,37.51,0,0,1-5.76,0c-.82-7-1.85-13.74-2.34-20.48-.91-12.61-1.6-25.23-2.21-37.86-.49-10.14-.65-20.29-1.09-30.43-.58-13.47-.94-27-2-40.39-1.53-18.73-3.9-37.38-5.39-56.11-.86-10.74-.67-21.56-1-32.35-.12-3.86-.41-7.73-.62-11.59h-1.18a51.49,51.49,0,0,0-.24,5.68c.84,13-.75,25.91-1.67,38.85a15.79,15.79,0,0,0,0,4.45c3.54,15.78,2.41,31.83,2.71,47.77.39,20.12.53,40.27.2,60.39-.3,18-1.4,35.92-2.12,53.88-.21,5.18-.31,10.38-.5,15.56l-3-.1c.79-34.24,1.59-68.59,2.41-103.94-24.1,3.13-46.81,3.25-68.19-5.06-2.68,31.41-5.34,62.52-8,93.75l-2.86.29a15.77,15.77,0,0,1-.7-7.68c3-24.93,5.62-50,6.93-75,1.08-20.81,3.7-41.42,5.45-62.14.64-7.57,2.51-15,4.05-23.84L39.75,198.87c-12-3-24.13-5.78-35-12.25-3.14-1.88-5.07-4.05-4.32-8a24.42,24.42,0,0,0,0-5c-.46-23,3.53-45.27,9.26-67.48A269.24,269.24,0,0,1,24.19,64.83C30.61,50.23,39,37.07,51.82,26.92,62.18,18.7,74,14.39,86.64,11.58l4.67-1.06V5.23c3.31.35,6.22.71,9.14.95,5.14.42,10.29.77,15.43,1.12a4.85,4.85,0,0,0,1.47-.16c7.55-2,15.1-4,22.63-6.08,5.44-1.49,5.62-1.4,6.84,4.32.21,1,.57,1.9.84,2.78,11.47,2.68,21.82,7.33,30.51,15.28a20.63,20.63,0,0,0,3,2.6c15.94,9.54,24.32,25.1,32.67,40.72,8.55,16,13.79,33.07,17.87,50.66C235.2,132.31,239.76,146.94,243.65,161.73Zm1.1,20.75a33.13,33.13,0,0,0-.5-3.49c-6.91-26.5-13.7-53-20.82-79.48-4.4-16.35-12.26-31.19-21-46-12,.76-18.7,7.82-24.16,16.87,8.27,10.76,7.5,23.3,8.42,36.1,8.6-5.12,16.68-10,24.81-14.73a17.9,17.9,0,0,1,3.47-1.16c.2,1.68.07,2.72-.49,3.07C205,99.55,195.51,105.33,186,111.16A20.58,20.58,0,0,0,187,127.28c4.42,9,5.22,18.83,4.11,28.78-.19,1.75-.24,3.51-.39,5.87,13-3.68,24.9-8.05,34.77-16.28,2.66,1.75,1.66,3.15.19,4.18-3.4,2.37-6.69,5.07-10.43,6.72-6.82,3-13.95,5.33-20.94,8-1.34.5-2.67,1.06-4,1.6l13,26.66C217.57,189.55,231.42,187.16,244.75,182.48Zm-34.9,169.65c-.38-3.72-.62-6.68-1-9.62-.85-6.72-2.16-13.28-1.54-20.25A106,106,0,0,0,205.05,289c-2-8.73-4.62-17.33-7-26-.58-2.05-1.5-4-2.46-6.52-20,5.81-40.37,6.32-60.61,7.12-1.23,10.38,3.19,94.4,5.47,103.14C163.6,362.87,187,359.64,209.85,352.13ZM198.08,50.35c.42-.07.77-.54,1.35-1A58.24,58.24,0,0,0,179.33,29c-1.55-.94-2.9-2.2-4.4-3.23-4.64-3.16-9.13-6.62-14-9.33-3.67-2-7.89-3.06-12.35-4.72,0,1.63-.08,2.43,0,3.21.6,4.87.62,4.86-3.82,6.35L137,23.84c.88,3.58-1.59,5.2-3.73,7l-12.94,11V80.27a29.15,29.15,0,0,0,3.47.14C139.37,79,155,77.77,169.57,71.22a18.09,18.09,0,0,0,8.31-6.57C182.75,57.44,189.07,51.91,198.08,50.35Zm-3.26,202.47c.18-23.34-3.09-45.9-12-67.94-17.12,8.55-35.35,10.32-53.33,12.5,1.63,21.11,3.22,41.87,4.83,62.71C154.7,259.15,174.68,259,194.82,252.82ZM187,160.92c1.63-11.84,1.13-23.54-3.89-34.68a32.11,32.11,0,0,0-1.91-3.22c-18.19,7.12-36.41,12.52-55.45,14.58.78,18.88,1.53,37.21,2.3,55.7a68,68,0,0,0,7.24,0c4.62-.55,9.2-1.36,13.8-2a131.87,131.87,0,0,0,26.92-7.1c4.18-1.53,7.1-3.84,7.84-8.65S186.31,165.83,187,160.92Zm-5.16-47.42a90.82,90.82,0,0,0-1-29.75,34.76,34.76,0,0,0-3-7.84c-1.09-2.28-3.11-2.85-5.48-2-1.1.38-2.19.8-3.26,1.24a98.38,98.38,0,0,1-31.89,7.51c-5.43.33-10.85,1.09-16.49,1.68-2.3,16.81.5,32.91,4.4,49.58a72.13,72.13,0,0,0,7.24-.67c6-1.17,12.12-2.22,18-3.88,8.47-2.39,16.8-5.28,25.18-8C179.39,120.15,181.28,117.82,181.83,113.5ZM145.21,17.17c-.82-4.56-1.55-8.67-2.32-13l-13,3.14c8.85,1,4.74,8.27,7.56,12.53Zm-11.67,7.34c-.47-4.42-.91-8.48-1.36-12.68L94.86,9.51c.24,4.85.47,9.37.71,14.21C108.34,23.56,120.63,26.42,133.54,24.51Zm-15,234.91c-.29-21.86,1-43.09-1.76-64.53-20.52.49-39.78-.58-57.32-10.78-3.31,11.65-9.6,64-8.37,70.21C72.76,263,95.27,262.87,118.5,259.42ZM116.83,39.93l12.35-10.77c-7.14-.43-13.48-.5-19.73-1.26s-12.81.31-18.61-1.33c.39-4.34.71-7.86,1-11.5C68.47,16.79,44,31.09,31.42,58.75a13.29,13.29,0,0,0,2.07,1c9.09,2.42,17,6.74,22.88,14.28a5.61,5.61,0,0,0,3.44,1.63c14,2,28,4,42,5.66,4.72.55,9.56.08,15,.08Zm-1.66,150.94a309,309,0,0,0,2.16-52.36c-19.47-.9-38.67-1.89-57.57-6.88a7.41,7.41,0,0,0-.86,1.71c-3.12,13.93-1.84,27.72,1.09,41.52,1.26,5.94,5,8.76,10.38,10.74,13.72,5,27.93,5.78,42.28,5.86A10,10,0,0,0,115.17,190.87Zm2.73-57.12c-.53-16.46-1.05-32.59-1.58-48.84-21,.36-41.18-2.22-61.47-6.76-6.14,16.14-2.54,31.3,2.31,46.37a3.47,3.47,0,0,0,1.69,1.71c2.35,1.2,4.67,2.75,7.18,3.27a265.2,265.2,0,0,0,47.53,5.08A23.13,23.13,0,0,0,117.9,133.75ZM52.62,181.17c3.65-3.6,4.32-7.59,2-12-29-9-37.46-12.47-39.21-16.56,3.61-.59,6.51,1.05,9.49,2.34,4.42,1.93,8.72,4.16,13.27,5.71,5.11,1.75,10.44,2.89,16.18,4.44a25.8,25.8,0,0,0,0-3.61,55.12,55.12,0,0,1,.25-21.83c1.4-6.08,1.25-11.77-2.49-17.06-16.74-4.1-29.9-10.48-31.68-16.11a39.19,39.19,0,0,1,5.27,1.69c2.23,1.1,4.24,2.65,6.48,3.74,5.75,2.82,11.56,5.53,18.39,6.51a14.29,14.29,0,0,0,0-2.44c-2.84-13-3.6-26,.74-38.9.68-2,0-3.53-1.52-4.87C43.87,66.94,37,64,29.12,62.46c-.76,1.72-1.44,3.21-2.09,4.72A300.5,300.5,0,0,0,13.1,107.12C6.76,130.6,3,154.23,3.61,178.54a5.47,5.47,0,0,0,3,5.21c9,5.27,19.06,7.76,29,10.48a5.08,5.08,0,0,0,5.49-1.31C44.86,188.93,48.72,185,52.62,181.17Z"/><path d="M119.49,367.27l0,.89a26,26,0,0,1-.62,3.3c-12.24-.62-24.36,1.47-36.4-1.07-10.9-2.3-21.89-4.33-32.1-9.1-1.06-.49-2.14-1-3.14-1.53-3.54-2.06-6.09-4.32-7.34-7.55l2.86-.29c8.49,10.52,49.46,19.31,73.79,15.25Z"/></svg>