<svg id="레이어_1" data-name="레이어 1" xmlns="http://www.w3.org/2000/svg" viewBox="0 0 247.56 684.53"><defs><style>.cls-1{fill:#feefea;}.cls-2{fill:#706464;}.cls-3{fill:#ff8c8a;}</style></defs><title>man</title><path class="cls-1" d="M59.33,166.27c-1.16,1-1.48,1.43-1.91,1.58-6.92,2.29-18.76-1.41-23.09-7.17-5.5-7.32-6-16.35-.87-23.73,3.92-5.63,10.23-7.86,15.84-11,.49,7.66.89,14.57,1.39,21.48C51.22,154.6,55.43,160.31,59.33,166.27Z"/><path class="cls-1" d="M239,386a66.54,66.54,0,0,1,3.75,24.46,12.26,12.26,0,0,1-1.58,5.64c-2.72,4.66-10.76,5.5-13.34-.6-2.92-6.9-6.66-13.44-9.7-20.29-1.39-3.15-1.92-6.67-2.93-10-.82-2.68-1.68-5.36-2.67-8-2.35-6.22-4.89-12.36-7.16-18.61-7.16-19.71-12.28-40.18-21.54-59.1-2.54-5.21-5.94-10-9.22-14.82a7.25,7.25,0,0,0-4.06-2.5c-2.51-.62-3.73.63-3.64,3.28a27.06,27.06,0,0,0,.53,2.94c1.5,11.05,3.34,22.05,4.39,33.14,2,20.72,3.46,41.48,5.17,62.23a21.48,21.48,0,0,0,.53,2.95c4.27,18.71,6.21,37.74,8.19,56.81,2,19.56,3.25,39.15,4,58.78q1.94,47.94,3.82,95.87c.54,14.14.84,28.29,1.23,42.44,0,1.28-.15,2.56-.28,4.47-14.78-5.76-28.48-1.59-42.66,3.11-.33-2.64-.82-5.06-.91-7.49-.47-13.15-.44-26.33-1.32-39.45-1.78-26.25-3.94-52.48-6.15-78.71-.52-6.29-1.9-12.51-2.78-18.77-2.7-19.13-5.28-38.28-8.06-57.4a110.12,110.12,0,0,0-2.91-12.64,22,22,0,0,0-2.19-4.18c-3.66.54-4.43,2.93-4.7,5.46-.64,6.12-1.27,12.26-1.62,18.4-.8,14.14-1.57,28.28-2.1,42.43a350.53,350.53,0,0,0,1.34,48.92c.51,4.95.29,10,.38,15,.12,6.32.21,12.64.33,19,0,1.83.16,3.66.17,5.49,0,5.31-.15,10.63,0,15.93.4,15.15.93,30.29,1.37,45.44a10.58,10.58,0,0,1-.43,2.37c-15.94-1.64-31.7-3.33-46.82,5.21-.22-1.5-.48-2.72-.57-3.94-1-14.62-2.1-29.23-2.8-43.86-.57-12-.65-24-.87-36-.41-22.32-.82-44.64-1.09-66.95-.06-5.66.56-11.31.64-17,.33-21.65.43-43.31.89-64.95.53-24.81,1.3-49.61,2.09-74.41.16-5.15,1-10.27,1.21-15.42.4-11.63.46-23.28.92-34.91.1-2.57,1.43-5.08,1.87-7.67.21-1.27-.31-2.67-.5-4-1.35.33-3.19.23-3.94,1.09A34.81,34.81,0,0,0,67.89,293c-3.51,7.34-7.08,14.71-9.87,22.34q-7.32,19.94-13.66,40.21c-4.22,13.49-8.64,27-11.5,40.8-1.64,7.89-4.41,14.54-9.75,20.25a19.08,19.08,0,0,1-5.48,4.2,8.74,8.74,0,0,1-12.45-6,20.9,20.9,0,0,1-.32-8.89c1.46-6.28,2.63-12.73,6.55-18.18a8.52,8.52,0,0,0,1.23-3.21c2.44-11.92,4.76-23.86,7.25-35.76,1.09-5.21,2.26-10.43,3.8-15.52,5.51-18.18,11.2-36.3,16.82-54.44,8.13-26.26,25.63-44.27,49.71-56.5,3.56-1.81,7-3.84,10.65-5.52a62.66,62.66,0,0,1,9.68-3.7c2.4-.66,3.55-1.82,3.23-4.17-.71-5.27-1.31-10.59-2.47-15.77-.7-3.14-3.28-4.78-6.6-5.26-7.47-1.1-14.71-3.12-21.23-7-5.27-3.15-11.14-6-15.19-10.36-6.83-7.42-12.5-15.73-13.66-26.55-1.22-11.32,2.24-21.7,4.42-32.42,1.3-6.37,3-11.8,10.86-12.38,1.68-.12,3.26-1.54,4-1.93,5.5,1.89,10.18,4,15.1,5,5.37,1.09,10-1.86,14.54-4.88,1.12.69,2.29,1.28,3.32,2.06,6.89,5.26,14,4.94,20.88.31,5.39-3.63,10.39-4.16,16.32-1.14,6.27,3.19,12.59,3.12,17.47-3.1,2.42,1.5,4.38,3.14,6.63,4s4.85,1,7.29,1.42c2.21,3.5,4.43,7,6.61,10.51,2.09,3.35,4.14,6.72,6.42,10.43a36,36,0,0,0-4.85,3.41c-.66.64-.65,2-.95,3a26.39,26.39,0,0,0,3.12.69c.41,0,.9-.4,1.31-.69,7.7-5.5,13.19-.84,16.65,6.1a25.46,25.46,0,0,1,2.36,8.64c.76,7.57-1,14.17-8,18.59-7.15,4.53-14.47,7.64-23,4.28-2.22-.88-3.94-.06-5.24,1.72-7,9.63-17.82,13.66-27.9,18.72a20.17,20.17,0,0,1-4.82,1.22c-3.68.79-4.51,1.65-4.06,5.47.56,4.79,1.49,9.55,2.21,14.32.34,2.2,1.58,3.32,3.61,4.29,9,4.31,18.18,8.4,26.76,13.46a102.1,102.1,0,0,1,44.54,55.72c5.1,16,10.84,31.85,15.6,48,3.57,12.12,6.11,24.55,8.92,36.88C236.29,372.39,236.68,379.55,239,386ZM146.38,115.37c.45,0,.85-.87,2-2.09-2-.83-3.42-1.85-4.93-2-5-.44-10.11-.69-15.77,2.56,1.74,1.26,2.36,2.11,3,2.1C135.86,115.86,141.12,115.65,146.38,115.37Zm-6,30.2c3.46-.06,5.59-2.69,5.56-6.86s-2.56-6.73-6.4-6.7c-3.52,0-5.93,2.65-6,6.54A6.88,6.88,0,0,0,140.35,145.57Zm-14.66,20.27c1.12-1.73,2.75-4-.18-6.76l-5.37,6.48-6.44-6.37c-2.74,3.17-1,5,.31,6.48a61.33,61.33,0,0,0,6.18,5.39.5.5,0,0,0,.47-.06C122.38,169.31,124.41,167.82,125.69,165.84Zm-23-26.38c0-3.9-2.4-6.65-5.87-6.68-4.61,0-9.13,4.16-9,8.33.12,3.39,3.29,6,7.34,6A7.39,7.39,0,0,0,102.71,139.46Zm-1.19-23.94c-2.46-5.2-6.36-4-9.37-3.49-3.72.66-8.6-.19-10.52,4.36l.45,1.49Z"/><path d="M246.36,396.9a64,64,0,0,1,.83,15.41c-.41,7.8-7.13,12.89-14.87,12-3.21-.38-5.86-1.69-7.24-4.64-5.07-10.86-11-21.46-14.79-32.75-8.38-24.73-16.94-49.4-25.45-74.08a120.47,120.47,0,0,0-6.35-14.12,43.91,43.91,0,0,0-3.86-5.53l-1.09.44c.51,4.72,1.15,9.44,1.5,14.18,1.27,17.11,2.22,34.24,3.73,51.33a365.42,365.42,0,0,0,5.47,38.56c2.66,13.53,3.75,27.37,5.37,41.09,1.1,9.42,2.32,18.86,2.79,28.33,1,20.63,1.47,41.29,2.35,61.93.67,15.64,1.69,31.27,2.48,46.91.3,5.82.43,11.65.58,17.48q.62,24,1.15,48a10.57,10.57,0,0,0,3.31,7.91c8.45,8.48,5.06,22.21-5.68,27.32-12.46,5.92-24.43,3.37-36.39-.57-5.81-1.92-8.38-7.34-10.11-12.91A98.25,98.25,0,0,1,146.2,635,740.91,740.91,0,0,0,141,552.2c-.51-4.12-.67-8.3-.8-12.46-.5-16.56-3.56-32.77-6.11-49.07-2.12-13.49-3.62-27.08-5.42-40.62a15.57,15.57,0,0,0-2.1-6.44c-.23,1.65-.6,3.29-.67,4.94-.91,22.13-2.09,44.26-2.52,66.4-.2,10.3,1.14,20.62,1.64,30.93.24,5,.13,10,.2,15q.12,8,.26,16c0,2.66.17,5.32.25,8,.23,7.63.5,15.26.67,22.9.16,6.49.21,13,.3,19.48.15,10.32.53,20.65.38,31s-6.1,17.64-15.92,20.52a63.45,63.45,0,0,1-6.84,1.45q-10.08,1.78-20.18,3.47c-4.8.79-9.56,1.4-14.14-1.16-4-2.26-6.57-5.53-5.84-10.12a46.42,46.42,0,0,1,3.69-12.79c1.8-3.74,3-7.33,2.71-11.44-.91-13.29-2-26.57-2.63-39.87-.62-12.64-.87-25.29-1.13-38q-.66-33.46-1.1-66.93c-.07-6.83.5-13.66.62-20.48.4-23.15.63-46.3,1.13-69.45q.65-29.72,1.74-59.43c.38-10.31,1.37-20.59,1.75-30.9.29-7.94.06-15.9.06-23.86l-1.2-.41c-1.69,3.37-3.85,6.59-5,10.13C57,332.82,49.2,356.74,41.7,380.75c-2.3,7.37-3.44,15.1-5.5,22.56a36,36,0,0,1-14.1,20.07C12.81,429.93,2,425,.48,413.78a36.34,36.34,0,0,1,.8-12.32,73.23,73.23,0,0,1,4.88-15.2,78.57,78.57,0,0,0,6.15-22C15.58,341.81,23,320.57,29.69,299.1c3.11-10,6-20.14,9.7-29.94,6.77-17.86,18.7-31.92,34.58-42.24,9.87-6.41,20.59-11.56,31-17.1,3.89-2.06,4.39-2.52,3.67-6.91-1.61-9.91-1.62-9.89-11.45-12.08C85.38,188.2,75.39,182,66,174.65c-1.18-.92-2.31-1.9-2.84-2.34-5.8,0-10.95.48-16-.08C28,170.07,20.47,150,28.89,135.9c1.53-2.55,1.28-4.73.74-7.5-1.45-7.49-2.33-15.1-3.32-22.67-.35-2.64-.18-5.34-.53-8-1.9-14.43,2.53-27.38,9.47-39.63,3.85-6.8,8.37-13.22,12.53-19.85,1.76-2.82,3-6.11,5.15-8.51a100.11,100.11,0,0,1,12-11.19C78.67,7.73,94.64,2.25,111.83.36a19.47,19.47,0,0,1,11.06,2c4.8,2.71,9.79,3.33,14.85,3.27,11.33-.15,21.55,3.64,31.73,7.87.92.38,1.78.92,2.7,1.29A46,46,0,0,1,194,33.08a34,34,0,0,0,4.65,5.86C209.33,49.18,212,62.34,212.79,76.3c.35,6.29.55,12.68,1.82,18.81a54.17,54.17,0,0,1-4.45,35.51,10.41,10.41,0,0,0-.64,7.2,37.4,37.4,0,0,1,1.08,10.34c-.48,6.74-3.17,12.37-9,16.45-8.5,5.89-17.46,8.85-26.79,6.15-6.22,4.6-11.54,9.17-17.46,12.74S144.81,189.67,138,193a26,26,0,0,0,2.08,12.6c.57,1.44,2.6,2.5,4.17,3.32,8,4.17,16.12,8,24,12.36a69.59,69.59,0,0,1,12.32,8.47c13.78,12.15,25.14,26.08,31.7,43.6A663.55,663.55,0,0,1,237,354C240.35,368.23,243.53,382.53,246.36,396.9Zm-3.62,13.6A66.54,66.54,0,0,0,239,386c-2.31-6.49-2.7-13.65-4.25-20.45-2.81-12.33-5.35-24.76-8.92-36.88-4.76-16.13-10.5-32-15.6-48A102.1,102.1,0,0,0,165.68,225c-8.58-5.06-17.75-9.15-26.76-13.46-2-1-3.27-2.09-3.61-4.29-.72-4.77-1.65-9.53-2.21-14.32-.45-3.82.38-4.68,4.06-5.47a20.17,20.17,0,0,0,4.82-1.22c10.08-5.06,20.87-9.09,27.9-18.72,1.3-1.78,3-2.6,5.24-1.72,8.57,3.36,15.89.25,23-4.28,7-4.42,8.76-11,8-18.59a25.46,25.46,0,0,0-2.36-8.64c-3.46-6.94-9-11.6-16.65-6.1-.41.29-.9.73-1.31.69a26.39,26.39,0,0,1-3.12-.69c.3-1,.29-2.35.95-3a36,36,0,0,1,4.85-3.41c-2.28-3.71-4.33-7.08-6.42-10.43-2.18-3.51-4.4-7-6.61-10.51-2.44-.44-5-.55-7.29-1.42s-4.21-2.5-6.63-4c-4.88,6.22-11.2,6.29-17.47,3.1-5.93-3-10.93-2.49-16.32,1.14-6.86,4.63-14,4.95-20.88-.31-1-.78-2.2-1.37-3.32-2.06-4.57,3-9.17,6-14.54,4.88-4.92-1-9.6-3.15-15.1-5-.77.39-2.35,1.81-4,1.93-7.86.58-9.56,6-10.86,12.38-2.18,10.72-5.64,21.1-4.42,32.42,1.16,10.82,6.83,19.13,13.66,26.55,4,4.4,9.92,7.21,15.19,10.36,6.52,3.89,13.76,5.91,21.23,7,3.32.48,5.9,2.12,6.6,5.26,1.16,5.18,1.76,10.5,2.47,15.77.32,2.35-.83,3.51-3.23,4.17a62.66,62.66,0,0,0-9.68,3.7c-3.63,1.68-7.09,3.71-10.65,5.52-24.08,12.23-41.58,30.24-49.71,56.5C34.89,296.86,29.2,315,23.69,333.16c-1.54,5.09-2.71,10.31-3.8,15.52-2.49,11.9-4.81,23.84-7.25,35.76a8.52,8.52,0,0,1-1.23,3.21c-3.92,5.45-5.09,11.9-6.55,18.18a20.9,20.9,0,0,0,.32,8.89,8.74,8.74,0,0,0,12.45,6,19.08,19.08,0,0,0,5.48-4.2c5.34-5.71,8.11-12.36,9.75-20.25,2.86-13.8,7.28-27.31,11.5-40.8S53.14,328.6,58,315.31c2.79-7.63,6.36-15,9.87-22.34a34.81,34.81,0,0,1,5.41-7.75c.75-.86,2.59-.76,3.94-1.09.19,1.34.71,2.74.5,4-.44,2.59-1.77,5.1-1.87,7.67-.46,11.63-.52,23.28-.92,34.91-.17,5.15-1,10.27-1.21,15.42-.79,24.8-1.56,49.6-2.09,74.41-.46,21.64-.56,43.3-.89,64.95-.08,5.66-.7,11.31-.64,17,.27,22.31.68,44.63,1.09,66.95.22,12,.3,24,.87,36,.7,14.63,1.83,29.24,2.8,43.86.09,1.22.35,2.44.57,3.94,15.12-8.54,30.88-6.85,46.82-5.21a10.58,10.58,0,0,0,.43-2.37c-.44-15.15-1-30.29-1.37-45.44-.14-5.3,0-10.62,0-15.93,0-1.83-.14-3.66-.17-5.49-.12-6.32-.21-12.64-.33-19-.09-5,.13-10-.38-15a350.53,350.53,0,0,1-1.34-48.92c.53-14.15,1.3-28.29,2.1-42.43.35-6.14,1-12.28,1.62-18.4.27-2.53,1-4.92,4.7-5.46a22,22,0,0,1,2.19,4.18,110.12,110.12,0,0,1,2.91,12.64c2.78,19.12,5.36,38.27,8.06,57.4.88,6.26,2.26,12.48,2.78,18.77,2.21,26.23,4.37,52.46,6.15,78.71.88,13.12.85,26.3,1.32,39.45.09,2.43.58,4.85.91,7.49,14.18-4.7,27.88-8.87,42.66-3.11.13-1.91.31-3.19.28-4.47-.39-14.15-.69-28.3-1.23-42.44q-1.81-47.94-3.82-95.87c-.79-19.63-2-39.22-4-58.78-2-19.07-3.92-38.1-8.19-56.81a21.48,21.48,0,0,1-.53-2.95c-1.71-20.75-3.21-41.51-5.17-62.23-1-11.09-2.89-22.09-4.39-33.14a27.06,27.06,0,0,1-.53-2.94c-.09-2.65,1.13-3.9,3.64-3.28a7.25,7.25,0,0,1,4.06,2.5c3.28,4.81,6.68,9.61,9.22,14.82,9.26,18.92,14.38,39.39,21.54,59.1,2.27,6.25,4.81,12.39,7.16,18.61,1,2.63,1.85,5.31,2.67,8,1,3.33,1.54,6.85,2.93,10,3,6.85,6.78,13.39,9.7,20.29,2.58,6.1,10.62,5.26,13.34.6A12.26,12.26,0,0,0,242.74,410.5ZM208,124.27a43,43,0,0,0,2.58-25.46A104.31,104.31,0,0,1,208.11,75a39.54,39.54,0,0,0-1.61-12.34c-1.59-5.19-3.42-10.56-6.41-15-4.65-6.87-10.27-13.09-15.68-19.41A26.28,26.28,0,0,0,178,22.87a78.45,78.45,0,0,0-12.46-6.33C156.67,13.23,147.84,9.74,138,10c-3.53.09-7.2-.94-10.64-2-6.52-2-12.83-4.28-20-2.77-12.83,2.71-25.22,6.32-36,14C64.2,24.33,56.8,29.27,53.29,38A25,25,0,0,1,51,41.27c-4.57,7.35-9.67,14.44-13.49,22.16-3.28,6.64-6.88,13.94-7.17,21.08-.52,12.89,1.25,25.88,2.25,38.82.14,1.78,1.36,3.48,2,4.93,6.1-2.52,11.58-4.77,17.72-7.29,1.34-5.5,2.85-11.74,4.3-17.74-2.7-1.49-5-2.47-6.91-4-.74-.58-.58-2.3-.83-3.51a16.82,16.82,0,0,1,3.55,0c1.71.38,3.39,1.68,5,1.57,5-.33,9.89-1.2,14.2-4.16,3.84-2.65,4.32-2.51,7.76.48,6.28,5.46,13.41,5.75,20.06.83,4.41-3.27,4.69-3.26,8.91.27,5.79,4.85,10.73,5.59,16.84,1.22,6.74-4.81,13.18-5.44,20.48-1.53,4.38,2.35,8.74,2.6,12.51-2,2.76-3.36,4.59-3.3,7.46-.28s5.76,4.34,9.79,3.49c2.23-.47,3.68.59,4.82,2.63,3.62,6.52,7.39,13,11.22,19.36a9.62,9.62,0,0,0,3.15,3.1c3.63,2.24,7.38,4.26,11.74,6.75C206.86,126.55,207.53,125.45,208,124.27Zm-5.69,537.9c.06-4.85-.89-9.3-5.77-11.8-14.7-7.53-28.95-4.62-43.06,1.77-.27.12-.44.48-1.22,1.36.92,3.44,1.35,7.21,2.95,10.39,1.49,3,3.71,6.7,6.49,7.72,11.19,4.14,22.66,6.47,34.19.35C200.06,669.76,202.28,666.72,202.33,662.17Zm-95.87,13.07c9.55-1.56,18.15-8.46,15.85-22.63a51.28,51.28,0,0,0-6.54-1.75,82.3,82.3,0,0,0-28.27,1c-6.87,1.47-13.24,4.84-16.72,11.47-2.17,4.13-3.89,9-.81,13.22s7.92,3.54,12.43,2.8C90.43,678,98.43,676.55,106.46,675.24Zm-49-507.39c.43-.15.75-.61,1.91-1.58-3.9-6-8.11-11.67-8.64-18.89-.5-6.91-.9-13.82-1.39-21.48-5.61,3.19-11.92,5.42-15.84,11-5.12,7.38-4.63,16.41.87,23.73C38.66,166.44,50.5,170.14,57.42,167.85Z"/><path class="cls-2" d="M210.6,98.81A43,43,0,0,1,208,124.27c-.49,1.18-1.16,2.28-1.66,3.25-4.36-2.49-8.11-4.51-11.74-6.75a9.62,9.62,0,0,1-3.15-3.1c-3.83-6.4-7.6-12.84-11.22-19.36-1.14-2-2.59-3.1-4.82-2.63-4,.85-7-.59-9.79-3.49s-4.7-3.08-7.46.28c-3.77,4.6-8.13,4.35-12.51,2-7.3-3.91-13.74-3.28-20.48,1.53-6.11,4.37-11,3.63-16.84-1.22-4.22-3.53-4.5-3.54-8.91-.27-6.65,4.92-13.78,4.63-20.06-.83-3.44-3-3.92-3.13-7.76-.48-4.31,3-9.21,3.83-14.2,4.16-1.62.11-3.3-1.19-5-1.57a16.82,16.82,0,0,0-3.55,0c.25,1.21.09,2.93.83,3.51,1.91,1.49,4.21,2.47,6.91,4-1.45,6-3,12.24-4.3,17.74-6.14,2.52-11.62,4.77-17.72,7.29-.6-1.45-1.82-3.15-2-4.93-1-12.94-2.77-25.93-2.25-38.82.29-7.14,3.89-14.44,7.17-21.08C41.36,55.71,46.46,48.62,51,41.27A25,25,0,0,0,53.29,38c3.51-8.71,10.91-13.65,18.1-18.77,10.83-7.71,23.22-11.32,36.05-14,7.12-1.51,13.43.74,20,2.77C130.83,9,134.5,10.06,138,10c9.81-.23,18.64,3.26,27.49,6.57A78.45,78.45,0,0,1,178,22.87a26.28,26.28,0,0,1,6.43,5.41c5.41,6.32,11,12.54,15.68,19.41,3,4.44,4.82,9.81,6.41,15A39.54,39.54,0,0,1,208.11,75,104.31,104.31,0,0,0,210.6,98.81Z"/><path class="cls-2" d="M196.56,650.37c4.88,2.5,5.83,7,5.77,11.8-.05,4.55-2.27,7.59-6.42,9.79-11.53,6.12-23,3.79-34.19-.35-2.78-1-5-4.74-6.49-7.72-1.6-3.18-2-6.95-2.95-10.39.78-.88.95-1.24,1.22-1.36C167.61,645.75,181.86,642.84,196.56,650.37Zm-3.9,15.87c-.52-.77-.73-1.29-.88-1.29-9.61,1.09-19.21,2.43-28.77-.37-.14,0-.43.44-1.38,1.44,5.51,4.29,11.8,3.55,17.68,3.55C183.84,669.57,188.75,669.58,192.66,666.24Z"/><path d="M191.78,665c.15,0,.36.52.88,1.29-3.91,3.34-8.82,3.33-13.35,3.33-5.88,0-12.17.74-17.68-3.55,1-1,1.24-1.48,1.38-1.44C172.57,667.38,182.17,666,191.78,665Z"/><path d="M148.33,113.28c-1.1,1.22-1.5,2.06-2,2.09-5.26.28-10.52.49-15.78.59-.61,0-1.23-.84-3-2.1,5.66-3.25,10.74-3,15.77-2.56C144.91,111.43,146.35,112.45,148.33,113.28Z"/><path d="M145.91,138.71c0,4.17-2.1,6.8-5.56,6.86a6.88,6.88,0,0,1-6.85-7c.08-3.89,2.49-6.51,6-6.54C143.35,132,145.87,134.62,145.91,138.71Z"/><path d="M125.51,159.08c2.93,2.8,1.3,5,.18,6.76-1.28,2-3.31,3.47-5,5.16a.5.5,0,0,1-.47.06,61.33,61.33,0,0,1-6.18-5.39c-1.32-1.46-3.05-3.31-.31-6.48l6.44,6.37Z"/><path class="cls-2" d="M122.31,652.61c2.3,14.17-6.3,21.07-15.85,22.63-8,1.31-16,2.77-24.06,4.1-4.51.74-9.4,1.39-12.43-2.8s-1.36-9.09.81-13.22c3.48-6.63,9.85-10,16.72-11.47a82.3,82.3,0,0,1,28.27-1A51.28,51.28,0,0,1,122.31,652.61Zm-11.18,12.81c-.22-.4-.43-.81-.64-1.21a35.48,35.48,0,0,0-3.6.55c-4.32,1.11-8.57,2.59-13,3.37-4.9.88-9.91,1.1-14.86,1.71a18.22,18.22,0,0,0-3.37,1l0,1.42c1.59.28,3.2.88,4.76.76a144.1,144.1,0,0,0,14.39-1.53,102.15,102.15,0,0,0,13-3.31C109.11,667.84,110,666.39,111.13,665.42Z"/><path d="M110.49,664.21c.21.4.42.81.64,1.21-1.09,1-2,2.42-3.28,2.81a102.15,102.15,0,0,1-13,3.31,144.1,144.1,0,0,1-14.39,1.53c-1.56.12-3.17-.48-4.76-.76l0-1.42a18.22,18.22,0,0,1,3.37-1c5-.61,10-.83,14.86-1.71,4.38-.78,8.63-2.26,13-3.37A35.48,35.48,0,0,1,110.49,664.21Z"/><path d="M96.84,132.78c3.47,0,5.9,2.78,5.87,6.68a7.39,7.39,0,0,1-7.52,7.63c-4,0-7.22-2.59-7.34-6C87.71,136.94,92.23,132.75,96.84,132.78Z"/><path d="M92.15,112c3-.54,6.91-1.71,9.37,3.49l-19.44,2.36-.45-1.49C83.55,111.84,88.43,112.69,92.15,112Z"/><polygon class="cls-3" points="59.33 158.42 64.61 155.52 72.01 152.71 79.67 151.69 86.05 152.71 90.39 155.06 93.46 158.42 95.53 162.16 97.29 165.95 98.56 171.12 98.56 175.18 97.54 180.29 95.53 184.12 93.36 185.38 90.37 184.32 87.16 182.92 84.18 181.48 81.04 179.84 78.12 178.17 75.39 176.43 71.61 173.61 68.55 170.85 64.67 166.63 61.82 162.74 59.33 158.42"/><polygon class="cls-3" points="171.83 166.7 173.83 159.38 174.52 151.99 173.18 145.46 170.17 140.99 165.82 138.41 161.65 138.41 157.24 139.42 154.24 141.16 152.41 143.26 150.36 146.13 149.51 149.22 149.12 153.15 149.12 157.34 149.9 161.92 151.38 166.39 153.82 170.13 156.34 172.64 158.95 175.11 160.86 176.42 171.83 166.7"/></svg>