<svg id="레이어_1" data-name="레이어 1" xmlns="http://www.w3.org/2000/svg" viewBox="0 0 178.58 133.38"><defs><style>.cls-1{fill:#f93;}</style></defs><title>대지 1</title><path class="cls-1" d="M135.59,4.3c.39,2.57.71,4.6,1,6.66C102.56,27,68,25.69,32.55,17V8.67C67.17,13.93,101.41,16.1,135.59,4.3Z"/><path class="cls-1" d="M174,100.26l-8.64,2.88c-7.93-8.63-13.31-18.62-17.14-29.17-3.71-10.23-5.77-21.06-9.38-31.44-2,8,1.92,15.12,3.26,22.59,1.4,7.8,4.62,14.91,8.45,21.71s8.28,13.58,12.38,20.26l-43.51,12.27c-2-4.32-4.11-8.07-5.51-12.08Q107.47,88.73,101.47,70c-2.27-7.08-4-14.32-6.08-21.48-.44-1.52-1-3-1.54-4.51l-1.39,0c-.21,1.34-.89,2.8-.57,4,2.17,8.16,4.35,16.32,6.91,24.36,3.71,11.7,7.66,23.32,11.67,34.92,1.72,5,3.84,9.81,6,15.32-14.64,7.52-30.07,8.7-46.71,5.19.25-5.41.38-10.68.75-15.93C71,104.53,71.6,97.24,72.36,90c1.48-14.18,3.13-28.33,4.63-42.5a13.35,13.35,0,0,0-.65-3.62l-2,.19C69,70.49,68,97.47,65.94,124.09l-18.35-2.26-25.1-3.09C26.45,105.65,30.83,93,34,80.07c3.53-14.25,4.43-35.85,2.07-40a53,53,0,0,0-1.49,6.12C33.52,56,32.85,65.73,31.45,75.4c-1.89,13-6.95,25.13-11.52,37.88-5.39-1.51-10.4-2.92-16.12-4.51,1.9-5.3,3.82-9.85,5.15-14.57,2.43-8.6,4.45-17.32,6.75-26,1.44-5.44,3.18-10.8,4.62-16.24,1.77-6.73,3.4-13.49,5-20.26,1.06-4.41,2.62-8.52,6.36-12,16.84,5.5,34.4,6.68,52,6.9,17.87.24,34.74-4.77,51.15-11.17,6.5,6,12.11,12.17,14.79,20.22a31.41,31.41,0,0,1,1.18,4.68c2.21,12.7,7.17,24.46,12.56,36.08C167,84.14,170.3,91.9,174,100.26Z"/><path d="M148.24,74c3.83,10.55,9.21,20.54,17.14,29.17l8.64-2.88c-3.72-8.36-7.05-16.12-10.6-23.77C158,64.87,153.07,53.11,150.86,40.41a31.41,31.41,0,0,0-1.18-4.68l2.82-1c1.16,3.36,2.08,6.86,3,10.39a163.37,163.37,0,0,0,7.85,22.57c4.63,11,9.81,21.85,14.73,32.77a9.93,9.93,0,0,1,.27,2.1L168,106.06c.1,1.34.2,2.7.32,4.48-3.42.67-6.69,1.18-9.89,2-6.27,1.53-12.53,3.17-18.77,4.84-3.69,1-7.31,2.26-11,3.21a36.27,36.27,0,0,0-9.29,4,73.89,73.89,0,0,1-18.53,7C91,134.11,81,133.09,71,131.65a6.63,6.63,0,0,1-2.38-.7c-6.69-4.06-14-5.38-21.41-6.18l.36-2.94,18.35,2.26c2-26.62,3-53.6,8.44-80.05l2-.19A13.35,13.35,0,0,1,77,47.47c-1.5,14.17-3.15,28.32-4.63,42.5-.76,7.27-1.32,14.56-1.84,21.85-.37,5.25-.5,10.52-.75,15.93,16.64,3.51,32.07,2.33,46.71-5.19-2.17-5.51-4.29-10.34-6-15.32-4-11.6-8-23.22-11.67-34.92-2.56-8-4.74-16.2-6.91-24.36-.32-1.2.36-2.66.57-4l1.39,0c.51,1.5,1.1,3,1.54,4.51,2,7.16,3.81,14.4,6.08,21.48q6,18.72,12.46,37.28c1.4,4,3.52,7.76,5.51,12.08L163,107.09c-4.1-6.68-8.49-13.33-12.38-20.26s-7-13.91-8.45-21.71c-1.34-7.47-5.27-14.55-3.26-22.59C142.47,52.91,144.53,63.74,148.24,74Z"/><path d="M83.74,26.68c-17.62-.22-35.18-1.4-52-6.9-3.74,3.44-5.3,7.55-6.36,12-1.63,6.77-3.26,13.53-5,20.26-1.44,5.44-3.18,10.8-4.62,16.24-2.3,8.64-4.32,17.36-6.75,26-1.33,4.72-3.25,9.27-5.15,14.57,5.72,1.59,10.73,3,16.12,4.51,4.57-12.75,9.63-24.86,11.52-37.88,1.4-9.67,2.07-19.45,3.16-29.17a53,53,0,0,1,1.49-6.12c2.36,4.11,1.46,25.71-2.07,40-3.2,12.94-7.58,25.58-11.54,38.67l25.1,3.09-.36,2.94c-3.38-.36-6.78-.61-10.15-1-6.25-.64-12.49-1.32-18.84-2-.38-2-.61-3.19-.95-5-3.82-1.15-8-2.27-12-3.66-5.4-1.87-5.86-2.59-4.14-8C3,99.38,5.53,93.76,7.3,87.9c2-6.51,3.43-13.18,5.07-19.79.72-2.91,1.25-5.86,2-8.74,2.58-9.45,5.17-18.91,7.93-28.31.93-3.16,1.87-6.53,3.73-9.15a15.38,15.38,0,0,0,2.72-11.27c-.56-5.1.58-6,5.47-5.18a249.32,249.32,0,0,0,75.11,2.15c7.2-.92,14.18-3.53,21.26-5.38l7.49-2c.73,4.77,1.21,8.65,2,12.47.36,1.81.71,4.09,1.94,5.19,5.33,4.77,8.33,10.59,10.48,16.86l-2.82,1c-2.68-8-8.29-14.22-14.79-20.22C118.48,21.91,101.61,26.92,83.74,26.68ZM32.55,17c35.4,8.66,70,10,104.06-6.07-.31-2.06-.63-4.09-1-6.66-34.18,11.8-68.42,9.63-103,4.37Z"/></svg>