<svg id="레이어_1" data-name="레이어 1" xmlns="http://www.w3.org/2000/svg" viewBox="0 0 156.14 124.07"><defs><style>.cls-1{fill:#000087;}.cls-2{fill:#6290b4;}.cls-3{fill:none;stroke:#6290b4;stroke-miterlimit:10;}</style></defs><title>short_jean</title><path class="cls-1" d="M133.52,4.92c.55,2.87,1,5.2,1.57,8.19-18,7.54-36.36,13.14-55.38,14C57.06,28.22,27.22,24.59,13,14.83c.76-1.45,1.56-3,2.5-4.77,7.63,4,15.71,3.84,23.53,5a6.38,6.38,0,0,1,1,.12c10.7,3.27,21.7,2.66,32.66,2.58a81.69,81.69,0,0,0,20.2-2.54c9.31-2.44,18.8-4.19,28.16-6.44C125.06,7.85,128.92,6.38,133.52,4.92Z"/><path class="cls-1" d="M70.46,30.36c1.07,24.37,2.14,48.54,3.21,72.86-8.09,3.15-59.24,6.36-68.56,4V58.09A45.11,45.11,0,0,1,9.4,56c7.45-2.56,10.78-8.33,12.32-15.56C22.82,35.29,24,30.13,25.12,25,40.55,26.83,55.26,31.52,70.46,30.36Z"/><path class="cls-1" d="M150.3,89.25c0,.28-.22.6-.6,1.54-23.14,3.88-46.31,9.65-70.92,12.59-.5-4.85-1-8.77-1.29-12.71-.6-7.62-1.09-15.25-1.69-22.88-.25-3.24.48-5.75,3.63-7.48,2.78-1.53,4.09-4.26,4.14-7.52.07-4.65.11-9.31.26-14,.09-2.63.37-5.25.57-7.92,7-1.59,13.59-3,20.16-4.62s12.82-3.32,19.77-5.13c1.09,4.36,2.31,8.63,3.22,13,.75,3.63,2.34,6.41,5.66,8.33a91.74,91.74,0,0,1,9.49,6.41c1.21.93,2.56,2.43,2.77,3.82C147.22,64.85,148.74,77.05,150.3,89.25Z"/><path class="cls-1" d="M144.06,43.72l-1.08.84c-3.33-2.27-6.75-4.42-9.93-6.88-.91-.71-1.33-2.24-1.66-3.48-1.2-4.49-2.27-9-3.53-14.08l8.06-3.79Z"/><path class="cls-1" d="M21.84,23.08c-1.94,7.4-2.46,15.05-5.49,22.1-2.17,5-3.67,6-10.58,8.16a149.31,149.31,0,0,1,6-34.89Z"/><path d="M155.85,100.56a33.54,33.54,0,0,1-.21,4.76c-5.4.65-9.71.86-13.88,1.71-18.6,3.81-37.17,7.69-55.7,11.81a58.21,58.21,0,0,1-15,1.5c-13.62-.48-27.28.15-40.91.46-5.49.12-11,.41-16.46.87a32.61,32.61,0,0,0-7.28,1.56c-4.14,1.36-5.58.5-5.63-3.75C.6,109,.52,98.49.35,88,.08,71.48.19,55,3,38.66c1.45-8.34,3.81-16.53,5.92-24.74a23.36,23.36,0,0,1,2.47-5.44c2.47-4.43,4-4.63,8.16-1.87A15.93,15.93,0,0,0,25.48,9c8.35,1.48,16.74,2.73,25.13,4a33.56,33.56,0,0,0,5.46.54c7.66,0,15.32,0,23-.42a94.24,94.24,0,0,0,13.24-2.28c6.19-1.28,12.39-2.56,18.51-4.14C117.54,5,124.24,3,130.91.92c4.77-1.48,6.33-.65,7.44,4.05,2,8.58,3.74,17.27,6.41,25.65,4.88,15.36,6.87,31.2,8.87,47.06C154.59,85.28,155.19,92.92,155.85,100.56Zm-9.57,1.23c5.24-1.05,5.64-1.72,4.13-7.55-23.94,3.62-47,10-71.31,12.25.41,3,.77,5.7,1.19,8.79,2.38-.4,4.17-.6,5.91-1,3.73-.86,7.4-2,11.15-2.72C113.65,108.25,130,105,146.28,101.79Zm3.42-11c.38-.94.64-1.26.6-1.54-1.56-12.2-3.08-24.4-4.83-36.57-.21-1.39-1.56-2.89-2.77-3.82a91.74,91.74,0,0,0-9.49-6.41c-3.32-1.92-4.91-4.7-5.66-8.33-.91-4.33-2.13-8.6-3.22-13-7,1.81-13.34,3.56-19.77,5.13s-13.18,3-20.16,4.62c-.2,2.67-.48,5.29-.57,7.92-.15,4.65-.19,9.31-.26,14,0,3.26-1.36,6-4.14,7.52-3.15,1.73-3.88,4.24-3.63,7.48.6,7.63,1.09,15.26,1.69,22.88.32,3.94.79,7.86,1.29,12.71C103.39,100.44,126.56,94.67,149.7,90.79ZM143,44.56l1.08-.84-8.14-27.39-8.06,3.79c1.26,5.07,2.33,9.59,3.53,14.08.33,1.24.75,2.77,1.66,3.48C136.23,40.14,139.65,42.29,143,44.56Zm-7.89-31.45c-.57-3-1-5.32-1.57-8.19-4.6,1.46-8.46,2.93-12.45,3.88-9.36,2.25-18.85,4-28.16,6.44a81.69,81.69,0,0,1-20.2,2.54c-11,.08-22,.69-32.66-2.58a6.38,6.38,0,0,0-1-.12c-7.82-1.18-15.9-1-23.53-5-.94,1.81-1.74,3.32-2.5,4.77,14.19,9.76,44,13.39,66.68,12.32C98.73,26.25,117.11,20.65,135.09,13.11ZM80,52.82c0-7.1,0-14.21,0-21.66H74.84c.09,9.07-1.21,17.81,1.86,26.59A4.81,4.81,0,0,0,80,52.82ZM74.8,115.29c.85-4.72.85-4.72-.93-8-22.68,2.21-45.37,5.08-68.76,4.06.18,2.32.32,4.21.49,6.4,1.75,0,3.05.1,4.33,0,15.24-1.33,30.49-2.44,45.8-2,5,.13,10,.11,15,.07A35.85,35.85,0,0,0,74.8,115.29Zm-1.13-12.07C72.6,78.9,71.53,54.73,70.46,30.36,55.26,31.52,40.55,26.83,25.12,25c-1.13,5.12-2.3,10.28-3.4,15.46C20.18,47.7,16.85,53.47,9.4,56a45.11,45.11,0,0,0-4.29,2.06v49.14C14.43,109.58,65.58,106.37,73.67,103.22Zm-57.32-58c3-7,3.55-14.7,5.49-22.1l-10-4.63a149.31,149.31,0,0,0-6,34.89C12.68,51.18,14.18,50.23,16.35,45.18Z"/><path class="cls-2" d="M150.41,94.24c1.51,5.83,1.11,6.5-4.13,7.55-16.31,3.25-32.63,6.46-48.93,9.77-3.75.76-7.42,1.86-11.15,2.72-1.74.4-3.53.6-5.91,1-.42-3.09-.78-5.77-1.19-8.79C103.36,104.2,126.47,97.86,150.41,94.24Z"/><path class="cls-1" d="M80,31.16c0,7.45,0,14.56,0,21.66a4.81,4.81,0,0,1-3.31,4.93C73.63,49,74.93,40.23,74.84,31.16Z"/><path class="cls-2" d="M73.87,107.29c1.78,3.28,1.78,3.28.93,8a35.85,35.85,0,0,1-4.09.48c-5,0-10,.06-15-.07-15.31-.4-30.56.71-45.8,2-1.28.11-2.58,0-4.33,0-.17-2.19-.31-4.08-.49-6.4C28.5,112.37,51.19,109.5,73.87,107.29Z"/><line class="cls-3" x1="105.69" y1="70.81" x2="131.48" y2="65.03"/><line class="cls-3" x1="108.63" y1="76.56" x2="131.48" y2="72.09"/><line class="cls-3" x1="105.69" y1="83.33" x2="134.54" y2="77.84"/><line class="cls-3" x1="14.25" y1="86.22" x2="33.99" y2="85.45"/><line class="cls-3" x1="14.25" y1="93.11" x2="33.99" y2="90.64"/><line class="cls-3" x1="21.84" y1="78.9" x2="20.03" y2="99.92"/><line class="cls-3" x1="26.08" y1="74.73" x2="29.39" y2="102.13"/></svg>