<svg id="레이어_1" data-name="레이어 1" xmlns="http://www.w3.org/2000/svg" viewBox="0 0 215.88 183.5"><defs><style>.cls-1{fill:#fff;}</style></defs><title>대지 1</title><path class="cls-1" d="M210.9,78.85c-1.72,1.66-3.11,3.63-5,4.71-7.35,4.17-14.76,8.27-22.36,12-4.39,2.13-12,1.76-16.57.09-4.86-22.28.53-43.35,7.62-65.06,5.9,9.06,10.88,17.65,16.81,25.53S204.07,71,210.9,78.85Z"/><path class="cls-1" d="M171,155.14l4.84,12.11-12.41,3.26c-3.84,1-7.65,2.18-11.53,3-7.28,1.53-14.56,3.14-21.92,4.17s-14.87,1.52-22.32,2c-8.69.6-17.24-.71-25.68-2.56-9.38-2.06-18.69-4.42-28-6.68-1.43-.34-2.81-.84-4.71-1.42l2.24-10.27C91.63,166.76,131.23,167.7,171,155.14Z"/><path class="cls-1" d="M166.4,20.47c6.44,4,6.62,5.41,4.16,12.55-4.61,13.35-8.19,27.07-8.84,41.18-.37,8.06,1.32,16.19,2,24.3.65,8,1.1,15.92,1.78,23.86.44,5.27,1.13,10.51,1.79,16.58C163,140,159.17,141,155.34,142a175.59,175.59,0,0,1-53.29,5.61c-9.62-.49-19.3-.16-28.89-.92-6.7-.52-13.3-2.27-20.4-3.55.86-19.39.76-37.94-1.51-56.47S44,50.31,39.11,32.53C49.23,21.31,62.19,15.49,75.8,9.7c.76,7.46,4.71,12,11.51,14.15,6.65,2.11,12.78,1,19.24-3.15.35,2,.78,3.68.89,5.35.39,5.8.68,11.6,1,17.41.1,1.92.35,3.64,3.73,3.57,0-8.18-1-16.13-1.47-24.84a23,23,0,0,0,17.74-.79c5.8-2.54,9.9-6.64,10.51-13.52a25.11,25.11,0,0,1,12.6,3.48C156.5,14.38,161.48,17.38,166.4,20.47Z"/><path class="cls-1" d="M169.23,148a24.5,24.5,0,0,1,.41,2.89C155.47,162.13,73.1,165,51.57,155c.36-2.83.73-5.74,1.08-8.47,38.7,7.13,76.89,6.69,114.84-4.21C168.19,144.59,168.78,146.28,169.23,148Z"/><path class="cls-1" d="M134.76,6c1,5.1-.94,8.78-5.77,11.51-6.41,3.63-13.8,3.58-17.54.31L129.7,5.17Z"/><path class="cls-1" d="M96.57,11.52a85.31,85.31,0,0,0,8.22,5.09c-6.13,8.24-20.45,5.44-24.32-1.74-2-3.78-1.38-6.36,2.46-8,2.12-.89,4.3-1.62,6.37-2.39A94.61,94.61,0,0,0,96.57,11.52Z"/><path class="cls-1" d="M37,39.68c4.44,6.42,13,49.56,12.14,61.83-5.83.95-11.74,1.57-17.37-.93-6.82-3-13.5-6.37-20.18-9.7a12,12,0,0,1-6.3-7.28C20.85,72.3,29.51,56.35,37,39.68Z"/><path d="M49.13,101.51C50,89.24,41.43,46.1,37,39.68,29.51,56.35,20.85,72.3,5.28,83.6a12,12,0,0,0,6.3,7.28c6.68,3.33,13.36,6.66,20.18,9.7C37.39,103.08,43.3,102.46,49.13,101.51ZM171,155.14c-39.73,12.56-79.33,11.62-119.52,3.65L49.2,169.06c1.9.58,3.28,1.08,4.71,1.42,9.34,2.26,18.65,4.62,28,6.68,8.44,1.85,17,3.16,25.68,2.56,7.45-.52,14.93-1,22.32-2s14.64-2.64,21.92-4.17c3.88-.82,7.69-2,11.53-3l12.41-3.26Zm-3.47-12.81c-38,10.9-76.14,11.34-114.84,4.21-.35,2.73-.72,5.64-1.08,8.47,21.53,10,103.9,7.12,118.07-4.1a24.5,24.5,0,0,0-.41-2.89C168.78,146.28,168.19,144.59,167.49,142.33Zm-94.33,4.35c9.59.76,19.27.43,28.89.92A175.59,175.59,0,0,0,155.34,142c3.83-1,7.66-2,11.93-3.05-.66-6.07-1.35-11.31-1.79-16.58-.68-7.94-1.13-15.91-1.78-23.86-.66-8.11-2.35-16.24-2-24.3.65-14.11,4.23-27.83,8.84-41.18,2.46-7.14,2.28-8.52-4.16-12.55-4.92-3.09-9.9-6.09-14.87-9.11a25.11,25.11,0,0,0-12.6-3.48c-.61,6.88-4.71,11-10.51,13.52a23,23,0,0,1-17.74.79c.44,8.71,1.5,16.66,1.47,24.84-3.38.07-3.63-1.65-3.73-3.57-.3-5.81-.59-11.61-1-17.41-.11-1.67-.54-3.31-.89-5.35C100.09,24.82,94,26,87.31,23.85,80.51,21.7,76.56,17.16,75.8,9.7,62.19,15.49,49.23,21.31,39.11,32.53,44,50.31,49,68.15,51.25,86.66s2.37,37.08,1.51,56.47C59.86,144.41,66.46,146.16,73.16,146.68ZM215.62,78.26c-5.47,8.24-13.7,12.21-21.71,16.5s-16.52,6.91-25.66,4.84c-2.87,12.47,4.06,51.66,12.07,69.07-1.4.69-2.75,1.71-4.24,2-15,3.07-29.2,9.21-44.62,10.34-9,.66-17.89,2.36-26.81,2.23-8.41-.13-16.86-1.67-25.16-3.27-8.8-1.7-17.44-4.16-26.13-6.38-2.66-.68-5.24-1.65-8-2.53,5.24-21.77,4.45-43.17,4.42-65.41-2.47,0-4.39-.13-6.28,0A30.43,30.43,0,0,1,28,102.74c-5.58-2.58-11.07-5.35-16.62-8-5-2.41-8-6.71-11.12-12C1.3,82.1,2.14,81.59,2.94,81,18.41,70.12,27.5,54.67,33.42,37.2c1.41-4.17,2.71-7.57,6.34-10.56,7.12-5.86,14.48-11.18,23-14.84C71.83,7.87,81,4.12,90.28.25c1.93,2.07,3.37,3.65,4.85,5.18,1.26,1.32,2.38,2.9,3.89,3.82,10.19,6.22,11.1,5.64,19.69-.28a20.6,20.6,0,0,0,5-4.1c2.69-3.59,6.11-3.31,9.85-2.71,13.85,2.2,25.66,8.94,36.78,16.93,3.14,2.25,5.61,5.7,7.72,9,2.91,4.62,4.72,10,7.85,14.42,5.53,7.85,11.55,15.38,17.66,22.81C207.23,69.82,211.46,73.84,215.62,78.26Zm-9.72,5.3c1.89-1.08,3.28-3,5-4.71-6.83-7.9-13.64-15-19.5-22.78S180.49,39.6,174.59,30.54C167.5,52.25,162.11,73.32,167,95.6c4.61,1.67,12.18,2,16.57-.09C191.14,91.83,198.55,87.73,205.9,83.56ZM129,17.52c4.83-2.73,6.74-6.41,5.77-11.51l-5.06-.84L111.45,17.83C115.19,21.1,122.58,21.15,129,17.52Zm-24.2-.91a85.31,85.31,0,0,1-8.22-5.09,94.61,94.61,0,0,1-7.27-7c-2.07.77-4.25,1.5-6.37,2.39-3.84,1.61-4.5,4.19-2.46,8C84.34,22.05,98.66,24.85,104.79,16.61Z"/></svg>