<svg id="레이어_1" data-name="레이어 1" xmlns="http://www.w3.org/2000/svg" viewBox="0 0 249.43 197.03"><defs><style>.cls-1{fill:#2f2f2f;}</style></defs><title>short_padding</title><path class="cls-1" d="M55.48,167.49c-.19,1.67.17,3.69-.64,4.94-4.15,6.41-8.6,12.63-12.93,18.92-1.28,1.86-3.12,1.87-4.91,1.27q-15.12-5.12-30.18-10.4c-2.54-.89-3.52-2.87-3.33-5.5.88-12.1,1.48-24.23,2.71-36.29,1.7-16.6,5.76-32.74,10.16-48.81,3-11,8.13-21.06,12.52-31.33,7.83.92,17.39,6.35,22,12.41-4.93,14.18-2.39,28.7-.77,43.63-10-1.28-18.11-6.86-26.85-10.75l-.81,1.28a28.55,28.55,0,0,0,3.3,3,70.3,70.3,0,0,0,23.78,10c3.72.8,6.33,3.54,5.47,6.85-3,11.71-1.95,23.48-1.06,35.27,0,.29-.19.6-.45,1.31-13.37-1.32-25-8-37.12-13.22-1.62,2.79.4,3.65,1.93,4.28,8.89,3.7,17.79,7.39,26.79,10.8C48.13,166.25,51.49,166.6,55.48,167.49Z"/><path class="cls-1" d="M116.15,25.91c.9,17.55,1.79,34.77,2.7,52.54-2.62.17-4.73.39-6.83.43a250.43,250.43,0,0,1-50.17-4.29,13.45,13.45,0,0,1-8.78-5.15C49,64.12,43,61.34,37,58.79c-1.8-.77-3.62-1.48-5.71-2.33,7.32-14,15.9-26.29,29.53-34.24,3.45-2,7.15-3.68,10.34-6C76.78,12,83,12.77,89.4,12.8c.31,2.91.62,5.52.87,8.13C90.6,24.36,92.61,26,95.9,26c5.65,0,11.29-.06,16.93-.1C114,25.9,115.07,25.91,116.15,25.91Z"/><path class="cls-1" d="M118.29,82v49.5c-4.37,0-8.88.54-13.22-.1-13.8-2-27.55-4.47-41.3-6.84a11,11,0,0,1-9.1-8.19c-3.74-13.29-4.05-26.76-1.44-41C75,81.68,96.35,82.43,118.29,82Z"/><path class="cls-1" d="M119.16,134.87c1.22,17,2.4,33.5,3.62,50.54l-20.88-.92c-11.11-.46-21.41-4.55-32-7.27-6.26-1.6-10.46-5.8-11.57-12.4-1.95-11.54-2.85-23.12-.52-34.74a18,18,0,0,1,.66-2.39c.1-.29.41-.5.66-.79C78.64,130.42,97.9,136,119.16,134.87Z"/><path class="cls-1" d="M186.36,129.38a111.17,111.17,0,0,1,1.16,18.82c-.41,8.11-1.84,16.17-2.86,24.24-.39,3.11-2,5.25-5.15,5.94-7.12,1.54-14.2,3.41-21.39,4.48-8,1.19-16.19,1.69-24.3,2.38-2.28.2-4.59,0-7.45,0-1.22-17.16-2.39-33.53-3.6-50.57,4-.44,8-.77,11.84-1.31,19.94-2.76,29.49-4.86,46.57-14.26C184.54,121.67,185.89,125.48,186.36,129.38Z"/><path class="cls-1" d="M244.18,177.36a33.31,33.31,0,0,1,.45,3.6,203.51,203.51,0,0,1-42.42,9.25c-3.89-8.76-7.78-17.5-11.77-26.46,11.49-5.28,24.05-8.41,33.47-17.72-2.16-2.59-3.39-1.19-4.67-.21-7.91,6-17.18,9.37-26.24,13.11a10.7,10.7,0,0,1-2.34.33c.18-3.2.23-6.17.54-9.12a55.12,55.12,0,0,0-1.39-21.29,33.21,33.21,0,0,0-4-9.55c-2.17-3.18-3.1-6.12-1.61-9.91,8.44-4.5,17.82-7.87,24.41-15.55.37-.43,0-1.46,0-3.48-4.28,3.22-7.59,6.09-11.26,8.38s-7.88,4.13-12.4,6.45c-.43-6.67-.39-12.92-1.35-19s-2.9-11.87-4.59-18.48c5.63-6.35,11.41-13.72,21.84-15.11a143.37,143.37,0,0,1,14.65,27.78c3.56,9.12,6.16,18.61,9.19,27.93,2.82,8.69,6,17.3,8.39,26.1C237.07,148.65,240.54,163,244.18,177.36Z"/><path class="cls-1" d="M176,71.23c5.83,14.78,6.47,29.4,3.43,44.62-17.27,11.06-36.47,13.5-56.57,15.22a380.3,380.3,0,0,1-.37-49.17C140.51,79.78,158.36,77.31,176,71.23Z"/><path class="cls-1" d="M197.72,49.45c-9.33,2.44-15.36,9.33-21.49,16.19a13.7,13.7,0,0,1-5.71,3.72,116.16,116.16,0,0,1-14.43,3.83c-8.31,1.61-16.69,2.92-25.06,4.23-2.59.41-5.25.43-8.62.69-.2-17.58-3.15-34.65-2.31-52.19,5.43-1,10.17-1.76,14.85-2.79s9-2.31,14.11-3.64c-.14-2.64-.28-5.35-.42-8C160.4,9.85,193.46,35.34,197.72,49.45Z"/><path class="cls-1" d="M144.84,12.74c.51,2.86-.7,4.55-3.41,5.09-6.82,1.36-13.62,3-20.51,3.79-7.41.83-14.91.95-22.37,1.1-4.32.09-4.78-.58-5.24-4.81a15.73,15.73,0,0,1-.07-3c.14-1.8.38-3.6.64-5.87,16.38-2.48,32.54-5.18,49.65-5.1C144,7.19,144.35,10,144.84,12.74Z"/><path d="M45.06,165.09c-9-3.41-17.9-7.1-26.79-10.8-1.53-.63-3.55-1.49-1.93-4.28,12.16,5.22,23.75,11.9,37.12,13.22.26-.71.48-1,.45-1.31-.89-11.79-2-23.56,1.06-35.27.86-3.31-1.75-6.05-5.47-6.85a70.3,70.3,0,0,1-23.78-10,28.55,28.55,0,0,1-3.3-3l.81-1.28c8.74,3.89,16.87,9.47,26.85,10.75-1.62-14.93-4.16-29.45.77-43.63-4.58-6.06-14.14-11.49-22-12.41-4.39,10.27-9.52,20.34-12.52,31.33C12,107.69,7.9,123.83,6.2,140.43,5,152.49,4.37,164.62,3.49,176.72c-.19,2.63.79,4.61,3.33,5.5Q21.9,187.49,37,192.62c1.79.6,3.63.59,4.91-1.27,4.33-6.29,8.78-12.51,12.93-18.92.81-1.25.45-3.27.64-4.94C51.49,166.6,48.13,166.25,45.06,165.09Zm73.23-83c-21.94.39-43.29-.36-65.06-6.59-2.61,14.2-2.3,27.67,1.44,41a11,11,0,0,0,9.1,8.19c13.75,2.37,27.5,4.8,41.3,6.84,4.34.64,8.85.1,13.22.1ZM61.85,74.59A250.43,250.43,0,0,0,112,78.88c2.1,0,4.21-.26,6.83-.43-.91-17.77-1.8-35-2.7-52.54-1.08,0-2.2,0-3.32,0-5.64,0-11.28.14-16.93.1-3.29,0-5.3-1.65-5.63-5.08-.25-2.61-.56-5.22-.87-8.13-6.4,0-12.62-.79-18.22,3.37-3.19,2.37-6.89,4-10.34,6-13.63,8-22.21,20.23-29.53,34.24,2.09.85,3.91,1.56,5.71,2.33,6,2.55,12,5.33,16,10.65A13.45,13.45,0,0,0,61.85,74.59ZM143.53,4c-17.11-.08-33.27,2.62-49.65,5.1-.26,2.27-.5,4.07-.64,5.87a15.73,15.73,0,0,0,.07,3c.46,4.23.92,4.9,5.24,4.81,7.46-.15,15-.27,22.37-1.1,6.89-.78,13.69-2.43,20.51-3.79,2.71-.54,3.92-2.23,3.41-5.09S144,7.19,143.53,4Zm4.21,1.93c6.73,3,13.15,6,19.62,8.85,10.84,4.76,19.07,12.77,26.27,21.77a177.49,177.49,0,0,1,15,21.74,172.3,172.3,0,0,1,18.56,45.09c1,4.19,2.71,8.22,3.9,12.37,3.33,11.67,6.54,23.37,9.84,35,1.35,4.8,2.94,9.54,4.17,14.37,1.5,5.92,2.73,11.9,4.13,18.08-3.76,1.31-6.78,2.69-10,3.4-9.89,2.2-19.83,4.16-29.76,6.19-2,.4-3.93.66-5.89,1-2.68.53-4.33-.31-5.36-3-2-5.29-4.3-10.46-6.51-15.67-.64-1.49-1.37-2.93-2.14-4.57-.49.57-.84.78-.85,1-.32,7.42-5.48,10.13-11.61,11.51-6.31,1.42-12.69,2.61-19.09,3.55-21.71,3.2-43.46,2.83-65.2.25a20.87,20.87,0,0,1-3-.49c-7.21-2-14.5-3.73-21.57-6.12-3.54-1.2-6.67-3.6-9.71-5.29-4.57,6.17-9.27,12.38-13.8,18.7-2.18,3-4.79,3.79-8.23,2.58-10.2-3.57-20.45-7-30.61-10.66-3.74-1.35-6-4-5.65-8.4C1.28,164.08,2,151,3.17,137.9c1.52-16.47,5.44-32.53,10.26-48.28C20.11,67.8,29.93,47.47,45.1,30.13a42.16,42.16,0,0,1,8-6.7c4.37-3,8.92-5.81,13.5-8.52C72,11.74,77.21,8,84.13,9.37c1.54.31,3.28-.35,5.22-.61L91,5.67c6.92-.86,13.3-1.76,19.7-2.41q15.87-1.6,31.79-2.9c4.43-.37,4.6-.06,5,4.54A6.73,6.73,0,0,0,147.74,5.88Zm50,43.57c-4.26-14.11-37.32-39.6-49.08-38,.14,2.69.28,5.4.42,8-5.12,1.33-9.58,2.63-14.11,3.64s-9.42,1.78-14.85,2.79c-.84,17.54,2.11,34.61,2.31,52.19,3.37-.26,6-.28,8.62-.69,8.37-1.31,16.75-2.62,25.06-4.23a116.16,116.16,0,0,0,14.43-3.83,13.7,13.7,0,0,0,5.71-3.72C182.36,58.78,188.39,51.89,197.72,49.45ZM244.63,181a33.31,33.31,0,0,0-.45-3.6c-3.64-14.33-7.11-28.71-11.05-43-2.42-8.8-5.57-17.41-8.39-26.1-3-9.32-5.63-18.81-9.19-27.93A143.37,143.37,0,0,0,200.9,52.59C190.47,54,184.69,61.35,179.06,67.7c1.69,6.61,3.64,12.47,4.59,18.48s.92,12.34,1.35,19c4.52-2.32,8.63-4.11,12.4-6.45s7-5.16,11.26-8.38c0,2,.32,3,0,3.48-6.59,7.68-16,11-24.41,15.55-1.49,3.79-.56,6.73,1.61,9.91a33.21,33.21,0,0,1,4,9.55,55.12,55.12,0,0,1,1.39,21.29c-.31,3-.36,5.92-.54,9.12a10.7,10.7,0,0,0,2.34-.33c9.06-3.74,18.33-7.08,26.24-13.11,1.28-1,2.51-2.38,4.67.21-9.42,9.31-22,12.44-33.47,17.72,4,9,7.88,17.7,11.77,26.46A203.51,203.51,0,0,0,244.63,181ZM187.52,148.2a111.17,111.17,0,0,0-1.16-18.82c-.47-3.9-1.82-7.71-5.18-10.25-17.08,9.4-26.63,11.5-46.57,14.26-3.88.54-7.79.87-11.84,1.31,1.21,17,2.38,33.41,3.6,50.57,2.86,0,5.17.17,7.45,0,8.11-.69,16.26-1.19,24.3-2.38,7.19-1.07,14.27-2.94,21.39-4.48,3.18-.69,4.76-2.83,5.15-5.94C185.68,164.37,187.11,156.31,187.52,148.2Zm-8.12-32.35c3-15.22,2.4-29.84-3.43-44.62-17.61,6.08-35.46,8.55-53.51,10.67a380.3,380.3,0,0,0,.37,49.17C142.93,129.35,162.13,126.91,179.4,115.85Zm-56.62,69.56c-1.22-17-2.4-33.54-3.62-50.54-21.26,1.09-40.52-4.45-60-8-.25.29-.56.5-.66.79a18,18,0,0,0-.66,2.39c-2.33,11.62-1.43,23.2.52,34.74,1.11,6.6,5.31,10.8,11.57,12.4,10.59,2.72,20.89,6.81,32,7.27Z"/></svg>