<svg id="레이어_1" data-name="레이어 1" xmlns="http://www.w3.org/2000/svg" viewBox="0 0 155.92 124.26"><defs><style>.cls-1{fill:#6f5f55;}</style></defs><title>short_pants</title><path class="cls-1" d="M143.92,44.73c-12.06.68-21.46-8.74-24.3-23.71l15.77-5.16C138.3,25.72,141,35,143.92,44.73Z"/><path class="cls-1" d="M133,5l1.63,7.46-15.64,5c-.56-2.67-1-4.73-1.53-7.36Z"/><path class="cls-1" d="M114,11.59c.46,2,1,4.22,1.63,7.11L93.69,23.33c-.6-3.14-1-5.22-1.37-7.21C98,13.11,108.27,10.93,114,11.59Z"/><path class="cls-1" d="M65.72,18.18,88.94,17c.34,2.13.63,4,1,6.47l-7.75.81-4.66-3.59c-.66,1.41-1.18,2.5-1.84,3.89l-3.43.26L70.66,21.1l-1.26-.76q-1.26,2.39-2.53,4.76l-1.15-.53Z"/><path class="cls-1" d="M61.8,18.76c-.15,1.74-.3,3.51-.47,5.48-8.56,1.91-16.47-1.67-25.51-1.64.54-2.91.91-4.94,1.35-7.28Z"/><path class="cls-1" d="M33.4,15.13,32.12,22,11.37,17.87c1.43-3.09,2.43-5.25,3.25-7Z"/><path class="cls-1" d="M31,25.37C29.06,39.78,18.64,51.51,6.07,53.59,4.73,48.52,8,27.89,11.26,21.35Z"/><path class="cls-1" d="M144.39,49.25C148,66,149.59,83,151,100.59L79.7,115.35c-.75-6.62-1.71-12.82-2.11-19-.86-13.46-1.39-26.94-2.16-40.4a22.51,22.51,0,0,0-1.28-4.61l-1.81.06c-.34,1.73-1,3.48-1,5.19q1.11,22.18,2.47,44.37c.29,4.62.88,9.21,1.39,14.39-2.4.24-4.14.56-5.88.56-8.16,0-16.34-.39-24.49-.09-11.64.42-23.26,1.33-34.89,2-1.45.08-2.91,0-5.13,0-.48-20-1.14-39.75-.09-59.86,7.68-2.16,15.6-4,20-11.22,4-6.51,7.36-13.37,11.28-20.58l29,2.55c-1.27,3.8-2.69,7.49-3.71,11.29-.91,3.38-3.32,6.81-1.13,10.35l1.45.31,7.42-22.31h11c2.73,7.78,5.58,15.92,8.44,24.06l1.55-.18c.12-1.33.63-2.78.29-4C88.5,41.52,86.4,34.88,84.3,28l32-5.52C119.46,37.38,127.78,47.48,144.39,49.25Z"/><path d="M6.07,53.59c12.57-2.08,23-13.81,24.93-28.22l-19.74-4C8,27.89,4.73,48.52,6.07,53.59Zm29.75-31c9,0,17,3.55,25.51,1.64.17-2,.32-3.74.47-5.48L37.17,15.32C36.73,17.66,36.36,19.69,35.82,22.6Zm80.5-.17L84.3,28c2.1,6.93,4.2,13.57,6.08,20.26.34,1.21-.17,2.66-.29,4l-1.55.18c-2.86-8.14-5.71-16.28-8.44-24.06h-11L61.67,50.63l-1.45-.31c-2.19-3.54.22-7,1.13-10.35,1-3.8,2.44-7.49,3.71-11.29l-29-2.55c-3.92,7.21-7.32,14.07-11.28,20.58-4.41,7.23-12.33,9.06-20,11.22-1,20.11-.39,39.83.09,59.86,2.22,0,3.68.07,5.13,0,11.63-.68,23.25-1.59,34.89-2,8.15-.3,16.33.08,24.49.09,1.74,0,3.48-.32,5.88-.56-.51-5.18-1.1-9.77-1.39-14.39q-1.35-22.17-2.47-44.37c-.09-1.71.61-3.46,1-5.19l1.81-.06a22.51,22.51,0,0,1,1.28,4.61c.77,13.46,1.3,26.94,2.16,40.4.4,6.23,1.36,12.43,2.11,19L151,100.59C149.59,83,148,66,144.39,49.25,127.78,47.48,119.46,37.38,116.32,22.43Zm-22.63.9,21.94-4.63c-.67-2.89-1.17-5.08-1.63-7.11-5.73-.66-16,1.52-21.68,4.53C92.7,18.11,93.09,20.19,93.69,23.33Zm61.94,78.5a11.65,11.65,0,0,1-.27,3.09c-9.84,1.72-18.68,3-27.41,4.82-14.36,2.93-28.69,6-43,9.36a53.1,53.1,0,0,1-14.08,1.35c-13.79-.39-27.62.17-41.43.45-5.32.11-10.66.33-16,.83a43.81,43.81,0,0,0-8.21,1.91c-3.24,1-4.83.09-5-3.25-.14-2.49.06-5,.06-7.49.07-19-.25-38,.32-56.95A135.91,135.91,0,0,1,8.22,14.8a38.86,38.86,0,0,1,3.34-7.23c2-3.3,3.79-3.37,7-1.43a22,22,0,0,0,7.19,3c8,1.51,16,3.25,24.15,3.81,14.43,1,28.91,1.77,43.16-2.22,6.4-1.8,13-2.69,19.49-4.35C118.79,4.76,125,2.72,131.16.8c3.84-1.19,5.52-.58,6.44,3C141.28,18,145.7,32,148.26,46.38,151.53,64.72,153.29,83.33,155.63,101.83ZM119.62,21c2.84,15,12.24,24.39,24.3,23.71-2.88-9.74-5.62-19-8.53-28.87Zm15-8.58L133,5l-15.54,5.13c.54,2.63,1,4.69,1.53,7.36ZM90,23.46c-.39-2.46-.68-4.34-1-6.47L65.72,18.18v6.39l1.15.53q1.27-2.37,2.53-4.76l1.26.76,1.62,3.73,3.43-.26c.66-1.39,1.18-2.48,1.84-3.89l4.66,3.59ZM32.12,22l1.28-6.88-18.78-4.3c-.82,1.79-1.82,3.95-3.25,7Z"/></svg>