<svg id="레이어_1" data-name="레이어 1" xmlns="http://www.w3.org/2000/svg" viewBox="0 0 205.35 182.9"><defs><style>.cls-1{fill:#f5efdf;}.cls-2{fill:none;stroke:#8aaae5;stroke-miterlimit:10;}</style></defs><title>대지 1</title><path d="M204.65,77c1.48,3.48.66,4.49-2.91,5.86-9.45,3.62-18.83,7.41-28.58,11.26,4,23.3,3.78,45.79,3.85,68.28,0,3.88-1.12,5.81-4.86,7.44-12.4,5.4-25.54,7.6-38.7,9.69-10.17,1.61-20.48,3.4-30.72,3.38-16.38,0-32.44-3.21-48-8.42a55.68,55.68,0,0,0-9.23-2.13c-3.51-.52-5.22-2.16-5.48-5.83-1.19-17.28-2.56-34.54-3.82-51.81-.3-4.15-.5-8.32-.59-12.48a6.09,6.09,0,0,0-4.16-6.16c-8.67-3.4-17.28-7-26-10.14C-.55,83.8-1.2,83.31,1.6,77.58c6.13-12.56,12.26-25.14,19-37.4C26.75,28.8,37.41,22,48.07,15.32A135.59,135.59,0,0,1,81.19.27a8.53,8.53,0,0,1,6,.7A109.67,109.67,0,0,1,97.46,8.1c7.5,5.42,13.91,4.45,18.54-3.37,2-3.43,4.21-4.25,8.07-4,16,1.06,29.54,7.46,41.09,18.38a2.9,2.9,0,0,0,.36.34C180.26,29.55,191,42.73,196.93,59.73,199,65.65,202.19,71.18,204.65,77Zm-4.23,1c-1.44-3.39-2.45-6-3.63-8.52-2.18-4.67-4.89-9.14-6.61-14-4-11.25-11.37-19.82-20.46-27.17-3.1-2.52-6.19-5.05-9.23-7.64-9.18-7.8-19.3-13.41-31.5-15.1-4.87-.67-8.15.28-11.23,4.25-5.52,7.11-13.88,8-21.36,2.91a88.2,88.2,0,0,1-7.23-5.35C86.08,4.74,83,4.34,79,5.54,63.94,10.07,50.66,18,38.23,27.29a52,52,0,0,0-13,13.64c-6.57,10.6-12.11,21.84-17.9,32.91-1.08,2.07-1.37,4.55-2,6.85L34.7,92.15c.38-8.46.73-16.2,1.08-23.93l2.15-.59c.5,1.42,1.38,2.82,1.44,4.26.29,7.49.41,15,.59,22.49L40,96.8c.41,15.46.38,20.47.76,29.56.17,4,.17,3,.31,6.39.12,3,1.14,12.1,2.8,30.33.32,3.59,2.36,5.23,5.77,5.74A36.5,36.5,0,0,1,56,170.34a148.33,148.33,0,0,0,47.49,8.31c9.08,0,18.25-1.41,27.22-3.05,11.77-2.16,23.46-4.85,35-8,6.65-1.79,7.08-2.95,7-9.65-.22-14.16-.4-28.32-1.08-42.46a84.94,84.94,0,0,0-4.69-24.93c-2.36-6.54-3.7-13.46-5.26-20.26-.32-1.36.41-3,.66-4.44l1.8-.08c2.23,8,4.46,15.91,6.9,24.65Z"/><path class="cls-1" d="M196.79,69.44C198,72,199,74.57,200.42,78L171,90.47c-2.44-8.74-4.67-16.7-6.9-24.65l-1.8.08c-.25,1.49-1,3.08-.66,4.44,1.56,6.8,2.9,13.72,5.26,20.26a84.94,84.94,0,0,1,4.69,24.93c.68,14.14.86,28.3,1.08,42.46.1,6.7-.33,7.86-7,9.65-11.55,3.11-23.24,5.8-35,8-9,1.64-18.14,3.07-27.22,3.05A148.33,148.33,0,0,1,56,170.34a36.5,36.5,0,0,0-6.29-1.52c-3.41-.51-5.45-2.15-5.77-5.74-1.66-18.23-2.68-27.32-2.8-30.33-.14-3.4-.14-2.37-.31-6.39-.38-9.09-.35-14.1-.76-29.56L40,94.38c-.18-7.5-.3-15-.59-22.49-.06-1.44-.94-2.84-1.44-4.26l-2.15.59c-.35,7.73-.7,15.47-1.08,23.93L5.32,80.69c.65-2.3.94-4.78,2-6.85,5.79-11.07,11.33-22.31,17.9-32.91a52,52,0,0,1,13-13.64C50.66,18,63.94,10.07,79,5.54c4-1.2,7-.8,10.13,1.83a88.2,88.2,0,0,0,7.23,5.35c7.48,5.13,15.84,4.2,21.36-2.91,3.08-4,6.36-4.92,11.23-4.25,12.2,1.69,22.32,7.3,31.5,15.1,3,2.59,6.13,5.12,9.23,7.64,9.09,7.35,16.44,15.92,20.46,27.17C191.9,60.3,194.61,64.77,196.79,69.44Z"/><path class="cls-2" d="M40.67,124.4c5.61.66,13.12,1.4,22,1.87,11.11.58,19.5.47,28,.34,9-.14,17.35-.26,28.56-1.19,11.49-1,20.17-2.26,27.64-3.41,10-1.52,18.38-3.12,24.74-4.42"/><path class="cls-2" d="M40.33,115.27c5.61.67,13.1,1.41,22,1.87,11.09.58,19.46.47,28,.34,9-.13,17.31-.26,28.5-1.19,11.46-1,20.13-2.26,27.59-3.4,9.94-1.52,18.33-3.12,24.68-4.43"/><path class="cls-2" d="M41.09,132.14c5.61.67,13.12,1.41,22,1.87,11.13.58,19.51.47,28,.34,9-.13,17.35-.26,28.56-1.19,11.5-.95,20.18-2.26,27.66-3.4,10-1.52,18.38-3.12,24.75-4.43"/><path class="cls-2" d="M41.66,139.67c5.6.66,13.09,1.41,22,1.87,11.09.58,19.46.47,27.94.34,9-.13,17.3-.26,28.49-1.19,11.46-.95,20.12-2.26,27.57-3.4,9.94-1.53,18.33-3.12,24.68-4.43"/><path class="cls-2" d="M42.3,147.89c5.57.67,13,1.41,21.84,1.88,11,.58,19.36.47,27.81.34,9-.14,17.21-.27,28.34-1.19,11.41-1,20-2.27,27.44-3.41,9.89-1.52,18.24-3.12,24.56-4.42"/><path class="cls-2" d="M43.19,155.72c5.55.67,13,1.41,21.75,1.87,11,.59,19.26.47,27.67.35,8.92-.14,17.14-.27,28.21-1.2,11.36-1,19.93-2.26,27.32-3.4,9.84-1.52,18.15-3.12,24.44-4.43"/><path class="cls-2" d="M43.93,163.65c5.51.66,12.89,1.4,21.62,1.87,10.93.58,19.16.47,27.52.34,8.87-.14,17-.26,28.06-1.19,11.29-.95,19.82-2.26,27.16-3.41,9.79-1.52,18.05-3.11,24.31-4.42"/></svg>