<svg id="레이어_1" data-name="레이어 1" xmlns="http://www.w3.org/2000/svg" viewBox="0 0 205.77 183.77"><defs><style>.cls-1{fill:#fff;}</style></defs><title>short_sleeve_shirt</title><path class="cls-1" d="M127,5.78c2.09.39,4.2.7,7.35,1.22-4.5,7.06-8.59,13.5-13.12,20.63-4.59-3.75-8.62-7-12.24-10,3.8-3.25,7.21-5.79,10.14-8.81C121.42,6.49,123.73,5.17,127,5.78Z"/><path class="cls-1" d="M94.7,11.72c1.87,1.34,3.77,2.63,6.4,4.46L91.35,27,74,9.1c5.08-4.58,10.27-5,15.08-1.47C90.94,9,92.81,10.38,94.7,11.72Z"/><path class="cls-1" d="M103,19.8c1.84,53.42-2.29,106.1,2.24,159.31-3.67,0-6.83.42-9.85-.08C84.56,177.24,73.76,175.3,63,173.1c-5-1-9.9-2.75-14.84-4.19-2.56-.74-3.73-2.59-4-5.16-1-10.43-2.24-20.85-2.84-31.31-.67-11.79-.74-23.61-1.06-35.42-.22-8.13-.39-16.27-.61-24.4,0-1.73.53-3.84-3.06-4.33-1.76,8-.71,16-1.5,24.44L5.54,81.12c.48-1.85.58-3.58,1.32-5C13.54,63.7,19.94,51.07,27.22,39,32.5,30.21,41.47,25.12,50,19.9c6.07-3.72,12.43-7,18.92-10.57,7.39,7.79,13.7,16,23.07,22Z"/><path class="cls-1" d="M197,69.91c1.18,2.53,2.17,5.14,3.63,8.61l-29,12.22c-3.83-8.16-4.92-16.53-7.13-24.59-3.5,1-3.22,2.85-2.77,4.66,1.71,6.77,3,13.71,5.33,20.25a81.13,81.13,0,0,1,4.62,24c.68,14.8.68,29.64,1.23,44.46.16,4.43-1.61,7-5.62,8.18-5.74,1.71-11.43,3.71-17.28,4.88-11.75,2.34-23.6,4.22-35.41,6.23a44,44,0,0,1-5.05.28c-.47-4.7-1.12-9-1.27-13.25-.5-13.81-1-27.63-1.14-41.45-.25-30.66-.26-61.32-.36-92,0-3.47,0-6.95,0-11.27l14.3,10.79c7.43-7,11.23-15.82,16.9-23.7,7.62,1.88,13.95,6.14,20,10.69,4.66,3.48,9,7.38,13.45,11.15,8.39,7.11,15.11,15.36,18.89,25.92C192.13,60.77,194.85,65.24,197,69.91Z"/><path d="M138,8.18c-5.67,7.88-9.47,16.72-16.9,23.7l-14.3-10.79c0,4.32,0,7.8,0,11.27.1,30.66.11,61.32.36,92,.11,13.82.64,27.64,1.14,41.45.15,4.28.8,8.55,1.27,13.25a44,44,0,0,0,5.05-.28c11.81-2,23.66-3.89,35.41-6.23,5.85-1.17,11.54-3.17,17.28-4.88,4-1.2,5.78-3.75,5.62-8.18-.55-14.82-.55-29.66-1.23-44.46a81.13,81.13,0,0,0-4.62-24c-2.36-6.54-3.62-13.48-5.33-20.25-.45-1.81-.73-3.66,2.77-4.66,2.21,8.06,3.3,16.43,7.13,24.59l29-12.22c-1.46-3.47-2.45-6.08-3.63-8.61-2.18-4.67-4.9-9.14-6.62-14-3.78-10.56-10.5-18.81-18.89-25.92-4.45-3.77-8.79-7.67-13.45-11.15C152,14.32,145.64,10.06,138,8.18ZM121.24,27.63c4.53-7.13,8.62-13.57,13.12-20.63-3.15-.52-5.26-.83-7.35-1.22-3.28-.61-5.59.71-7.87,3.07-2.93,3-6.34,5.56-10.14,8.81C112.62,20.61,116.65,23.88,121.24,27.63Zm83.24,49c2,4.5,1.32,5.13-3.14,6.81-9.17,3.47-18.23,7.24-27.54,11a15.56,15.56,0,0,0-.13,2.72c4,22.28,3.38,44.81,3.53,67.29,0,3-1.4,4.29-4,5.47-12.63,5.7-26.12,8-39.61,10.07-10.18,1.58-20.45,2.7-30.73,3.43a64,64,0,0,1-14.9-1.16c-9-1.51-18-3.32-26.95-5.28-5.35-1.18-10.53-3.09-15.87-4.3-3.11-.7-4.55-2.18-4.8-5.34-1.16-14.6-2.53-29.19-3.63-43.8-.5-6.64-.64-13.32-.75-20-.06-3.57-1.35-6-4.79-7.32C23.08,93.13,15.06,89.88,7,86.73c-1.39-.55-2.89-.82-4.27-1.38-2.47-1-3-2.69-2-5.23C6.07,65.85,14,52.87,21.41,39.7c4.25-7.5,10.7-13.17,17.81-18,13-8.8,26.66-16.41,41.83-21,2.67-.81,4.83-.68,7,.94C91.43,4.15,94.83,6.56,98.22,9c7,5,13.51,4,17.8-3.45,2.25-3.9,4.78-4.49,8.92-4.22,15.5,1.05,28.49,7.36,39.8,17.69,2.33,2.13,4.82,4.1,7.33,6A66.09,66.09,0,0,1,194.28,54C197.29,61.67,201.17,69.05,204.48,76.67ZM105.24,179.11c-4.53-53.21-.4-105.89-2.24-159.31L92,31.32c-9.37-6-15.68-14.2-23.07-22C62.42,12.94,56.06,16.18,50,19.9,41.47,25.12,32.5,30.21,27.22,39,19.94,51.07,13.54,63.7,6.86,76.16c-.74,1.38-.84,3.11-1.32,5L35.12,92.73c.79-8.48-.26-16.46,1.5-24.44,3.59.49,3,2.6,3.06,4.33.22,8.13.39,16.27.61,24.4.32,11.81.39,23.63,1.06,35.42.6,10.46,1.88,20.88,2.84,31.31.24,2.57,1.41,4.42,4,5.16C53.1,170.35,58,172.07,63,173.1c10.76,2.2,21.56,4.14,32.39,5.93C98.41,179.53,101.57,179.11,105.24,179.11ZM101.1,16.18c-2.63-1.83-4.53-3.12-6.4-4.46S90.94,9,89.08,7.63C84.27,4.09,79.08,4.52,74,9.1L91.35,27Z"/></svg>