<svg id="레이어_1" data-name="레이어 1" xmlns="http://www.w3.org/2000/svg" viewBox="0 0 244.8 191.22"><defs><style>.cls-1{fill:#fff;}</style></defs><title>shrit</title><path class="cls-1" d="M118.38,125q.66,26.31,1.31,52.73c-8.24-.57-16.36-.83-24.39-1.79a196.73,196.73,0,0,1-21.54-3.87c-4.47-1.05-8.69-3.17-13.08-4.64-2.78-.94-3.89-2.78-4.06-5.59-.65-11-1.7-21.9-2-32.86-.57-18.64-.7-37.3-1-55.95,0-3.14,0-3.15-2.34-5.17a27.94,27.94,0,0,0-.58,3.88c0,17-.1,34,.17,51,.12,7.47,1,14.94,1.6,22.39.37,4.23-.05,8-2.51,11.8-3.92,6.12-7,12.75-10.6,19.36L4.47,156.09c1.45-9.52,2.69-18.72,4.3-27.86,1.53-8.65,3.2-17.3,5.27-25.84,3.4-14.1,9.14-27.37,15.24-40.47C36,47.43,46,35.21,57.12,23.91c4.73-4.8,12.51-8.65,19.09-9.87l6.64,8.83,10,.46c-.11,3.93-3.52,5.74-5.7,8.63l12,15,17.07-9C116.94,67.11,117.66,96.05,118.38,125Z"/><path class="cls-1" d="M239.42,169.3c.53,3.11,1.05,6.13,1.68,9.78-12.64,2.41-24.7,4.91-37.43,5.91L200,176.31Z"/><path class="cls-1" d="M37.62,179.45l-3.13,8.38L3.62,173.16c.41-4.07.8-8,1.27-12.65C16.37,166.36,27,172.67,37.62,179.45Z"/><path class="cls-1" d="M114.31,35l-14.7,8.21L91.82,31.93l8-11.11a53.37,53.37,0,0,0-6.08-.7c-9.41,0-9.41,0-14.66-7.94-.45-.68-.87-1.4-1.49-2.42C83.52,5.89,90.25,6.34,97,5Z"/><path class="cls-1" d="M155.14,7.39l-7,12-10.33-2.46c-.78,1-1.52,2-2.29,3l7,8.73-6.78,11.88L121,33.32C125.33,23,132.55,14.57,136.65,4.21,143.36,2.91,148.89,5,155.14,7.39Z"/><path class="cls-1" d="M227.7,116.72c5.83,15.31,7.79,31.51,11,48.14-12.85,3.85-26.13,5.31-39.25,8.2-2.21-4.6-4.35-9.06-6.52-13.51a14.3,14.3,0,0,0-1.72-3c-3.37-4.14-4.56-8.73-4.94-14.14-.73-10.76-2.69-21.42-3.92-32.15-.79-6.93-1.14-13.92-1.8-20.87-.6-6.29-1.27-12.57-2.12-18.83-.2-1.46-1.24-2.82-1.9-4.22l-1.1.16a10.69,10.69,0,0,0-.52,3c.83,7.59,1.82,15.15,2.67,22.74,1.18,10.56,2,21.17,3.48,31.69a174.37,174.37,0,0,1,1.37,39.73c-15.71,9.55-47.19,17.11-58.39,14.05-1.55-17.54-2.32-35.11-2.78-52.74-.75-29.37-.62-58.9-1.76-88.76l17,8.63,10.07-15.74-5.41-8L149.46,23l7.34-11.13a26.4,26.4,0,0,1,13.62,6.37,22,22,0,0,0,2.51,2.42c14,8.93,21.35,23.56,31.17,36.05.53.67,1,1.37,1.49,2.1a52.79,52.79,0,0,1,4.8,10.27c4.93,13.39,9.48,26.91,14.24,40.35C225.5,111.91,226.76,114.26,227.7,116.72Z"/><path d="M99.61,43.21,114.31,35,97,5c-6.75,1.32-13.48.87-19.4,4.74.62,1,1,1.74,1.49,2.42,5.25,8,5.25,7.94,14.66,7.94a53.37,53.37,0,0,1,6.08.7l-8,11.11ZM141.17.37a99.43,99.43,0,0,1,15.38,4c1.34.44,2.17,2.4,3.94,4.49,14.95,6.7,27,18.49,36.81,32.94,2.24,3.3,5,6.28,7.07,9.67,1.2,1.95,2.45,3.89,3.66,5.86l-2.44,1.46c-.47-.73-1-1.43-1.49-2.1-9.82-12.49-17.21-27.12-31.17-36a22,22,0,0,1-2.51-2.42,26.4,26.4,0,0,0-13.62-6.37L149.46,23l-8.35-1.94,5.41,8L136.45,44.81l-17-8.63c1.14,29.86,1,59.39,1.76,88.76l-2.86.07c-.72-29-1.44-57.9-2.17-87.13l-17.07,9-12-15c2.18-2.89,5.59-4.7,5.7-8.63l-10-.46L76.21,14c-6.58,1.22-14.36,5.07-19.09,9.87C46,35.21,36,47.43,29.28,61.92,23.18,75,17.44,88.29,14,102.39c-2.07,8.54-3.74,17.19-5.27,25.84-1.61,9.14-2.85,18.34-4.3,27.86l-2.86-.24c.32-3.95.71-7.87,1.28-11.76,1.92-13.17,4.72-26.22,7.26-39.29,3-15.5,9.63-29.73,16-44C32.83,46.06,43,33.76,54.12,22.17,59.31,16.74,66.06,13.78,73,11c.25-1.13.49-2.23.73-3.35,7.9-4.29,16.37-5.38,25.18-5.76,6,10.17,11.87,20.13,18.13,30.73,5.39-9.57,10.59-18.1,15.06-27C134.18,1.45,137.19-.25,141.17.37Zm14,7C148.89,5,143.36,2.91,136.65,4.21,132.55,14.57,125.33,23,121,33.32l14.7,7.24,6.78-11.88-7-8.73c.77-1,1.51-2,2.29-3l10.33,2.46Z"/><path d="M203.67,185c12.73-1,24.79-3.5,37.43-5.91-.63-3.65-1.15-6.67-1.68-9.78l-39.38,7ZM53.57,73c.32,18.65.45,37.31,1,56,.33,11,1.38,21.9,2,32.86.17,2.81,1.28,4.65,4.06,5.59,4.39,1.47,8.61,3.59,13.08,4.64A196.73,196.73,0,0,0,95.3,176c8,1,16.15,1.22,24.39,1.79Q119,151.28,118.38,125l2.86-.07c.46,17.63,1.23,35.2,2.78,52.74,11.2,3.06,42.68-4.5,58.39-14.05A174.37,174.37,0,0,0,181,123.9c-1.47-10.52-2.3-21.13-3.48-31.69-.85-7.59-1.84-15.15-2.67-22.74a10.69,10.69,0,0,1,.52-3l1.1-.16c.66,1.4,1.7,2.76,1.9,4.22.85,6.26,1.52,12.54,2.12,18.83.66,7,1,13.94,1.8,20.87,1.23,10.73,3.19,21.39,3.92,32.15.38,5.41,1.57,10,4.94,14.14a14.3,14.3,0,0,1,1.72,3c2.17,4.45,4.31,8.91,6.52,13.51,13.12-2.89,26.4-4.35,39.25-8.2-3.19-16.63-5.15-32.83-11-48.14-.94-2.46-2.2-4.81-3.07-7.29-4.76-13.44-9.31-27-14.24-40.35a52.79,52.79,0,0,0-4.8-10.27L208,57.35a60.07,60.07,0,0,1,5,9.75c7,18.32,13.85,36.74,20.07,55.36,3,9,4.55,18.39,6.51,27.67,1.47,7,2.6,14.07,3.77,21.13.53,3.25.79,6.54,1.13,9.5-5.14,4-37.19,8.46-44.23,6.43-5.14-9.45-5.74-21-13.67-30.42v9.06a143.19,143.19,0,0,1-55,16.13c-5.25.42-10.61-.7-15.93-1-16-.8-31.9-2.5-47.35-6.91-4.6-1.31-8.94-3.54-14-5.59-.49-2.64-1-5.2-1.47-7.89C49.46,163.24,42,177.41,36.93,191c-1.65-.26-3.65-.16-5.27-.9-7.13-3.22-14.14-6.69-21.2-10.06-3.27-1.57-6.55-3.12-10.21-4.87.52-6.5.84-12.93,1.36-19.29l2.86.24,34.84,20.19c3.56-6.61,6.68-13.24,10.6-19.36,2.46-3.83,2.88-7.57,2.51-11.8-.65-7.45-1.48-14.92-1.6-22.39-.27-17-.16-34-.17-51a27.94,27.94,0,0,1,.58-3.88C53.52,69.89,53.52,69.9,53.57,73ZM34.49,187.83l3.13-8.38C27,172.67,16.37,166.36,4.89,160.51c-.47,4.67-.86,8.58-1.27,12.65Z"/></svg>