<svg id="레이어_1" data-name="레이어 1" xmlns="http://www.w3.org/2000/svg" viewBox="0 0 141.57 175.36"><defs><style>.cls-1{fill:#3e3e3e;}</style></defs><title>sleeveless</title><path class="cls-1" d="M137.67,153.14c.34,3.46-.56,5.37-3.93,6.19-12.57,3-25,6.71-37.71,9a233.29,233.29,0,0,1-33.68,3.55c-7,.26-14.18-1.32-21.22-2.47-9.33-1.53-18.58-3.55-27.21-7.66-.74-.35-1.45-.78-3.09-1.67-1.55-16.78-3.26-33.62-4.61-50.49-.66-8.27-.55-16.6-1-24.89C5,80.89,4.5,77.06,4.1,73.22c-.13-1.28-.25-2.56-.35-3.84-.12-1.52-.24-3.61.61-4.55,6-6.61,8.76-14.84,11.74-22.91s5.65-16.3,8.14-24.56c1.71-5.66,4.6-9.81,10-11.59a18.89,18.89,0,0,1,4.17-.83C39,7,39.73,9.35,40.3,11.71c3.47,14.21,13.88,23.53,29,25.78,6,.9,11.3-1.22,15.66-5.06,6.42-5.67,11.72-12.24,14-20.82.66-2.55,1.7-5,2.71-7.9l11.11,5.72c-1.76,11.65,2.08,22.43,4.77,33.32,1.34,5.42,4,10.5,6.06,15.76a86.72,86.72,0,0,1,2.89,8.4c4.23,15.58,6.25,31.54,7.91,47.53C135.67,127.32,136.4,140.26,137.67,153.14Z"/><path d="M141.29,155.61c.23,3.18-1,4.75-3.94,5.89-12.83,4.94-26.17,7.85-39.65,10-11,1.73-22.11,3.32-33.21,3.62-8.38.22-16.85-1.47-25.23-2.7a102.91,102.91,0,0,1-25.87-7.24,29.21,29.21,0,0,0-5-1.07c-.14-1.24-.26-2.47-.38-3.7l2.8-.26c1.64.89,2.35,1.32,3.09,1.67,8.63,4.11,17.88,6.13,27.21,7.66,7,1.15,14.19,2.73,21.22,2.47A233.29,233.29,0,0,0,96,168.37c12.7-2.33,25.14-6,37.71-9,3.37-.82,4.27-2.73,3.93-6.19-1.27-12.88-2-25.82-3.33-38.7-1.66-16-3.68-31.95-7.91-47.53a86.72,86.72,0,0,0-2.89-8.4c-2-5.26-4.72-10.34-6.06-15.76-2.69-10.89-6.53-21.67-4.77-33.32L115,7.83c1.24,2,1.6,4.51.85,8s.68,7.56,1.46,11.29c2.29,10.91,4.58,21.79,10.58,31.53,1.55,2.51,1.45,6,2.2,9.06,5.12,20.73,7.41,41.9,9.72,63.05C140.69,139,140.7,147.32,141.29,155.61Z"/><path d="M115,7.83l-2.27,1.6L101.6,3.71c-1,2.9-2,5.35-2.71,7.9-2.23,8.58-7.53,15.15-14,20.82-4.36,3.84-9.68,6-15.66,5.06-15.1-2.25-25.51-11.57-29-25.78C39.73,9.35,39,7,38.43,4.94a18.89,18.89,0,0,0-4.17.83L33.22,3,40.59.25c1.07,3.9,2,7.21,2.89,10.53,3.45,12.57,11.43,20.26,24.31,23C73.92,35,79,33.19,83.45,29.27c7.28-6.36,11.41-14.56,13.83-23.79,1.45-5.53,2.86-6,8.18-3.61.9.41,1.76,1,2.69,1.3C111.26,4.28,113.64,5.71,115,7.83Z"/><path d="M33.22,3l1,2.79c-5.42,1.78-8.31,5.93-10,11.59-2.49,8.26-5.15,16.48-8.14,24.56S10.36,58.22,4.36,64.83c-.85.94-.73,3-.61,4.55.1,1.28.22,2.56.35,3.84l-2.88,0c-.19-1.67-.44-3.34-.78-5a7.06,7.06,0,0,1,2.77-7.46c1.71-1.34,2.84-3.72,3.65-5.85,4.51-11.8,8.85-23.66,13.23-35.51,1.44-3.9,2.78-7.83,4.26-11.71a3.42,3.42,0,0,1,1.49-1.89C28.27,4.85,30.71,3.93,33.22,3Z"/><path d="M6.22,109.63c1.35,16.87,3.06,33.71,4.61,50.49l-2.8.26c-.35-3.62-.67-7.19-1.28-10.71-3.14-18.07-4-36.37-4.91-54.62-.34-7.26.16-14.54-.62-21.8l2.88,0c.4,3.84.89,7.67,1.11,11.52C5.67,93,5.56,101.36,6.22,109.63Z"/></svg>