<svg id="레이어_1" data-name="레이어 1" xmlns="http://www.w3.org/2000/svg" viewBox="0 0 141.61 179.94"><defs><style>.cls-1{fill:#5b4833;}</style></defs><title>vest</title><path class="cls-1" d="M107.53,6.36c3.13.7,5,2.58,4.77,6.43-.82,17.8,3.32,35,7.47,52.09a47.8,47.8,0,0,0,4.64,11.33c2,3.66,4.28,7.23,6.42,10.75s2.76,7.1,3.26,10.77c.91,6.73,1.33,13.54,1.78,20.33.81,12.45,1.33,24.91,2.29,37.34.35,4.5-1.56,6.93-5.46,8.22-4.09,1.35-8.32,2.32-12.36,3.81A134.35,134.35,0,0,1,83,175.23c-.63.05-1.27,0-2.36,0-.51-5.56-1.22-11-1.45-16.38-.5-12.13-.58-24.27-1.18-36.39-.43-9-1.47-17.88-2.12-26.83-.4-5.46-.11-11-1-16.39-1-6.38,1-11.91,2.84-17.79C83.44,43.42,88.27,25.13,90,6.18c0-.64.21-1.26.49-2.83C96.48,4.38,102.06,5.15,107.53,6.36Z"/><path d="M77,169.83c-.19-3.61-.38-7.21-.58-10.82l2.78-.15c.23,5.42.94,10.82,1.45,16.38,1.09,0,1.73,0,2.36,0a134.35,134.35,0,0,0,37.38-7.8c4-1.49,8.27-2.46,12.36-3.81,3.9-1.29,5.81-3.72,5.46-8.22-1-12.43-1.48-24.89-2.29-37.34-.45-6.79-.87-13.6-1.78-20.33-.5-3.67-1.13-7.28-3.26-10.77s-4.42-7.09-6.42-10.75L127,74.7a33.52,33.52,0,0,0,2.26,3.45c7.24,9.63,9,20.32,9.51,31.79.64,15.63,1.77,31.24,2.61,46.86.12,2.29-.2,4.61-.33,7.34-5.15,1.78-10.18,3.38-15.12,5.24a171.45,171.45,0,0,1-47.22,10c-2.58.2-5.19.29-7.8.26l0-3c2,0,4-.28,6-.38C77,173.79,77.05,171.8,77,169.83Z"/><path d="M120.56,53.36c1.28,7.42,2.76,14.91,6.4,21.34l-2.55,1.51a47.8,47.8,0,0,1-4.64-11.33c-4.15-17-8.29-34.29-7.47-52.09.18-3.85-1.64-5.73-4.77-6.43-5.47-1.21-11-2-17.06-3L90.53.48c7.56.16,15,.83,22,4.42,2.44,1.26,3.55,2.79,3.31,5.9C114.72,25.26,118.12,39.26,120.56,53.36Z"/><path class="cls-1" d="M70.36,69.37a7.59,7.59,0,0,1,.76,2.84q1.92,30.14,3.75,60.28.8,13.26,1.5,26.52c.2,3.61.39,7.21.58,10.82.1,2,0,4,0,6.49-2.09.1-4.09.38-6,.38q-.72,0-1.44-.06a299.71,299.71,0,0,1-46.23-7.29c-2.89-.7-5.94-.7-8.9-1.14-4.9-.74-5.82-1.73-6.17-6.77-.38-5.48-.56-11-1-16.45-.73-9.45-1.67-18.88-2.35-28.32-.43-6-.13-12-.93-17.94s0-10.48,3.41-15.2c.37-.52.78-1,1.22-1.56,5.91-7,7.92-16.09,8.43-25.15.72-12.77,1-25.58,1.09-38.38,0-3.48.86-5.63,4.31-6.76,7.07-2.32,14.06-4.89,21.12-7.27a14.57,14.57,0,0,1,3.24-.47C52,20.88,56.77,37.1,62.18,53.1,64.11,58.79,67.63,63.94,70.36,69.37Z"/><path d="M69.47,176.64q.72.06,1.44.06l0,3a147.24,147.24,0,0,1-18.07-1.32c-10.21-1.3-20.27-3.76-30.41-5.64-3.27-.61-6.62-.8-9.86-1.5-5.91-1.27-7.14-2.64-7.56-8.68C3.32,139.12,1.7,115.71.27,92.29.13,90,.66,87,2.1,85.42a41.1,41.1,0,0,0,2.77-3.36l2.45,1.47c-3.41,4.72-4.18,9.41-3.41,15.2s.5,12,.93,17.94c.68,9.44,1.62,18.87,2.35,28.32.42,5.47.6,11,1,16.45.35,5,1.27,6,6.17,6.77,3,.44,6,.44,8.9,1.14A299.71,299.71,0,0,0,69.47,176.64Z"/><path d="M75.85,95.64c.65,9,1.69,17.87,2.12,26.83.6,12.12.68,24.26,1.18,36.39l-2.78.15q-.7-13.26-1.5-26.52-1.8-30.15-3.75-60.28a7.59,7.59,0,0,0-.76-2.84c-2.73-5.43-6.25-10.58-8.18-16.27C56.77,37.1,52,20.88,46.73,3.94a14.57,14.57,0,0,0-3.24.47c-7.06,2.38-14,4.95-21.12,7.27-3.45,1.13-4.27,3.28-4.31,6.76-.13,12.8-.37,25.61-1.09,38.38C16.46,65.88,14.45,75,8.54,82c-.44.52-.85,1-1.22,1.56L4.87,82.06c6-8,8.4-17.38,9-27.29C14.64,42,14.63,29.15,15,16.35c0-1.64,0-3.28,0-4.88C25,6.8,34.51,2,45.25.52c4.64-.63,5-.5,6,4.1A297.54,297.54,0,0,0,64.65,49a161.16,161.16,0,0,0,7.66,16.23C79.8,44.33,85.34,23.08,87,1.38c.76-.56,1-.93,1.29-.93l2.28,0-.06,2.87C90.19,4.92,90,5.54,90,6.18c-1.71,19-6.54,37.24-12.25,55.28-1.86,5.88-3.84,11.41-2.84,17.79C75.74,84.63,75.45,90.18,75.85,95.64Z"/></svg>