<svg id="레이어_1" data-name="레이어 1" xmlns="http://www.w3.org/2000/svg" viewBox="0 0 248.08 687.87"><defs><style>.cls-1{fill:#706464;}.cls-2{fill:#feefea;}.cls-3{fill:#ff8c8a;}</style></defs><title>대지 1</title><path class="cls-1" d="M196.5,653.66c5.18,2.61,6.05,7.11,5.91,12.14-.14,4.65-2.76,7.32-6.86,9.44-11.28,5.81-22.38,3.28-33.27-.55-2.66-.93-4.91-4.4-6.31-7.22-1.65-3.34-2.16-7.23-3.36-11.61C167.57,650.06,181.69,646.2,196.5,653.66Zm-9.7,18.61c2.6-.33,6.12.7,7.81-3.38l-27.88-1.41a11.88,11.88,0,0,0-2.92,0c-.51.1-.91.79-1.37,1.22C165.93,671.94,176.54,673.61,186.8,672.27Z"/><path class="cls-1" d="M122.49,656.47c1.33,12.1-3.55,19.22-14.55,21.45-8.64,1.76-17.37,3.05-26.06,4.52a21.28,21.28,0,0,1-3,.26c-7.55.25-10.78-3.54-9.4-10.89,1.62-8.63,7.84-13.52,15.33-15.47,10.22-2.65,20.87-4.51,31.57-1.87C118.46,655,120.44,655.79,122.49,656.47Zm-10.56,13.87c.74-.28,1.09-1.6,1.92-2.91-1.59-.41-2.13-.74-2.51-.62-10.61,3.51-21.27,6.63-32.6,6.68-.87,0-1.75,1.21-2.62,1.86l.57,1.06C89,678.16,100.55,674.58,111.93,670.34Z"/><path class="cls-2" d="M60.3,170.22c-8.44,3-15.12,1.34-21.11-2.25-6.55-3.93-9.24-10.6-8.5-18,1.07-10.83,8.78-15.72,18.91-18.75C50.33,145.06,49.32,158.88,60.3,170.22Z"/><path class="cls-2" d="M237.59,380.89c2,10.85,6.62,21.36,5.27,32.72a15.32,15.32,0,0,1-2.42,6.82c-2.35,3.34-9.52,4.16-12-1.43-3.17-7.15-6.93-14-10.13-21.18-1.27-2.83-1.69-6-2.57-9.06-.75-2.54-1.49-5.08-2.42-7.55-2.51-6.69-5.2-13.31-7.66-20-7.16-19.52-14-39.16-21.52-58.54-2.07-5.32-5.93-10-9.19-14.79-1.63-2.4-4.11-3.22-7.77-1.79.13,1.92.17,4,.43,6,1.47,11.71,3.5,23.37,4.4,35.11,2,25.71,2.93,51.47,8.47,76.84C183,415.67,184,427.71,185,439.64c1.87,21.87,3.64,43.77,4.75,65.7,1.64,32.41,2.71,64.85,3.94,97.28.52,13.8.83,27.6,1.2,41.41a27.58,27.58,0,0,1-.41,3.63,64.3,64.3,0,0,0-42.2,4.3c-.36-3.8-.89-6.74-.88-9.68.2-36.35-4-72.43-6.93-108.59-.89-10.93-2.77-21.78-4.24-32.65-2.32-17.16-4.61-34.31-7.09-51.45A96.45,96.45,0,0,0,130.24,437c-.46-1.59-1.72-2.94-2.59-4.37-3.59.93-4.34,3.31-4.64,5.82-.6,5-1.25,9.92-1.47,14.9-.93,21.28-1.86,42.57-2.45,63.86-.21,7.46.59,15,.86,22.44.54,15,1.13,29.9,1.52,44.86.56,21.27,1,42.54,1.42,63.82a13,13,0,0,1-.23,2.21c-8.16-.13-16-.66-23.89-.26s-15.58,1.17-22.83,6c-.2-1.95-.39-3.2-.45-4.46-.52-10.64-.67-21.3-1.57-31.91-2.76-32.72-2.43-65.5-2.4-98.28,0-31.61.18-63.23.68-94.83.4-26,1.35-51.9,2.16-77.85.16-5,1-9.93,1.21-14.91.39-11.46.43-22.94.89-34.39.11-2.74,1.47-5.41,1.94-8.17.21-1.27-.36-2.67-.57-4-1.37.27-3.27.07-4,.9a39.51,39.51,0,0,0-6,8.52,220.41,220.41,0,0,0-9.77,22.37c-5.93,17-11.62,34-16.85,51.21-3.53,11.57-6,23.46-9.16,35.14a31.71,31.71,0,0,1-12.1,17.28c-6.23,4.62-13.37,1.28-14.51-6.41-1.29-8.67,2.41-16.27,5.56-24,.86-2.11,2-4.15,2.54-6.35,3.64-16.41,6.49-33,10.85-49.23,5.1-19,11.25-37.64,17.39-56.3a79.36,79.36,0,0,1,13.89-25.58C61,248.4,66.4,242,73.17,237a111.67,111.67,0,0,1,17.81-11c7-3.36,13-8.8,21.2-9.77.87-.1,2.18-2.6,2.07-3.87a135.33,135.33,0,0,0-2.33-15.77c-.69-3.14-3.24-4.67-6.48-5.45-5.81-1.39-11.8-2.59-17.16-5.06-6.29-2.91-12.69-6.3-17.81-10.87C59.56,165.51,54.15,153.08,54.84,138c.36-8,3.64-14.29,8.17-20.44,9.7-13.16,22.63-23,34.75-33.59,7-6.12,13.79-12.57,22.65-16.2a10.76,10.76,0,0,1,8.1-.24c17.54,5.75,29.54,18.2,39.86,32.63,4.35,6.09,8.38,12.43,12.19,18.87,2.21,3.75,5.28,7.67,1.75,12,1.85,2.93,3.7,2,5.54,1.1,7.63-3.68,12.72-2.06,15.94,5.48a32.48,32.48,0,0,1,2.51,9.61c.71,7.66-1.58,14.08-8.63,18.27-6.79,4-13.7,7-21.7,3.87-2.61-1-4.43-.16-6.11,1.87-8.61,10.41-20.17,16-32.82,19.65-2.76.79-4.18,2.11-3.82,4.84.73,5.44,1.5,10.89,2.66,16.25.27,1.27,2,2.53,3.33,3.22,8.88,4.56,18,8.61,26.73,13.51a91.54,91.54,0,0,1,39,42.86c10.09,22.33,17.28,45.76,23.21,69.54C231.47,354.31,235.11,367.5,237.59,380.89ZM145.66,119.53c.9,0,1.78-1,2.75-1.61-1.76-4.43-5.43-3.36-8.21-3.36-4,0-8.52-.6-11.56,3,.09.7.18,1.39.26,2.09C134.49,119.6,140.07,119.67,145.66,119.53Zm.78,23.65c.32-4.37-2-7.4-5.84-7.72s-6.53,2.14-6.92,6.17a7.2,7.2,0,0,0,6.6,7.8C143.79,149.65,146.14,147.26,146.44,143.18Zm-24.55,31.36c3.43-1.3,6.06-6.88,5.23-11l-1.24-1-5.44,6.22-6.55-6.18c-2.58,3.09-1.28,5,.11,6.54a64.51,64.51,0,0,0,6.49,5.73C120.72,175,121.43,174.71,121.89,174.54Zm-18.6-31c.22-4.1-2.16-7.16-5.71-7.35-4.41-.25-9.13,3.67-9.48,7.85-.3,3.68,2.6,6.55,6.91,6.83A7.55,7.55,0,0,0,103.29,143.56ZM99.77,120c.66-.06,1.24-.91,1.88-1.42-.93-4.18-4.17-3.61-6.75-3.32-4.8.52-10.17,0-13.42,4.54.17.59.34,1.19.52,1.78C87.92,121.07,93.86,120.61,99.77,120Z"/><path class="cls-1" d="M107.19,197.49q1,6.28,2.24,13.54c-20.79,10.48-41.94,19.79-56.51,38.67-9.12-3.72-15.76-14.83-15.2-25.07a99.6,99.6,0,0,1,2-15.8,59.78,59.78,0,0,0-1.12-31,39.68,39.68,0,0,1-.75-3.94c1.65.34,2.87.49,4,.84,6,1.79,11.93,2.8,18.17,1.32a5.34,5.34,0,0,1,4.1.69c12,10.25,25.63,17.15,41.31,19.74C105.87,196.53,106.27,196.94,107.19,197.49Z"/><path class="cls-1" d="M227.9,103.68c.93,6.93-.18,14.26-1.2,21.3-3.43,23.53-7.26,47-10.89,70.52-1.55,10.06.92,19.88,1.91,29.79.46,4.64,1.14,9.28,1.18,13.92.08,9.83-4.71,15.92-14.79,19.1-.84-1-1.88-2-2.72-3.2a112.45,112.45,0,0,0-49.88-39.39c-1.38-.56-2.71-1.28-4-2-7.76-4-9.84-8.16-8.61-17.48,12.71-5.5,25.74-10.7,35.16-22,10.77,3.07,20-.09,28.64-6.41a20,20,0,0,0,7.4-10.35c2.62-8.14,1.35-16-2.53-23.19-3.7-6.81-9.44-11.33-17.33-9.36-7.4-11.29-13.78-22-21.15-32C159.66,80.21,148.19,69.57,132.92,64c-5.11-1.85-10.51-3.1-15.77,0-3.16,1.84-6.69,3.22-9.45,5.53-12,10-24,20.13-35.53,30.63a93.87,93.87,0,0,0-20.52,26.92c-6.62-1.44-11.75,2.59-17.66,6a23.28,23.28,0,0,1-.9-4.27c.11-22.88,1.44-45.55,9.6-67.33,4.42-11.81,12.53-20.71,21.42-29C71.51,25.55,79,18.72,88.05,13.79c6.24-3.41,12.51-5.87,19.82-5.92,4.58,0,9.13-1.88,13.74-2.13a73.07,73.07,0,0,1,16.27.58c11,1.9,21.81,4.36,32.15,8.89a97.4,97.4,0,0,1,35.18,25.51c8.22,9.43,12.72,20.14,15.66,31.84C223.47,82.88,226.49,93.18,227.9,103.68Z"/><path d="M246.89,400.43a65,65,0,0,1,.82,15.4c-.38,7.53-6.85,12.65-14.37,12.11-3.79-.27-6.81-1.78-8.42-5.29-5.79-12.67-13.53-24.5-16-38.6-.64-3.67-3.09-7-4.33-10.58-5.85-17-11.44-34.08-17.39-51-2.32-6.58-5.27-12.94-8.12-19.32a40.93,40.93,0,0,0-3.67-5.61l-1.14.4c.18,2.22.34,4.44.53,6.66,1.11,13.44,2.48,26.85,3.28,40.3a405.1,405.1,0,0,0,6.71,55.95c2.51,12.53,3.66,25.35,5.09,38.08,2.88,25.65,4.44,51.38,5.16,77.19.58,20.95,2,41.89,2.72,62.84.62,17,.88,33.94,1.3,50.9.11,4.16.24,8.32.36,12.48s1,7.67,4.22,11.14c7.57,8.13,3.71,21.52-6.18,26.33-12.72,6.19-25.05,3.69-37.31-.52-5.56-1.9-8.56-7.1-9.69-12.59-1.79-8.77-3.73-17.69-3.92-26.58-.6-28.48-3.17-56.8-5.11-85.19-2.32-34-8.71-67.33-12.51-101.05a14.88,14.88,0,0,0-1.65-5.5,25,25,0,0,0-.74,3.86c-1.27,33.24-4.72,66.46-.63,99.74.45,3.61,0,7.31.08,11,0,6,.16,12,.2,17.94,0,6.81-.09,13.62.08,20.43.48,19.62,1.32,39.24,1.52,58.87.12,12.22-6.58,20-18.57,22.49-8.8,1.8-17.69,3.17-26.56,4.62a27.49,27.49,0,0,1-6.47.29c-7.89-.62-12.68-5.89-11.7-13.67.5-4,2.51-7.83,3.7-11.78,1-3.28,2.59-6.65,2.46-9.92-.52-13.46-1.78-26.88-2.43-40.34-.62-12.79-.89-25.61-1.15-38.41Q66.38,540,66,506.53c-.08-6.48.43-13,.53-19.46.33-21.63.45-43.27.91-64.89.52-24,1.26-47.91,2-71.86.21-6.47,1.14-12.92,1.41-19.4.36-8.3.4-16.61.53-24.92a4.13,4.13,0,0,0-1.26-3c-1.6,3.19-3.62,6.25-4.73,9.61-7.62,23.07-15.22,46.15-22.46,69.35-2.55,8.16-3.84,16.7-6.14,24.95A35.83,35.83,0,0,1,22.25,427.2c-9.29,6.31-20.07,1.15-21.59-10-.49-3.55-.78-7.65.5-10.83,9.07-22.56,11.89-46.69,18.32-69.88C25.7,314,33.34,292,40.76,269.89c1.82-5.41,5.2-10.3,7.75-15.2-3.2-3.47-6.62-6.65-9.4-10.3-6.76-8.87-7.12-19.09-5.5-29.58.48-3.13,1.07-6.24,1.72-9.33a50.14,50.14,0,0,0-1.09-25.19c-1.91-6.31-3.05-12.78-6.32-18.78-4.26-7.8-2.55-15.85,1.28-22.43-.4-5.53-1-9.64-.93-13.73.36-17.82,1.57-35.51,5.8-53C38.4,54.44,47.92,40,61.64,28.26,69.19,21.78,77.18,15.78,85.31,10a30.59,30.59,0,0,1,19.15-6c4.67.16,9.43-1.61,14.1-2.72,7.64-1.81,15-1.08,22.69.62,10.42,2.31,20.76,4.59,30.64,8.8,14.49,6.16,27,14.74,37.12,27,7.05,8.53,12.44,17.51,15,28.31,2.41,10,5.67,19.84,8,29.87,2.26,9.54,1.24,19.19-.28,28.79-3.71,23.33-7.34,46.68-11.05,70-1.68,10.58,1,20.88,1.94,31.28.39,4.15,1,8.28,1.09,12.43.3,10.29-4.05,17.94-13.37,22.62a25.69,25.69,0,0,0-3.2,2.24c3.33,8.5,6.76,16.61,9.7,24.89,9.32,26.21,17.43,52.76,22.75,80.13C241.75,379.09,244.81,389.67,246.89,400.43Zm-4,13.18c1.35-11.36-3.25-21.87-5.27-32.72-2.48-13.39-6.12-26.58-9.41-39.81-5.93-23.78-13.12-47.21-23.21-69.54a91.54,91.54,0,0,0-39-42.86c-8.68-4.9-17.85-9-26.73-13.51-1.34-.69-3.06-1.95-3.33-3.22-1.16-5.36-1.93-10.81-2.66-16.25-.36-2.73,1.06-4,3.82-4.84,12.65-3.64,24.21-9.24,32.82-19.65,1.68-2,3.5-2.88,6.11-1.87,8,3.13,14.91.16,21.7-3.87,7.05-4.19,9.34-10.61,8.63-18.27a32.48,32.48,0,0,0-2.51-9.61c-3.22-7.54-8.31-9.16-15.94-5.48-1.84.88-3.69,1.83-5.54-1.1,3.53-4.29.46-8.21-1.75-12-3.81-6.44-7.84-12.78-12.19-18.87-10.32-14.43-22.32-26.88-39.86-32.63a10.76,10.76,0,0,0-8.1.24c-8.86,3.63-15.66,10.08-22.65,16.2C85.64,94.62,72.71,104.42,63,117.58,58.48,123.73,55.2,130,54.84,138c-.69,15.06,4.72,27.49,15.63,37.24,5.12,4.57,11.52,8,17.81,10.87,5.36,2.47,11.35,3.67,17.16,5.06,3.24.78,5.79,2.31,6.48,5.45a135.33,135.33,0,0,1,2.33,15.77c.11,1.27-1.2,3.77-2.07,3.87-8.16,1-14.21,6.41-21.2,9.77a111.67,111.67,0,0,0-17.81,11C66.4,242,61,248.4,55.66,255.06a79.36,79.36,0,0,0-13.89,25.58C35.63,299.3,29.48,318,24.38,336.94c-4.36,16.21-7.21,32.82-10.85,49.23-.49,2.2-1.68,4.24-2.54,6.35-3.15,7.69-6.85,15.29-5.56,24,1.14,7.69,8.28,11,14.51,6.41A31.71,31.71,0,0,0,32,405.61c3.16-11.68,5.63-23.57,9.16-35.14,5.23-17.19,10.92-34.25,16.85-51.21a220.41,220.41,0,0,1,9.77-22.37,39.51,39.51,0,0,1,6-8.52c.72-.83,2.62-.63,4-.9.21,1.34.78,2.74.57,4-.47,2.76-1.83,5.43-1.94,8.17C76,311.1,76,322.58,75.57,334c-.17,5-1,9.93-1.21,14.91-.81,25.95-1.76,51.89-2.16,77.85-.5,31.6-.66,63.22-.68,94.83,0,32.78-.36,65.56,2.4,98.28.9,10.61,1,21.27,1.57,31.91.06,1.26.25,2.51.45,4.46,7.25-4.85,15.08-5.63,22.83-6s15.73.13,23.89.26a13,13,0,0,0,.23-2.21c-.45-21.28-.86-42.55-1.42-63.82-.39-15-1-29.91-1.52-44.86-.27-7.48-1.07-15-.86-22.44.59-21.29,1.52-42.58,2.45-63.86.22-5,.87-9.94,1.47-14.9.3-2.51,1-4.89,4.64-5.82.87,1.43,2.13,2.78,2.59,4.37a96.45,96.45,0,0,1,2.94,12.61c2.48,17.14,4.77,34.29,7.09,51.45,1.47,10.87,3.35,21.72,4.24,32.65,2.93,36.16,7.13,72.24,6.93,108.59,0,2.94.52,5.88.88,9.68a64.3,64.3,0,0,1,42.2-4.3,27.58,27.58,0,0,0,.41-3.63c-.37-13.81-.68-27.61-1.2-41.41-1.23-32.43-2.3-64.87-3.94-97.28-1.11-21.93-2.88-43.83-4.75-65.7-1-11.93-2-24-4.56-35.62-5.54-25.37-6.52-51.13-8.47-76.84-.9-11.74-2.93-23.4-4.4-35.11-.26-2-.3-4.07-.43-6,3.66-1.43,6.14-.61,7.77,1.79,3.26,4.81,7.12,9.47,9.19,14.79,7.51,19.38,14.36,39,21.52,58.54,2.46,6.7,5.15,13.32,7.66,20,.93,2.47,1.67,5,2.42,7.55.88,3,1.3,6.23,2.57,9.06,3.2,7.14,7,14,10.13,21.18,2.48,5.59,9.65,4.77,12,1.43A15.32,15.32,0,0,0,242.86,413.61ZM226.7,125c1-7,2.13-14.37,1.2-21.3-1.41-10.5-4.43-20.8-7-31.12-2.94-11.7-7.44-22.41-15.66-31.84A97.4,97.4,0,0,0,170,15.21c-10.34-4.53-21.18-7-32.15-8.89a73.07,73.07,0,0,0-16.27-.58C117,6,112.45,7.83,107.87,7.87c-7.31,0-13.58,2.51-19.82,5.92-9,4.93-16.54,11.76-23.94,18.69-8.89,8.33-17,17.23-21.42,29C34.53,83.3,33.2,106,33.09,128.85a23.28,23.28,0,0,0,.9,4.27c5.91-3.44,11-7.47,17.66-6a93.87,93.87,0,0,1,20.52-26.92c11.58-10.5,23.54-20.59,35.53-30.63,2.76-2.31,6.29-3.69,9.45-5.53,5.26-3.07,10.66-1.82,15.77,0,15.27,5.53,26.74,16.17,36.13,28.92,7.37,10,13.75,20.74,21.15,32,7.89-2,13.63,2.55,17.33,9.36,3.88,7.16,5.15,15.05,2.53,23.19a20,20,0,0,1-7.4,10.35c-8.6,6.32-17.87,9.48-28.64,6.41-9.42,11.28-22.45,16.48-35.16,22-1.23,9.32.85,13.5,8.61,17.48,1.33.68,2.66,1.4,4,2a112.45,112.45,0,0,1,49.88,39.39c.84,1.18,1.88,2.22,2.72,3.2,10.08-3.18,14.87-9.27,14.79-19.1,0-4.64-.72-9.28-1.18-13.92-1-9.91-3.46-19.73-1.91-29.79C219.44,172,223.27,148.51,226.7,125ZM202.41,665.8c.14-5-.73-9.53-5.91-12.14-14.81-7.46-28.93-3.6-43.89,2.2,1.2,4.38,1.71,8.27,3.36,11.61,1.4,2.82,3.65,6.29,6.31,7.22,10.89,3.83,22,6.36,33.27.55C199.65,673.12,202.27,670.45,202.41,665.8Zm-94.47,12.12c11-2.23,15.88-9.35,14.55-21.45-2-.68-4-1.5-6.09-2-10.7-2.64-21.35-.78-31.57,1.87-7.49,1.95-13.71,6.84-15.33,15.47-1.38,7.35,1.85,11.14,9.4,10.89a21.28,21.28,0,0,0,3-.26C90.57,681,99.3,679.68,107.94,677.92ZM109.43,211q-1.2-7.26-2.24-13.54c-.92-.55-1.32-1-1.77-1-15.68-2.59-29.27-9.49-41.31-19.74A5.34,5.34,0,0,0,60,176c-6.24,1.48-12.21.47-18.17-1.32-1.17-.35-2.39-.5-4-.84a39.68,39.68,0,0,0,.75,3.94,59.78,59.78,0,0,1,1.12,31,99.6,99.6,0,0,0-2,15.8c-.56,10.24,6.08,21.35,15.2,25.07C67.49,230.82,88.64,221.51,109.43,211ZM39.19,168c6,3.59,12.67,5.29,21.11,2.25-11-11.34-10-25.16-10.7-39-10.13,3-17.84,7.92-18.91,18.75C30,157.37,32.64,164,39.19,168Z"/><path d="M194.61,668.89c-1.69,4.08-5.21,3.05-7.81,3.38-10.26,1.34-20.87-.33-24.36-3.56.46-.43.86-1.12,1.37-1.22a11.88,11.88,0,0,1,2.92,0Z"/><path d="M148.41,117.92c-1,.59-1.85,1.59-2.75,1.61-5.59.14-11.17.07-16.76.07-.08-.7-.17-1.39-.26-2.09,3-3.55,7.53-2.94,11.56-3C143,114.56,146.65,113.49,148.41,117.92Z"/><path d="M140.6,135.46c3.86.32,6.16,3.35,5.84,7.72-.3,4.08-2.65,6.47-6.16,6.25a7.2,7.2,0,0,1-6.6-7.8C134.07,137.6,136.83,135.14,140.6,135.46Z"/><path d="M127.12,163.5c.83,4.16-1.8,9.74-5.23,11-.46.17-1.17.48-1.4.29A64.51,64.51,0,0,1,114,169.1c-1.39-1.51-2.69-3.45-.11-6.54l6.55,6.18,5.44-6.22Z"/><path d="M113.85,667.43c-.83,1.31-1.18,2.63-1.92,2.91-11.38,4.24-22.89,7.82-35.24,6.07l-.57-1.06c.87-.65,1.75-1.86,2.62-1.86,11.33,0,22-3.17,32.6-6.68C111.72,666.69,112.26,667,113.85,667.43Z"/><path d="M97.58,136.21c3.55.19,5.93,3.25,5.71,7.35A7.55,7.55,0,0,1,95,150.89c-4.31-.28-7.21-3.15-6.91-6.83C88.45,139.88,93.17,136,97.58,136.21Z"/><path d="M101.65,118.58c-.64.51-1.22,1.36-1.88,1.42-5.91.61-11.85,1.07-17.77,1.58-.18-.59-.35-1.19-.52-1.78,3.25-4.57,8.62-4,13.42-4.54C97.48,115,100.72,114.4,101.65,118.58Z"/><polygon class="cls-3" points="59.49 161.17 64.77 158.27 72.17 155.46 79.83 154.44 86.22 155.46 90.56 157.81 93.62 161.17 95.7 164.91 97.45 168.7 98.73 173.87 98.73 177.93 97.7 183.04 95.7 186.87 93.52 188.13 90.54 187.07 87.32 185.67 84.34 184.23 81.2 182.59 78.28 180.92 75.55 179.18 71.77 176.36 68.71 173.6 64.83 169.38 61.98 165.49 59.49 161.17"/><polygon class="cls-3" points="173.03 169 174.98 161.76 175.66 154.44 174.35 147.97 171.41 143.55 167.15 141 163.07 141 158.76 142 155.82 143.72 154.03 145.79 152.02 148.63 151.19 151.7 150.81 155.59 150.81 159.74 151.58 164.27 153.02 168.7 155.41 172.4 157.88 174.88 160.43 177.34 162.3 178.63 173.03 169"/></svg>