<svg id="레이어_1" data-name="레이어 1" xmlns="http://www.w3.org/2000/svg" viewBox="0 0 248.73 246.76"><defs><style>.cls-1{fill:#feefea;}.cls-2{fill:#f1b6b5;}.cls-3{fill:#2e2d2d;}.cls-4{fill:#6f5f60;}.cls-5{fill:#fc7167;}</style></defs><title>man_photo</title><path class="cls-1" d="M48.59,127.41l2.13-.28c-1.61,14.34-.84,28.18,8.75,39.72-.54.82-.66,1.24-.9,1.33-9,3.18-21.62-1.93-25.56-10.28-4.61-9.76-1.63-19.64,7.58-25.5C43.24,130.71,46.27,129.63,48.59,127.41Z"/><path class="cls-1" d="M154.84,180.59c-6.44,2.35-11.68,7.52-19.05,7.78-2.17.07-2.79,2.3-2.52,4.24.77,5.61,1.67,11.2,2.59,16.79.35,2.1,2.12,2.65,3.83,3.47,8.27,3.95,16.63,7.73,24.61,12.2,21.5,12.05,36.28,30,44.81,53,11.07,29.86,20.58,60.18,26.55,91.54,2,10.23,4.58,20.32,6.82,30.5a43.91,43.91,0,0,1,.56,11.95c-.25,4.48-2.8,7.53-6.65,8.24s-5.72-.49-8-5.08q-4-8.06-7.93-16.15c-2.2-4.5-4.21-9.06-4.48-14.19a7.72,7.72,0,0,0-.81-3.38c-6-10.37-8.45-22-12.36-33.16-4-11.46-7.94-23-11.95-34.43a111.18,111.18,0,0,0-14.21-27.38c-2.1-3-4.62-4.63-8.3-4.21-2.09,2.07-1.39,4.47-.82,6.66,3.21,12.49,3.92,25.29,4.73,38.08,1.59,25.24,3.21,50.42,8.39,75.33,3.21,15.43,3.91,31.35,5.67,47.06,3,27.37,3.11,54.83,4.27,82.27,1,22.61,2.58,45.2,3.07,67.85.33,16,.88,31.93,1.28,47.9.05,2.06,1,3.25,2.58,4.48,8.16,6.4,6.51,16.7-2.68,21.15-11,5.32-21.49,2.59-32-.77-4.29-1.37-6-5.51-7.32-9.56a86.85,86.85,0,0,1-3.75-26.62,682,682,0,0,0-3.58-69.31c-2.7-26.63-4-53.4-9.1-79.83-2.63-13.65-3.67-27.69-5.55-41.55a65.85,65.85,0,0,0-3.25-12.54c-.56-1.61-1.36-3.11-3.49-3s-2.79,1.81-3.2,3.37c-1.41,5.34-1.68,10.85-2,16.33-.4,6.31-.64,12.63-.92,18.94-.88,20.29-2.38,40.57-1.2,60.9.29,5,.45,10,1.1,15a89.25,89.25,0,0,1,.16,21.42,8.94,8.94,0,0,0-.09,2c1.58,13.72-.39,27.55,1.45,41.29.81,6.07.42,12.31.31,18.47-.18,10.17,1.1,20.29.63,30.46-.43,9.16-5,15.11-13.89,17.07-9.09,2-18.44,2.61-27.51,4.83a14.84,14.84,0,0,1-5,.16c-5-.53-7.43-3.45-7-8.44a17.59,17.59,0,0,1,4.18-10.5,9.38,9.38,0,0,0,2.4-7.31c-.81-15.78-1.08-31.59-2.93-47.32-1.3-11.09-.6-22.29-.88-33.44q-.87-34.71-1.08-69.43c-.07-9.15,1.12-18.32.78-27.44-.37-10-.29-20,0-29.95.59-18.48.58-37,1.6-55.43.75-13.66,1-27.29.88-40.94,0-7.18,1.51-14.2,1.79-21.38.37-9.49-.35-19,.29-28.46.26-3.86.33-7.63,2.22-11.12a3.87,3.87,0,0,0-.08-4.33c-3.4-1.75-5.28.65-6.9,2.93-5.13,7.23-9.58,15-12.13,23.41C55,327,48.65,342.36,43.89,358.31,40.05,371.2,35.47,384,33,397.14a42.22,42.22,0,0,1-9.95,20.67c-4.61,5.33-10.23,5.81-14.75,1.61-1.88-1.75-2.38-3.94-2.63-6.29C4.79,405,8,397.68,11.17,390.61a36.3,36.3,0,0,0,3.05-8.25A603.63,603.63,0,0,1,36.29,296.8c2-6,3.66-12.12,5.58-18.15,7.86-24.74,24.43-42,46.87-54,5-2.68,10.18-5,15-7.91,2-1.2,4.16-2.39,6.51-2.41,4.3,0,5-2.41,4.42-5.94-.72-4.6-1.17-9.25-2.1-13.81a7.2,7.2,0,0,0-5.95-6c-4.51-1-9.16-1.35-13.47-3.17.52-3.77,2.35-7.27,2.23-11.17-.37-12.31-3.83-23.25-14.3-30.8-5.82-4.19-12.32-5.54-19.31-3.21-2.23.74-3.47,3.16-5.93,3.5-1.49-5.15-.55-10.35.41-15.34,1.5-7.83,3.83-15.51,5.75-23.27a3.51,3.51,0,0,1,2.9-3,32.8,32.8,0,0,0,10.53-4c10.33,6.26,16.37,8.45,28.83.79.31.07.71.05.93.23,8.36,7.08,16.75,6.84,25.52.56a10.66,10.66,0,0,1,11.81-.74,25.38,25.38,0,0,0,5.06,2.1c5.73,1.6,7.9,1,15.45-4,3.36,3.63,7.8,5.16,12.94,4.81a80.27,80.27,0,0,0,6.17,10.45c2.24,3.25,4.72,6.42,6,10.12-.89,1.85-2.64,2.23-4,3.16s-2.31,2.08-1.39,3.77,2.41,1.52,3.91.9a7.25,7.25,0,0,0,1.28-.77c7.63-5.33,12.05-.91,15.77,5.19a22.17,22.17,0,0,1,2.74,10c.5,7.76-1.87,14.07-9,18.1-6.64,3.76-13.29,7.14-21.11,3.41a42.61,42.61,0,0,0,1-13.82c-.54-6.69-4.65-11-10.51-13.3-5.2-2-9.86-.13-14.22,3.26-8.39,6.55-8,27.24-.82,33.78A8.56,8.56,0,0,1,154.84,180.59ZM149.09,115c.2-2.52-1.88-3.25-4-3.47a36.2,36.2,0,0,0-13.79.82c-1.8.51-3.69,1.31-3.17,3.65.46,2.09,2.44,2,4.08,1.86,3.12-.28,6.19-1.13,9.37-.79l2.95.35C146.63,117.62,148.87,117.64,149.09,115Zm-2.15,24.8c0-4.26-2.58-7.16-6.51-7.22s-6.66,2.94-6.69,7.09a7.45,7.45,0,0,0,7.3,7.29C144.63,146.88,146.91,144.12,146.94,139.75Zm-25.37,32.59c4.06-.85,7.5-8.32,5.62-12.41-4.2-.55-3.73,4-6.25,5.75-2.36-.77-2.89-2.93-4.2-4.35-1-1.05-2.13-1.74-3.5-.8a2.5,2.5,0,0,0-.7,3.53,25.24,25.24,0,0,0,6.21,7.68A3.19,3.19,0,0,0,121.57,172.34ZM96.23,148.42a7.86,7.86,0,0,0,7.54-8.26c-.06-4.14-2.6-6.9-6.3-6.84-4.23.06-9.42,4.94-9.34,8.77C88.2,145.77,91.81,148.59,96.23,148.42Zm5.77-33c.19-2.68-2.23-3-4.2-3.15a36.29,36.29,0,0,0-13.61,2.13c-1.55.51-3.24,1.45-2.61,3.56s2.53,1.69,4.14,1.3c3.36-.8,6.67-1.94,10.2-1.78.5,0,1,.07,1.48.12C99.38,117.74,101.79,118.25,102,115.38Z"/><path class="cls-2" d="M177.4,152.37a42.61,42.61,0,0,1-1,13.82c-3.12-.79-5.29.46-7.12,3-3.72,5.15-8.94,8.48-14.44,11.42a8.56,8.56,0,0,0-3-4.48c-7.21-6.54-7.57-27.23.82-33.78,4.36-3.39,9-5.31,14.22-3.26C172.75,141.38,176.86,145.68,177.4,152.37Z"/><path class="cls-3" d="M140.43,132.53c3.93.06,6.54,3,6.51,7.22s-2.31,7.13-5.9,7.16a7.45,7.45,0,0,1-7.3-7.29C133.77,135.47,136.6,132.47,140.43,132.53Z"/><path d="M130.92,115.71c4.15-3.73,13.54-3.65,16,.68C141.18,114.57,136.08,115.81,130.92,115.71Z"/><path d="M130.92,115.71c5.16.1,10.26-1.14,16,.68C144.46,112.06,135.07,112,130.92,115.71Zm-2.78.24c-.52-2.34,1.37-3.14,3.17-3.65a36.2,36.2,0,0,1,13.79-.82c2.11.22,4.19,1,4,3.47-.22,2.69-2.46,2.67-4.55,2.42l-2.95-.35c-3.18-.34-6.25.51-9.37.79C130.58,118,128.6,118,128.14,116Z"/><path class="cls-3" d="M127.19,159.93c1.88,4.09-1.56,11.56-5.62,12.41a3.19,3.19,0,0,1-2.82-.6,25.24,25.24,0,0,1-6.21-7.68,2.5,2.5,0,0,1,.7-3.53c1.37-.94,2.53-.25,3.5.8,1.31,1.42,1.84,3.58,4.2,4.35C123.46,164,123,159.38,127.19,159.93Z"/><path class="cls-4" d="M50.72,127.13l-2.13.28c-1-4.54-1.61-4.88-5.49-3-2.36,1.15-4.63,2.48-6.83,3.67-2.57-1.39-2.41-4-2.57-5.86-1-12.06-3.11-24.1-2.19-36.23.63-8.21,4.54-15.56,8-22.88a82.18,82.18,0,0,1,4.56-8.8,261.89,261.89,0,0,1,16-23.15c6.78-8.47,16.5-13.67,26-17.94,8.43-3.78,17.89-5.86,27.3-7,1.91-.24,3.63.54,5.36,1,3,.8,5.78,1.86,8.75-1.3,1.34,5.64,5.09,6.34,9.25,6.18,16-.6,29.66,6.22,43.2,13.4,3.46,1.83,5.33,5.48,7.64,8.46,3.65,4.71,7.48,9.28,11.31,13.84,6,7.1,8.17,15.61,8.46,24.47a160.76,160.76,0,0,0,2.79,27.14c1.56,7.59,1.48,15.46-1.54,22.94-.56,1.37-.75,2.9-2.59,4.08-2.71-2.42-6.34-3.21-9.93-4.13a5.72,5.72,0,0,1-4-3.5c-1.61-5.23-5.27-9.15-8.07-13.61a18.28,18.28,0,0,1-2.24-5.52c-.66-2.87-2.4-3.9-5.06-3.52-4,.58-6.92-.69-9.73-3.63-3.25-3.4-5.23-3-8.81.45-4.07,4-6.36,4.49-11.52,1.82-7.37-3.82-14.11-3.56-21,1.49-5.77,4.25-9.8,3.77-15.4-.62-5.77-4.53-5.77-4.53-11.45-.33s-12.39,3.81-17.79-.94c-4.51-4-4.89-3.94-9.78-.52-4.56,3.18-10,3.26-15.4,4-.52-.42-1.18-.91-1.8-1.45-1.76-1.5-3.7-2-5.14.1s-.17,3.92,1.63,5.08a50.66,50.66,0,0,0,5.69,2.75Q53.49,115.72,50.72,127.13Z"/><path class="cls-3" d="M103.77,140.16a7.86,7.86,0,0,1-7.54,8.26c-4.42.17-8-2.65-8.1-6.33-.08-3.83,5.11-8.71,9.34-8.77C101.17,133.26,103.71,136,103.77,140.16Z"/><path class="cls-3" d="M97.8,112.23c2,.14,4.39.47,4.2,3.15-.21,2.87-2.62,2.36-4.6,2.18-.49,0-1-.08-1.48-.12-3.53-.16-6.84,1-10.2,1.78-1.61.39-3.47.94-4.14-1.3s1.06-3,2.61-3.56A36.29,36.29,0,0,1,97.8,112.23Z"/><path class="cls-2" d="M95.41,174.23c.12,3.9-1.71,7.4-2.23,11.17-8.71-3.14-17-7.45-23.45-13.91-7.51-7.52-13.88-16.21-13.86-27.77,2.46-.34,3.7-2.76,5.93-3.5,7-2.33,13.49-1,19.31,3.21C91.58,151,95,161.92,95.41,174.23Z"/><path class="cls-3" d="M127.13,5.66c8,.51,15.39-.13,22.7,1.36,11.69,2.37,22.42,7.25,32.8,13,3.12,1.71,5.34,4.5,7.58,7.15,4.18,4.93,7.66,10.39,12.18,15.11,7.21,7.52,10,17.19,10.85,27.26,1,12.07,1.83,24.14,3.74,36.14,1.43,9-1.9,17.41-5.38,25.55a10.69,10.69,0,0,0-.56,8.12,24,24,0,0,1-3.4,21.86c-4,5.7-10.24,8.84-16.85,10.79-4.31,1.27-8.8,2-13.27.56a4.11,4.11,0,0,0-4.86,1.43c-8,9.25-19,13.79-29.86,18.37-2.75,1.15-4,2.57-3.58,5.59.68,5.63,2,10,8.23,12.74,10.48,4.54,21.12,9.18,30.21,16.31,16.23,12.74,28.84,28.23,36,47.88,6.46,17.64,12.79,35.33,17.63,53.47,3.39,12.66,7.09,25.26,9.17,38.27,1.12,7,3.26,13.91,5.1,20.81a85.6,85.6,0,0,1,2.82,25.19c-.35,10.18-10.16,16.29-19.5,12.22a8.61,8.61,0,0,1-4.24-4.67c-4.88-10.34-10.69-20.28-14.11-31.25-7.1-22.81-15.67-45.12-23-67.86a124,124,0,0,0-8.14-19.28c-.66-1.29-1-2.88-2.84-2.92-1.49.67-1.36,1.9-1.21,3,2.86,21.29,2.83,42.8,5,64.15,1.33,13.07,4.09,25.9,6.16,38.85,2.2,13.76,4.36,27.58,4.71,41.58.18,7.32,2,14.45,2.35,21.8.78,16.62,1.64,33.23,1.94,49.88.21,12.3,1.13,24.58,1.77,36.87q1.95,37.15,2.22,74.36c0,5.14.55,10.29.74,15.43a5.59,5.59,0,0,0,2.29,4.17c9.64,8.52,6.46,23.88-5.11,29.2-12.64,5.81-24.63,3.22-36.78-.56-6-1.88-8.47-7.18-10.3-12.64a79.06,79.06,0,0,1-3.7-21.06c-.54-10.3-.46-20.64-.91-30.94-.86-19.78-2-39.54-4.6-59.18a167.4,167.4,0,0,1-1.26-18.38c-.33-14.75-3.77-29-5.65-43.49q-1.84-14.08-3.69-28.17c-.17-1.28-.06-2.73-1.67-3.38-2.8.05-2.34,2.31-2.44,4-.49,8-1,15.95-1.28,23.93-.31,7.81-.7,15.62-.77,23.44-.13,14,1.27,27.91,2.49,41.82a17.87,17.87,0,0,1,0,3.43c-.79,7.47-1.22,14.93.09,22.4a16.22,16.22,0,0,1,.11,5.47c-1.62,9.36.61,18.55.87,27.81q.69,24.43.24,48.9c-.14,8.67-7,16.29-15.69,18.54a61,61,0,0,1-11.77,2.1c-7,.44-13.67,2.8-20.62,3.54a12.19,12.19,0,0,1-4,.11c-12-2.56-12.81-7.21-11.36-18.54a8.86,8.86,0,0,1,1.48-4.2c6.35-8.12,4-17.42,3.87-26.43-.31-15.47-2.65-30.78-2.83-46.29-.24-21-.82-42-.89-62.94a195.51,195.51,0,0,0-.67-20.95c-.8-7.31.83-14.59.77-21.93-.13-16.49-.17-33,.27-49.48.6-22.28,1.72-44.56,2.55-66.84.17-4.66.1-9.33,0-14C69.26,344,70.58,334,71.33,323.86c.48-6.42-1.39-12.68,0-18.88-2.88-.63-3.51.88-4.08,2.24-1.14,2.76-2.31,5.52-3.19,8.38C57.12,338.14,47.72,359.93,42.67,383c-1.61,7.4-3.76,14.7-5.71,21.93-2.69,9.93-8.27,19-19.37,22.23-7.82,2.26-16-3.47-17-11.58a37.25,37.25,0,0,1,1.5-16.26c3.76-12,9.13-23.57,10.92-36.18C17.27,333,28.7,304.8,37.27,275.83c6-20.19,18.56-35.73,35.63-47.79,10.1-7.13,21.32-12.26,32.32-17.73,2.73-1.36,3.92-2.88,3.52-5.71-.45-3.12-1-6.22-1.55-9.35-2.45-2.16-5.59-2.22-8.44-2.78-12.6-2.51-23.17-8.91-32.9-16.9a7.3,7.3,0,0,0-6.61-1.83c-8.74,1.31-17.5.59-24.63-5.31-9.57-7.94-11.77-19.75-6-31.13,1.59-3.13,2-5.77.61-8.9-1.87-4.36-1.87-9.11-2.38-13.71-.69-6.11-.57-12.31-1.22-18.42C24.05,81.17,30.2,68.36,37,55.61c4.45-8.39,10.44-15.75,15.19-24C57.2,22.92,66,18.16,74.32,12.86,86,5.39,99.16,2.7,112.45.52,118.25-.44,123.71,1.09,127.13,5.66ZM55.87,143.72c0,11.56,6.35,20.25,13.86,27.77,6.45,6.46,14.74,10.77,23.45,13.91,4.31,1.82,9,2.21,13.47,3.17a7.2,7.2,0,0,1,5.95,6c.93,4.56,1.38,9.21,2.1,13.81.55,3.53-.12,5.89-4.42,5.94-2.35,0-4.52,1.21-6.51,2.41-4.85,2.93-10,5.23-15,7.91-22.44,12.07-39,29.3-46.87,54-1.92,6-3.55,12.16-5.58,18.15a603.63,603.63,0,0,0-22.07,85.56,36.3,36.3,0,0,1-3.05,8.25C8,397.68,4.79,405,5.67,413.13c.25,2.35.75,4.54,2.63,6.29,4.52,4.2,10.14,3.72,14.75-1.61a42.22,42.22,0,0,0,10-20.67c2.47-13.16,7-25.94,10.89-38.83C48.65,342.36,55,327,59.84,311c2.55-8.43,7-16.18,12.13-23.41,1.62-2.28,3.5-4.68,6.9-2.93A3.87,3.87,0,0,1,79,289c-1.89,3.49-2,7.26-2.22,11.12-.64,9.49.08,19-.29,28.46-.28,7.18-1.82,14.2-1.79,21.38.07,13.65-.13,27.28-.88,40.94-1,18.45-1,36.95-1.6,55.43-.32,10-.4,19.95,0,29.95.34,9.12-.85,18.29-.78,27.44q.24,34.73,1.08,69.43c.28,11.15-.42,22.35.88,33.44,1.85,15.73,2.12,31.54,2.93,47.32a9.38,9.38,0,0,1-2.4,7.31,17.59,17.59,0,0,0-4.18,10.5c-.46,5,2,7.91,7,8.44a14.84,14.84,0,0,0,5-.16c9.07-2.22,18.42-2.81,27.51-4.83,8.84-2,13.46-7.91,13.89-17.07.47-10.17-.81-20.29-.63-30.46.11-6.16.5-12.4-.31-18.47-1.84-13.74.13-27.57-1.45-41.29a8.94,8.94,0,0,1,.09-2,89.25,89.25,0,0,0-.16-21.42c-.65-5-.81-10-1.1-15-1.18-20.33.32-40.61,1.2-60.9.28-6.31.52-12.63.92-18.94.34-5.48.61-11,2-16.33.41-1.56,1.1-3.23,3.2-3.37s2.93,1.37,3.49,3a65.85,65.85,0,0,1,3.25,12.54c1.88,13.86,2.92,27.9,5.55,41.55,5.1,26.43,6.4,53.2,9.1,79.83a682,682,0,0,1,3.58,69.31,86.85,86.85,0,0,0,3.75,26.62c1.29,4.05,3,8.19,7.32,9.56,10.52,3.36,21,6.09,32,.77,9.19-4.45,10.84-14.75,2.68-21.15-1.58-1.23-2.53-2.42-2.58-4.48-.4-16-.95-31.94-1.28-47.9-.49-22.65-2.12-45.24-3.07-67.85-1.16-27.44-1.22-54.9-4.27-82.27-1.76-15.71-2.46-31.63-5.67-47.06-5.18-24.91-6.8-50.09-8.39-75.33-.81-12.79-1.52-25.59-4.73-38.08-.57-2.19-1.27-4.59.82-6.66,3.68-.42,6.2,1.22,8.3,4.21a111.18,111.18,0,0,1,14.21,27.38c4,11.47,7.92,23,11.95,34.43,3.91,11.13,6.39,22.79,12.36,33.16a7.72,7.72,0,0,1,.81,3.38c.27,5.13,2.28,9.69,4.48,14.19q3.94,8.09,7.93,16.15c2.27,4.59,4.18,5.79,8,5.08s6.4-3.76,6.65-8.24a43.91,43.91,0,0,0-.56-11.95c-2.24-10.18-4.87-20.27-6.82-30.5-6-31.36-15.48-61.68-26.55-91.54-8.53-23-23.31-41-44.81-53-8-4.47-16.34-8.25-24.61-12.2-1.71-.82-3.48-1.37-3.83-3.47-.92-5.59-1.82-11.18-2.59-16.79-.27-1.94.35-4.17,2.52-4.24,7.37-.26,12.61-5.43,19.05-7.78,5.5-2.94,10.72-6.27,14.44-11.42,1.83-2.52,4-3.77,7.12-3,7.82,3.73,14.47.35,21.11-3.41,7.11-4,9.48-10.34,9-18.1a22.17,22.17,0,0,0-2.74-10c-3.72-6.1-8.14-10.52-15.77-5.19a7.25,7.25,0,0,1-1.28.77c-1.5.62-3,.77-3.91-.9s.06-2.85,1.39-3.77,3.09-1.31,4-3.16c-1.27-3.7-3.75-6.87-6-10.12A80.27,80.27,0,0,1,176,101.82c-5.14.35-9.58-1.18-12.94-4.81-7.55,5-9.72,5.62-15.45,4a25.38,25.38,0,0,1-5.06-2.1,10.66,10.66,0,0,0-11.81.74c-8.77,6.28-17.16,6.52-25.52-.56-.22-.18-.62-.16-.93-.23-12.46,7.66-18.5,5.47-28.83-.79a32.8,32.8,0,0,1-10.53,4,3.51,3.51,0,0,0-2.9,3c-1.92,7.76-4.25,15.44-5.75,23.27C55.32,133.37,54.38,138.57,55.87,143.72Zm-19.6-15.64c2.2-1.19,4.47-2.52,6.83-3.67,3.88-1.88,4.45-1.54,5.49,3-2.32,2.22-5.35,3.3-8,5-9.21,5.86-12.19,15.74-7.58,25.5,3.94,8.35,16.61,13.46,25.56,10.28.24-.09.36-.51.9-1.33-9.59-11.54-10.36-25.38-8.75-39.72q2.78-11.4,5.54-22.81a50.66,50.66,0,0,1-5.69-2.75c-1.8-1.16-3-3-1.63-5.08s3.38-1.6,5.14-.1c.62.54,1.28,1,1.8,1.45,5.44-.74,10.84-.82,15.4-4,4.89-3.42,5.27-3.43,9.78.52,5.4,4.75,12.15,5.1,17.79.94s5.68-4.2,11.45.33c5.6,4.39,9.63,4.87,15.4.62,6.84-5,13.58-5.31,21-1.49,5.16,2.67,7.45,2.15,11.52-1.82,3.58-3.49,5.56-3.85,8.81-.45,2.81,2.94,5.77,4.21,9.73,3.63,2.66-.38,4.4.65,5.06,3.52a18.28,18.28,0,0,0,2.24,5.52c2.8,4.46,6.46,8.38,8.07,13.61a5.72,5.72,0,0,0,4,3.5c3.59.92,7.22,1.71,9.93,4.13,1.84-1.18,2-2.71,2.59-4.08,3-7.48,3.1-15.35,1.54-22.94a160.76,160.76,0,0,1-2.79-27.14c-.29-8.86-2.49-17.37-8.46-24.47-3.83-4.56-7.66-9.13-11.31-13.84-2.31-3-4.18-6.63-7.64-8.46-13.54-7.18-27.23-14-43.2-13.4-4.16.16-7.91-.54-9.25-6.18-3,3.16-5.8,2.1-8.75,1.3-1.73-.46-3.45-1.24-5.36-1-9.41,1.17-18.87,3.25-27.3,7-9.53,4.27-19.25,9.47-26,17.94a261.89,261.89,0,0,0-16,23.15,82.18,82.18,0,0,0-4.56,8.8c-3.5,7.32-7.41,14.67-8,22.88-.92,12.13,1.16,24.17,2.19,36.23C33.86,124.08,33.7,126.69,36.27,128.08Z"/><path class="cls-5" d="M116.49,222.58a10.92,10.92,0,0,1-2.94.61c-4.29-.29-8.59-.69-12.87-1.13-4-.42-5.76-3.68-7.46-6.64-.48-.83.23-3,1.11-3.84,3.89-3.5,8.34-5.9,14.92-5.43C106.71,214,109.47,219.1,116.49,222.58Z"/><path class="cls-5" d="M158.36,210c.4,2.42-1.19,6-3.13,7.83-6.07,5.6-13.69,6.34-21.95,5.31,7.08-4.3,11.31-9.6,7-19.24,5.23.43,8.82.16,12,1.17C154.72,205.88,158,208.06,158.36,210Z"/><path class="cls-5" d="M218.9,278.42c1.53,2.88,2.73,5.94,4.4,9.64l-30.64,12.28c-2.23-9-4.34-17.5-6.45-26l-1.6-.07c-.5,1-1.52,2-1.41,3,.58,5.09,1,10.27,2.27,15.18a230.58,230.58,0,0,1,7.6,75.64c-.3,4.38-3,5.87-6.57,7-16.19,5.29-32.58,9.84-49.63,11-24.1,1.65-47.33-3.08-70.9-10.26-.65-6.51-1.47-12.43-1.81-18.38-1.07-18.44-2.07-36.88-2.86-55.33-.28-6.64.23-13.3.18-20a10.28,10.28,0,0,0-1.8-5.19c-3.92,3.44-2.17,7.82-2.59,11.62-.44,4.08-.1,8.25-.1,12.93l-28.9-11.22a47.31,47.31,0,0,1,1.83-5.32c5.28-11.82,10.17-23.73,17.23-34.82,10.28-16.18,24.52-25.84,42.59-30.49,10.81,7.12,12.49,6.83,29.43,7.12-4,9.78-5.75,19.8-6.88,29.89l3,.45c2.82-10,2.35-21.06,8.91-30.62,4.62,6.55,6,13.58,7.46,20.48,1,4.71,1.21,9.58,1.91,14.35a6.27,6.27,0,0,0,2.31,3.92c1.69-6.6.42-13-.86-19.32s-3.36-12.41-5.22-19c12.07,1.85,22.47-1.7,31.94-10.29,4.1,2.1,8.5,3.74,12.19,6.38,5.8,4.15,11.16,8.94,16.66,13.53,7.67,6.4,13.13,14.53,18,23.14Q213.84,268.95,218.9,278.42ZM182,365.89c-.74-12.88-1.5-26-2.28-39.64-33.31-9-66.2-5.61-99.73-.53-.26,2.09-.46,3.36-.58,4.64-1.16,13,.34,25.87,2.34,38.72.5,3.2,1.66,4.83,4.76,5.26,7.89,1.09,15.74,2.74,23.66,3.2a218.6,218.6,0,0,0,30.39.13A111,111,0,0,0,182,365.89Z"/><path d="M161.75,216.56c-9.47,8.59-19.87,12.19-31.94,10.29,1.86,6.62,3.94,12.74,5.22,19s2.55,12.72.86,19.32a6.27,6.27,0,0,1-2.31-3.92c-.7-4.77-.92-9.64-1.91-14.35-1.47-6.9-2.84-13.93-7.46-20.48-6.56,9.59-6.12,20.64-8.91,30.65l-3-.45c1.12-10.09,2.84-20.11,6.87-29.87-16.94-.27-18.62,0-29.43-7.1-18.07,4.63-32.31,14.29-42.59,30.47-7,11.09-11.95,23-17.25,34.82a47.1,47.1,0,0,0-1.81,5.32L57,301.48c0-4.68-.34-8.85.1-12.93.41-3.82-1.34-8.18,2.58-11.57a10.28,10.28,0,0,1,1.8,5.19c0,6.65-.46,13.31-.18,20,.78,18.45,1.79,36.89,2.86,55.32.34,5.95,1.16,11.87,1.81,18.38,23.57,7.18,46.8,11.91,70.9,10.26,17.05-1.18,33.44-5.73,49.63-11,3.54-1.15,6.27-2.64,6.57-7a230.58,230.58,0,0,0-7.6-75.64c-1.31-4.91-1.69-10.09-2.27-15.18-.11-.93.91-2,1.41-3l1.6.07c2.11,8.52,4.22,17,6.45,26l30.64-12.28c-1.67-3.7-2.87-6.76-4.4-9.64-3.36-6.32-6.85-12.57-10.34-18.81-4.83-8.61-10.29-16.74-18-23.14-5.5-4.59-10.86-9.38-16.66-13.53C170.25,220.3,165.85,218.66,161.75,216.56ZM137.62,209a52.28,52.28,0,0,1-.06-7.08c14.24-2.45,25-.14,25.53,10.25,23.88,10.6,40.94,27.94,52.17,51.33,3.3,6.88,7.36,13.39,10.92,20.15,2.6,4.94,2.1,6.25-3,8.33-10,4.1-20,8.1-30.59,12.37,4.52,24.11,7.3,48.25,3.53,72.72-11.51,3.1-22.45,6-33.33,9C141,392.14,119,392,97,387.63c-9.62-1.91-19.1-4.53-28.65-6.8-4.45-1.06-6.48-3.62-6.8-8.4-1.48-21.89-3.28-43.76-5.08-67.06L22.34,291.75c7.35-16.92,13.07-33.93,24.25-48,4.91-6.2,10.22-12.54,16.61-17s14.6-7,22-10.28c.91-.41,1.87-.69,2.75-1,3.62-9.61,14.66-14,23.62-13.08.36,2.07,1.21,4.33,1,6.51-.34,4.32,1.73,6.66,5.21,8.69,6.76,3.95,10.22,3.84,16.42-.89C136.88,214.69,138.09,212.35,137.62,209Zm2.7-5c4.27,9.64,0,14.94-7,19.24,8.26,1,15.88.29,22-5.31,1.94-1.79,3.53-5.41,3.13-7.83-.34-2-3.64-4.16-6-4.93-3.26-1-6.85-.77-12.08-1.2Zm-26.77,19.22a10.92,10.92,0,0,0,2.94-.61c-7-3.48-9.78-8.58-7.24-16.43-6.58-.47-11,1.93-14.92,5.43-.88.79-1.59,3-1.11,3.84,1.7,3,3.43,6.22,7.46,6.64C105,222.5,109.26,222.9,113.55,223.19Z"/></svg>