<svg width="116" height="46" viewBox="0 0 116 46" fill="none" xmlns="http://www.w3.org/2000/svg">
<path d="M82.8764 21.66V2.1H97.2284V5.94H87.2444V10.38H96.1244V14.172H87.2444V21.66H82.8764ZM101.65 0.803999C103.162 0.803999 104.266 1.908 104.266 3.42C104.266 4.932 103.162 6.036 101.65 6.036C100.138 6.036 99.0343 4.932 99.0343 3.42C99.0343 1.908 100.138 0.803999 101.65 0.803999ZM103.786 7.596V21.708H99.5143V7.596H103.786ZM115.607 7.596V11.268H112.823V21.66H108.551V11.268H105.767V7.596H108.551V3.42H112.823V7.596H115.607ZM22.9061 26.1H27.3701L21.7301 45.66H17.3141L13.8101 33.396L10.3061 45.66H5.89006L0.250063 26.1H4.93006L8.29006 38.892L11.6501 26.1H16.1861L19.5221 38.844L22.9061 26.1ZM34.3486 45.996C30.0526 45.996 27.0286 42.924 27.0286 38.628C27.0286 34.356 30.0526 31.26 34.3486 31.26C38.6446 31.26 41.6686 34.332 41.6686 38.628C41.6686 39.036 41.6446 39.492 41.5726 39.996H31.2766C31.6126 41.628 32.7406 42.564 34.3486 42.564C35.5726 42.564 36.5806 42.132 36.9406 41.46H41.2366C40.5166 44.148 37.7566 45.996 34.3486 45.996ZM31.2526 37.236H37.4926C37.1326 35.556 36.0286 34.644 34.3486 34.644C32.6686 34.644 31.6126 35.556 31.2526 37.236ZM50.2983 45.996C46.2663 45.996 43.4583 42.9 43.4583 38.628C43.4583 34.356 46.2663 31.26 50.2983 31.26C52.1463 31.26 53.4903 31.908 54.3303 33.036V31.596H58.6023V45.66H54.3303V44.22C53.4903 45.348 52.1463 45.996 50.2983 45.996ZM50.9703 42.348C53.0583 42.348 54.4023 40.788 54.4023 38.628C54.4023 36.468 53.0583 34.908 50.9703 34.908C48.9303 34.908 47.6343 36.468 47.6343 38.628C47.6343 40.788 48.9303 42.348 50.9703 42.348ZM70.4428 31.596V35.268H67.6588V45.66H63.3867V35.268H60.6028V31.596H63.3867V27.42H67.6588V31.596H70.4428ZM72.4439 45.66V25.5H76.7159V33.036C77.5559 31.908 78.8519 31.26 80.6519 31.26C83.9159 31.26 86.1479 33.636 86.1479 37.524V45.66H81.8759V38.244C81.8759 36.108 81.0119 34.932 79.4039 34.932C77.7239 34.932 76.7159 36.252 76.7159 38.436V45.66H72.4439ZM95.6377 45.996C91.3417 45.996 88.3177 42.924 88.3177 38.628C88.3177 34.356 91.3417 31.26 95.6377 31.26C99.9337 31.26 102.958 34.332 102.958 38.628C102.958 39.036 102.934 39.492 102.862 39.996H92.5657C92.9017 41.628 94.0297 42.564 95.6377 42.564C96.8617 42.564 97.8697 42.132 98.2297 41.46H102.526C101.806 44.148 99.0457 45.996 95.6377 45.996ZM92.5417 37.236H98.7817C98.4217 35.556 97.3177 34.644 95.6377 34.644C93.9577 34.644 92.9017 35.556 92.5417 37.236ZM105.467 45.66V31.596H109.739V33.036C110.579 31.908 111.875 31.26 113.675 31.26C114.467 31.26 114.971 31.308 115.523 31.5L115.571 35.508C114.971 35.196 114.227 35.028 113.387 35.028C111.107 35.028 109.739 36.324 109.739 38.46V45.66H105.467Z" fill="#376DD2"/>
</svg>
