<svg width="46" height="116" viewBox="0 0 46 116" fill="none" xmlns="http://www.w3.org/2000/svg">
<path d="M21.66 33.1236H2.1L2.1 18.7716H5.94L5.94 28.7556H10.38V19.8756H14.172V28.7556H21.66L21.66 33.1236ZM0.803999 14.3497C0.803999 12.8377 1.908 11.7337 3.42 11.7337C4.932 11.7337 6.036 12.8377 6.036 14.3497C6.036 15.8617 4.932 16.9657 3.42 16.9657C1.908 16.9657 0.803999 15.8617 0.803999 14.3497ZM7.596 12.2137H21.708V16.4857H7.596V12.2137ZM7.596 0.393187H11.268V3.17719H21.66V7.44919H11.268V10.2332H7.596L7.596 7.44919H3.42L3.42 3.17719H7.596V0.393187ZM26.1 93.0939V88.6299L45.66 94.2699V98.6859L33.396 102.19L45.66 105.694V110.11L26.1 115.75V111.07L38.892 107.71L26.1 104.35V99.8139L38.844 96.4779L26.1 93.0939ZM45.996 81.6514C45.996 85.9474 42.924 88.9714 38.628 88.9714C34.356 88.9714 31.26 85.9474 31.26 81.6514C31.26 77.3554 34.332 74.3314 38.628 74.3314C39.036 74.3314 39.492 74.3554 39.996 74.4274V84.7234C41.628 84.3874 42.564 83.2594 42.564 81.6514C42.564 80.4274 42.132 79.4194 41.46 79.0594V74.7634C44.148 75.4834 45.996 78.2434 45.996 81.6514ZM37.236 84.7474V78.5074C35.556 78.8674 34.644 79.9714 34.644 81.6514C34.644 83.3314 35.556 84.3874 37.236 84.7474ZM45.996 65.7017C45.996 69.7337 42.9 72.5417 38.628 72.5417C34.356 72.5417 31.26 69.7337 31.26 65.7017C31.26 63.8537 31.908 62.5097 33.036 61.6697H31.596V57.3977H45.66L45.66 61.6697H44.22C45.348 62.5097 45.996 63.8537 45.996 65.7017ZM42.348 65.0297C42.348 62.9417 40.788 61.5977 38.628 61.5977C36.468 61.5977 34.908 62.9417 34.908 65.0297C34.908 67.0697 36.468 68.3657 38.628 68.3657C40.788 68.3657 42.348 67.0697 42.348 65.0297ZM31.596 45.5572H35.268V48.3412H45.66V52.6133H35.268V55.3972H31.596V52.6133H27.42V48.3412H31.596V45.5572ZM45.66 43.5561H25.5V39.2841H33.036C31.908 38.4441 31.26 37.1481 31.26 35.3481C31.26 32.0841 33.636 29.8521 37.524 29.8521H45.66V34.1241H38.244C36.108 34.1241 34.932 34.9881 34.932 36.5961C34.932 38.2761 36.252 39.2841 38.436 39.2841H45.66V43.5561ZM45.996 20.3623C45.996 24.6583 42.924 27.6823 38.628 27.6823C34.356 27.6823 31.26 24.6583 31.26 20.3623C31.26 16.0663 34.332 13.0423 38.628 13.0423C39.036 13.0423 39.492 13.0663 39.996 13.1383V23.4343C41.628 23.0983 42.564 21.9703 42.564 20.3623C42.564 19.1383 42.132 18.1303 41.46 17.7703V13.4743C44.148 14.1943 45.996 16.9543 45.996 20.3623ZM37.236 23.4583V17.2183C35.556 17.5783 34.644 18.6823 34.644 20.3623C34.644 22.0423 35.556 23.0983 37.236 23.4583ZM45.66 10.5326H31.596V6.26062H33.036C31.908 5.42062 31.26 4.12462 31.26 2.32462C31.26 1.53262 31.308 1.02862 31.5 0.476624L35.508 0.428624C35.196 1.02862 35.028 1.77262 35.028 2.61262C35.028 4.89262 36.324 6.26062 38.46 6.26062H45.66V10.5326Z" fill="#376DD2"/>
</svg>
