<svg width="117" height="46" viewBox="0 0 117 46" fill="none" xmlns="http://www.w3.org/2000/svg">
<path d="M42.8022 21.66V2.1H57.1542V5.94H47.1702V10.38H56.0502V14.172H47.1702V21.66H42.8022ZM61.576 0.803999C63.088 0.803999 64.192 1.908 64.192 3.42C64.192 4.932 63.088 6.036 61.576 6.036C60.064 6.036 58.96 4.932 58.96 3.42C58.96 1.908 60.064 0.803999 61.576 0.803999ZM63.712 7.596V21.708H59.44V7.596H63.712ZM75.5326 7.596V11.268H72.7486V21.66H68.4766V11.268H65.6926V7.596H68.4766V3.42H72.7486V7.596H75.5326ZM23.449 26.1H27.913L22.273 45.66H17.857L14.353 33.396L10.849 45.66H6.43303L0.793031 26.1H5.47303L8.83303 38.892L12.193 26.1H16.729L20.065 38.844L23.449 26.1ZM34.8916 45.996C30.5956 45.996 27.5716 42.924 27.5716 38.628C27.5716 34.356 30.5956 31.26 34.8916 31.26C39.1876 31.26 42.2116 34.332 42.2116 38.628C42.2116 39.036 42.1876 39.492 42.1156 39.996H31.8196C32.1556 41.628 33.2836 42.564 34.8916 42.564C36.1156 42.564 37.1236 42.132 37.4836 41.46H41.7796C41.0596 44.148 38.2996 45.996 34.8916 45.996ZM31.7956 37.236H38.0356C37.6756 35.556 36.5716 34.644 34.8916 34.644C33.2116 34.644 32.1556 35.556 31.7956 37.236ZM50.8413 45.996C46.8093 45.996 44.0013 42.9 44.0013 38.628C44.0013 34.356 46.8093 31.26 50.8413 31.26C52.6893 31.26 54.0333 31.908 54.8733 33.036V31.596H59.1453V45.66H54.8733V44.22C54.0333 45.348 52.6893 45.996 50.8413 45.996ZM51.5133 42.348C53.6013 42.348 54.9453 40.788 54.9453 38.628C54.9453 36.468 53.6013 34.908 51.5133 34.908C49.4733 34.908 48.1773 36.468 48.1773 38.628C48.1773 40.788 49.4733 42.348 51.5133 42.348ZM70.9857 31.596V35.268H68.2017V45.66H63.9297V35.268H61.1457V31.596H63.9297V27.42H68.2017V31.596H70.9857ZM72.9869 45.66V25.5H77.2589V33.036C78.0989 31.908 79.3949 31.26 81.1949 31.26C84.4589 31.26 86.6909 33.636 86.6909 37.524V45.66H82.4189V38.244C82.4189 36.108 81.5549 34.932 79.9469 34.932C78.2669 34.932 77.2589 36.252 77.2589 38.436V45.66H72.9869ZM96.1807 45.996C91.8847 45.996 88.8607 42.924 88.8607 38.628C88.8607 34.356 91.8847 31.26 96.1807 31.26C100.477 31.26 103.501 34.332 103.501 38.628C103.501 39.036 103.477 39.492 103.405 39.996H93.1087C93.4447 41.628 94.5727 42.564 96.1807 42.564C97.4047 42.564 98.4127 42.132 98.7727 41.46H103.069C102.349 44.148 99.5887 45.996 96.1807 45.996ZM93.0847 37.236H99.3247C98.9647 35.556 97.8607 34.644 96.1807 34.644C94.5007 34.644 93.4447 35.556 93.0847 37.236ZM106.01 45.66V31.596H110.282V33.036C111.122 31.908 112.418 31.26 114.218 31.26C115.01 31.26 115.514 31.308 116.066 31.5L116.114 35.508C115.514 35.196 114.77 35.028 113.93 35.028C111.65 35.028 110.282 36.324 110.282 38.46V45.66H106.01Z" fill="#376DD2"/>
</svg>
