<svg width="116" height="46" viewBox="0 0 116 46" fill="none" xmlns="http://www.w3.org/2000/svg">
<path d="M1.728 21.66V2.1H16.08V5.94H6.096V10.38H14.976V14.172H6.096V21.66H1.728ZM20.5018 0.803999C22.0138 0.803999 23.1178 1.908 23.1178 3.42C23.1178 4.932 22.0138 6.036 20.5018 6.036C18.9898 6.036 17.8858 4.932 17.8858 3.42C17.8858 1.908 18.9898 0.803999 20.5018 0.803999ZM22.6378 7.596V21.708H18.3658V7.596H22.6378ZM34.4584 7.596V11.268H31.6744V21.66H27.4024V11.268H24.6184V7.596H27.4024V3.42H31.6744V7.596H34.4584ZM22.992 26.1H27.456L21.816 45.66H17.4L13.896 33.396L10.392 45.66H5.976L0.336 26.1H5.016L8.376 38.892L11.736 26.1H16.272L19.608 38.844L22.992 26.1ZM34.4346 45.996C30.1386 45.996 27.1146 42.924 27.1146 38.628C27.1146 34.356 30.1386 31.26 34.4346 31.26C38.7306 31.26 41.7546 34.332 41.7546 38.628C41.7546 39.036 41.7306 39.492 41.6586 39.996H31.3626C31.6986 41.628 32.8266 42.564 34.4346 42.564C35.6586 42.564 36.6666 42.132 37.0266 41.46H41.3226C40.6026 44.148 37.8426 45.996 34.4346 45.996ZM31.3386 37.236H37.5786C37.2186 35.556 36.1146 34.644 34.4346 34.644C32.7546 34.644 31.6986 35.556 31.3386 37.236ZM50.3843 45.996C46.3523 45.996 43.5443 42.9 43.5443 38.628C43.5443 34.356 46.3523 31.26 50.3843 31.26C52.2323 31.26 53.5763 31.908 54.4163 33.036V31.596H58.6883V45.66H54.4163V44.22C53.5763 45.348 52.2323 45.996 50.3843 45.996ZM51.0563 42.348C53.1443 42.348 54.4883 40.788 54.4883 38.628C54.4883 36.468 53.1443 34.908 51.0563 34.908C49.0163 34.908 47.7203 36.468 47.7203 38.628C47.7203 40.788 49.0163 42.348 51.0563 42.348ZM70.5287 31.596V35.268H67.7447V45.66H63.4727V35.268H60.6887V31.596H63.4727V27.42H67.7447V31.596H70.5287ZM72.5299 45.66V25.5H76.8019V33.036C77.6419 31.908 78.9379 31.26 80.7379 31.26C84.0019 31.26 86.2339 33.636 86.2339 37.524V45.66H81.9619V38.244C81.9619 36.108 81.0979 34.932 79.4899 34.932C77.8099 34.932 76.8019 36.252 76.8019 38.436V45.66H72.5299ZM95.7236 45.996C91.4276 45.996 88.4036 42.924 88.4036 38.628C88.4036 34.356 91.4276 31.26 95.7236 31.26C100.02 31.26 103.044 34.332 103.044 38.628C103.044 39.036 103.02 39.492 102.948 39.996H92.6516C92.9876 41.628 94.1156 42.564 95.7236 42.564C96.9476 42.564 97.9556 42.132 98.3156 41.46H102.612C101.892 44.148 99.1316 45.996 95.7236 45.996ZM92.6276 37.236H98.8676C98.5076 35.556 97.4036 34.644 95.7236 34.644C94.0436 34.644 92.9876 35.556 92.6276 37.236ZM105.553 45.66V31.596H109.825V33.036C110.665 31.908 111.961 31.26 113.761 31.26C114.553 31.26 115.057 31.308 115.609 31.5L115.657 35.508C115.057 35.196 114.313 35.028 113.473 35.028C111.193 35.028 109.825 36.324 109.825 38.46V45.66H105.553Z" fill="#376DD2"/>
</svg>
