<svg width="12" height="12" viewBox="0 0 12 12" fill="none" xmlns="http://www.w3.org/2000/svg">
<path fill-rule="evenodd" clip-rule="evenodd" d="M2.58381 2.96561C2.95774 2.56159 3.46482 2.33462 3.99356 2.33462C4.52229 2.33462 5.02937 2.56159 5.4033 2.96561L5.98754 3.59652L6.57177 2.96561C6.75571 2.75978 6.97574 2.59559 7.21901 2.48265C7.46228 2.3697 7.72393 2.31025 7.98869 2.30776C8.25345 2.30527 8.51602 2.3598 8.76107 2.46816C9.00612 2.57652 9.22876 2.73655 9.41598 2.9389C9.6032 3.14125 9.75126 3.38187 9.85152 3.64673C9.95177 3.91159 10.0022 4.19537 9.99992 4.48153C9.99762 4.76769 9.94262 5.05048 9.83811 5.31341C9.73361 5.57635 9.58171 5.81415 9.39126 6.01296L5.98754 9.69229L2.58381 6.01296C2.21 5.60881 2 5.06075 2 4.48929C2 3.91782 2.21 3.36976 2.58381 2.96561V2.96561Z" stroke="black" stroke-linejoin="round"/>
</svg>
