<svg width="24" height="24" viewBox="0 0 24 24" fill="none" xmlns="http://www.w3.org/2000/svg">
<path d="M5.64682 12.6392L2.51794 11.9089C2.42922 11.8878 2.34572 11.8489 2.27247 11.7945C2.19923 11.7402 2.13778 11.6716 2.09183 11.5928C2.04587 11.514 2.01639 11.4268 2.00514 11.3363C1.9939 11.2458 2.00114 11.1539 2.02642 11.0663L3.75938 5.22421C3.80108 5.06362 3.90124 4.92439 4.04025 4.8338L8.6128 2.48292C8.72352 2.41866 8.84997 2.38657 8.97793 2.39024H15.0194C15.1491 2.39102 15.2759 2.42904 15.3846 2.49978L19.9599 4.85066C20.0982 4.94202 20.1981 5.08093 20.2408 5.24106L21.9738 11.0831C21.999 11.171 22.0061 11.263 21.9947 11.3536C21.9833 11.4443 21.9536 11.5317 21.9073 11.6105C21.8611 11.6893 21.7993 11.7579 21.7258 11.8121C21.6522 11.8663 21.5684 11.9049 21.4794 11.9258L18.3365 12.656" stroke="white" stroke-width="2" stroke-miterlimit="10"/>
<path d="M5.64682 10.5354V18.9811C5.64587 19.5554 5.86479 20.1081 6.25862 20.526C6.65246 20.9439 7.19132 21.1951 7.76458 21.2281C9.11663 21.4758 10.4879 21.6036 11.8625 21.6101H12.1181C13.4932 21.597 14.8645 21.4626 16.2159 21.2084C16.7887 21.1747 17.3269 20.9232 17.7201 20.5054C18.1133 20.0876 18.3319 19.5352 18.3309 18.9615V10.5354" stroke="white" stroke-width="2" stroke-miterlimit="10" stroke-linecap="round"/>
<path d="M14.6122 2.39026C14.6237 2.74179 14.5644 3.09206 14.4378 3.42021C14.3112 3.74837 14.1199 4.04772 13.8753 4.30046C13.6307 4.5532 13.3378 4.75417 13.014 4.89143C12.6901 5.02868 12.342 5.0994 11.9903 5.0994C11.6386 5.0994 11.2904 5.02868 10.9666 4.89143C10.6427 4.75417 10.3498 4.5532 10.1052 4.30046C9.86061 4.04772 9.66932 3.74837 9.54274 3.42021C9.41616 3.09206 9.35686 2.74179 9.36836 2.39026" stroke="white" stroke-width="2" stroke-miterlimit="10"/>
</svg>
