<svg width="24" height="24" viewBox="0 0 24 24" fill="none" xmlns="http://www.w3.org/2000/svg">
<path d="M14.8282 5.96234V9.59094" stroke="black" stroke-width="2" stroke-miterlimit="10" stroke-linecap="round"/>
<path d="M5.97546 17.1657C6.75384 17.1657 7.50035 16.8565 8.05075 16.3061C8.60115 15.7557 8.91036 15.0092 8.91036 14.2308H15.111C15.111 15.0092 15.4202 15.7557 15.9706 16.3061C16.521 16.8565 17.2675 17.1657 18.0459 17.1657" stroke="black" stroke-width="2" stroke-linecap="round" stroke-linejoin="round"/>
<path d="M5.97546 11.7841V19.8071C5.97452 20.3521 6.18211 20.8768 6.55567 21.2737C6.92923 21.6706 7.44044 21.9095 7.98452 21.9415C9.26981 22.1767 10.5733 22.2982 11.8799 22.3044H12.1201C13.4267 22.2982 14.7302 22.1767 16.0155 21.9415V21.9415C16.5596 21.9095 17.0708 21.6706 17.4444 21.2737C17.8179 20.8768 18.0255 20.3521 18.0245 19.8071V11.7841" stroke="black" stroke-width="2" stroke-miterlimit="10" stroke-linecap="round"/>
<path d="M9.16916 5.96234V9.59094" stroke="black" stroke-width="2" stroke-miterlimit="10" stroke-linecap="round"/>
<path d="M5.97546 19.4895H3.17664C2.99837 19.4888 2.82684 19.4213 2.69594 19.3003C2.56504 19.1792 2.48427 19.0135 2.46959 18.8359L2 12.7553L3.72359 6.94419C3.76884 6.7864 3.86919 6.65008 4.00641 6.55999L6.83458 5.10321L12 7.00023L17.1654 5.11389L19.9936 6.57066C20.1315 6.66003 20.232 6.79664 20.2764 6.95486L22 12.766L21.5304 18.8465C21.5157 19.0242 21.435 19.1899 21.3041 19.3109C21.1732 19.432 21.0017 19.4995 20.8234 19.5002H18.0245" stroke="black" stroke-width="2" stroke-miterlimit="10" stroke-linecap="round"/>
<path d="M6.992 5.14592C6.992 5.14592 6.41569 1.96822 11.9973 2.00024C17.5816 1.96822 17.0027 5.14592 17.0027 5.14592" stroke="black" stroke-width="2" stroke-miterlimit="10" stroke-linecap="round"/>
</svg>
