<svg width="25" height="25" viewBox="0 0 25 25" fill="none" xmlns="http://www.w3.org/2000/svg">
<path d="M1.94346 21.9999C1.9434 22.5522 2.39106 23 2.94335 23C3.49563 23.0001 3.9434 22.5524 3.94346 22.0002L1.94346 21.9999ZM2.94386 18.3996L3.94386 18.3998L2.94386 18.3996ZM13.1435 15.8C13.6957 15.8 14.1435 15.3523 14.1435 14.8C14.1435 14.2478 13.6957 13.8 13.1435 13.8V15.8ZM22.1435 17C22.6957 17 23.1435 16.5523 23.1435 16C23.1435 15.4478 22.6957 15 22.1435 15V17ZM16.7435 15C16.1912 15 15.7435 15.4478 15.7435 16C15.7435 16.5523 16.1912 17 16.7435 17V15ZM18.4435 18.6999C18.4435 19.2522 18.8912 19.6999 19.4435 19.6999C19.9957 19.6999 20.4435 19.2522 20.4435 18.6999H18.4435ZM20.4435 13.2999C20.4435 12.7476 19.9957 12.2999 19.4435 12.2999C18.8912 12.2999 18.4435 12.7476 18.4435 13.2999H20.4435ZM13.9435 6.40005C13.9435 7.83599 12.7794 9.00005 11.3435 9.00005V11C13.884 11 15.9435 8.94056 15.9435 6.40005H13.9435ZM11.3435 9.00005C9.90752 9.00005 8.74346 7.83599 8.74346 6.40005H6.74346C6.74346 8.94056 8.80295 11 11.3435 11V9.00005ZM8.74346 6.40005C8.74346 4.96411 9.90752 3.80005 11.3435 3.80005V1.80005C8.80295 1.80005 6.74346 3.85954 6.74346 6.40005H8.74346ZM11.3435 3.80005C12.7794 3.80005 13.9435 4.96411 13.9435 6.40005H15.9435C15.9435 3.85954 13.884 1.80005 11.3435 1.80005V3.80005ZM3.94346 22.0002L3.94386 18.3998L1.94386 18.3995L1.94346 21.9999L3.94346 22.0002ZM6.54386 13.8C4.00356 13.8 1.94415 15.8592 1.94386 18.3995L3.94386 18.3998C3.94402 16.9639 5.10804 15.8 6.54386 15.8V13.8ZM6.54386 15.8H13.1435V13.8H6.54386V15.8ZM22.1435 15H19.4435V17H22.1435V15ZM19.4435 15H16.7435V17H19.4435V15ZM20.4435 18.6999V16H18.4435V18.6999H20.4435ZM20.4435 16V13.2999H18.4435V16H20.4435Z" fill="black"/>
</svg>
