<svg width="24" height="24" viewBox="0 0 24 24" fill="none" xmlns="http://www.w3.org/2000/svg">
<path fill-rule="evenodd" clip-rule="evenodd" d="M3.45953 5.04622C4.39434 4.12033 5.66206 3.6002 6.98389 3.6002C8.30572 3.6002 9.57343 4.12033 10.5082 5.04622L11.9688 6.49206L13.4294 5.04622C13.8893 4.57451 14.4393 4.19826 15.0475 3.93942C15.6557 3.68058 16.3098 3.54434 16.9717 3.53864C17.6336 3.53294 18.29 3.6579 18.9027 3.90623C19.5153 4.15456 20.0719 4.52128 20.5399 4.985C21.008 5.44872 21.3781 6.00015 21.6288 6.60711C21.8794 7.21408 22.0056 7.86442 21.9998 8.52019C21.9941 9.17597 21.8565 9.82404 21.5953 10.4266C21.334 11.0292 20.9543 11.5741 20.4782 12.0297L11.9688 20.4615L3.45953 12.0297C2.52499 11.1036 2 9.84757 2 8.53797C2 7.22837 2.52499 5.97238 3.45953 5.04622Z" stroke="#FC7167" stroke-width="1.5" stroke-linejoin="round"/>
</svg>
